<?xml version="1.0" encoding="UTF-8"?>
<svg version="1.1" xmlns="http://www.w3.org/2000/svg" width="512" height="512">
<path d="M0 0 C0.69996094 -0.02449219 1.39992188 -0.04898438 2.12109375 -0.07421875 C14.88744299 -0.14398022 24.81162554 8.10599438 34.875 15 C37.68724956 16.91308171 40.50311126 18.82078173 43.3203125 20.7265625 C44.01362167 21.19660202 44.70693085 21.66664154 45.42124939 22.15092468 C51.58249168 26.30787241 57.86444241 30.25352924 64.19018555 34.15405273 C67.6577355 36.299647 71.05076009 38.54149507 74.4375 40.8125 C75.09500244 41.25335938 75.75250488 41.69421875 76.42993164 42.1484375 C77.28639282 42.72464844 77.28639282 42.72464844 78.16015625 43.3125 C84.20184777 47.35784263 90.29121752 51.33089931 96.375 55.3125 C96.99676117 55.71951141 97.61852234 56.12652283 98.25912476 56.54586792 C101.47233071 58.64924758 104.6857924 60.75223601 107.89941406 62.85498047 C113.41837725 66.46644788 118.93494354 70.0815728 124.45159912 73.69656372 C127.46762579 75.67287239 130.48382179 77.6489226 133.5 79.625 C134.70833414 80.41666544 135.91666747 81.20833211 137.125 82 C137.723125 82.391875 138.32125 82.78375 138.9375 83.1875 C144.37500007 86.75000005 144.37500007 86.75000005 146.18754578 87.93753052 C147.39572588 88.72909644 148.60390662 89.52066138 149.81208801 90.31222534 C152.83527106 92.29292533 155.85844289 94.27364244 158.8815918 96.25439453 C164.88565797 100.18820269 170.8899051 104.12173414 176.89453125 108.0546875 C183.53570466 112.40463711 190.17605739 116.75583799 196.81604004 121.10760498 C198.82615813 122.42490922 200.8364111 123.74200747 202.84667969 125.05908203 C204.24935152 125.97818619 205.65202078 126.89729429 207.0546875 127.81640625 C207.74973892 128.27174744 208.44479034 128.72708862 209.16090393 129.19622803 C212.61793121 131.46168143 216.07305256 133.72994662 219.52416992 136.00439453 C220.84028261 136.87149429 222.15644375 137.73852052 223.47265625 138.60546875 C224.42155983 139.23053314 224.42155983 139.23053314 225.38963318 139.8682251 C229.08959815 142.30009961 232.81172941 144.69144736 236.55859375 147.05078125 C237.39108643 147.5826001 238.2235791 148.11441895 239.08129883 148.66235352 C240.5287354 149.58535431 241.98466024 150.49529675 243.4519043 151.38647461 C249.39187505 155.21031647 253.51028494 160.65585483 255.75 167.375 C256.3622835 175.27446087 256.92467254 182.93540751 251.75 189.375 C248.07898574 193.22655594 245.00800152 196.20906555 239.75 197.375 C239.76571045 198.01002441 239.7814209 198.64504883 239.79760742 199.29931641 C239.8602859 202.1994523 239.89909417 205.09944524 239.9375 208 C239.97520508 209.49853516 239.97520508 209.49853516 240.01367188 211.02734375 C240.084523 218.1596903 239.05796992 222.3882154 234.625 228.125 C231.75 230.375 231.75 230.375 222.75 232.375 C222.75 269.995 222.75 307.615 222.75 346.375 C229.02 346.375 235.29 346.375 241.75 346.375 C249.11139707 349.1355239 252.32636189 350.52772377 255.75 357.375 C255.85144249 359.05916409 255.88945362 360.7473105 255.89717102 362.43450928 C255.90790398 364.04114441 255.90790398 364.04114441 255.91885376 365.68023682 C255.92288712 367.45065338 255.92288712 367.45065338 255.92700195 369.25683594 C255.93685875 371.11550293 255.93685875 371.11550293 255.94691467 373.01171875 C255.96668579 377.12760659 255.9783188 381.24345541 255.98828125 385.359375 C255.99232872 386.77639028 255.99644564 388.19340535 256.00063133 389.61042023 C256.01968596 396.26860373 256.03391555 402.92677614 256.0422433 409.58498168 C256.05201262 417.26886052 256.07832269 424.95245106 256.11874419 432.63622832 C256.14891786 438.5760185 256.16371341 444.51572611 256.16702431 450.45559144 C256.16937373 454.00274837 256.17831909 457.5495974 256.20348549 461.09667206 C256.2311251 465.05640354 256.22693119 469.01575677 256.2199707 472.97558594 C256.23278076 474.14776672 256.24559082 475.31994751 256.25878906 476.52764893 C256.21859006 482.79367955 256.00292912 486.63678289 251.75 491.375 C247.35209094 495.44306588 244.12650716 496.49295031 238.2472229 496.51544189 C237.35008072 496.52115204 236.45293854 496.52686218 235.52861023 496.53274536 C234.55188858 496.53386322 233.57516693 496.53498108 232.56884766 496.53613281 C231.01698006 496.54358017 231.01698006 496.54358017 229.4337616 496.55117798 C226.01052181 496.56578575 222.58732834 496.57259886 219.1640625 496.578125 C216.78518675 496.58387701 214.40631102 496.58963474 212.0274353 496.59539795 C207.03912134 496.60590359 202.05082347 496.61174932 197.0625 496.61523438 C190.67115433 496.62072217 184.28002136 496.64475833 177.88874245 496.67320633 C172.97481667 496.69182943 168.06094219 496.69703811 163.1469841 496.69857025 C160.7906719 496.70159737 158.43436061 496.70962786 156.07808304 496.72275543 C152.78187097 496.73981077 149.4861797 496.73793683 146.18994141 496.73144531 C145.21726822 496.7406601 144.24459503 496.74987488 143.2424469 496.7593689 C137.98545339 496.72693913 134.27935872 496.34768142 129.75 493.375 C122.59813613 486.06059377 122.46216207 479.35448162 122.5546875 469.6328125 C122.55893234 467.94754959 122.55893234 467.94754959 122.56326294 466.22824097 C122.57442697 462.65205073 122.59952499 459.0761141 122.625 455.5 C122.63503467 453.07031613 122.64415967 450.64062831 122.65234375 448.2109375 C122.67264938 442.2654495 122.71180616 436.32050749 122.75 430.375 C112.19 430.375 101.63 430.375 90.75 430.375 C90.75 435.655 90.75 440.935 90.75 446.375 C87.78776042 446.53776042 84.82552083 446.70052083 81.86328125 446.86328125 C78.46148456 447.42242224 76.49398272 448.31089891 73.75 450.375 C72.05194415 453.48190409 72.05194415 453.48190409 72.75 457.375 C75.4290822 461.04336405 78.49162612 464.21825182 81.75 467.375 C80.41019143 470.34489969 78.92662402 472.46086748 76.64892578 474.7824707 C76.02132355 475.42606033 75.39372131 476.06964996 74.74710083 476.73274231 C74.07001068 477.41519516 73.39292053 478.09764801 72.6953125 478.80078125 C71.99735565 479.50776657 71.2993988 480.21475189 70.58029175 480.94316101 C69.10525956 482.43268135 67.62741612 483.9194223 66.14697266 485.40356445 C63.87805885 487.68442504 61.62846249 489.98326901 59.37890625 492.28320312 C57.94386009 493.72770763 56.50769951 495.17110605 55.0703125 496.61328125 C54.39727081 497.30585526 53.72422913 497.99842926 53.03079224 498.71199036 C52.39688568 499.33981918 51.76297913 499.96764801 51.10986328 500.61450195 C50.55630157 501.17313431 50.00273987 501.73176666 49.43240356 502.30732727 C47.75 503.375 47.75 503.375 45.64694214 503.1471405 C43.22993419 502.1633099 42.08453895 500.83334508 40.375 498.875 C38.04297237 496.46324493 36.80497035 495.39698814 33.625 494.125 C30.62712844 494.1812774 30.62712844 494.1812774 27.9375 496 C24.61948959 500.53019172 24.61948959 500.53019172 24.75 512.375 C8.25 512.375 -8.25 512.375 -25.25 512.375 C-25.58 508.085 -25.91 503.795 -26.25 499.375 C-28.15154095 495.88105648 -28.15154095 495.88105648 -31.25 494.375 C-34.19740009 493.81947961 -34.19740009 493.81947961 -37.25 495.375 C-39.40859294 497.4083361 -41.38464285 499.5111919 -43.3203125 501.7578125 C-43.95710937 502.29148437 -44.59390625 502.82515625 -45.25 503.375 C-48.68023056 503.00996656 -50.35505597 501.63796262 -52.73339844 499.23217773 C-53.39378113 498.57156845 -54.05416382 497.91095917 -54.73455811 497.23033142 C-55.43574768 496.51365799 -56.13693726 495.79698456 -56.859375 495.05859375 C-57.58618469 494.32753922 -58.31299438 493.59648468 -59.06182861 492.84327698 C-61.38168401 490.50662843 -63.690892 488.15976516 -66 485.8125 C-67.57092443 484.22652964 -69.14253094 482.64123457 -70.71484375 481.05664062 C-74.56784484 477.17056178 -78.41215519 473.27604457 -82.25 469.375 C-80.72856723 466.15807754 -79.08789861 464.07765358 -76.5625 461.5625 C-73.83603783 458.51159452 -73.27863456 457.81167696 -73 453.5625 C-74.51986328 449.68684864 -75.55703255 449.1369706 -79.25 447.375 C-82.36516747 446.80551948 -82.36516747 446.80551948 -85.5625 446.6875 C-87.439375 446.584375 -89.31625 446.48125 -91.25 446.375 C-91.25 441.095 -91.25 435.815 -91.25 430.375 C-101.81 430.375 -112.37 430.375 -123.25 430.375 C-123.21519531 433.96375 -123.18039063 437.5525 -123.14453125 441.25 C-123.12110725 444.74169113 -123.1029068 448.23337337 -123.08520508 451.72509766 C-123.07015721 454.1440831 -123.04971412 456.56304143 -123.02368164 458.98193359 C-122.987123 462.46719063 -122.9702331 465.9520856 -122.95703125 469.4375 C-122.94154739 470.51177246 -122.92606354 471.58604492 -122.91011047 472.69287109 C-122.90856744 479.64188868 -123.32577686 485.87257819 -127.96875 491.43359375 C-128.5565625 491.88863281 -129.144375 492.34367187 -129.75 492.8125 C-130.3378125 493.28558594 -130.925625 493.75867188 -131.53125 494.24609375 C-134.54539825 496.22584113 -137.16136169 496.50309384 -140.66375732 496.52217102 C-142.01786209 496.53290398 -142.01786209 496.53290398 -143.39932251 496.54385376 C-144.38741913 496.54654266 -145.37551575 496.54923157 -146.39355469 496.55200195 C-147.43613434 496.55857315 -148.47871399 496.56514435 -149.55288696 496.57191467 C-153.00921702 496.59165371 -156.46550361 496.60331159 -159.921875 496.61328125 C-161.10190346 496.61735678 -162.28193192 496.6214323 -163.49771881 496.62563133 C-169.7432691 496.64649452 -175.9887974 496.66079526 -182.234375 496.67016602 C-188.68512644 496.68123164 -195.13553305 496.71563305 -201.58616257 496.75533772 C-206.54645428 496.78148288 -211.50666357 496.78985601 -216.46701813 496.79344749 C-218.84484435 496.79831875 -221.22266677 496.80994797 -223.60042572 496.82848549 C-226.93018421 496.85283157 -230.25904695 496.85191974 -233.58886719 496.8449707 C-235.05886673 496.86418579 -235.05886673 496.86418579 -236.55856323 496.88378906 C-242.66626546 496.83738859 -246.25398425 495.95129918 -251.25 492.375 C-255.00350274 488.22639171 -256.37186218 485.84857398 -256.39717102 480.31549072 C-256.40432632 479.24440063 -256.41148163 478.17331055 -256.41885376 477.06976318 C-256.42154266 475.88948547 -256.42423157 474.70920776 -256.42700195 473.49316406 C-256.43357315 472.25405273 -256.44014435 471.01494141 -256.44691467 469.73828125 C-256.46668579 465.62239341 -256.4783188 461.50654459 -256.48828125 457.390625 C-256.49232872 455.97360972 -256.49644564 454.55659465 -256.50063133 453.13957977 C-256.51968596 446.48139627 -256.53391555 439.82322386 -256.5422433 433.16501832 C-256.55201262 425.48113948 -256.57832269 417.79754894 -256.61874419 410.11377168 C-256.64891786 404.1739815 -256.66371341 398.23427389 -256.66702431 392.29440856 C-256.66937373 388.74725163 -256.67831909 385.2004026 -256.70348549 381.65332794 C-256.7311251 377.69359646 -256.72693119 373.73424323 -256.7199707 369.77441406 C-256.73278076 368.60223328 -256.74559082 367.43005249 -256.75878906 366.22235107 C-256.71868774 359.97154697 -256.53405461 356.07878201 -252.25 351.375 C-242.77911085 344.07452295 -236.6885066 346.375 -223.25 346.375 C-223.25 308.755 -223.25 271.135 -223.25 232.375 C-225.89 231.715 -228.53 231.055 -231.25 230.375 C-236.50786019 227.00203309 -238.75936123 223.33881353 -240.25 217.375 C-240.50871547 213.99504052 -240.42181892 210.63741191 -240.375 207.25 C-240.30598795 200.67591995 -240.30598795 200.67591995 -243.1328125 195.0234375 C-245.4678561 193.58474949 -245.4678561 193.58474949 -247.953125 192.5234375 C-251.78245083 190.60877459 -253.52436311 187.18064563 -255.25 183.375 C-257.36087778 176.6311567 -257.18066599 169.55673007 -254.25 163.125 C-249.05022842 154.02539974 -240.1892007 149.23868423 -231.56640625 143.765625 C-225.79034646 140.09694106 -220.06980848 136.34481088 -214.34994507 132.58947754 C-211.84616846 130.94576362 -209.34129746 129.30372091 -206.83650208 127.66156006 C-204.91366293 126.40086582 -202.99099744 125.13990712 -201.06835938 123.87890625 C-195.56364347 120.26882047 -190.05698811 116.66169542 -184.55041504 113.05444336 C-181.53352455 111.0780927 -178.51676935 109.10153556 -175.5 107.125 C-174.29166731 106.33333235 -173.08333398 105.54166568 -171.875 104.75 C-171.276875 104.358125 -170.67875 103.96625 -170.0625 103.5625 C-77.625 43 -77.625 43 -75.81280518 41.81271362 C-74.60343787 41.0203604 -73.39408731 40.22798162 -72.18475342 39.43557739 C-69.17987605 37.46670606 -66.17471711 35.49826736 -63.16894531 33.53076172 C-57.54094806 29.84615803 -51.91587932 26.15729681 -46.30029297 22.45379639 C-43.66798025 20.71814125 -41.03412153 18.98484006 -38.40014648 17.25170898 C-37.15344337 16.43045152 -35.90748597 15.60806067 -34.66235352 14.78442383 C-12.34359289 0.02224071 -12.34359289 0.02224071 0 0 Z M-23.13479614 28.56903076 C-26.12548211 30.59862523 -29.12702158 32.61202008 -32.12890625 34.625 C-32.73252487 35.03003754 -33.33614349 35.43507507 -33.95805359 35.85238647 C-39.51965231 39.57470043 -45.15241913 43.17934327 -50.8125 46.75 C-57.92492378 51.24249159 -64.97121926 55.81310736 -71.95605469 60.5012207 C-78.95900468 65.19648411 -86.00766779 69.82078334 -93.0625 74.4375 C-93.67948761 74.84132904 -94.29647522 75.24515808 -94.93215942 75.66122437 C-98.10374981 77.73697158 -101.27566501 79.81222172 -104.44775391 81.88720703 C-109.94993696 85.4867414 -115.44918867 89.09074888 -120.94857788 92.69454956 C-123.96559046 94.67156194 -126.98280579 96.64826484 -130 98.625 C-131.2083343 99.41666519 -132.41666763 100.20833186 -133.625 101 C-140.87500001 105.75 -140.87500001 105.75 -142.68745422 106.93746948 C-143.89594079 107.72923689 -145.10442671 108.52100528 -146.31291199 109.31277466 C-149.33139561 111.29040799 -152.34989037 113.26802434 -155.3684082 115.24560547 C-160.83389271 118.82634003 -166.29929545 122.40719906 -171.76428223 125.98869324 C-174.21372562 127.59393287 -176.66322148 129.19909243 -179.11273193 130.80422974 C-180.32535468 131.59886126 -181.53796058 132.39351848 -182.75054932 133.1882019 C-189.27212765 137.46206677 -195.79552339 141.73310694 -202.32421875 145.99609375 C-216.30847269 155.12177872 -216.30847269 155.12177872 -230.25 164.3125 C-230.84925293 164.70767822 -231.44850586 165.10285645 -232.06591797 165.51000977 C-234.32582197 167.01491121 -236.32390644 168.44890644 -238.25 170.375 C-238.67037462 174.15837161 -238.76868776 176.49548598 -236.8125 179.8125 C-232.99515534 182.14014919 -229.62125081 182.04744608 -225.25 181.375 C-221.97331238 179.99036095 -219.17115411 178.07755433 -216.2578125 176.05078125 C-215.41149261 175.4863884 -214.56517273 174.92199554 -213.69320679 174.34049988 C-210.90693533 172.47546069 -208.14143709 170.58180768 -205.375 168.6875 C-203.40946465 167.36400998 -201.44264464 166.04242602 -199.47460938 164.72265625 C-194.37785292 161.29793927 -189.29756537 157.84960567 -184.22131348 154.39459229 C-179.60132205 151.25439886 -174.96885812 148.13279198 -170.3359375 145.01171875 C-165.02218298 141.43084292 -159.70935957 137.84866006 -154.40283203 134.25708008 C-140.83745222 125.08092604 -127.17947832 116.05175987 -113.48974609 107.0625 C-98.95409002 97.51439252 -84.51102339 87.83745225 -70.11001587 78.087677 C-51.36066748 65.39862751 -32.46892445 52.92943221 -13.54057312 40.50938416 C-12.79717178 40.02151932 -12.05377045 39.53365448 -11.2878418 39.03100586 C-10.59210052 38.58087128 -9.89635925 38.13073669 -9.17953491 37.66696167 C-7.94337927 36.83926703 -6.7314085 35.97349987 -5.55508423 35.06277466 C-4.01879883 33.89282227 -4.01879883 33.89282227 -1.25 32.375 C3.65892731 33.22562778 8.23859058 37.16010052 12.3515625 39.89453125 C13.20354218 40.45609421 14.05552185 41.01765717 14.93331909 41.59623718 C17.75036388 43.45527128 20.5627723 45.3211884 23.375 47.1875 C25.35991591 48.50016655 27.34494373 49.8126639 29.33007812 51.125 C43.58270711 60.55909551 57.76244112 70.099411 71.91680908 79.68008423 C85.46192897 88.84700692 99.07852189 97.89772656 112.75 106.875 C128.20651652 117.02440551 143.57528864 127.29381204 158.88696289 137.66030884 C179.13954263 151.36698226 199.56002792 164.81608665 220.00817871 178.22868347 C221.59272472 179.27149497 223.17168111 180.32278741 224.75 181.375 C229.53969156 182.22709869 232.81890817 182.00814244 236.875 179.25 C238.9698995 176.53344056 238.9698995 176.53344056 239 173.4375 C236.3371962 166.91363069 229.2885067 163.25556325 223.4375 159.75 C217.73372485 156.25601594 212.11344718 152.66952531 206.5625 148.9375 C198.72247707 143.67529186 190.83841696 138.48258276 182.9375 133.3125 C182.32105621 132.90903351 181.70461243 132.50556702 181.06948853 132.08987427 C177.89734748 130.01376289 174.72488833 127.93813835 171.55224609 125.86279297 C166.05006304 122.2632586 160.55081133 118.65925112 155.05142212 115.05545044 C152.03440954 113.07843806 149.01719421 111.10173516 146 109.125 C144.7916657 108.33333481 143.58333237 107.54166814 142.375 106.75 C141.776875 106.358125 141.17875 105.96625 140.5625 105.5625 C119.41666667 91.70833333 98.27083333 77.85416667 77.125 64 C76.52694046 63.60817032 75.92888092 63.21634064 75.31269836 62.81263733 C74.10369481 62.02052664 72.89470027 61.2284022 71.68571472 60.43626404 C68.67520926 58.46377833 65.66455039 56.4915276 62.65356445 54.51977539 C56.44652638 50.45469558 50.24251889 46.38508524 44.04296875 42.30859375 C28.65217568 32.17372103 28.65217568 32.17372103 13.125 22.25 C12.18466919 21.65626587 12.18466919 21.65626587 11.2253418 21.05053711 C-2.09335997 12.76814259 -11.7670969 20.85117298 -23.13479614 28.56903076 Z M-4.72607422 54.5769043 C-5.44656952 55.06507126 -6.16706482 55.55323822 -6.90939331 56.05619812 C-8.09506393 56.86949333 -8.09506393 56.86949333 -9.3046875 57.69921875 C-10.13598175 58.2636116 -10.967276 58.82800446 -11.82376099 59.40950012 C-13.63669821 60.64061103 -15.4483157 61.87366704 -17.25878906 63.10839844 C-22.16254584 66.45164113 -27.07709152 69.77892728 -31.9921875 73.10546875 C-33.00980164 73.7944223 -34.02741577 74.48337585 -35.0758667 75.19320679 C-45.40809929 82.17748592 -55.82286071 89.03358745 -66.25 95.875 C-80.81993501 105.44016962 -95.3172362 115.10410649 -109.75 124.875 C-127.34991392 136.78966964 -145.05787512 148.5325367 -162.82272339 160.19967651 C-166.14011149 162.37896377 -169.4562033 164.56021167 -172.77130127 166.74298096 C-174.4741428 167.86416191 -176.17741338 168.98469141 -177.88104248 170.10467529 C-180.43224717 171.7835725 -182.98022002 173.4672635 -185.52734375 175.15234375 C-186.69723595 175.92077354 -186.69723595 175.92077354 -187.89076233 176.70472717 C-189.69494863 177.90178548 -191.47541929 179.13447589 -193.25 180.375 C-193.25 180.705 -193.25 181.035 -193.25 181.375 C-165.2 181.375 -137.15 181.375 -108.25 181.375 C-106.93 178.075 -105.61 174.775 -104.25 171.375 C-99.48545637 166.72389789 -96.1122647 166.22623826 -89.68487549 166.22782898 C-88.50034857 166.22231395 -88.50034857 166.22231395 -87.29189181 166.2166875 C-84.6311115 166.20562572 -81.97037021 166.20180261 -79.30957031 166.19799805 C-77.4077034 166.19173527 -75.50583772 166.18508864 -73.60397339 166.17808533 C-68.4261724 166.16065819 -63.24838066 166.15011888 -58.07055759 166.1418798 C-54.83722586 166.13673324 -51.60389702 166.13065735 -48.37056732 166.12436867 C-38.25888468 166.10531175 -28.14720936 166.09108172 -18.03551221 166.0827567 C-6.35468203 166.07298167 5.32595878 166.04665723 17.00672221 166.00625581 C26.0292886 165.97611716 35.05180064 165.96128996 44.0744164 165.95797569 C49.46594335 165.95562261 54.8572681 165.94662873 60.24874115 165.92151451 C65.32127977 165.89826824 70.3934826 165.89398672 75.46606064 165.90427589 C77.32766968 165.90477221 79.18929506 165.89842377 81.05085373 165.88471985 C83.59328652 165.86705124 86.13450765 165.8740818 88.67694092 165.88725281 C89.4129436 165.87628356 90.14894628 165.86531432 90.90725207 165.85401267 C95.97403176 165.91734555 98.83922469 167.20238228 102.75 170.375 C104.17578125 172.41015625 104.17578125 172.41015625 105.0625 174.4375 C105.36800781 175.10910156 105.67351562 175.78070313 105.98828125 176.47265625 C106.63374493 178.08466042 107.20089338 179.72768014 107.75 181.375 C135.8 181.375 163.85 181.375 192.75 181.375 C189.80213156 179.01670525 187.03001626 176.81063916 183.93334961 174.71899414 C183.2130809 174.2311293 182.49281219 173.74326447 181.75071716 173.24061584 C180.97575394 172.71906418 180.20079071 172.19751251 179.40234375 171.66015625 C178.57529434 171.10142319 177.74824493 170.54269012 176.89613342 169.96702576 C174.16165048 168.12127311 171.42472812 166.27917874 168.6875 164.4375 C167.7385083 163.79796387 166.7895166 163.15842773 165.81176758 162.49951172 C150.60731357 152.25498928 135.32502132 142.13305839 120.00045776 132.06936646 C105.45880419 122.51741875 91.00921359 112.83739402 76.60296631 103.0826416 C60.60630438 92.25464358 44.5042645 81.59262932 28.34960938 71.00195312 C26.61056895 69.86084186 24.87163329 68.71957091 23.1328125 67.578125 C21.90132477 66.77060791 21.90132477 66.77060791 20.6449585 65.94677734 C14.70605465 62.03940884 8.86565018 58.01063103 3.08154297 53.87792969 C-0.4289572 51.61503555 -1.49291566 52.37045659 -4.72607422 54.5769043 Z M-90.25 182.375 C-90.25 198.545 -90.25 214.715 -90.25 231.375 C-30.85 231.375 28.55 231.375 89.75 231.375 C89.75 215.205 89.75 199.035 89.75 182.375 C30.35 182.375 -29.05 182.375 -90.25 182.375 Z M-222.25 199.375 C-222.25 204.325 -222.25 209.275 -222.25 214.375 C-195.19 214.375 -168.13 214.375 -140.25 214.375 C-140.25 209.425 -140.25 204.475 -140.25 199.375 C-167.31 199.375 -194.37 199.375 -222.25 199.375 Z M140.75 199.375 C140.75 204.325 140.75 209.275 140.75 214.375 C167.81 214.375 194.87 214.375 222.75 214.375 C222.75 209.425 222.75 204.475 222.75 199.375 C195.69 199.375 168.63 199.375 140.75 199.375 Z M-206.25 232.375 C-206.25 269.995 -206.25 307.615 -206.25 346.375 C-200.97 346.375 -195.69 346.375 -190.25 346.375 C-190.25 308.755 -190.25 271.135 -190.25 232.375 C-195.53 232.375 -200.81 232.375 -206.25 232.375 Z M-172.25 232.375 C-172.25 269.995 -172.25 307.615 -172.25 346.375 C-167.3 346.375 -162.35 346.375 -157.25 346.375 C-157.25 308.755 -157.25 271.135 -157.25 232.375 C-162.2 232.375 -167.15 232.375 -172.25 232.375 Z M156.75 232.375 C156.75 269.995 156.75 307.615 156.75 346.375 C162.03 346.375 167.31 346.375 172.75 346.375 C172.75 308.755 172.75 271.135 172.75 232.375 C167.47 232.375 162.19 232.375 156.75 232.375 Z M189.75 232.375 C189.75 269.995 189.75 307.615 189.75 346.375 C195.03 346.375 200.31 346.375 205.75 346.375 C205.75 308.755 205.75 271.135 205.75 232.375 C200.47 232.375 195.19 232.375 189.75 232.375 Z M-90.25 248.375 C-90.25 264.545 -90.25 280.715 -90.25 297.375 C-30.85 297.375 28.55 297.375 89.75 297.375 C89.75 281.205 89.75 265.035 89.75 248.375 C30.35 248.375 -29.05 248.375 -90.25 248.375 Z M-123.25 199.375 C-123.28738281 200.74914062 -123.32476562 202.12328125 -123.36328125 203.5390625 C-123.42896358 205.35940127 -123.49541013 207.17971257 -123.5625 209 C-123.59633789 210.35544922 -123.59633789 210.35544922 -123.63085938 211.73828125 C-123.88567666 218.08554822 -124.97797902 222.42978762 -128.9375 227.5625 C-131.25 229.375 -131.25 229.375 -139.25 232.375 C-139.25 269.995 -139.25 307.615 -139.25 346.375 C-134.3 348.85 -134.3 348.85 -129.25 351.375 C-125.14834688 356.27697569 -124.15280643 360.27017189 -124.04467773 366.51074219 C-124.02473251 367.53149841 -124.00478729 368.55225464 -123.98423767 369.60394287 C-123.96752518 370.69886047 -123.95081268 371.79377808 -123.93359375 372.921875 C-123.91281265 374.0482135 -123.89203156 375.174552 -123.87062073 376.33502197 C-123.80525667 379.93161949 -123.74630115 383.52828977 -123.6875 387.125 C-123.6443023 389.5638096 -123.6006876 392.00261184 -123.55664062 394.44140625 C-123.44880437 400.41919735 -123.3496326 406.39704399 -123.25 412.375 C-112.69 412.375 -102.13 412.375 -91.25 412.375 C-91.25 407.095 -91.25 401.815 -91.25 396.375 C-86.3671875 396.47265625 -86.3671875 396.47265625 -81.484375 396.5703125 C-78.39607215 396.38382078 -76.79235282 396.06192587 -74.25 394.375 C-72.49251481 392.03168642 -72.25822783 390.55601215 -72.125 387.625 C-73.61643152 383.31642005 -76.22457316 381.24119821 -79.6328125 378.3046875 C-80.16648438 377.66789063 -80.70015625 377.03109375 -81.25 376.375 C-80.88115192 372.99425752 -79.57348907 371.32997743 -77.19897461 368.98339844 C-76.23809181 368.02285553 -76.23809181 368.02285553 -75.25779724 367.04290771 C-74.56299759 366.36359192 -73.86819794 365.68427612 -73.15234375 364.984375 C-72.44348526 364.27976135 -71.73462677 363.57514771 -71.00428772 362.84918213 C-68.7389672 360.60065215 -66.46343792 358.36277762 -64.1875 356.125 C-62.64970665 354.60225292 -61.11258869 353.07882346 -59.57617188 351.5546875 C-55.80858198 347.8201719 -52.03255735 344.0943515 -48.25 340.375 C-45.05959164 341.88938713 -42.90740761 343.52861426 -40.375 346 C-37.69588491 348.38530879 -36.57783095 349.30565115 -33 350.0625 C-29.65280404 349.22570101 -28.37639387 348.05268117 -26.25 345.375 C-24.00896849 340.89293698 -25.25 335.38609879 -25.25 330.375 C-8.75 330.375 7.75 330.375 24.75 330.375 C24.75 334.665 24.75 338.955 24.75 343.375 C26.39856825 347.49903473 26.39856825 347.49903473 29.75 349.375 C33.68733712 349.9359357 35.24415818 349.73407645 38.5234375 347.40625 C39.38195312 346.5709375 40.24046875 345.735625 41.125 344.875 C41.99898437 344.0396875 42.87296875 343.204375 43.7734375 342.34375 C44.42570313 341.6940625 45.07796875 341.044375 45.75 340.375 C48.67293008 341.69875339 50.77829096 343.14156274 53.06567383 345.38427734 C53.68924271 345.99185883 54.31281158 346.59944031 54.95527649 347.22543335 C55.61585556 347.88064972 56.27643463 348.53586609 56.95703125 349.2109375 C57.98421516 350.2245787 57.98421516 350.2245787 59.03215027 351.25869751 C60.47459077 352.68665193 61.91425421 354.11741631 63.35131836 355.55078125 C65.55975997 357.7472748 67.78616401 359.9244285 70.01367188 362.1015625 C71.41260331 363.49103568 72.81042886 364.88162334 74.20703125 366.2734375 C74.87773148 366.92460541 75.5484317 367.57577332 76.23945618 368.24667358 C76.84726425 368.86055939 77.45507233 369.47444519 78.08129883 370.10693359 C78.62216629 370.64273041 79.16303375 371.17852722 79.72029114 371.7305603 C80.75 373.375 80.75 373.375 80.5344696 375.46084595 C79.45554149 378.09349687 77.77508806 379.34831317 75.625 381.1875 C72.13725988 384.43963053 72.13725988 384.43963053 71.5625 389.1875 C72.99877155 393.04275521 74.12931088 394.56465544 77.75 396.375 C82.08603979 396.5143329 86.41080671 396.41754111 90.75 396.375 C90.75 401.655 90.75 406.935 90.75 412.375 C101.31 412.375 111.87 412.375 122.75 412.375 C122.78738281 408.78625 122.82476562 405.1975 122.86328125 401.5 C122.90954747 398.00824026 122.96076274 394.51658554 123.01245117 391.02490234 C123.04561976 388.60602244 123.07367658 386.18706665 123.09643555 383.76806641 C123.13012935 380.2825499 123.1824544 376.79772385 123.23828125 373.3125 C123.24467117 372.23822754 123.2510611 371.16395508 123.25764465 370.05712891 C123.39547539 362.95150041 123.82244553 356.46984329 128.9375 351.0625 C131.75 349.375 131.75 349.375 139.75 346.375 C139.75 308.755 139.75 271.135 139.75 232.375 C136.45 231.055 133.15 229.735 129.75 228.375 C123.8276268 222.74874546 123.42056767 215.72170529 123.125 208 C123.08632813 207.16855469 123.04765625 206.33710938 123.0078125 205.48046875 C122.91425754 203.44564844 122.83107287 201.41035584 122.75 199.375 C117.8 199.375 112.85 199.375 107.75 199.375 C107.75 259.105 107.75 318.835 107.75 380.375 C101.81 380.375 95.87 380.375 89.75 380.375 C89.75 358.595 89.75 336.815 89.75 314.375 C30.35 314.375 -29.05 314.375 -90.25 314.375 C-90.25 336.155 -90.25 357.935 -90.25 380.375 C-96.19 380.375 -102.13 380.375 -108.25 380.375 C-108.25 320.645 -108.25 260.915 -108.25 199.375 C-113.2 199.375 -118.15 199.375 -123.25 199.375 Z M-8.25 347.375 C-9.5803125 349.97375 -9.5803125 349.97375 -10.9375 352.625 C-13.23997841 356.83093247 -15.05587207 359.85852324 -19.25 362.375 C-20.549375 363.2103125 -20.549375 363.2103125 -21.875 364.0625 C-30.71984186 367.50216072 -38.45093902 366.38744447 -47.25 363.375 C-51.47434734 366.71243149 -55.15041131 369.94393582 -58.25 374.375 C-58.28097827 377.87111915 -57.46181205 380.26445402 -56.2578125 383.53125 C-54.11090437 389.58919233 -55.7905925 394.83242212 -58.25 400.5625 C-61.84775893 407.30698686 -67.63260934 410.06630467 -74.25 413.375 C-74.25 418.985 -74.25 424.595 -74.25 430.375 C-73.033125 430.766875 -71.81625 431.15875 -70.5625 431.5625 C-66.47809061 433.10405839 -64.08580967 434.9877829 -61.25 438.375 C-60.528125 439.220625 -59.80625 440.06625 -59.0625 440.9375 C-55.85507577 447.02054595 -54.37563295 454.10216537 -56.0625 460.875 C-57.25 464.375 -57.25 464.375 -58.1640625 466.234375 C-58.50154035 468.70357573 -58.50154035 468.70357573 -55.94140625 471.171875 C-54.91082506 472.16921164 -53.86719591 473.15320038 -52.8125 474.125 C-52.28333984 474.63160156 -51.75417969 475.13820313 -51.20898438 475.66015625 C-49.90022899 476.90995869 -48.57648041 478.14402618 -47.25 479.375 C-45.73212891 478.89160156 -45.73212891 478.89160156 -44.18359375 478.3984375 C-37.08915444 476.38266772 -28.48111849 475.87234075 -21.6875 479.0625 C-14.99591889 483.16287311 -11.80578386 488.56821375 -8.25 495.375 C-2.97 495.375 2.31 495.375 7.75 495.375 C8.554375 493.68375 9.35875 491.9925 10.1875 490.25 C13.82376892 483.53156028 18.52636018 479.78287994 25.75 477.375 C27.99759085 477.25358492 30.2491645 477.1995753 32.5 477.1875 C33.69109375 477.17332031 34.8821875 477.15914062 36.109375 477.14453125 C39.75 477.375 39.75 477.375 46.75 479.375 C52.195 473.93 52.195 473.93 57.75 468.375 C57.234375 466.76625 56.71875 465.1575 56.1875 463.5 C53.84248788 454.73705999 54.76863637 447.64443413 59.08984375 439.64453125 C62.79168166 434.58390107 67.7652637 431.87118407 73.75 430.375 C73.75 424.765 73.75 419.155 73.75 413.375 C72.0175 412.488125 70.285 411.60125 68.5 410.6875 C64.29406753 408.38502159 61.26647676 406.56912793 58.75 402.375 C58.193125 401.488125 57.63625 400.60125 57.0625 399.6875 C54.13776808 392.30603372 54.43168099 385.84513903 56.75 378.375 C57.05035156 377.75882812 57.35070312 377.14265625 57.66015625 376.5078125 C58.00192208 374.04549064 58.00192208 374.04549064 55.44140625 371.578125 C54.41082506 370.58078836 53.36719591 369.59679962 52.3125 368.625 C51.78333984 368.11839844 51.25417969 367.61179687 50.70898438 367.08984375 C49.40022899 365.84004131 48.07648041 364.60597382 46.75 363.375 C45.75033203 363.71724609 45.75033203 363.71724609 44.73046875 364.06640625 C36.02411932 366.78181313 28.33691408 367.42697865 19.9375 363.375 C13.79871386 359.60151676 10.88615468 353.64730936 7.75 347.375 C2.47 347.375 -2.81 347.375 -8.25 347.375 Z M-239.25 364.375 C-239.25 401.995 -239.25 439.615 -239.25 478.375 C-206.91 478.375 -174.57 478.375 -141.25 478.375 C-141.25 440.755 -141.25 403.135 -141.25 364.375 C-173.59 364.375 -205.93 364.375 -239.25 364.375 Z M140.75 364.375 C140.75 401.995 140.75 439.615 140.75 478.375 C173.09 478.375 205.43 478.375 238.75 478.375 C238.75 440.755 238.75 403.135 238.75 364.375 C206.41 364.375 174.07 364.375 140.75 364.375 Z " fill="#000000" transform="translate(256.25,-0.375)"/>
<path d="M0 0 C8.8725814 9.45122801 13.60504408 20.31341792 13.2421875 33.3359375 C12.18314715 44.98538132 7.7830471 54.81884958 -0.8125 62.875 C-10.89586929 71.00800772 -22.18575408 74.23004305 -35 73 C-46.75859302 70.68159972 -57.19573182 65.0946904 -64 55 C-70.51353465 44.09572611 -72.86915851 32.88990996 -69.8125 20.4375 C-66.31585576 8.85282353 -60.0797854 0.22233062 -49.51953125 -5.71484375 C-32.89517985 -14.19455167 -14.31216529 -11.99774451 0 0 Z M-48.30078125 15.90625 C-52.84282873 21.50288781 -53.6170985 26.91409593 -53.40625 33.93359375 C-52.48305835 40.90191531 -49.52418894 46.16853367 -44 50.5 C-37.30972919 55.14002653 -31.00353551 55.94686908 -23 55 C-15.59840873 52.77434668 -10.76139076 48.70950784 -7 42 C-4.12060745 35.93341776 -3.92215771 29.21732922 -5.58203125 22.72265625 C-8.50634895 15.97936658 -14.48491146 10.79493883 -20.9375 7.5 C-32.31032007 5.64321305 -40.37139366 7.30699273 -48.30078125 15.90625 Z " fill="#000000" transform="translate(285,390)"/>
<path d="M0 0 C5.60947141 4.86083894 9.4733976 10.49133674 10.34765625 17.9765625 C10.69940426 25.67894206 9.70649489 31.75853315 5 38 C-1.1999143 43.9052649 -7.45212419 46.84858835 -16 47 C-23.03756693 46.45492167 -28.73414615 43.66375041 -34 39 C-39.92864986 31.53272434 -40.93160696 24.40173463 -40 15 C-37.65289368 7.27454691 -33.16483937 1.82990157 -26.125 -2.02734375 C-17.40972008 -5.84027871 -8.09453642 -4.84857299 0 0 Z M-22 17 C-22.93752649 20.14741037 -23.29520857 22.11437428 -22.25 25.25 C-20.27575256 28.01394642 -18.42647732 28.92583003 -15.125 29.5 C-11.74496781 29.24772802 -11.74496781 29.24772802 -9.0625 26.375 C-6.73584982 23.20569968 -6.73584982 23.20569968 -6.9375 19.8125 C-8.16851197 16.55393889 -8.8787051 15.51846779 -12 14 C-16.32528899 13.45933888 -19.01609577 13.68455085 -22 17 Z " fill="#000000" transform="translate(271,86)"/>
<path d="M0 0 C22.11 0 44.22 0 67 0 C67 5.94 67 11.88 67 18 C44.89 18 22.78 18 0 18 C0 12.06 0 6.12 0 0 Z " fill="#000000" transform="translate(412,445)"/>
<path d="M0 0 C22.11 0 44.22 0 67 0 C67 5.94 67 11.88 67 18 C44.89 18 22.78 18 0 18 C0 12.06 0 6.12 0 0 Z " fill="#000000" transform="translate(33,445)"/>
<path d="M0 0 C22.11 0 44.22 0 67 0 C67 5.94 67 11.88 67 18 C44.89 18 22.78 18 0 18 C0 12.06 0 6.12 0 0 Z " fill="#000000" transform="translate(412,412)"/>
<path d="M0 0 C22.11 0 44.22 0 67 0 C67 5.94 67 11.88 67 18 C44.89 18 22.78 18 0 18 C0 12.06 0 6.12 0 0 Z " fill="#000000" transform="translate(33,412)"/>
<path d="M0 0 C22.11 0 44.22 0 67 0 C67 5.94 67 11.88 67 18 C44.89 18 22.78 18 0 18 C0 12.06 0 6.12 0 0 Z " fill="#000000" transform="translate(412,379)"/>
<path d="M0 0 C22.11 0 44.22 0 67 0 C67 5.94 67 11.88 67 18 C44.89 18 22.78 18 0 18 C0 12.06 0 6.12 0 0 Z " fill="#000000" transform="translate(33,379)"/>
<path d="M0 0 C5.94 0 11.88 0 18 0 C18 5.61 18 11.22 18 17 C12.06 17 6.12 17 0 17 C0 11.39 0 5.78 0 0 Z " fill="#000000" transform="translate(313,264)"/>
<path d="M0 0 C5.94 0 11.88 0 18 0 C18 5.61 18 11.22 18 17 C12.06 17 6.12 17 0 17 C0 11.39 0 5.78 0 0 Z " fill="#000000" transform="translate(280,264)"/>
<path d="M0 0 C5.94 0 11.88 0 18 0 C18 5.61 18 11.22 18 17 C12.06 17 6.12 17 0 17 C0 11.39 0 5.78 0 0 Z " fill="#000000" transform="translate(247,264)"/>
<path d="M0 0 C5.94 0 11.88 0 18 0 C18 5.61 18 11.22 18 17 C12.06 17 6.12 17 0 17 C0 11.39 0 5.78 0 0 Z " fill="#000000" transform="translate(313,198)"/>
<path d="M0 0 C5.94 0 11.88 0 18 0 C18 5.61 18 11.22 18 17 C12.06 17 6.12 17 0 17 C0 11.39 0 5.78 0 0 Z " fill="#000000" transform="translate(280,198)"/>
<path d="M0 0 C5.94 0 11.88 0 18 0 C18 5.61 18 11.22 18 17 C12.06 17 6.12 17 0 17 C0 11.39 0 5.78 0 0 Z " fill="#000000" transform="translate(247,198)"/>
</svg>
