<?xml version="1.0" encoding="UTF-8"?>
<svg version="1.1" xmlns="http://www.w3.org/2000/svg" width="512" height="512">
<path d="M0 0 C8.8180183 8.62278542 13.07871216 17.06440542 13.25090027 29.47676086 C13.25987069 31.67890966 13.26333191 33.88108507 13.26245117 36.08325195 C13.26580978 37.2888678 13.2691684 38.49448364 13.27262878 39.7366333 C13.28048444 43.03225107 13.2838054 46.32780582 13.28444457 49.62342858 C13.28515717 51.68624848 13.28729546 53.74906184 13.28994179 55.81188011 C13.29918373 63.01936637 13.30327816 70.22683418 13.30249023 77.43432617 C13.30188992 84.13487315 13.31243561 90.8353395 13.3282339 97.53586608 C13.34134398 103.30338743 13.34667267 109.07088254 13.34603482 114.83841866 C13.34578083 118.27652239 13.34857703 121.71455442 13.35921288 125.1526432 C13.3690346 128.99155957 13.36612589 132.8302696 13.36010742 136.66918945 C13.36572693 137.79624802 13.37134644 138.92330658 13.37713623 140.08451843 C13.32702105 152.69513349 10.70208229 162.3317056 1.9296875 171.7578125 C-9.22925216 182.11621953 -23.99280747 188.00137087 -38.5078125 191.8828125 C-39.23419922 192.07762207 -39.96058594 192.27243164 -40.70898438 192.47314453 C-53.42968743 195.65893402 -65.93912416 196.41930783 -78.98510742 196.38598633 C-81.5497543 196.38283774 -84.11322985 196.4063419 -86.67773438 196.43164062 C-115.0125089 196.54035699 -145.96699132 190.5095723 -166.8984375 170.10546875 C-176.13024179 160.3112226 -177.03325369 150.00305705 -177.02807617 137.05737305 C-177.03143478 135.8517572 -177.0347934 134.64614136 -177.03825378 133.4039917 C-177.04610944 130.10837393 -177.0494304 126.81281918 -177.05006957 123.51719642 C-177.05078217 121.45437652 -177.05292046 119.39156316 -177.05556679 117.32874489 C-177.06480873 110.12125863 -177.06890316 102.91379082 -177.06811523 95.70629883 C-177.06751492 89.00575185 -177.07806061 82.3052855 -177.0938589 75.60475892 C-177.10696898 69.83723757 -177.11229767 64.06974246 -177.11165982 58.30220634 C-177.11140583 54.86410261 -177.11420203 51.42607058 -177.12483788 47.9879818 C-177.1346596 44.14906543 -177.13175089 40.3103554 -177.12573242 36.47143555 C-177.13135193 35.34437698 -177.13697144 34.21731842 -177.14276123 33.05610657 C-177.095075 21.05669296 -175.00505143 11.72634094 -166.6875 2.68359375 C-150.98209534 -12.18856596 -129.81892603 -18.58257181 -108.8828125 -21.9296875 C-108.24093994 -22.0328125 -107.59906738 -22.1359375 -106.93774414 -22.2421875 C-72.23642245 -26.92195635 -27.65544495 -23.74457394 0 0 Z M-116.8828125 -2.9296875 C-117.58567383 -2.76339844 -118.28853516 -2.59710938 -119.01269531 -2.42578125 C-132.61201637 0.84824165 -148.46491662 6.17301966 -156.8828125 18.0703125 C-159.37674218 22.58909418 -160.25205461 25.64257635 -158.9453125 30.6953125 C-149.7516974 45.73940994 -133.21125826 51.61072801 -116.69873047 55.59765625 C-83.7662552 62.89755001 -44.91523937 60.86075402 -15.5546875 42.95703125 C-10.35499825 39.28532086 -6.9331679 35.33261643 -4.2578125 29.5703125 C-3.66425015 24.03039722 -5.0888155 20.5310624 -8.34375 16.06640625 C-18.18970783 5.08106902 -32.95827387 0.36470128 -46.8828125 -2.9296875 C-47.52895508 -3.09339844 -48.17509766 -3.25710938 -48.84082031 -3.42578125 C-69.79612616 -8.57157934 -96.00670503 -8.21899553 -116.8828125 -2.9296875 Z M-159.8828125 55.0703125 C-159.98239371 59.62347172 -160.05461235 64.17598402 -160.10253906 68.72998047 C-160.12253753 70.27599137 -160.14974581 71.82192777 -160.18457031 73.36767578 C-160.40365656 83.34898763 -160.3904094 90.66119622 -153.6953125 98.6953125 C-143.19546916 107.56184687 -131.11968145 112.6740106 -117.8828125 116.0703125 C-116.7071875 116.37195313 -115.5315625 116.67359375 -114.3203125 116.984375 C-84.58500571 123.60180237 -45.05414943 121.69132114 -18.6328125 105.5078125 C-12.08665965 100.99185834 -6.46004401 95.80200704 -3.8828125 88.0703125 C-3.7981308 85.55663195 -3.76679365 83.07161876 -3.78515625 80.55859375 C-3.7865712 79.83036911 -3.78798615 79.10214447 -3.78944397 78.35185242 C-3.79503591 76.02879711 -3.80758688 73.70583862 -3.8203125 71.3828125 C-3.82532854 69.80664202 -3.82989127 68.23047002 -3.83398438 66.65429688 C-3.8450027 62.79293152 -3.86226176 58.93163842 -3.8828125 55.0703125 C-4.78322266 55.60430664 -5.68363281 56.13830078 -6.61132812 56.68847656 C-13.35724919 60.64601211 -19.93457836 64.33144018 -27.3828125 66.8203125 C-28.21031006 67.10342285 -29.03780762 67.3865332 -29.89038086 67.67822266 C-65.1429856 79.18430402 -107.30635698 78.55959786 -141.7578125 64.6953125 C-142.42353271 64.42750977 -143.08925293 64.15970703 -143.77514648 63.88378906 C-149.46156356 61.4739686 -154.64830083 58.33197099 -159.8828125 55.0703125 Z M-159.8828125 116.0703125 C-159.95741484 120.49939628 -160.01162621 124.9281394 -160.04760742 129.35766602 C-160.06261972 130.86196267 -160.08303603 132.36621611 -160.10913086 133.87036133 C-160.14585066 136.04258946 -160.16261411 138.21423501 -160.17578125 140.38671875 C-160.1914917 141.69068604 -160.20720215 142.99465332 -160.22338867 144.33813477 C-159.57122673 151.48480114 -156.45557726 157.00158924 -151 161.6875 C-125.78883075 180.91635791 -88.87347813 182.1752389 -58.71582031 178.47705078 C-40.61420863 175.87818099 -18.32942317 170.71615918 -6.7578125 155.3203125 C-3.83803374 150.25936265 -3.7619648 146.52393355 -3.78515625 140.6796875 C-3.7865712 139.97507385 -3.78798615 139.27046021 -3.78944397 138.54449463 C-3.79502317 136.30305666 -3.80757177 134.06172007 -3.8203125 131.8203125 C-3.82533019 130.29687645 -3.82989263 128.77343882 -3.83398438 127.25 C-3.84498576 123.52340478 -3.86223604 119.79686854 -3.8828125 116.0703125 C-4.85903564 116.62283691 -5.83525879 117.17536133 -6.84106445 117.74462891 C-26.5274324 128.78203539 -48.64886992 135.13691995 -71.30859375 135.2734375 C-72.08972534 135.28045181 -72.87085693 135.28746613 -73.67565918 135.29469299 C-76.18226953 135.3121026 -78.68864391 135.31854486 -81.1953125 135.3203125 C-82.05007172 135.32098724 -82.90483093 135.32166199 -83.78549194 135.32235718 C-96.03806876 135.30695744 -107.93899519 135.07827632 -119.8828125 132.0703125 C-120.94387207 131.81290283 -120.94387207 131.81290283 -122.02636719 131.55029297 C-135.39057051 128.21965967 -148.00718476 123.04609898 -159.8828125 116.0703125 Z " fill="#000000" transform="translate(337.8828125,315.9296875)"/>
<path d="M0 0 C0.83965302 -0.00686325 1.67930603 -0.0137265 2.54440308 -0.02079773 C5.31305979 -0.03906153 8.08114962 -0.03522883 10.84985352 -0.02954102 C12.77889693 -0.03410307 14.70793872 -0.03940871 16.63697815 -0.04542542 C20.67781176 -0.05435573 24.71844772 -0.05193433 28.75927734 -0.04199219 C33.93222838 -0.03050352 39.1044967 -0.05071289 44.27735806 -0.07990932 C48.26056741 -0.09827407 52.24361325 -0.09797829 56.22685432 -0.0922718 C58.13379944 -0.09211862 60.04075566 -0.09816068 61.94766045 -0.11056328 C64.61658161 -0.12547642 67.28424269 -0.11479416 69.953125 -0.09765625 C70.73721237 -0.10732422 71.52129974 -0.11699219 72.32914734 -0.12695312 C77.50342386 -0.05753863 80.49601375 0.90985106 84.54125977 4.40405273 C88.02339453 8.82660881 89.04211812 11.69853318 89.04919434 17.30455017 C89.0554343 17.97444035 89.06167426 18.64433052 89.06810331 19.3345204 C89.0839849 21.56631401 89.07144926 23.79700801 89.05883789 26.02880859 C89.06426126 27.63408543 89.07138513 29.23935729 89.08007812 30.84461975 C89.09829049 35.19595985 89.09125227 39.54691994 89.07856178 43.89826655 C89.06842152 48.4567292 89.07783047 53.01515971 89.08410645 57.57362366 C89.0913806 65.22931751 89.08180201 72.88485694 89.06274414 80.54052734 C89.04098359 89.38384288 89.0480217 98.22678939 89.07004976 107.07009596 C89.08821966 114.66944625 89.09075409 122.26868563 89.08029509 129.86805063 C89.07406788 134.40382944 89.07320304 138.93943498 89.08644104 143.47520256 C89.09802182 147.74105096 89.08993341 152.00642518 89.06686401 156.27222252 C89.06158844 157.83507247 89.06307098 159.39796253 89.07191467 160.96079636 C89.14969296 176.10542463 89.14969296 176.10542463 84.54125977 181.40405273 C78.839474 185.85378082 73.91873978 185.97983693 66.85180664 185.92163086 C65.79888931 185.92864014 64.74597198 185.93564941 63.66114807 185.94287109 C60.19383069 185.96042162 56.72733491 185.94883811 53.26000977 185.93530273 C50.8429753 185.93799848 48.42594189 185.94188158 46.00891113 185.94689941 C40.94846246 185.95279051 35.88829661 185.94424362 30.82788086 185.92553711 C24.34802487 185.9027483 17.86883163 185.91587339 11.38899994 185.93982697 C6.39950587 185.95429515 1.41016839 185.94967416 -3.57933044 185.9393158 C-5.96829812 185.93665136 -8.35728012 185.93990827 -10.74623108 185.94923401 C-14.08763175 185.95941589 -17.42796569 185.94387406 -20.76928711 185.92163086 C-22.24388649 185.93377625 -22.24388649 185.93377625 -23.74827576 185.94616699 C-29.84041469 185.87120371 -33.598032 185.19739588 -38.45874023 181.40405273 C-43.58282887 175.20484953 -43.02612235 168.73299656 -42.97631836 160.96069336 C-42.98174509 159.60157015 -42.98887084 158.24245283 -42.99755859 156.88334656 C-43.01572985 153.20764057 -43.00875045 149.53238574 -42.99604225 145.85667229 C-42.98588222 142.00156353 -42.99531624 138.14649219 -43.00158691 134.29138184 C-43.00885462 127.81861469 -42.99929877 121.34603038 -42.98022461 114.87329102 C-42.95845741 107.40060539 -42.96550941 99.92835637 -42.98753023 92.45568132 C-43.00570936 86.02826987 -43.00823033 79.60098949 -42.99777555 73.17356062 C-42.99155437 69.33978085 -42.99066687 65.506206 -43.00392151 61.67243958 C-43.0155162 58.06727068 -43.00738927 54.46266214 -42.98434448 50.85755348 C-42.9765729 48.91116216 -42.98838241 46.9647232 -43.00085449 45.01835632 C-42.92078577 36.7194117 -41.82602772 31.389982 -35.7890625 25.36206055 C-35.30498428 24.87175354 -34.82090607 24.38144653 -34.32215881 23.87628174 C-33.81164474 23.37497742 -33.30113068 22.8736731 -32.77514648 22.35717773 C-32.23776352 21.81929626 -31.70038055 21.28141479 -31.14671326 20.72723389 C-30.01823529 19.60107964 -28.88610411 18.47857517 -27.75048828 17.35961914 C-26.02054723 15.65336922 -24.30441637 13.93408227 -22.58959961 12.21264648 C-21.48557287 11.11419468 -20.38078086 10.01651138 -19.27514648 8.91967773 C-18.76665665 8.41027649 -18.25816681 7.90087524 -17.73426819 7.3760376 C-12.00093799 1.75487236 -8.01960931 -0.04592409 0 0 Z M8.54125977 16.40405273 C8.21125977 26.30405273 7.88125977 36.20405273 7.54125977 46.40405273 C5.54125977 49.40405273 5.54125977 49.40405273 2.54125977 50.40405273 C-6.69874023 50.73405273 -15.93874023 51.06405273 -25.45874023 51.40405273 C-25.45874023 90.01405273 -25.45874023 128.62405273 -25.45874023 168.40405273 C6.55125977 168.40405273 38.56125977 168.40405273 71.54125977 168.40405273 C71.54125977 118.24405273 71.54125977 68.08405273 71.54125977 16.40405273 C50.75125977 16.40405273 29.96125977 16.40405273 8.54125977 16.40405273 Z M-11.52514648 26.33764648 C-12.34885742 27.16393555 -13.17256836 27.99022461 -14.02124023 28.84155273 C-14.8475293 29.66526367 -15.67381836 30.48897461 -16.52514648 31.33764648 C-18.57261559 33.05408553 -18.57261559 33.05408553 -18.45874023 34.40405273 C-15.15874023 34.40405273 -11.85874023 34.40405273 -8.45874023 34.40405273 C-8.45874023 31.10405273 -8.45874023 27.80405273 -8.45874023 24.40405273 C-9.80870744 24.29017738 -9.80870744 24.29017738 -11.52514648 26.33764648 Z " fill="#000000" transform="translate(395.458740234375,-0.404052734375)"/>
<path d="M0 0 C1.24703957 -0.0076664 1.24703957 -0.0076664 2.51927185 -0.01548767 C5.26560681 -0.02938011 8.01169073 -0.02842719 10.75805664 -0.02612305 C12.66850376 -0.03001012 14.57895001 -0.03434481 16.48939514 -0.03910828 C20.49328412 -0.0465697 24.49708491 -0.04627973 28.50097656 -0.04101562 C33.63021856 -0.03522056 38.75909952 -0.05215328 43.88828182 -0.0753603 C47.83368539 -0.09009654 51.77900197 -0.09096949 55.72442818 -0.08785057 C57.61545082 -0.08836382 59.50647833 -0.09360223 61.39747429 -0.10366249 C64.04256487 -0.11600769 66.68695181 -0.10924689 69.33203125 -0.09765625 C70.50188568 -0.10912186 70.50188568 -0.10912186 71.69537354 -0.12081909 C77.1018501 -0.06849096 80.40275155 1.01724114 84.27758789 4.7746582 C88.15384786 9.60739791 88.85570214 12.59945098 88.87788391 18.70050049 C88.8815606 19.35557673 88.88523729 20.01065298 88.88902539 20.68558002 C88.90005537 22.88487701 88.90390489 25.08412675 88.90771484 27.28344727 C88.91398002 28.8587204 88.92062687 30.43399205 88.92762756 32.00926208 C88.94866396 37.18625866 88.95902954 42.36325552 88.96899414 47.5402832 C88.97304185 49.32286342 88.97715878 51.10544348 88.98134422 52.88802338 C89.00039495 61.26281043 89.01462624 69.63758868 89.02295619 78.01239324 C89.03272864 87.67774312 89.0590488 97.34286399 89.09945709 107.00813317 C89.12962265 114.48000541 89.14442549 121.95181202 89.14773721 129.42374396 C89.1500872 133.88583266 89.15904095 138.34767667 89.18419838 142.80970001 C89.2074919 147.00896997 89.21170731 151.20783434 89.201437 155.40715218 C89.20094183 156.94583295 89.2072566 158.48453377 89.22099304 160.02315331 C89.3428797 174.48853984 89.3428797 174.48853984 84.73071289 180.2746582 C80.88438625 183.75466802 78.5027749 185.39438107 73.35455322 185.42182922 C71.97510025 185.43256218 71.97510025 185.43256218 70.56777954 185.44351196 C69.55581512 185.44620087 68.54385071 185.44888977 67.5012207 185.45166016 C66.43767365 185.45823135 65.37412659 185.46480255 64.27835083 185.47157288 C60.74684586 185.49133799 57.21538348 185.50297576 53.68383789 185.51293945 C52.47957909 185.51701498 51.27532028 185.52109051 50.03456879 185.52528954 C43.66049876 185.54616416 37.28645035 185.56045976 30.91235352 185.56982422 C24.32359469 185.58089043 17.73517342 185.61528925 11.14653397 185.65499592 C6.08505621 185.68112425 1.02365932 185.68951273 -4.03787994 185.6931057 C-6.46677174 185.69798156 -8.89565969 185.7096238 -11.32448578 185.72814369 C-14.72400245 185.75245334 -18.12264007 185.75158457 -21.5222168 185.74462891 C-23.02801804 185.76384399 -23.02801804 185.76384399 -24.5642395 185.78344727 C-30.32172157 185.74050143 -33.73282359 185.18361399 -38.26928711 181.2746582 C-42.30880694 176.79843352 -43.39095576 173.71815355 -43.41645813 167.75994873 C-43.42361343 166.61320175 -43.43076874 165.46645477 -43.43814087 164.28495789 C-43.44082977 163.02568985 -43.44351868 161.76642181 -43.44628906 160.46899414 C-43.45255521 159.13017094 -43.45920214 157.79134947 -43.46620178 156.45252991 C-43.48722762 152.05470996 -43.49760315 147.65688972 -43.50756836 143.2590332 C-43.51161654 141.74390902 -43.51573348 140.22878501 -43.51991844 138.71366119 C-43.5389673 131.59469207 -43.55319866 124.47573329 -43.56153041 117.35674357 C-43.57130046 109.14482841 -43.59761498 100.93318297 -43.6380313 92.72136283 C-43.66821355 86.37050009 -43.6830013 80.01971458 -43.68631142 73.66878152 C-43.68865963 69.87737066 -43.6975897 66.08624804 -43.7227726 62.29491425 C-43.74609541 58.72597915 -43.75027002 55.15752121 -43.74001122 51.58852959 C-43.73928175 49.66113569 -43.75834367 47.7337658 -43.77807617 45.80647278 C-43.72748853 37.36992864 -42.51973365 32.14439312 -36.40014648 26.03320312 C-35.87279907 25.49962692 -35.34545166 24.96605072 -34.80212402 24.41630554 C-34.24472534 23.86811661 -33.68732666 23.31992767 -33.11303711 22.75512695 C-32.52889038 22.17048172 -31.94474365 21.58583649 -31.34289551 20.98347473 C-30.11606447 19.75896894 -28.88557652 18.53811698 -27.65161133 17.32080078 C-25.76582037 15.45873508 -23.893842 13.5835636 -22.02319336 11.70629883 C-20.82476649 10.51344543 -19.62557395 9.32136068 -18.42553711 8.13012695 C-17.86813843 7.57181686 -17.31073975 7.01350677 -16.7364502 6.4382782 C-11.16875265 0.97121899 -7.72191366 -0.02446571 0 0 Z M8.73071289 16.2746582 C8.40071289 25.5146582 8.07071289 34.7546582 7.73071289 44.2746582 C4.73071289 49.2746582 4.73071289 49.2746582 2.73071289 50.2746582 C-6.83928711 50.6046582 -16.40928711 50.9346582 -26.26928711 51.2746582 C-26.26928711 89.8846582 -26.26928711 128.4946582 -26.26928711 168.2746582 C6.07071289 168.2746582 38.41071289 168.2746582 71.73071289 168.2746582 C71.73071289 118.1146582 71.73071289 67.9546582 71.73071289 16.2746582 C50.94071289 16.2746582 30.15071289 16.2746582 8.73071289 16.2746582 Z M-11.55444336 25.42700195 C-12.92922852 26.8056543 -12.92922852 26.8056543 -14.33178711 28.2121582 C-15.25088867 29.12868164 -16.16999023 30.04520508 -17.11694336 30.98950195 C-19.38355983 32.87278367 -19.38355983 32.87278367 -19.26928711 34.2746582 C-15.63928711 34.2746582 -12.00928711 34.2746582 -8.26928711 34.2746582 C-8.26928711 30.6446582 -8.26928711 27.0146582 -8.26928711 23.2746582 C-9.67116164 23.16038548 -9.67116164 23.16038548 -11.55444336 25.42700195 Z " fill="#000000" transform="translate(233.269287109375,-0.274658203125)"/>
<path d="M0 0 C0.83965302 -0.00686325 1.67930603 -0.0137265 2.54440308 -0.02079773 C5.31305979 -0.03906153 8.08114962 -0.03522883 10.84985352 -0.02954102 C12.77889693 -0.03410307 14.70793872 -0.03940871 16.63697815 -0.04542542 C20.67781176 -0.05435573 24.71844772 -0.05193433 28.75927734 -0.04199219 C33.93222838 -0.03050352 39.1044967 -0.05071289 44.27735806 -0.07990932 C48.26056741 -0.09827407 52.24361325 -0.09797829 56.22685432 -0.0922718 C58.13379944 -0.09211862 60.04075566 -0.09816068 61.94766045 -0.11056328 C64.61658161 -0.12547642 67.28424269 -0.11479416 69.953125 -0.09765625 C70.73721237 -0.10732422 71.52129974 -0.11699219 72.32914734 -0.12695312 C77.50342386 -0.05753863 80.49601375 0.90985106 84.54125977 4.40405273 C88.02339453 8.82660881 89.04211812 11.69853318 89.04919434 17.30455017 C89.0554343 17.97444035 89.06167426 18.64433052 89.06810331 19.3345204 C89.0839849 21.56631401 89.07144926 23.79700801 89.05883789 26.02880859 C89.06426126 27.63408543 89.07138513 29.23935729 89.08007812 30.84461975 C89.09829049 35.19595985 89.09125227 39.54691994 89.07856178 43.89826655 C89.06842152 48.4567292 89.07783047 53.01515971 89.08410645 57.57362366 C89.0913806 65.22931751 89.08180201 72.88485694 89.06274414 80.54052734 C89.04098359 89.38384288 89.0480217 98.22678939 89.07004976 107.07009596 C89.08821966 114.66944625 89.09075409 122.26868563 89.08029509 129.86805063 C89.07406788 134.40382944 89.07320304 138.93943498 89.08644104 143.47520256 C89.09802182 147.74105096 89.08993341 152.00642518 89.06686401 156.27222252 C89.06158844 157.83507247 89.06307098 159.39796253 89.07191467 160.96079636 C89.14969296 176.10542463 89.14969296 176.10542463 84.54125977 181.40405273 C78.839474 185.85378082 73.91873978 185.97983693 66.85180664 185.92163086 C65.79888931 185.92864014 64.74597198 185.93564941 63.66114807 185.94287109 C60.19383069 185.96042162 56.72733491 185.94883811 53.26000977 185.93530273 C50.8429753 185.93799848 48.42594189 185.94188158 46.00891113 185.94689941 C40.94846246 185.95279051 35.88829661 185.94424362 30.82788086 185.92553711 C24.34802487 185.9027483 17.86883163 185.91587339 11.38899994 185.93982697 C6.39950587 185.95429515 1.41016839 185.94967416 -3.57933044 185.9393158 C-5.96829812 185.93665136 -8.35728012 185.93990827 -10.74623108 185.94923401 C-14.08763175 185.95941589 -17.42796569 185.94387406 -20.76928711 185.92163086 C-22.24388649 185.93377625 -22.24388649 185.93377625 -23.74827576 185.94616699 C-29.84041469 185.87120371 -33.598032 185.19739588 -38.45874023 181.40405273 C-43.58282887 175.20484953 -43.02612235 168.73299656 -42.97631836 160.96069336 C-42.98174509 159.60157015 -42.98887084 158.24245283 -42.99755859 156.88334656 C-43.01572985 153.20764057 -43.00875045 149.53238574 -42.99604225 145.85667229 C-42.98588222 142.00156353 -42.99531624 138.14649219 -43.00158691 134.29138184 C-43.00885462 127.81861469 -42.99929877 121.34603038 -42.98022461 114.87329102 C-42.95845741 107.40060539 -42.96550941 99.92835637 -42.98753023 92.45568132 C-43.00570936 86.02826987 -43.00823033 79.60098949 -42.99777555 73.17356062 C-42.99155437 69.33978085 -42.99066687 65.506206 -43.00392151 61.67243958 C-43.0155162 58.06727068 -43.00738927 54.46266214 -42.98434448 50.85755348 C-42.9765729 48.91116216 -42.98838241 46.9647232 -43.00085449 45.01835632 C-42.92078577 36.7194117 -41.82602772 31.389982 -35.7890625 25.36206055 C-35.30498428 24.87175354 -34.82090607 24.38144653 -34.32215881 23.87628174 C-33.81164474 23.37497742 -33.30113068 22.8736731 -32.77514648 22.35717773 C-32.23776352 21.81929626 -31.70038055 21.28141479 -31.14671326 20.72723389 C-30.01823529 19.60107964 -28.88610411 18.47857517 -27.75048828 17.35961914 C-26.02054723 15.65336922 -24.30441637 13.93408227 -22.58959961 12.21264648 C-21.48557287 11.11419468 -20.38078086 10.01651138 -19.27514648 8.91967773 C-18.76665665 8.41027649 -18.25816681 7.90087524 -17.73426819 7.3760376 C-12.00093799 1.75487236 -8.01960931 -0.04592409 0 0 Z M8.54125977 16.40405273 C8.21125977 26.30405273 7.88125977 36.20405273 7.54125977 46.40405273 C5.54125977 49.40405273 5.54125977 49.40405273 2.54125977 50.40405273 C-6.69874023 50.73405273 -15.93874023 51.06405273 -25.45874023 51.40405273 C-25.45874023 90.01405273 -25.45874023 128.62405273 -25.45874023 168.40405273 C6.55125977 168.40405273 38.56125977 168.40405273 71.54125977 168.40405273 C71.54125977 118.24405273 71.54125977 68.08405273 71.54125977 16.40405273 C50.75125977 16.40405273 29.96125977 16.40405273 8.54125977 16.40405273 Z M-11.52514648 26.33764648 C-12.34885742 27.16393555 -13.17256836 27.99022461 -14.02124023 28.84155273 C-14.8475293 29.66526367 -15.67381836 30.48897461 -16.52514648 31.33764648 C-18.57261559 33.05408553 -18.57261559 33.05408553 -18.45874023 34.40405273 C-15.15874023 34.40405273 -11.85874023 34.40405273 -8.45874023 34.40405273 C-8.45874023 31.10405273 -8.45874023 27.80405273 -8.45874023 24.40405273 C-9.80870744 24.29017738 -9.80870744 24.29017738 -11.52514648 26.33764648 Z " fill="#000000" transform="translate(70.458740234375,-0.404052734375)"/>
<path d="M0 0 C3.47345203 3.44693713 4.42663326 8.00987616 5.8125 12.5625 C11.9652464 31.74526821 23.26318057 45.92069699 40 57 C39.86980469 56.40832031 39.73960937 55.81664062 39.60546875 55.20703125 C38.84330736 50.84062999 38.49661262 48.79567683 40.9375 44.9375 C45.16591378 42.26238108 47.05528108 42.21512398 52 43 C57.04359729 48.1786884 58.6065906 54.7203105 60.8125 61.4375 C61.23208984 62.65244141 61.65167969 63.86738281 62.08398438 65.11914062 C62.47521484 66.29541016 62.86644531 67.47167969 63.26953125 68.68359375 C63.80477417 70.28545532 63.80477417 70.28545532 64.35083008 71.91967773 C65.08744197 75.41491361 65.02732346 77.58192095 64 81 C59.80799007 86.53850856 53.0240216 87.7381827 46.6875 89.8125 C45.47642578 90.23208984 44.26535156 90.65167969 43.01757812 91.08398438 C41.84001953 91.47521484 40.66246094 91.86644531 39.44921875 92.26953125 C38.38018311 92.62635986 37.31114746 92.98318848 36.2097168 93.35083008 C32.46365505 94.10847655 29.71360302 93.85131887 26 93 C23.11618421 90.41196019 22.1508821 88.80470451 21.4375 85 C22.20492927 80.90704388 23.75092789 79.54275208 27 77 C28.98437156 76.28816155 30.98335744 75.61448942 33 75 C32.11699219 74.32195312 31.23398438 73.64390625 30.32421875 72.9453125 C8.94031363 56.41852741 -8.63100758 37.51980861 -13.875 10.0625 C-14.01370662 6.66418778 -13.7730559 4.9013642 -12 2 C-7.98039719 -1.44537384 -5.01340898 -1.3926136 0 0 Z " fill="#000000" transform="translate(98,201)"/>
<path d="M0 0 C2.54047504 2.68161254 3.44919592 4.63555473 3.5 8.3125 C2.97248722 23.90853012 -6.1413746 39.45311106 -16 51 C-16.62003906 51.77601563 -17.24007812 52.55203125 -17.87890625 53.3515625 C-24.10507996 60.79461646 -31.5902292 66.24134501 -39.44702148 71.83007812 C-41.14737629 73.05450437 -41.14737629 73.05450437 -43 75 C-42.37351562 75.25394531 -41.74703125 75.50789063 -41.1015625 75.76953125 C-40.28429687 76.11371094 -39.46703125 76.45789063 -38.625 76.8125 C-37.81289063 77.14894531 -37.00078125 77.48539062 -36.1640625 77.83203125 C-34 79 -34 79 -32 82 C-31.51675761 85.70485832 -31.73662253 87.52592056 -33.5625 90.8125 C-36.75559464 93.67809775 -38.74949509 93.72603953 -43 94 C-46.40917969 93.27490234 -46.40917969 93.27490234 -49.921875 92.0859375 C-50.54854065 91.87442047 -51.1752063 91.66290344 -51.82086182 91.44497681 C-53.13432238 90.9967694 -54.44518105 90.54086961 -55.75341797 90.07763672 C-57.75120479 89.37457601 -59.75870663 88.70768389 -61.76953125 88.04296875 C-63.0502137 87.60108146 -64.33018975 87.15714038 -65.609375 86.7109375 C-66.76405273 86.31181152 -67.91873047 85.91268555 -69.10839844 85.50146484 C-72.46539524 83.7583434 -73.52123711 82.44671331 -75 79 C-74.85633836 72.06643583 -72.47593024 65.80399995 -70.1875 59.3125 C-69.84396484 58.29349609 -69.50042969 57.27449219 -69.14648438 56.22460938 C-65.74017327 46.45303398 -65.74017327 46.45303398 -62 43 C-57.05528108 42.21512398 -55.16591378 42.26238108 -50.9375 44.9375 C-48.24831462 49.18814786 -48.95223951 52.2383954 -50 57 C-31.18235926 44.09145018 -19.48054305 28.39172616 -13.7734375 6.15625 C-12.87464034 3.65051248 -11.7778543 1.97732088 -10 0 C-6.20519658 -1.26493447 -3.87641726 -0.89988258 0 0 Z " fill="#000000" transform="translate(424,201)"/>
<path d="M0 0 C4.44996942 4.44996942 4.19467453 9.66386789 4.31640625 15.60546875 C4.33718735 16.44467361 4.35796844 17.28387848 4.37937927 18.14851379 C4.44474018 20.82809294 4.50369714 23.50776969 4.5625 26.1875 C4.60569802 28.00456737 4.64931273 29.82162488 4.69335938 31.63867188 C4.8004078 36.09234799 4.90171319 40.54612226 5 45 C5.78173584 44.18797119 6.56347168 43.37594238 7.36889648 42.53930664 C10 40 10 40 12.09765625 39.37109375 C15.42601471 39.483583 17.64752348 39.76501565 20.4375 41.625 C22.37231132 44.5659132 22.92809193 46.47650456 23 50 C21.02536274 53.90380721 18.489736 56.75640479 15.40234375 59.828125 C14.51869141 60.70984375 13.63503906 61.5915625 12.72460938 62.5 C11.34499023 63.86125 11.34499023 63.86125 9.9375 65.25 C9.01388672 66.17296875 8.09027344 67.0959375 7.13867188 68.046875 C-0.59833313 75.73301583 -0.59833313 75.73301583 -4.625 76.5 C-8.31283268 75.95365442 -9.02594508 75.39270396 -11.68359375 72.97265625 C-12.38419922 72.33666504 -13.08480469 71.70067383 -13.80664062 71.04541016 C-14.53044922 70.3704248 -15.25425781 69.69543945 -16 69 C-16.70318359 68.34692871 -17.40636719 67.69385742 -18.13085938 67.02099609 C-20.25729282 65.01678839 -22.35001439 62.98218535 -24.4375 60.9375 C-25.15615234 60.25623047 -25.87480469 59.57496094 -26.61523438 58.87304688 C-29.68853847 55.85198024 -31.73521053 53.83457719 -33.0546875 49.67578125 C-32.96651208 45.36148404 -30.96510055 42.96510055 -28 40 C-24.49029232 39.44945762 -22.07004895 39.23475786 -19.09643555 41.36132812 C-18.490979 41.91240234 -17.88552246 42.46347656 -17.26171875 43.03125 C-16.64643311 43.58361328 -16.03114746 44.13597656 -15.3972168 44.70507812 C-14.70559448 45.34606445 -14.70559448 45.34606445 -14 46 C-13.98541748 44.74864258 -13.97083496 43.49728516 -13.95581055 42.20800781 C-13.89782073 37.56351197 -13.8205877 32.91950061 -13.73754883 28.27539062 C-13.70430274 26.26570501 -13.67626981 24.25592609 -13.65356445 22.24609375 C-13.62001278 19.35636653 -13.56769663 16.46749407 -13.51171875 13.578125 C-13.50213387 12.23104462 -13.50213387 12.23104462 -13.49235535 10.85675049 C-13.34627048 4.65317918 -13.34627048 4.65317918 -11.65551758 1.46386719 C-7.97538093 -1.79023978 -4.50121696 -1.04492537 0 0 Z " fill="#000000" transform="translate(261,201)"/>
<path d="M0 0 C0.6461879 -0.0087616 1.29237579 -0.01752319 1.95814514 -0.02655029 C4.08281674 -0.04846176 6.2053874 -0.03402484 8.33007812 -0.01708984 C9.81311439 -0.02046045 11.29614796 -0.02531511 12.7791748 -0.03158569 C15.88283669 -0.03894569 18.9857776 -0.02828105 22.08935547 -0.00488281 C26.06101619 0.02360611 30.03098759 0.00719721 34.00258636 -0.02274513 C37.06366629 -0.04084271 40.12434791 -0.03504918 43.18544006 -0.02210617 C44.6494212 -0.01877887 46.1134389 -0.02283551 47.57737732 -0.03450394 C49.62677287 -0.04725532 51.6734616 -0.02778482 53.72265625 0 C54.88671997 0.00397797 56.05078369 0.00795593 57.25012207 0.01205444 C61.30228387 0.83899785 62.80883336 2.46024856 65.36132812 5.64697266 C66.10596053 9.61834546 65.7339969 11.08796949 63.48632812 14.45947266 C61.01245898 17.00610266 60.21133572 17.60019913 56.68681335 17.79414368 C55.55161758 17.80398788 54.41642181 17.81383209 53.24682617 17.82397461 C51.31923714 17.84322746 51.31923714 17.84322746 49.35270691 17.86286926 C47.94282414 17.87103683 46.53293703 17.87848053 45.12304688 17.88525391 C44.41400522 17.88932943 43.70496357 17.89340496 42.97443581 17.89760399 C39.22099727 17.91846531 35.4675953 17.93276628 31.71411133 17.94213867 C27.84021597 17.95319883 23.96689571 17.9875931 20.09320354 18.02731037 C17.1120142 18.05347743 14.13096182 18.06183057 11.14966774 18.06542015 C9.72193331 18.07028655 8.29420501 18.08190227 6.86658287 18.10045815 C4.86586754 18.12484483 2.86487251 18.12146524 0.86401367 18.11694336 C-0.27356888 18.1228096 -1.41115143 18.12867584 -2.58320618 18.13471985 C-6.30942773 17.5398992 -7.95974758 16.25078143 -10.63867188 13.64697266 C-12.08298042 10.75835556 -12.01555693 8.85049564 -11.63867188 5.64697266 C-8.03711776 1.1055178 -5.7435812 0.0196276 0 0 Z " fill="#000000" transform="translate(391.638671875,62.35302734375)"/>
<path d="M0 0 C0.6461879 -0.0087616 1.29237579 -0.01752319 1.95814514 -0.02655029 C4.08281674 -0.04846176 6.2053874 -0.03402484 8.33007812 -0.01708984 C9.81311439 -0.02046045 11.29614796 -0.02531511 12.7791748 -0.03158569 C15.88283669 -0.03894569 18.9857776 -0.02828105 22.08935547 -0.00488281 C26.06101619 0.02360611 30.03098759 0.00719721 34.00258636 -0.02274513 C37.06366629 -0.04084271 40.12434791 -0.03504918 43.18544006 -0.02210617 C44.6494212 -0.01877887 46.1134389 -0.02283551 47.57737732 -0.03450394 C49.62677287 -0.04725532 51.6734616 -0.02778482 53.72265625 0 C54.88671997 0.00397797 56.05078369 0.00795593 57.25012207 0.01205444 C61.30228387 0.83899785 62.80883336 2.46024856 65.36132812 5.64697266 C66.10596053 9.61834546 65.7339969 11.08796949 63.48632812 14.45947266 C61.01245898 17.00610266 60.21133572 17.60019913 56.68681335 17.79414368 C55.55161758 17.80398788 54.41642181 17.81383209 53.24682617 17.82397461 C51.31923714 17.84322746 51.31923714 17.84322746 49.35270691 17.86286926 C47.94282414 17.87103683 46.53293703 17.87848053 45.12304688 17.88525391 C44.41400522 17.88932943 43.70496357 17.89340496 42.97443581 17.89760399 C39.22099727 17.91846531 35.4675953 17.93276628 31.71411133 17.94213867 C27.84021597 17.95319883 23.96689571 17.9875931 20.09320354 18.02731037 C17.1120142 18.05347743 14.13096182 18.06183057 11.14966774 18.06542015 C9.72193331 18.07028655 8.29420501 18.08190227 6.86658287 18.10045815 C4.86586754 18.12484483 2.86487251 18.12146524 0.86401367 18.11694336 C-0.27356888 18.1228096 -1.41115143 18.12867584 -2.58320618 18.13471985 C-6.30942773 17.5398992 -7.95974758 16.25078143 -10.63867188 13.64697266 C-12.08298042 10.75835556 -12.01555693 8.85049564 -11.63867188 5.64697266 C-8.03711776 1.1055178 -5.7435812 0.0196276 0 0 Z " fill="#000000" transform="translate(66.638671875,62.35302734375)"/>
<path d="M0 0 C1.24494232 -0.00960754 2.48988464 -0.01921509 3.77255249 -0.02911377 C5.13303443 -0.03396171 6.4935185 -0.03824055 7.85400391 -0.04199219 C9.25021364 -0.04774622 10.64642335 -0.05350393 12.04263306 -0.05926514 C14.96966926 -0.06976567 17.89667808 -0.07561457 20.82373047 -0.07910156 C24.56858159 -0.08458525 28.31306894 -0.10861415 32.05780602 -0.13707352 C34.94205778 -0.15572586 37.82622235 -0.16090686 40.71052933 -0.16243744 C42.09079604 -0.16545851 43.47106142 -0.17346866 44.85126877 -0.18662262 C46.78488687 -0.20373588 48.71865548 -0.19995043 50.65234375 -0.1953125 C52.30089859 -0.20078094 52.30089859 -0.20078094 53.98275757 -0.20635986 C57.38397292 0.21409157 59.2227811 1.12142166 61.95556641 3.16113281 C64.30106315 6.67937793 64.53548043 8.01888975 63.95556641 12.16113281 C61.39592258 15.38834771 59.88805604 16.97353028 55.79966736 17.79605103 C54.61482254 17.80002899 53.42997772 17.80400696 52.20922852 17.80810547 C51.22290688 17.82124786 51.22290688 17.82124786 50.21665955 17.83465576 C48.05472791 17.85656766 45.89486056 17.84213159 43.73291016 17.82519531 C42.22505808 17.8285655 40.71720865 17.8334198 39.20936584 17.83969116 C36.05443369 17.84705088 32.90021084 17.83638581 29.74536133 17.81298828 C25.70411063 17.78447498 21.66451834 17.80092404 17.62332821 17.8308506 C14.51167831 17.84892796 11.40042103 17.84316431 8.28875923 17.83021164 C6.79883184 17.82688003 5.30886862 17.8309562 3.81898308 17.84260941 C1.73586615 17.85533001 -0.34457263 17.83593379 -2.42749023 17.80810547 C-3.61153946 17.8041275 -4.79558868 17.80014954 -6.01551819 17.79605103 C-9.04443359 17.16113281 -9.04443359 17.16113281 -11.42674255 14.80819702 C-13.4195178 11.5473741 -13.67121674 9.92183167 -13.04443359 6.16113281 C-9.41790038 0.53375369 -6.4226901 0.03996021 0 0 Z " fill="#000000" transform="translate(68.04443359375,114.8388671875)"/>
<path d="M0 0 C1.24494232 -0.00960754 2.48988464 -0.01921509 3.77255249 -0.02911377 C5.13303443 -0.03396171 6.4935185 -0.03824055 7.85400391 -0.04199219 C9.25021364 -0.04774622 10.64642335 -0.05350393 12.04263306 -0.05926514 C14.96966926 -0.06976567 17.89667808 -0.07561457 20.82373047 -0.07910156 C24.56858159 -0.08458525 28.31306894 -0.10861415 32.05780602 -0.13707352 C34.94205778 -0.15572586 37.82622235 -0.16090686 40.71052933 -0.16243744 C42.09079604 -0.16545851 43.47106142 -0.17346866 44.85126877 -0.18662262 C46.78488687 -0.20373588 48.71865548 -0.19995043 50.65234375 -0.1953125 C52.30089859 -0.20078094 52.30089859 -0.20078094 53.98275757 -0.20635986 C57.38397292 0.21409157 59.2227811 1.12142166 61.95556641 3.16113281 C64.30106315 6.67937793 64.53548043 8.01888975 63.95556641 12.16113281 C61.41080647 15.35936151 59.89945694 16.96850871 55.84436035 17.79605103 C54.68029663 17.80002899 53.51623291 17.80400696 52.31689453 17.80810547 C51.67070663 17.81686707 51.02451874 17.82562866 50.35874939 17.83465576 C48.23407779 17.85656723 46.11150713 17.84213031 43.98681641 17.82519531 C42.50378014 17.82856592 41.02074657 17.83342058 39.53771973 17.83969116 C36.43405784 17.84705116 33.33111693 17.83638652 30.22753906 17.81298828 C26.25587835 17.78449936 22.28590694 17.80090826 18.31430817 17.8308506 C15.25322824 17.84894818 12.19254662 17.84315465 9.13145447 17.83021164 C7.66747333 17.82688434 6.20345563 17.83094098 4.73951721 17.84260941 C2.69012166 17.85536079 0.64343293 17.83589029 -1.40576172 17.80810547 C-2.56982544 17.8041275 -3.73388916 17.80014954 -4.93322754 17.79605103 C-8.98538934 16.96910762 -10.49193883 15.34785691 -13.04443359 12.16113281 C-13.782504 8.22475731 -13.40580067 6.72187483 -11.23193359 3.34863281 C-7.74147738 -0.1418234 -4.72683648 0.02940908 0 0 Z " fill="#000000" transform="translate(393.04443359375,114.8388671875)"/>
<path d="M0 0 C0.65740173 -0.00700928 1.31480347 -0.01401855 1.99212646 -0.02124023 C4.15924667 -0.03880619 6.32505466 -0.02720423 8.4921875 -0.01367188 C10.00146739 -0.01636724 11.51074558 -0.02025003 13.02001953 -0.02526855 C16.18083249 -0.03116164 19.34119284 -0.02260738 22.50195312 -0.00390625 C26.55087307 0.01888393 30.59873248 0.00575973 34.64761353 -0.01819611 C37.76350883 -0.03265965 40.87915324 -0.02804571 43.99505615 -0.01768494 C45.4877739 -0.01501915 46.98051454 -0.01828225 48.47320557 -0.02760315 C50.56087454 -0.03777883 52.64683324 -0.02225756 54.734375 0 C56.51497314 0.00477356 56.51497314 0.00477356 58.33154297 0.00964355 C61.96639895 0.61784026 63.14270974 1.63778487 65.3671875 4.51757812 C66.29585259 8.26148779 65.87093403 11.58204886 64.0546875 14.95507812 C60.8167943 17.95312739 57.42833456 17.65301201 53.23095703 17.67871094 C51.96599396 17.68831848 50.70103088 17.69792603 49.3977356 17.70782471 C48.0151589 17.71267263 46.63258011 17.71695147 45.25 17.72070312 C43.83137002 17.72645703 42.41274006 17.73221474 40.99411011 17.73797607 C38.01999551 17.74847702 35.04590787 17.75432565 32.07177734 17.7578125 C28.26639461 17.76329635 24.46136983 17.78732544 20.65609932 17.81578445 C17.72552458 17.83443527 14.79503566 17.83961771 11.86440659 17.84114838 C10.4618115 17.84416978 9.05921774 17.85218105 7.65668106 17.86533356 C5.69192875 17.88244367 3.72702837 17.87866182 1.76220703 17.87402344 C0.08700485 17.87949188 0.08700485 17.87949188 -1.62203979 17.8850708 C-5.01962542 17.47036403 -6.8987477 16.54362002 -9.6328125 14.51757812 C-11.19752483 11.38815347 -11.32983208 7.90675589 -10.6328125 4.51757812 C-7.44055568 0.36493691 -5.12589442 0.01374188 0 0 Z " fill="#000000" transform="translate(228.6328125,62.482421875)"/>
<path d="M0 0 C1.22169388 -0.00960754 2.44338776 -0.01921509 3.70210266 -0.02911377 C5.0373211 -0.03396228 6.3725417 -0.03824098 7.70776367 -0.04199219 C9.07915752 -0.04774697 10.45055136 -0.05350466 11.82194519 -0.05926514 C14.69770685 -0.06976641 17.57344062 -0.07561456 20.44921875 -0.07910156 C24.12447254 -0.0845799 27.79935466 -0.108597 31.47449207 -0.13707352 C34.30817217 -0.15574898 37.14176368 -0.16090812 39.97550011 -0.16243744 C41.98621795 -0.16691635 43.99688827 -0.1855399 46.00752258 -0.20440674 C47.23867294 -0.20140564 48.4698233 -0.19840454 49.73828125 -0.1953125 C50.81733231 -0.19895813 51.89638336 -0.20260376 53.00813293 -0.20635986 C56.58070866 0.22337914 58.99093574 1.31498125 62.06323242 3.16113281 C63.62794475 6.29055746 63.760252 9.77195505 63.06323242 13.16113281 C60.84458452 16.04725671 59.66264112 17.06083767 56.02758789 17.66906738 C54.84052246 17.67224976 53.65345703 17.67543213 52.43041992 17.67871094 C51.77301819 17.68572021 51.11561646 17.69272949 50.43829346 17.69995117 C48.27117325 17.71751712 46.10536526 17.70591516 43.93823242 17.69238281 C42.42895253 17.69507817 40.91967434 17.69896097 39.41040039 17.70397949 C36.24958743 17.70987258 33.08922708 17.70131832 29.9284668 17.68261719 C25.87954685 17.65982701 21.83168744 17.67295121 17.7828064 17.69690704 C14.66691109 17.71137059 11.55126668 17.70675665 8.43536377 17.69639587 C6.94264602 17.69373009 5.44990539 17.69699319 3.95721436 17.70631409 C1.86954539 17.71648977 -0.21641332 17.7009685 -2.30395508 17.67871094 C-4.08455322 17.67393738 -4.08455322 17.67393738 -5.90112305 17.66906738 C-9.53641994 17.0607969 -10.71033635 16.03954235 -12.93676758 13.16113281 C-13.66481709 10.42024053 -13.51119998 7.93092075 -12.93676758 5.16113281 C-9.35607351 0.34571666 -5.7159184 0.03624928 0 0 Z " fill="#000000" transform="translate(230.936767578125,114.8388671875)"/>
</svg>
