<?xml version="1.0" encoding="UTF-8"?>
<svg version="1.1" xmlns="http://www.w3.org/2000/svg" width="512" height="512">
<path d="M0 0 C2.15799764 0.0054338 4.31598433 0.00780551 6.47398758 0.00987244 C27.18220116 0.04078823 47.64094251 0.47257292 68.18953323 3.31785583 C69.30956741 3.46239197 70.42960159 3.6069281 71.5835762 3.75584412 C108.68370313 8.59080076 156.62769215 15.86684764 182.18953323 46.31785583 C186.5623503 53.1617385 187.33849782 59.16136824 187.34775162 67.11296082 C187.35268959 68.01067648 187.35762757 68.90839215 187.36271518 69.83331132 C187.37809757 72.84736334 187.38645284 75.86139405 187.3948555 78.87547302 C187.40443344 81.03367297 187.41444347 83.19187104 187.42485428 85.35006714 C187.45191851 91.21533369 187.47291988 97.0806083 187.49285626 102.94590282 C187.51470643 109.0731777 187.54209986 115.20042769 187.56891251 121.3276825 C187.6188525 132.93334816 187.6637865 144.53902763 187.70693487 156.14472032 C187.75629606 169.35618639 187.81121834 182.56762749 187.86661446 195.77906942 C187.98045458 222.95864161 188.08728922 250.13823773 188.18953323 277.31785583 C191.53384915 278.2893272 194.87984302 279.25489361 198.22615433 280.21946716 C199.16563416 280.49244881 200.10511398 280.76543045 201.0730629 281.04668427 C209.33805493 283.42380169 217.59219353 285.09835092 226.06453323 286.56980896 C227.59980667 286.85308044 227.59980667 286.85308044 229.16609573 287.14207458 C230.51308548 287.37543518 230.51308548 287.37543518 231.88728714 287.61351013 C234.57635381 288.43619914 235.61469685 288.98420907 237.18953323 291.31785583 C242.30044648 319.66019293 236.62131485 353.07575221 228.18953323 380.31785583 C227.98666702 380.99332458 227.78380081 381.66879333 227.57478714 382.36473083 C221.77738283 401.34306944 212.81889718 420.22285354 201.18953323 436.31785583 C200.50141556 437.28126892 200.50141556 437.28126892 199.79939651 438.2641449 C193.42424545 447.1384897 186.66572867 455.34672064 179.18953323 463.31785583 C177.95374781 464.72875255 176.72398483 466.14496109 175.50203323 467.56785583 C169.86789778 474.03131497 163.69694462 479.74943334 157.18953323 485.31785583 C156.27687698 486.11965271 155.36422073 486.92144958 154.42390823 487.74754333 C145.46410274 495.55245265 135.96544574 502.5687949 126.18953323 509.31785583 C125.31297073 509.93660583 124.43640823 510.55535583 123.53328323 511.19285583 C120.37625939 512.70822728 118.66820154 512.87769066 115.18953323 512.31785583 C112.35356075 510.86623542 109.86212177 509.03480099 107.31453323 507.13035583 C106.57565872 506.59225281 105.83678421 506.05414978 105.07551956 505.4997406 C89.39926814 493.9638197 75.04213924 481.22057148 61.25203323 467.50535583 C60.52959427 466.78767029 59.8071553 466.06998474 59.06282425 465.33055115 C48.18953323 454.42293547 48.18953323 454.42293547 48.18953323 451.31785583 C47.34373199 451.38768677 46.49793076 451.4575177 45.62649918 451.52946472 C37.06392857 452.19462312 28.57214821 452.49006998 19.98250198 452.52098083 C18.0148362 452.53157028 18.0148362 452.53157028 16.00741959 452.54237366 C11.79728509 452.56189318 7.58720875 452.56706565 3.37703323 452.56785583 C2.6592923 452.56815041 1.94155136 452.56844498 1.2020607 452.56874847 C-20.27034044 452.57017236 -41.51131068 452.38992848 -62.81046677 449.31785583 C-63.87222122 449.16866699 -63.87222122 449.16866699 -64.95542526 449.01646423 C-151.61650625 436.82126859 -151.61650625 436.82126859 -175.56437302 407.10691833 C-180.12075517 400.56515336 -181.93197305 394.5147658 -181.94189453 386.54558277 C-181.94573568 385.38530719 -181.94957682 384.2250316 -181.95353436 383.02959615 C-181.95266788 381.75918672 -181.9518014 380.48877729 -181.95090866 379.17987061 C-181.95349337 377.81324768 -181.95650683 376.44662552 -181.95991206 375.08000439 C-181.96797286 371.32528097 -181.96977112 367.57057666 -181.97050953 363.81584561 C-181.97236169 359.76593777 -181.97990985 355.71603981 -181.98664474 351.6661377 C-182.00022211 342.81067422 -182.00625187 333.95521528 -182.0106554 325.09974313 C-182.01341886 319.56930397 -182.01765641 314.03886655 -182.02215958 308.50842857 C-182.03435152 293.19330232 -182.04465095 277.87817746 -182.04803467 262.56304646 C-182.04825423 261.58299075 -182.0484738 260.60293504 -182.04870002 259.59318067 C-182.0489183 258.61079303 -182.04913658 257.62840539 -182.04936147 256.61624843 C-182.04980493 254.62558957 -182.0502515 252.63493071 -182.05070114 250.64427185 C-182.05092257 249.65683836 -182.051144 248.66940487 -182.05137214 247.65204915 C-182.0553196 231.65444864 -182.07277239 215.6568937 -182.09606066 199.6593108 C-182.11978276 183.23098212 -182.13223691 166.8026763 -182.13340259 150.37433022 C-182.13431887 141.15198706 -182.14005943 131.92970327 -182.1582222 122.70737648 C-182.17363476 114.85387348 -182.17873683 107.00044819 -182.1704841 99.14693294 C-182.16658167 95.14164873 -182.16748719 91.13652098 -182.18154144 87.1312561 C-182.19430484 83.46021877 -182.19306166 79.78945508 -182.18095073 76.118418 C-182.17807715 74.17054521 -182.18991103 72.22266759 -182.20237279 70.27483255 C-182.13133729 57.62704275 -179.43353388 49.2336552 -170.68937302 40.10301208 C-145.08253363 15.50530923 -102.04693449 8.89002567 -68.31046677 4.13035583 C-66.67754684 3.89808289 -66.67754684 3.89808289 -65.01163864 3.66111755 C-61.28280763 3.16274703 -57.55048708 2.72164749 -53.81046677 2.31785583 C-52.99738052 2.22958527 -52.18429428 2.1413147 -51.34656906 2.05036926 C-34.24391105 0.26095044 -17.17983922 -0.04498947 0 0 Z M-162.98234177 51.16160583 C-166.67226459 55.5138225 -168.72613307 58.9986793 -168.93546677 64.75535583 C-165.31063187 76.23399967 -156.27569145 82.93247008 -145.99015427 88.41551208 C-119.67667075 101.71205018 -89.81296603 107.49770285 -60.81046677 111.31785583 C-59.71830856 111.46883728 -58.62615036 111.61981873 -57.50089645 111.77537537 C-17.54885968 117.06767861 26.31359771 117.16403376 66.18953323 111.31785583 C67.64734591 111.11157223 69.10519264 110.90552912 70.56306839 110.69969177 C89.82880571 107.94186174 108.648989 104.3729228 127.18953323 98.31785583 C127.95588089 98.0706781 128.72222855 97.82350037 129.51179886 97.5688324 C144.70070015 92.5676088 165.59815447 84.77888241 173.43953323 69.75535583 C174.43617174 65.18742936 174.83578426 61.76345883 173.18953323 57.31785583 C155.54231283 31.30513592 114.80525531 24.67343389 86.31453323 19.15769958 C16.94653579 6.40206289 -108.84449525 -2.59765434 -162.98234177 51.16160583 Z M-168.81046677 89.31785583 C-168.8800519 100.54031203 -168.93332135 111.76271669 -168.96590328 122.98534489 C-168.9815429 128.19676408 -169.00275017 133.40803541 -169.03678513 138.61936951 C-169.06943916 143.65088792 -169.0873326 148.68226431 -169.0950985 153.71388054 C-169.10063114 155.63117648 -169.11143506 157.54846486 -169.12765694 159.46570015 C-169.14951152 162.15625281 -169.15243034 164.84622249 -169.15104294 167.53684998 C-169.16182877 168.3251973 -169.17261459 169.11354462 -169.18372726 169.92578125 C-169.1400208 177.7859008 -166.40078116 183.50005697 -161.06827927 189.27879333 C-116.17354706 229.82386291 -27.97337092 228.6343355 28.57649612 225.8044281 C104.85188732 221.73322916 104.85188732 221.73322916 169.78718948 186.15379333 C173.97491806 180.67125175 174.61853564 176.11274372 174.53010941 169.46678162 C174.53076653 168.16336571 174.53076653 168.16336571 174.53143692 166.83361816 C174.52935571 163.97656879 174.50605622 161.12011454 174.48250198 158.26316833 C174.47690366 156.27634502 174.47263468 154.28951755 174.46963882 152.3026886 C174.45820872 147.08462502 174.42875724 141.8668137 174.39552689 136.64884949 C174.36478648 131.31980298 174.351125 125.99071554 174.33601761 120.66160583 C174.30388586 110.2135786 174.25271163 99.76573823 174.18953323 89.31785583 C173.45225494 89.79271423 172.71497665 90.26757263 171.9553566 90.75682068 C170.49019859 91.69582214 170.49019859 91.69582214 168.99544144 92.65379333 C168.03128815 93.27302673 167.06713486 93.89226013 166.0737648 94.53025818 C139.00026954 111.30994994 106.69904123 117.53886003 75.62703323 122.06785583 C74.60665466 122.21943146 74.60665466 122.21943146 73.56566238 122.37406921 C50.2009298 125.80019452 26.77866425 126.70012637 3.18953323 126.63035583 C1.90170944 126.62853302 0.61388565 126.62671021 -0.7129631 126.62483215 C-20.91140159 126.57685635 -40.77616638 125.98531226 -60.81046677 123.31785583 C-61.81031601 123.18703613 -61.81031601 123.18703613 -62.83036423 123.05357361 C-140.10691004 112.89988504 -140.10691004 112.89988504 -165.31437302 90.53269958 C-166.7480316 89.10773461 -166.7480316 89.10773461 -168.81046677 89.31785583 Z M-168.81046677 200.31785583 C-168.88007792 210.49723741 -168.93333447 220.67656204 -168.96590328 230.85613346 C-168.98153728 235.58328746 -169.0027341 240.3102782 -169.03678513 245.03733826 C-169.06945948 249.60202062 -169.08733682 254.16654628 -169.0950985 258.73133659 C-169.10062752 260.47000532 -169.11142438 262.20866579 -169.12765694 263.94726753 C-169.14953885 266.38877299 -169.15242924 268.82963672 -169.15104294 271.27122498 C-169.16182877 271.98476639 -169.17261459 272.6983078 -169.18372726 273.43347168 C-169.14038223 280.52110006 -166.66407035 286.2233664 -161.90812302 291.43504333 C-122.70034555 326.62712665 -50.29541124 329.14525684 -0.81046677 328.31785583 C-0.79064743 327.24301941 -0.77082809 326.16818298 -0.75040817 325.06077576 C-0.67435419 321.07420869 -0.58563668 317.08800674 -0.49308395 313.10179138 C-0.45479331 311.37627875 -0.41994055 309.65068628 -0.38859177 307.92503357 C-0.34294273 305.44500689 -0.28494896 302.96552993 -0.22452927 300.48582458 C-0.21297806 299.71385239 -0.20142685 298.94188019 -0.1895256 298.14651489 C-0.08525404 294.36538909 0.04299213 292.53766749 2.18953323 289.31785583 C4.76632552 288.61430468 7.1944242 288.07268051 9.81453323 287.63035583 C10.52093948 287.50080505 11.22734573 287.37125427 11.95515823 287.23777771 C13.69792677 286.91984021 15.44350197 286.61735755 17.18953323 286.31785583 C17.18953323 285.98785583 17.18953323 285.65785583 17.18953323 285.31785583 C16.31560173 285.29026436 16.31560173 285.29026436 15.42401505 285.26211548 C-58.00350546 282.92017627 -58.00350546 282.92017627 -68.81046677 279.31785583 C-70.41772311 276.10334314 -69.86794862 272.88173048 -69.81046677 269.31785583 C-61.71185699 269.03805742 -53.80641467 269.50847203 -45.74796677 270.25535583 C-13.69794859 273.1809764 18.13477913 272.78594177 50.18953323 270.31785583 C51.23850784 270.23777283 52.28748245 270.15768982 53.36824417 270.07518005 C56.01926981 269.86318802 58.66681247 269.62994921 61.31453323 269.38035583 C62.03544144 269.31799744 62.75634964 269.25563904 63.49910355 269.19139099 C71.08329293 268.38656079 77.21453892 264.95856609 83.56453323 261.00535583 C84.58631668 260.37089539 84.58631668 260.37089539 85.62874222 259.72361755 C91.94317961 255.68473736 97.67053439 251.0317835 103.3413887 246.14085388 C113.62497433 237.32617332 113.62497433 237.32617332 119.80281448 237.30613708 C123.63818266 238.45188144 125.45400533 239.79459017 128.37703323 242.50535583 C141.89529983 254.50304007 157.57189212 265.19600964 174.18953323 272.31785583 C174.18953323 248.55785583 174.18953323 224.79785583 174.18953323 200.31785583 C170.55953323 202.62785583 166.92953323 204.93785583 163.18953323 207.31785583 C117.87662616 232.6930838 62.19549588 237.32108438 11.18953323 238.31785583 C10.06418167 238.34275085 10.06418167 238.34275085 8.91609573 238.3681488 C4.33771479 238.45833578 -0.23303151 238.41911783 -4.81046677 238.31785583 C-5.72570114 238.29997009 -6.64093552 238.28208435 -7.58390427 238.26365662 C-59.743992 237.12721705 -118.57070999 232.46681948 -163.55460739 203.68113708 C-164.54029709 203.05118835 -165.52598679 202.42123962 -166.54154587 201.77220154 C-167.29028976 201.29226746 -168.03903366 200.81233337 -168.81046677 200.31785583 Z M112.68953323 255.06785583 C84.33042849 278.64483703 52.40601541 291.26002931 16.65706253 298.7328949 C14.20493796 299.21480541 14.20493796 299.21480541 12.18953323 300.31785583 C11.11921546 339.52853578 17.40713822 376.52991044 36.18953323 411.31785583 C36.67075638 412.22011902 36.67075638 412.22011902 37.1617012 413.14060974 C49.24173364 435.63805969 66.51583512 457.01077985 86.18953323 473.31785583 C87.20332055 474.20220885 88.21483062 475.08917574 89.22468948 475.97801208 C95.58106681 481.5519675 102.07318622 486.94639375 108.75203323 492.13035583 C109.41847855 492.66426941 110.08492386 493.19818298 110.77156448 493.74827576 C114.35948573 496.52680291 114.35948573 496.52680291 118.67781448 497.48582458 C122.43602925 495.7382255 125.55563107 493.35982273 128.81453323 490.81785583 C129.52601517 490.27177673 130.2374971 489.72569763 130.97053909 489.16307068 C133.05192932 487.558455 135.12212734 485.94042948 137.18953323 484.31785583 C138.16793167 483.55730896 139.14633011 482.79676208 140.15437698 482.01316833 C185.5489314 445.83404978 216.7449875 396.15580021 223.58748245 337.93162537 C224.54498768 328.6050141 225.19003673 319.27898486 225.35750198 309.90379333 C225.38300125 308.47752625 225.38300125 308.47752625 225.40901566 307.02244568 C225.16335803 303.99530975 224.70899201 301.95617308 223.18953323 299.31785583 C221.03293263 298.27049859 221.03293263 298.27049859 218.41218948 297.94676208 C217.43314651 297.76838806 216.45410355 297.59001404 215.44539261 297.40623474 C213.86467972 297.14592468 213.86467972 297.14592468 212.25203323 296.88035583 C177.436135 290.37702839 148.01693868 274.75975752 120.72078323 252.39207458 C117.21275257 249.93108369 115.45649752 252.6595721 112.68953323 255.06785583 Z M-168.81046677 303.31785583 C-168.8800519 314.54031203 -168.93332135 325.76271669 -168.96590328 336.98534489 C-168.9815429 342.19676408 -169.00275017 347.40803541 -169.03678513 352.61936951 C-169.06943916 357.65088792 -169.0873326 362.68226431 -169.0950985 367.71388054 C-169.10063114 369.63117648 -169.11143506 371.54846486 -169.12765694 373.46570015 C-169.14951152 376.15625281 -169.15243034 378.84622249 -169.15104294 381.53684998 C-169.16182877 382.3251973 -169.17261459 383.11354462 -169.18372726 383.92578125 C-169.1400208 391.7859008 -166.40078116 397.50005697 -161.06827927 403.27879333 C-156.48921052 407.41421528 -151.21281137 410.39252297 -145.81046677 413.31785583 C-144.73409958 413.90437927 -143.65773239 414.49090271 -142.54874802 415.09519958 C-103.67093633 434.64493157 -55.7138824 438.79691861 -12.81046677 439.94285583 C-11.98995834 439.96564606 -11.16944992 439.98843628 -10.32407761 440.01191711 C5.22025711 440.42807801 20.65945368 440.12989817 36.18953323 439.31785583 C36.51953323 438.65785583 36.84953323 437.99785583 37.18953323 437.31785583 C35.67143325 434.69203655 34.09350442 432.16912951 32.43953323 429.63035583 C24.79688742 417.55784066 18.412248 404.62105308 13.18953323 391.31785583 C12.19663284 391.30327332 11.20373245 391.2886908 10.18074417 391.27366638 C-8.52263267 390.97977315 -27.16485128 390.43626507 -45.81046677 388.88035583 C-46.9535228 388.7881929 -46.9535228 388.7881929 -48.11967087 388.69416809 C-50.28834465 388.51668035 -52.45569064 388.32800701 -54.62296677 388.13426208 C-55.84628708 388.02541687 -57.06960739 387.91657166 -58.32999802 387.8044281 C-67.6230738 386.50524881 -67.6230738 386.50524881 -69.81046677 384.31785583 C-70.27194423 379.01086495 -70.27194423 379.01086495 -68.67374802 376.61082458 C-65.91902425 374.69926575 -64.06300133 375.181845 -60.74796677 375.50535583 C-60.09932663 375.56070496 -59.45068649 375.61605408 -58.78239059 375.67308044 C-56.45677175 375.87251001 -54.13387889 376.09420705 -51.81046677 376.31785583 C-31.75734709 378.22456967 -11.9315977 378.55363617 8.18953323 378.31785583 C7.18464241 373.28130268 6.1762307 368.24552903 5.15437698 363.21238708 C4.81192907 361.51837667 4.46948115 359.82436625 4.12703323 358.13035583 C3.95365433 357.28021912 3.78027542 356.4300824 3.60164261 355.55418396 C3.43341995 354.71951599 3.2651973 353.88484802 3.09187698 353.02488708 C2.94226517 352.28730164 2.79265335 351.54971619 2.63850784 350.78977966 C2.06712905 347.64393393 1.62774235 344.48468244 1.18953323 341.31785583 C0.13081009 341.27821716 -0.92791306 341.23857849 -2.01871872 341.19773865 C-135.30203716 336.06596136 -135.30203716 336.06596136 -166.81046677 303.31785583 C-167.47046677 303.31785583 -168.13046677 303.31785583 -168.81046677 303.31785583 Z " fill="#000000" transform="translate(227.81046676635742,-0.3178558349609375)"/>
<path d="M0 0 C2.78125 1.75 2.78125 1.75 5.5 4 C27.05149834 21.09398431 53.26145586 33.06389265 80.0300293 38.87207031 C81.0075415 39.0934668 81.98505371 39.31486328 82.9921875 39.54296875 C83.86214355 39.72883545 84.73209961 39.91470215 85.62841797 40.10620117 C88.57077735 41.21511385 90.03474615 42.5622139 92 45 C92.38873467 47.78542166 92.52149911 50.09849699 92.4375 52.875 C92.42283691 53.66237549 92.40817383 54.44975098 92.39306641 55.26098633 C90.73307929 109.4114579 65.0568833 159.74198082 26.18481445 196.67602539 C2.22377241 219 2.22377241 219 -6 219 C-16.30082243 213.61547919 -25.23686259 205.91927793 -33.7421875 198.0703125 C-35.76475254 196.21571134 -37.83483984 194.44964839 -39.9375 192.6875 C-54.2207816 180.15027086 -65.66993351 164.3165903 -74.96630859 147.83251953 C-75.64677674 146.62619125 -76.33443956 145.42388861 -77.02978516 144.22607422 C-92.9846363 116.70376524 -101.56063981 83.86141426 -102.3125 52.125 C-102.34988281 51.07570313 -102.38726562 50.02640625 -102.42578125 48.9453125 C-101.86017513 45.03277107 -100.97784398 43.62032168 -98 41 C-94.92449895 39.85641182 -91.78138504 39.29082171 -88.5625 38.6875 C-61.27759503 32.80233557 -35.64196117 19.6737004 -13.34375 3.015625 C-12.5703125 2.45359375 -11.796875 1.8915625 -11 1.3125 C-10.38125 0.83425781 -9.7625 0.35601562 -9.125 -0.13671875 C-5.78978313 -1.4916506 -3.44396734 -0.85724839 0 0 Z M-5 14 C-6.0415625 14.68964844 -7.083125 15.37929688 -8.15625 16.08984375 C-30.06136371 30.49635106 -52.61923605 42.93600011 -78 50 C-79.19753906 50.33902344 -80.39507812 50.67804688 -81.62890625 51.02734375 C-84.08118953 51.7069676 -86.53689859 52.36135015 -89 53 C-85.03626453 105.41518611 -63.51525825 154.29626722 -24 189.75 C-22.67294063 190.84100977 -21.33848136 191.92303365 -20 193 C-18.86017474 193.97467326 -17.7209065 194.9499981 -16.58203125 195.92578125 C-15.326696 196.97276481 -14.07017649 198.01832999 -12.8125 199.0625 C-12.21759766 199.5771582 -11.62269531 200.09181641 -11.00976562 200.62207031 C-9.0962364 202.24346064 -9.0962364 202.24346064 -6 204 C-1.38523577 203.33057433 1.89511036 199.81617914 5.3125 196.8125 C5.88790527 196.31492187 6.46331055 195.81734375 7.05615234 195.3046875 C8.19787176 194.31607468 9.33727043 193.32477417 10.47412109 192.33056641 C11.71943547 191.24465227 12.97712307 190.17294121 14.23828125 189.10546875 C24.81346209 180.10671238 33.81205525 170.17609137 42 159 C42.41604492 158.43361816 42.83208984 157.86723633 43.26074219 157.28369141 C55.62796864 140.19416556 64.95662214 121.18298963 71 101 C71.23799316 100.22237305 71.47598633 99.44474609 71.72119141 98.64355469 C76.13277835 83.99940954 79.3986185 68.35730209 79 53 C78.38294189 52.83508057 77.76588379 52.67016113 77.13012695 52.50024414 C49.66678901 45.0665396 25.37521078 33.86694567 1.73242188 18.13378906 C-0.47354631 16.6900861 -2.72487764 15.33156386 -5 14 Z " fill="#000000" transform="translate(351,266)"/>
<path d="M0 0 C2.125 2.125 2.125 2.125 3 5 C2.75 8.0625 2.75 8.0625 1 11 C-36.44071633 32.83622986 -95.60379083 32.42472551 -137.3125 32.3125 C-138.6146344 32.31167419 -139.9167688 32.31084839 -141.25836182 32.30999756 C-157.3390951 32.2865954 -173.34960794 32.02363687 -189.375 30.625 C-190.10635162 30.56196686 -190.83770325 30.49893372 -191.59121704 30.43399048 C-208.03849541 28.96150459 -208.03849541 28.96150459 -212 25 C-212.46141608 21.46247668 -212.52077694 19.70099807 -210.36328125 16.796875 C-207.2099645 14.39931185 -205.72012829 14.70231063 -201.8125 15.125 C-198.87541367 15.42167354 -195.93809556 15.7136466 -193 16 C-192.14782394 16.0835675 -191.29564789 16.16713501 -190.41764832 16.25323486 C-173.09675712 17.9069584 -155.89343306 18.36274139 -138.5 18.3125 C-136.52758331 18.30976578 -136.52758331 18.30976578 -134.51531982 18.30697632 C-114.51966371 18.26853112 -94.82214851 17.80370232 -75 15 C-73.71125977 14.81775879 -72.42251953 14.63551758 -71.09472656 14.44775391 C-50.8674938 11.51809079 -30.87047372 7.65048656 -11.54296875 0.91796875 C-7.39687962 -0.15626603 -4.2672103 -0.3122349 0 0 Z " fill="#000000" transform="translate(369,146)"/>
<path d="M0 0 C3.00805664 1.17358398 3.00805664 1.17358398 5.00805664 2.86108398 C6.39408169 6.06626691 5.8936701 7.81604397 5.00805664 11.17358398 C3.11936951 13.71737671 3.11936951 13.71737671 0.61523438 16.26098633 C-0.06796623 16.96455765 -0.06796623 16.96455765 -0.76496887 17.68234253 C-2.26669179 19.22120964 -3.78618164 20.7408932 -5.30834961 22.25952148 C-6.36444185 23.32660882 -7.42001167 24.39421344 -8.4750824 25.46231079 C-10.68678396 27.69489146 -12.90801704 29.91744593 -15.13574219 32.1340332 C-17.98383762 34.97043486 -20.80120003 37.83533559 -23.61143589 40.70918846 C-25.78266699 42.92107677 -27.97210765 45.11421923 -30.16712761 47.30247879 C-31.21359138 48.3511437 -32.25375019 49.40614109 -33.28726387 50.46757126 C-42.38736141 59.78498969 -42.38736141 59.78498969 -47.55859375 59.89038086 C-50.97596909 59.17691901 -52.43981758 58.72570977 -54.86694336 56.29858398 C-55.85114258 55.34145508 -55.85114258 55.34145508 -56.85522461 54.36499023 C-57.5603418 53.64182617 -58.26545898 52.91866211 -58.99194336 52.17358398 C-59.81049805 51.37823242 -60.62905273 50.58288086 -61.47241211 49.76342773 C-66.569857 44.77394688 -71.36227937 39.59609563 -75.99194336 34.17358398 C-76.32194336 33.84358398 -76.65194336 33.51358398 -76.99194336 33.17358398 C-77.45254942 27.87661429 -77.45254942 27.87661429 -75.80444336 25.36108398 C-73.48483116 23.84133806 -71.75198659 23.43722991 -68.99194336 23.17358398 C-67.10522461 24.25561523 -67.10522461 24.25561523 -65.30444336 25.98608398 C-64.62381836 26.62545898 -63.94319336 27.26483398 -63.24194336 27.92358398 C-61.62732642 29.53820092 -60.02449131 31.16463242 -58.42944336 32.79858398 C-57.56319336 33.68545898 -56.69694336 34.57233398 -55.80444336 35.48608398 C-55.00651367 36.3278418 -54.20858398 37.16959961 -53.38647461 38.03686523 C-50.94932633 40.21161255 -49.01823379 41.05793999 -45.99194336 42.17358398 C-45.48130844 41.64518417 -44.97067352 41.11678436 -44.44456482 40.57237244 C-39.62534775 35.5927636 -34.78690954 30.6325724 -29.92626858 25.69341183 C-27.42803927 23.15345605 -24.93777971 20.60661634 -22.46435547 18.04248047 C-19.6194096 15.09386424 -16.74255952 12.17829 -13.86303711 9.26342773 C-12.98046738 8.33956772 -12.09789764 7.4157077 -11.18858337 6.46385193 C-4.94421356 0.2149921 -4.94421356 0.2149921 0 0 Z " fill="#000000" transform="translate(381.991943359375,344.826416015625)"/>
<path d="M0 0 C4.11648972 3.63466141 6.09891146 7.59346877 7 13 C7.08657015 19.70918645 5.92441928 24.54941766 2 30 C-2.60460753 34.36847381 -6.58050568 36.09347826 -12.875 36.3125 C-18.29640444 36.16771472 -22.56640468 35.22564376 -26.69140625 31.453125 C-31.47874314 26.23896531 -33.49925798 21.28541797 -33.23828125 14.07421875 C-32.41380547 6.89722464 -29.48987774 2.96157289 -24.03515625 -1.65234375 C-16.81439363 -6.43384683 -6.72662078 -4.83897219 0 0 Z M-18.3125 10.625 C-20.50197249 13.7064798 -20.61793165 15.29241009 -20 19 C-18.58333333 21.58333333 -18.58333333 21.58333333 -16 23 C-12.40528996 23.24838381 -12.40528996 23.24838381 -9 22 C-6.75699365 19.92836371 -6.75699365 19.92836371 -6 17 C-6.48762261 13.78683477 -6.48762261 13.78683477 -8 11 C-11.95950004 8.36033331 -14.31089353 7.81306032 -18.3125 10.625 Z " fill="#000000" transform="translate(114,146)"/>
<path d="M0 0 C4.93446743 2.88180987 7.75169669 6.31082853 10 11.625 C11.02385705 17.76814232 10.83013494 23.65206145 7.875 29.25 C4.23790668 34.3015185 0.71763274 36.96900783 -5.375 38.375 C-11.91030389 39.17672873 -16.96073932 38.20517568 -22.375 34.375 C-27.34673725 29.8827704 -29.15670138 25.08190287 -29.6875 18.5 C-29.5085694 12.65120589 -27.76901068 8.07041839 -24.0625 3.5625 C-16.92444085 -2.24754814 -8.61355559 -3.89893899 0 0 Z M-14.6875 13 C-16.5801639 15.31243229 -16.5801639 15.31243229 -16.9375 18.375 C-16.60996998 21.52127033 -16.60996998 21.52127033 -14.25 23.8125 C-11.46254252 25.61284957 -11.46254252 25.61284957 -8.25 25.4375 C-5.25633462 24.58077206 -5.25633462 24.58077206 -3.375 22.1875 C-2.0979113 19.35311861 -2.0979113 19.35311861 -3 16.1875 C-4.20479357 13.1245641 -4.20479357 13.1245641 -7.375 11.375 C-10.67275432 10.86765318 -11.93303405 11.06442933 -14.6875 13 Z " fill="#000000" transform="translate(110.375,356.625)"/>
<path d="M0 0 C3.95488922 5.34444489 5.25396071 10.34622936 5 17 C3.71245412 24.18974736 0.71020146 28.3341035 -5.234375 32.60546875 C-10.81326938 35.41855532 -18.4120441 35.1197312 -24.328125 33.2734375 C-29.11236856 30.71490725 -32.04059366 27.11069394 -34.25 22.25 C-36.06775359 14.37306777 -35.32168681 7.93354738 -31 1 C-22.72544022 -8.04428628 -9.11978914 -8.03409995 0 0 Z M-18.8125 7.9375 C-21.29416092 9.92818271 -21.29416092 9.92818271 -22 13.4375 C-22.22536159 16.88979028 -22.22536159 16.88979028 -21 19.4375 C-18.95647409 21.30945395 -18.95647409 21.30945395 -15.5 21.4375 C-12.12960103 21.26866199 -12.12960103 21.26866199 -10.125 19.8125 C-8.67658924 17.47894933 -8.20065793 15.74232501 -8 13 C-8.42459932 10.73403336 -8.42459932 10.73403336 -10 9 C-13.45013013 7.23660016 -15.09938863 6.69979621 -18.8125 7.9375 Z " fill="#000000" transform="translate(116,254)"/>
</svg>
