<?xml version="1.0" encoding="UTF-8"?>
<svg version="1.1" xmlns="http://www.w3.org/2000/svg" width="512" height="512">
<path d="M0 0 C5.66574162 2.33295243 8.92240295 7.36933303 12.64453125 12.0703125 C14.84526425 14.80754259 17.12920934 17.40992155 19.5 20 C23.41891252 24.29991791 27.09170869 28.75919547 30.75 33.28125 C32.93501569 35.92147729 35.19171391 38.4672972 37.5 41 C41.41768842 45.29857479 45.08967142 49.75609805 48.74609375 54.27734375 C50.95146704 56.94137353 53.2317631 59.50788442 55.5625 62.0625 C69.38440673 77.24473499 69.38440673 77.24473499 69.28125 88.01171875 C68.81542939 92.96106273 66.75021628 95.54148644 63.03125 98.640625 C58.46387016 100.68888297 54.12486119 100.31582672 49.1875 100.1875 C45.825625 100.125625 42.46375 100.06375 39 100 C39.33 111.55 39.66 123.1 40 135 C44.62 132.36 49.24 129.72 54 127 C58.39771351 125.48220507 62.51993724 124.0907443 67 123 C68.08627937 122.73462181 68.08627937 122.73462181 69.19450378 122.46388245 C72.71647406 121.88153264 76.16993212 121.86849345 79.7277832 121.88647461 C80.87004616 121.88625557 80.87004616 121.88625557 82.03538513 121.8860321 C84.54054662 121.88672613 87.04563282 121.8944946 89.55078125 121.90234375 C91.29241393 121.90420974 93.03404714 121.90563279 94.77568054 121.90663147 C99.35085509 121.91044238 103.9259977 121.92026047 108.50115967 121.93133545 C113.17329476 121.94158025 117.84543503 121.94613566 122.51757812 121.95117188 C131.67839942 121.96188404 140.83919705 121.97894332 150 122 C149.97905273 121.39526855 149.95810547 120.79053711 149.93652344 120.16748047 C149.85291055 117.40349229 149.80119946 114.63977087 149.75 111.875 C149.71648437 110.92367187 149.68296875 109.97234375 149.6484375 108.9921875 C149.56469881 102.96300217 149.981115 99.58729579 154 95 C158.53811668 91.50171366 162.45125809 91.35726362 168.03125 91.546875 C172.97626514 92.30164047 175.42122669 94.65211529 179 98 C180.10666142 98.96167193 181.21775619 99.91825405 182.33203125 100.87109375 C184.92240541 103.08917819 187.49983588 105.32081545 190.06640625 107.56640625 C193.71267826 110.75432047 197.38201934 113.91418712 201.0625 117.0625 C201.63564941 117.55314941 202.20879883 118.04379883 202.79931641 118.54931641 C203.95479957 119.53838399 205.11039819 120.52731671 206.26611328 121.51611328 C208.59470161 123.50895471 210.92170262 125.50364418 213.24853516 127.49853516 C214.41339056 128.49712183 215.57842879 129.49549528 216.74365234 130.49365234 C219.70088522 133.02712277 222.65547058 135.56357624 225.60546875 138.10546875 C226.79940825 139.13289491 227.99341799 140.16023947 229.1875 141.1875 C229.7647583 141.68515869 230.3420166 142.18281738 230.93676758 142.69555664 C233.66273507 145.03602596 236.40528303 147.34328978 239.21875 149.578125 C240.1984375 150.35671875 241.178125 151.1353125 242.1875 151.9375 C243.04730469 152.60652344 243.90710938 153.27554688 244.79296875 153.96484375 C248.05540633 156.9732154 249.77256882 159.47764534 250.43359375 163.90234375 C250.44703491 174.34612626 250.44703491 174.34612626 246 179 C243.35724251 181.28019737 240.66631806 183.4777296 237.9296875 185.64453125 C235.19245741 187.84526425 232.59007845 190.12920934 230 192.5 C225.70008209 196.41891252 221.24080453 200.09170869 216.71875 203.75 C214.07852271 205.93501569 211.5327028 208.19171391 209 210.5 C204.70142521 214.41768842 200.24390195 218.08967142 195.72265625 221.74609375 C193.05862647 223.95146704 190.49211558 226.2317631 187.9375 228.5625 C172.75526501 242.38440673 172.75526501 242.38440673 161.98828125 242.28125 C157.99561236 241.9054694 155.89691541 240.74835565 153 238 C150 233 150 233 150 212 C133.17 212 116.34 212 99 212 C95.19243491 246.03191588 95.19243491 246.03191588 106.05537415 276.49879456 C109.91230874 280.25535317 114.40929535 283.14522258 118.87841797 286.10888672 C122.01470538 288.90447731 122.51966799 291.60265165 123.03149414 295.66772461 C122.96762141 300.39777264 121.71048552 304.20907085 118.421875 307.65234375 C117.87015625 308.15894531 117.3184375 308.66554688 116.75 309.1875 C115.38875 310.5796875 115.38875 310.5796875 114 312 C113.91975342 314.59889783 113.91975342 314.59889783 115 317 C115.35027393 318.66318882 115.6859307 320.32959605 116 322 C116.94101562 321.95359375 117.88203125 321.9071875 118.8515625 321.859375 C130.2959347 321.52765407 130.2959347 321.52765407 133.6875 323.6875 C138.25166016 328.25166016 139.37621054 331.64105354 139.40405273 338.08178711 C139.41434761 339.12181129 139.41434761 339.12181129 139.42485046 340.18284607 C139.44308446 342.46455628 139.43928604 344.74557663 139.43359375 347.02734375 C139.43815731 348.62008385 139.44346341 350.21282197 139.44947815 351.80555725 C139.45840262 355.14022837 139.45599393 358.47465992 139.44604492 361.80932617 C139.43455775 366.0743197 139.45476552 370.33848497 139.48396206 374.60336971 C139.50234382 377.89174111 139.50202769 381.17991476 139.49632454 384.46832466 C139.49617156 386.04034143 139.50219697 387.6123718 139.51461601 389.18433952 C139.52956205 391.38635476 139.51882476 393.58684939 139.50170898 395.78881836 C139.50145973 397.66481972 139.50145973 397.66481972 139.50120544 399.57872009 C138.77179104 404.55777782 136.58005501 407.71603707 132.70703125 410.86328125 C129.21913598 412.32789528 126.45658887 412.29317539 122.6875 412.1875 C121.43324219 412.16042969 120.17898438 412.13335937 118.88671875 412.10546875 C117.93410156 412.07066406 116.98148437 412.03585937 116 412 C115.855625 412.721875 115.71125 413.44375 115.5625 414.1875 C115 417 115 417 114.23046875 419.578125 C113.72820461 422.06023581 113.72820461 422.06023581 115.36328125 423.921875 C116.32814453 424.82679688 116.32814453 424.82679688 117.3125 425.75 C121.08641125 429.75789374 123.00919435 433.41902756 123 439 C121.84958247 444.3085981 120.32439919 447.30969025 116.52539062 451.16918945 C116.07299011 451.63517044 115.6205896 452.10115143 115.15447998 452.58125305 C113.66775235 454.10502153 112.16337331 455.60970169 110.65625 457.11328125 C109.60638207 458.17415189 108.55703338 459.23553662 107.50817871 460.29740906 C105.31083435 462.51561059 103.10398848 464.72381276 100.890625 466.92602539 C98.06854071 469.73643055 95.27716906 472.57528817 92.49295807 475.42315388 C90.33457305 477.62231097 88.15785771 479.80260078 85.97563171 481.97807884 C84.93918993 483.01671366 83.90900801 484.06163753 82.88557434 485.11309242 C77.55085662 490.5769287 73.05536016 494.98553763 65.20153809 496.0275116 C60.52950456 495.96912737 56.74154086 494.66331562 53.34765625 491.421875 C52.84105469 490.87015625 52.33445312 490.3184375 51.8125 489.75 C50.884375 488.8425 49.95625 487.935 49 487 C46.40110217 486.91975342 46.40110217 486.91975342 44 488 C42.33681118 488.35027393 40.67040395 488.6859307 39 489 C39.04640625 489.94101562 39.0928125 490.88203125 39.140625 491.8515625 C39.47234593 503.2959347 39.47234593 503.2959347 37.3125 506.6875 C32.74833984 511.25166016 29.35894646 512.37621054 22.91821289 512.40405273 C22.22486343 512.41091599 21.53151398 512.41777924 20.81715393 512.42485046 C18.53544372 512.44308446 16.25442337 512.43928604 13.97265625 512.43359375 C12.37991615 512.43815731 10.78717803 512.44346341 9.19444275 512.44947815 C5.85977163 512.45840262 2.52534008 512.45599393 -0.80932617 512.44604492 C-5.0743197 512.43455775 -9.33848497 512.45476552 -13.60336971 512.48396206 C-16.89174111 512.50234382 -20.17991476 512.50202769 -23.46832466 512.49632454 C-25.04034143 512.49617156 -26.6123718 512.50219697 -28.18433952 512.51461601 C-30.38635476 512.52956205 -32.58684939 512.51882476 -34.78881836 512.50170898 C-36.03948593 512.50154282 -37.2901535 512.50137665 -38.57872009 512.50120544 C-43.55777782 511.77179104 -46.71603707 509.58005501 -49.86328125 505.70703125 C-51.32789528 502.21913598 -51.29317539 499.45658887 -51.1875 495.6875 C-51.14689453 493.80611328 -51.14689453 493.80611328 -51.10546875 491.88671875 C-51.07066406 490.93410156 -51.03585938 489.98148437 -51 489 C-51.721875 488.855625 -52.44375 488.71125 -53.1875 488.5625 C-56 488 -56 488 -58.578125 487.23046875 C-61.06023581 486.72820461 -61.06023581 486.72820461 -62.921875 488.36328125 C-63.52515625 489.00652344 -64.1284375 489.64976562 -64.75 490.3125 C-68.75789374 494.08641125 -72.41902756 496.00919435 -78 496 C-83.3085981 494.84958247 -86.30969025 493.32439919 -90.16918945 489.52539062 C-90.63517044 489.07299011 -91.10115143 488.6205896 -91.58125305 488.15447998 C-93.10502153 486.66775235 -94.60970169 485.16337331 -96.11328125 483.65625 C-97.17415189 482.60638207 -98.23553662 481.55703338 -99.29740906 480.50817871 C-101.51561059 478.31083435 -103.72381276 476.10398848 -105.92602539 473.890625 C-108.73643055 471.06854071 -111.57528817 468.27716906 -114.42315388 465.49295807 C-116.62231097 463.33457305 -118.80260078 461.15785771 -120.97807884 458.97563171 C-122.01671366 457.93918993 -123.06163753 456.90900801 -124.11309242 455.88557434 C-129.5769287 450.55085662 -133.98553763 446.05536016 -135.0275116 438.20153809 C-134.96912737 433.52950456 -133.66331562 429.74154086 -130.421875 426.34765625 C-129.87015625 425.84105469 -129.3184375 425.33445312 -128.75 424.8125 C-127.8425 423.884375 -126.935 422.95625 -126 422 C-125.91975342 419.40110217 -125.91975342 419.40110217 -127 417 C-127.35027393 415.33681118 -127.6859307 413.67040395 -128 412 C-128.94101563 412.04640625 -129.88203125 412.0928125 -130.8515625 412.140625 C-142.2959347 412.47234593 -142.2959347 412.47234593 -145.6875 410.3125 C-150.25166016 405.74833984 -151.37621054 402.35894646 -151.40405273 395.91821289 C-151.41434761 394.87818871 -151.41434761 394.87818871 -151.42485046 393.81715393 C-151.44308446 391.53544372 -151.43928604 389.25442337 -151.43359375 386.97265625 C-151.43815731 385.37991615 -151.44346341 383.78717803 -151.44947815 382.19444275 C-151.45840262 378.85977163 -151.45599393 375.52534008 -151.44604492 372.19067383 C-151.43455775 367.9256803 -151.45476552 363.66151503 -151.48396206 359.39663029 C-151.50234382 356.10825889 -151.50202769 352.82008524 -151.49632454 349.53167534 C-151.49617156 347.95965857 -151.50219697 346.3876282 -151.51461601 344.81566048 C-151.52956205 342.61364524 -151.51882476 340.41315061 -151.50170898 338.21118164 C-151.50154282 336.96051407 -151.50137665 335.7098465 -151.50120544 334.42127991 C-150.77179104 329.44222218 -148.58005501 326.28396293 -144.70703125 323.13671875 C-141.21913598 321.67210472 -138.45658887 321.70682461 -134.6875 321.8125 C-133.43324219 321.83957031 -132.17898437 321.86664063 -130.88671875 321.89453125 C-129.45779297 321.94673828 -129.45779297 321.94673828 -128 322 C-127.855625 321.278125 -127.71125 320.55625 -127.5625 319.8125 C-127 317 -127 317 -126.23046875 314.421875 C-125.72820461 311.93976419 -125.72820461 311.93976419 -127.36328125 310.078125 C-128.32814453 309.17320312 -128.32814453 309.17320312 -129.3125 308.25 C-133.08641125 304.24210626 -135.00919435 300.58097244 -135 295 C-134.7125571 291.95669833 -134.54052216 290.53869197 -133 288 C-130.88061523 286.35717773 -130.88061523 286.35717773 -128.24609375 284.65625 C-120.33634961 279.2315127 -113.42871324 273.73588888 -111.36108398 263.98773193 C-109.08382974 246.84930134 -110.20848324 229.20507475 -111 212 C-127.83 212 -144.66 212 -162 212 C-162 218.93 -162 225.86 -162 233 C-166.7388535 240.10828025 -166.7388535 240.10828025 -171 242 C-175.67706231 242.83219454 -180.61023141 243.04782161 -185.03125 241.109375 C-187.17936507 239.54539648 -189.05825589 237.81647029 -191 236 C-192.10666142 235.03832807 -193.21775619 234.08174595 -194.33203125 233.12890625 C-196.92240541 230.91082181 -199.49983588 228.67918455 -202.06640625 226.43359375 C-205.71267826 223.24567953 -209.38201934 220.08581288 -213.0625 216.9375 C-213.63564941 216.44685059 -214.20879883 215.95620117 -214.79931641 215.45068359 C-215.95479957 214.46161601 -217.11039819 213.47268329 -218.26611328 212.48388672 C-220.59470161 210.49104529 -222.92170262 208.49635582 -225.24853516 206.50146484 C-226.41339056 205.50287817 -227.57842879 204.50450472 -228.74365234 203.50634766 C-231.70088522 200.97287723 -234.65547058 198.43642376 -237.60546875 195.89453125 C-238.79940825 194.86710509 -239.99341799 193.83976053 -241.1875 192.8125 C-241.7647583 192.31484131 -242.3420166 191.81718262 -242.93676758 191.30444336 C-245.66273507 188.96397404 -248.40528303 186.65671022 -251.21875 184.421875 C-252.1984375 183.64328125 -253.178125 182.8646875 -254.1875 182.0625 C-255.04730469 181.39347656 -255.90710938 180.72445312 -256.79296875 180.03515625 C-260.05540633 177.0267846 -261.77256882 174.52235466 -262.43359375 170.09765625 C-262.44703491 159.65387374 -262.44703491 159.65387374 -258 155 C-255.35724251 152.71980263 -252.66631806 150.5222704 -249.9296875 148.35546875 C-247.19245741 146.15473575 -244.59007845 143.87079066 -242 141.5 C-237.70008209 137.58108748 -233.24080453 133.90829131 -228.71875 130.25 C-226.07852271 128.06498431 -223.5327028 125.80828609 -221 123.5 C-216.70142521 119.58231158 -212.24390195 115.91032858 -207.72265625 112.25390625 C-205.05862647 110.04853296 -202.49211558 107.7682369 -199.9375 105.4375 C-184.75526501 91.61559327 -184.75526501 91.61559327 -173.98828125 91.71875 C-169.03893727 92.18457061 -166.45851356 94.24978372 -163.359375 97.96875 C-161.31167572 102.53488403 -161.6831331 106.87333812 -161.8125 111.8125 C-161.83280273 113.28106445 -161.83280273 113.28106445 -161.85351562 114.77929688 C-161.88874688 117.18676625 -161.93800735 119.59309564 -162 122 C-161.05167801 121.99333817 -160.10335602 121.98667633 -159.126297 121.97981262 C-150.13881986 121.91869264 -141.15138553 121.87388026 -132.16374683 121.84456348 C-127.54437838 121.82898418 -122.92517925 121.80788933 -118.3059082 121.77368164 C-113.83845571 121.74080961 -109.3711649 121.723089 -104.90360069 121.71536827 C-103.20896552 121.70987427 -101.51433804 121.69914763 -99.81977272 121.68280983 C-86.48401778 121.55948423 -74.33583233 122.57669656 -62.375 129.0625 C-61.69566406 129.41376953 -61.01632813 129.76503906 -60.31640625 130.12695312 C-57.43870322 131.62824001 -54.70234606 133.19843596 -52 135 C-51.67 123.45 -51.34 111.9 -51 100 C-57.64154623 100.15747273 -57.64154623 100.15747273 -64.28173828 100.36035156 C-70.01572442 100.42873147 -73.58393663 100.04461879 -78 96 C-81.49828634 91.46188332 -81.64273638 87.54874191 -81.453125 81.96875 C-80.69835953 77.02373486 -78.34788471 74.57877331 -75 71 C-74.03832807 69.89333858 -73.08174595 68.78224381 -72.12890625 67.66796875 C-69.91082181 65.07759459 -67.67918455 62.50016412 -65.43359375 59.93359375 C-62.24567953 56.28732174 -59.08581288 52.61798066 -55.9375 48.9375 C-55.44685059 48.36435059 -54.95620117 47.79120117 -54.45068359 47.20068359 C-53.46161601 46.04520043 -52.47268329 44.88960181 -51.48388672 43.73388672 C-49.49104529 41.40529839 -47.49635582 39.07829738 -45.50146484 36.75146484 C-44.50287817 35.58660944 -43.50450472 34.42157121 -42.50634766 33.25634766 C-39.97287723 30.29911478 -37.43642376 27.34452942 -34.89453125 24.39453125 C-33.86710509 23.20059175 -32.83976053 22.00658201 -31.8125 20.8125 C-31.31484131 20.2352417 -30.81718262 19.6579834 -30.30444336 19.06323242 C-27.96397404 16.33726493 -25.65671022 13.59471697 -23.421875 10.78125 C-22.64328125 9.8015625 -21.8646875 8.821875 -21.0625 7.8125 C-20.39347656 6.95269531 -19.72445312 6.09289062 -19.03515625 5.20703125 C-13.49346508 -0.80267222 -7.76836271 -0.89145146 0 0 Z M-9.28515625 42.23828125 C-10.21739715 43.2571478 -11.14273818 44.28235422 -12.0625 45.3125 C-12.55057129 45.85213379 -13.03864258 46.39176758 -13.54150391 46.94775391 C-18.20998425 52.15064241 -22.62207193 57.55171677 -27 63 C-28.65800479 65.00746716 -30.32789048 67.00425638 -32 69 C-30.88625 69.86625 -30.88625 69.86625 -29.75 70.75 C-23.61538462 75.76923077 -23.61538462 75.76923077 -22 79 C-21.89443335 80.88756673 -21.8533695 82.7788611 -21.84178162 84.66934204 C-21.8319928 85.8753154 -21.82220398 87.08128876 -21.81211853 88.32380676 C-21.80621399 89.66720541 -21.80040357 91.01060448 -21.79467773 92.35400391 C-21.78510157 93.76315093 -21.77509165 95.17229507 -21.76467896 96.58143616 C-21.73759543 100.41382168 -21.71660457 104.24621957 -21.69667697 108.07864809 C-21.67483865 112.08121282 -21.64743944 116.0837393 -21.62062073 120.08627319 C-21.57066466 127.66874428 -21.52573666 135.25123657 -21.48259836 142.83374918 C-21.43325086 151.46485364 -21.37832353 160.09591974 -21.32291877 168.72698712 C-21.209054 186.48462408 -21.10296144 204.24229624 -21 222 C-11.1 222 -1.2 222 9 222 C9.02187378 215.54143433 9.02187378 215.54143433 9.04418945 208.95239258 C9.09447551 194.74299108 9.16090909 180.5336992 9.23571491 166.32440662 C9.28068387 157.70741308 9.32009598 149.09046096 9.34643555 140.47338867 C9.36940674 132.96289918 9.40279487 125.45254068 9.44870156 117.94215506 C9.47264573 113.965306 9.49136664 109.98858676 9.49761391 106.01166725 C9.50365943 102.26794138 9.52363964 98.52454774 9.55427551 94.78094482 C9.56725294 92.75302494 9.56548435 90.72502747 9.5632782 88.69706726 C9.57581635 87.48696991 9.58835449 86.27687256 9.60127258 85.03010559 C9.60818603 83.45522228 9.60818603 83.45522228 9.61523914 81.84852314 C10.05921357 78.56162059 11.07431132 76.67608186 13 74 C15.22939106 72.33392403 17.50291506 71.27209987 20 70 C17.00746606 65.05581349 13.34857301 60.98821601 9.44921875 56.734375 C6.14546748 53.04597646 3.04475833 49.20807714 -0.0546875 45.34765625 C-2.38167432 42.53033216 -2.38167432 42.53033216 -5 40 C-7.29498886 39.76675277 -7.29498886 39.76675277 -9.28515625 42.23828125 Z M-199.1875 146.25 C-203.10613877 149.65181648 -207.02815633 153.03982102 -211.04296875 156.328125 C-211.68532471 156.86018555 -212.32768066 157.39224609 -212.98950195 157.94042969 C-214.22922485 158.96585373 -215.47631648 159.98244515 -216.73120117 160.98925781 C-218.63751475 162.53426062 -218.63751475 162.53426062 -221 165 C-221.44402758 169.00808027 -221.44402758 169.00808027 -218.98046875 171.26171875 C-218.05878906 172.06222656 -217.13710937 172.86273438 -216.1875 173.6875 C-215.69483643 174.11957764 -215.20217285 174.55165527 -214.69458008 174.99682617 C-209.56932909 179.45834048 -204.28898641 183.73523001 -199 188 C-196.99287264 189.65839866 -194.99573497 191.32789773 -193 193 C-192.13375 191.88625 -192.13375 191.88625 -191.25 190.75 C-186.23076923 184.61538462 -186.23076923 184.61538462 -183 183 C-180.09740413 182.89093091 -177.2184371 182.8426649 -174.31518555 182.83886719 C-172.96617157 182.83141983 -172.96617157 182.83141983 -171.58990479 182.82382202 C-168.60550174 182.80918022 -165.62115186 182.80239477 -162.63671875 182.796875 C-160.56647235 182.79112487 -158.49622597 182.78536712 -156.42597961 182.77960205 C-152.08061474 182.76908608 -147.7352684 182.76324743 -143.38989258 182.75976562 C-137.82119306 182.75428202 -132.2527382 182.73025927 -126.68411541 182.70179367 C-122.4058816 182.68317102 -118.12770673 182.67796187 -113.84943581 182.67642975 C-111.7965238 182.67340146 -109.74361288 182.66536702 -107.69074059 182.65224457 C-104.81797049 182.63519328 -101.94579819 182.63706223 -99.07299805 182.64355469 C-97.80024773 182.62973251 -97.80024773 182.62973251 -96.50178528 182.6156311 C-91.82524009 182.64874543 -88.81942515 183.0053848 -85 186 C-80.90567998 190.60070651 -81.52465297 196.15886069 -81.48828125 201.98828125 C-81.47033005 203.04661667 -81.45237885 204.10495209 -81.43388367 205.19535828 C-81.37980509 208.56769862 -81.3458921 211.9398976 -81.3125 215.3125 C-81.27932484 217.6022332 -81.244835 219.89194775 -81.20898438 222.18164062 C-81.12408002 227.78763365 -81.05571967 233.39364503 -81 239 C-80.31728027 239.05115967 -79.63456055 239.10231934 -78.93115234 239.1550293 C-78.03348145 239.23148682 -77.13581055 239.30794434 -76.2109375 239.38671875 C-75.32196777 239.45850342 -74.43299805 239.53028809 -73.51708984 239.60424805 C-68.86667633 240.33541393 -65.9882166 242.89199957 -62.9375 246.3125 C-61.12091492 248.28909923 -61.12091492 248.28909923 -58.5625 247.875 C-56.00207708 247.00070925 -53.50808623 246.01328358 -51 245 C-50.94881461 238.40213375 -50.91406513 231.8043197 -50.89013672 225.20629883 C-50.88014929 222.96702155 -50.8665547 220.72775708 -50.84912109 218.48852539 C-50.53265858 188.94396654 -50.53265858 188.94396654 -65.578125 164.19140625 C-76.98257217 153.87222099 -90.11995453 151.86224578 -104.92871094 151.84228516 C-106.19147606 151.83466408 -106.19147606 151.83466408 -107.47975159 151.82688904 C-109.29008733 151.81626775 -111.10043553 151.80761598 -112.91078949 151.80076981 C-115.77777251 151.78888256 -118.64461145 151.7694104 -121.51153564 151.74765015 C-129.65656768 151.68632727 -137.80157807 151.63187852 -145.94677734 151.59863281 C-150.94340426 151.57769753 -155.93975611 151.54241988 -160.93622589 151.49787521 C-162.83558166 151.48372443 -164.73498595 151.47499486 -166.63439178 151.47182083 C-169.28617777 151.46691558 -171.93723018 151.4437731 -174.58886719 151.41650391 C-175.37026566 151.41951004 -176.15166412 151.42251617 -176.95674133 151.4256134 C-181.47767887 151.35652562 -184.39415255 150.78028438 -188 148 C-189.66607597 145.77060894 -190.72790013 143.49708494 -192 141 C-194.43181725 141 -197.33491646 144.63905779 -199.1875 146.25 Z M180 141 C179.443125 142.093125 178.88625 143.18625 178.3125 144.3125 C176.50985464 147.85102608 174.58058239 149.27949786 171 151 C168.14377776 151.2883194 165.50604851 151.41748637 162.65234375 151.40063477 C161.82393478 151.40761383 160.99552582 151.4145929 160.14201355 151.42178345 C157.40707188 151.4417516 154.67250811 151.44126007 151.9375 151.44140625 C150.02521762 151.45318728 148.1129444 151.46655328 146.20068359 151.48143005 C141.1619742 151.51762785 136.12334588 151.53781069 131.08453369 151.55297852 C123.04908956 151.5777827 115.01382511 151.61793485 106.97854614 151.67487907 C104.18869701 151.69103733 101.39902072 151.6949714 98.60913086 151.69789124 C80.30274852 151.7731838 65.09196099 153.28000201 51.19140625 166.578125 C40.21512033 178.70877967 38.82163921 192.68781784 38.90234375 208.37890625 C38.9037587 209.43158188 38.90517365 210.48425751 38.90663147 211.5688324 C38.91218704 214.90008499 38.92473112 218.23126804 38.9375 221.5625 C38.94252075 223.8339834 38.94708265 226.10546786 38.95117188 228.37695312 C38.96214188 233.9179921 38.97883517 239.45899108 39 245 C43.43929022 247.23531018 43.43929022 247.23531018 48.2265625 247.87109375 C50.29875996 246.85325227 51.71040265 245.66066976 53.375 244.0625 C58.31675285 239.66866005 62.48441361 238.90963126 69 239 C69.00586624 238.4097554 69.01173248 237.8195108 69.01777649 237.21138 C69.08175668 231.06288736 69.1661884 224.9149159 69.26245117 218.7668457 C69.29568634 216.47297033 69.32372264 214.17901346 69.34643555 211.88500977 C69.38000674 208.58574727 69.43232535 205.2872307 69.48828125 201.98828125 C69.49467117 200.96414627 69.5010611 199.94001129 69.50764465 198.88484192 C69.69665902 189.71189898 69.69665902 189.71189898 73 186 C77.53434436 182.4544141 81.51613159 182.57216655 87.02539062 182.61181641 C88.37506172 182.60393097 88.37506172 182.60393097 89.7519989 182.59588623 C92.72026024 182.58270428 95.6879834 182.59141801 98.65625 182.6015625 C100.7222097 182.59954125 102.78816871 182.59662938 104.85412598 182.59286499 C109.18162842 182.58844408 113.50894496 182.5948653 117.83642578 182.60888672 C123.38154142 182.62597835 128.92622144 182.61613594 134.47132111 182.59816933 C138.73670734 182.58732528 143.00199041 182.59078071 147.26737976 182.5985527 C149.31190543 182.60055299 151.35644049 182.59810148 153.4009552 182.59111404 C156.25909207 182.58348947 159.11652489 182.59511808 161.97460938 182.61181641 C163.24028999 182.60270737 163.24028999 182.60270737 164.53153992 182.59341431 C169.18470493 182.64374049 172.20269802 183.01315377 176 186 C177.66607597 188.22939106 178.72790013 190.50291506 180 193 C184.94418651 190.00746606 189.01178399 186.34857301 193.265625 182.44921875 C196.95402354 179.14546748 200.79192286 176.04475833 204.65234375 172.9453125 C206.55178936 171.37139584 208.30080455 169.78331404 210 168 C208.5045292 164.40278644 206.47293692 162.36902779 203.5625 159.8125 C202.67175781 159.03003906 201.78101563 158.24757812 200.86328125 157.44140625 C197.11612813 154.24635755 193.32095609 151.11616987 189.4921875 148.01953125 C187.43093968 146.34920974 185.39700262 144.65475103 183.375 142.9375 C181.38169749 140.89464555 181.38169749 140.89464555 180 141 Z M-21 252 C-21.33 255.3 -21.66 258.6 -22 262 C-23.41873285 265.83892419 -24.67099366 266.80001575 -28.1875 268.9375 C-32.98595338 271.13310229 -37.9660827 272.90163071 -42.92236328 274.70532227 C-47.08557932 276.23144636 -51.07199935 277.92935535 -55.0625 279.875 C-59.24744005 281.8171129 -62.3236718 282.73354168 -67 282 C-70.88814214 280.3990003 -73.60511585 278.54616311 -77 276 C-83.6 282.6 -90.2 289.2 -97 296 C-95.35 298.31 -93.7 300.62 -92 303 C-89.62401712 310.12794863 -91.57848534 315.16663476 -94.6875 321.5625 C-97.85265314 328.31097666 -100.49325156 334.9530948 -102.69921875 342.08203125 C-104.48454745 346.08695778 -107.04536832 349.02268416 -111 351 C-115.95 351.495 -115.95 351.495 -121 352 C-121 361.9 -121 371.8 -121 382 C-117.7 382.33 -114.4 382.66 -111 383 C-107.16107581 384.41873285 -106.19998425 385.67099366 -104.0625 389.1875 C-101.86689771 393.98595338 -100.09836929 398.9660827 -98.29467773 403.92236328 C-96.76855364 408.08557932 -95.07064465 412.07199935 -93.125 416.0625 C-91.1828871 420.24744005 -90.26645832 423.3236718 -91 428 C-92.6009997 431.88814214 -94.45383689 434.60511585 -97 438 C-90.4 444.6 -83.8 451.2 -77 458 C-73.535 455.525 -73.535 455.525 -70 453 C-62.87205137 450.62401712 -57.83336524 452.57848534 -51.4375 455.6875 C-44.68902334 458.85265314 -38.0469052 461.49325156 -30.91796875 463.69921875 C-26.91304222 465.48454745 -23.97731584 468.04536832 -22 472 C-21.67 475.3 -21.34 478.6 -21 482 C-11.1 482 -1.2 482 9 482 C9.33 478.7 9.66 475.4 10 472 C11.41873285 468.16107581 12.67099366 467.19998425 16.1875 465.0625 C20.98595338 462.86689771 25.9660827 461.09836929 30.92236328 459.29467773 C35.08557932 457.76855364 39.07199935 456.07064465 43.0625 454.125 C47.24744005 452.1828871 50.3236718 451.26645832 55 452 C58.88814214 453.6009997 61.60511585 455.45383689 65 458 C71.6 451.4 78.2 444.8 85 438 C83.35 435.69 81.7 433.38 80 431 C77.62401712 423.87205137 79.57848534 418.83336524 82.6875 412.4375 C85.85265314 405.68902334 88.49325156 399.0469052 90.69921875 391.91796875 C92.48454745 387.91304222 95.04536832 384.97731584 99 383 C102.3 382.67 105.6 382.34 109 382 C109 372.1 109 362.2 109 352 C105.7 351.67 102.4 351.34 99 351 C95.16107581 349.58126715 94.19998425 348.32900634 92.0625 344.8125 C89.86689771 340.01404662 88.09836929 335.0339173 86.29467773 330.07763672 C84.76855364 325.91442068 83.07064465 321.92800065 81.125 317.9375 C79.1828871 313.75255995 78.26645832 310.6763282 79 306 C80.6009997 302.11185786 82.45383689 299.39488415 85 296 C75.1 286.1 75.1 286.1 65 276 C62.69 277.65 60.38 279.3 58 281 C53.96065128 282.78351697 50.20761733 282.75579515 46.01611328 281.32080078 C42.12517389 279.74287197 38.34807346 277.95029355 34.56640625 276.12890625 C29.48425482 273.69105672 24.3032505 271.9671946 18.91796875 270.30078125 C15.17023491 268.63010472 13.46535419 267.32760031 11 264 C10.01 260.04 9.02 256.08 8 252 C-1.57 252 -11.14 252 -21 252 Z " fill="#000000" transform="translate(262,0)"/>
<path d="M0 0 C1.56548584 0.00749268 1.56548584 0.00749268 3.16259766 0.01513672 C21.50829628 0.42495436 35.31268913 7.74173967 48.3125 20.5 C48.951875 21.11488281 49.59125 21.72976563 50.25 22.36328125 C61.23055304 33.80952738 65.91118185 49.64890422 65.8125 65.1875 C65.80750488 66.23115723 65.80250977 67.27481445 65.79736328 68.35009766 C65.38754564 86.69579628 58.07076033 100.50018913 45.3125 113.5 C44.69761719 114.139375 44.08273437 114.77875 43.44921875 115.4375 C32.00297262 126.41805304 16.16359578 131.09868185 0.625 131 C-0.41865723 130.99500488 -1.46231445 130.99000977 -2.53759766 130.98486328 C-20.88329628 130.57504564 -34.68768913 123.25826033 -47.6875 110.5 C-48.326875 109.88511719 -48.96625 109.27023437 -49.625 108.63671875 C-60.60555304 97.19047262 -65.28618185 81.35109578 -65.1875 65.8125 C-65.18250488 64.76884277 -65.17750977 63.72518555 -65.17236328 62.64990234 C-64.76254564 44.30420372 -57.44576033 30.49981087 -44.6875 17.5 C-44.07261719 16.860625 -43.45773438 16.22125 -42.82421875 15.5625 C-31.37797262 4.58194696 -15.53859578 -0.09868185 0 0 Z M-26.6875 43.5 C-33.79424156 52.75609754 -34.55127417 62.21556569 -33.6875 73.5 C-31.73076086 82.85024081 -25.45200963 90.26851093 -17.5625 95.4375 C-8.95192944 100.59275577 1.59860217 100.90502762 11.26171875 98.8828125 C19.97968525 95.789782 26.64093611 89.4030422 31.33984375 81.5546875 C35.49880319 72.76909448 36.09107971 61.37673615 32.875 52.125 C28.30768671 42.62178322 21.04090791 36.27546516 11.3125 32.5 C-2.90214035 27.76178655 -16.89196272 32.85267687 -26.6875 43.5 Z " fill="#000000" transform="translate(255.6875,301.5)"/>
</svg>
