<?xml version="1.0" encoding="UTF-8"?>
<svg version="1.1" xmlns="http://www.w3.org/2000/svg" width="512" height="512">
<path d="M0 0 C6.23032315 4.79255627 11.80212215 10.72945389 13.18359375 18.6796875 C13.7405223 24.94115565 13.71384305 30.42490342 11.65869141 36.39477539 C11.38384918 37.19903458 11.10900696 38.00329376 10.82583618 38.83192444 C10.61389618 39.44168625 10.40195618 40.05144806 10.18359375 40.6796875 C28.67835078 66.25090099 28.67835078 66.25090099 55.47949219 80.57763672 C71.56058155 82.78629891 88.11779996 81.55011972 104.18359375 79.6796875 C104.42295654 78.79055664 104.66231934 77.90142578 104.90893555 76.98535156 C106.3118844 73.34698201 107.83286812 71.52792536 110.578125 68.7890625 C111.45146484 67.91507812 112.32480469 67.04109375 113.22460938 66.140625 C114.13919922 65.24601562 115.05378906 64.35140625 115.99609375 63.4296875 C117.35057617 62.06457031 117.35057617 62.06457031 118.73242188 60.671875 C127.517569 51.97064185 127.517569 51.97064185 135.12109375 51.3671875 C141.43284989 51.54515055 145.43632924 54.83055412 150.18359375 58.6796875 C155.03725016 60.29757297 160.33992504 60.61863472 165.25390625 58.99609375 C169.42107309 56.82231191 172.48587268 54.04989772 174.18359375 49.6796875 C174.65076711 47.35211371 175.08507283 45.01783046 175.49609375 42.6796875 C176.58872968 36.93120849 177.75094597 33.96057035 182.5625 30.59765625 C187.8225758 27.61905911 193.76059772 28.41618289 199.67675781 28.38452148 C201.91143844 28.36735767 204.14461996 28.32347907 206.37890625 28.27929688 C207.8085829 28.26916507 209.23827211 28.26065049 210.66796875 28.25390625 C211.96444336 28.23932373 213.26091797 28.22474121 214.59667969 28.2097168 C218.77342343 28.75696916 220.88948699 30.11916153 224.18359375 32.6796875 C225.05177734 33.30230469 225.05177734 33.30230469 225.9375 33.9375 C228.34526925 37.30384822 228.74406933 41.69830716 229.55664062 45.69921875 C230.83539063 51.44556815 232.82936477 55.05414844 237.80859375 58.4921875 C242.8905673 60.28028931 248.11261267 60.86845437 253.2421875 58.8828125 C255.79167253 57.45729399 258.09976404 55.74255979 260.43359375 53.9921875 C263.72531641 51.5233955 266.95404668 51.51120635 270.953125 51.3515625 C278.68469997 52.48895707 283.72755628 58.74256829 288.93359375 63.9921875 C289.79597656 64.83458984 290.65835937 65.67699219 291.546875 66.54492188 C292.37058594 67.36927734 293.19429688 68.19363281 294.04296875 69.04296875 C294.79030273 69.78844971 295.53763672 70.53393066 296.30761719 71.30200195 C298.42808872 73.98956992 299.28591809 76.39737606 300.18359375 79.6796875 C334.48152491 84.23900361 334.48152491 84.23900361 365.52890015 72.61242676 C376.35145217 63.21906173 385.65695474 52.16723633 394.18359375 40.6796875 C393.97206161 40.06951782 393.76052948 39.45934814 393.54258728 38.83068848 C393.26806229 38.02611206 392.99353729 37.22153564 392.71069336 36.39257812 C392.43728622 35.59678345 392.16387909 34.80098877 391.88218689 33.9810791 C389.66200009 26.66706617 390.31282712 18.48785061 393.8671875 11.73828125 C398.48681101 4.51412224 403.74333449 -0.92762522 412.18359375 -3.3203125 C422.92947499 -4.65127444 431.47481704 -3.54978448 440.203125 3.25390625 C446.52880067 8.96699017 449.25802805 14.99954942 449.70556641 23.51391602 C449.87949142 32.54020503 448.25677697 39.16511371 442.12890625 45.95703125 C434.40182148 53.34989955 428.17159516 54.99892654 417.625 55.078125 C414.61222443 54.7293133 412.30890784 54.13260458 409.46850586 53.15478516 C408.26211708 52.74252182 408.26211708 52.74252182 407.03135681 52.32192993 C406.421595 52.10998993 405.81183319 51.89804993 405.18359375 51.6796875 C404.79588806 52.21839478 404.40818237 52.75710205 404.00872803 53.31213379 C398.96575694 60.20611503 393.59896598 66.79108359 387.93359375 73.1796875 C387.4810812 73.69040928 387.02856865 74.20113106 386.5623436 74.72732925 C375.08442828 87.49803454 364.10499786 96.13797419 346.5330925 97.41196823 C339.50298289 97.7811821 332.52567661 97.70285886 325.49609375 97.3671875 C324.71977097 97.33037872 323.94344818 97.29356995 323.14360046 97.25564575 C313.44642558 96.76186218 303.81767576 95.89583636 294.18359375 94.6796875 C292.09728465 100.73622721 290.77703014 106.46798852 292.87109375 112.73828125 C295.02950992 116.92021258 297.8144756 119.97426964 302.18359375 121.6796875 C304.51009774 122.17151376 306.84458115 122.62627888 309.18359375 123.0546875 C315.49769894 124.26816917 318.39784002 125.48779667 322.18359375 130.6796875 C323.18359375 133.6796875 323.18359375 133.6796875 323.18359375 142.6796875 C335.06359375 142.6796875 346.94359375 142.6796875 359.18359375 142.6796875 C359.51359375 141.0296875 359.84359375 139.3796875 360.18359375 137.6796875 C364.03400588 129.77259117 369.75268288 125.29623562 377.54296875 121.54296875 C385.30993513 119.0037682 394.58308392 119.84741727 401.93359375 123.29296875 C409.03045365 127.6669015 413.89677198 133.6498247 416.18359375 141.6796875 C418.07479334 150.6366189 416.75093302 157.83026887 412.49609375 165.8671875 C407.55236394 171.87983186 402.05656028 177.24123358 394.18359375 178.6796875 C383.61157999 179.68058821 375.87091536 178.47826557 367.43359375 171.9921875 C363.65837926 168.55137429 361.20704802 164.34202454 359.18359375 159.6796875 C359.18359375 159.0196875 359.18359375 158.3596875 359.18359375 157.6796875 C347.30359375 157.6796875 335.42359375 157.6796875 323.18359375 157.6796875 C323.18359375 160.3196875 323.18359375 162.9596875 323.18359375 165.6796875 C322.04291872 169.47075452 319.98286984 172.10584826 316.74609375 174.4296875 C312.33743822 175.97658418 307.89357988 176.87887738 303.3046875 177.73828125 C298.7201083 179.12111428 296.06826213 181.39844364 293.37109375 185.3046875 C290.96557494 192.14142518 291.86017328 197.95512246 294.18359375 204.6796875 C294.94001663 204.5842012 295.69643951 204.4887149 296.4757843 204.39033508 C306.13246485 203.22885665 315.78150506 202.45279762 325.49609375 201.9921875 C326.26693802 201.95537872 327.03778229 201.91856995 327.83198547 201.88064575 C347.29633859 201.05950469 362.94097075 202.20754717 377.84116554 215.67040443 C381.39641243 219.00381611 384.70286047 222.53336687 387.93359375 226.1796875 C388.38957066 226.69387363 388.84554756 227.20805977 389.31534195 227.7378273 C394.93620549 234.13369085 400.20949711 240.76830567 405.18359375 247.6796875 C405.87030151 247.46815536 406.55700928 247.25662323 407.26452637 247.03868103 C408.61568542 246.62689354 408.61568542 246.62689354 409.99414062 246.20678711 C410.88709839 245.93337997 411.78005615 245.65997284 412.70007324 245.37828064 C420.97355304 243.05102133 428.77851923 244.53432186 436.18359375 248.6796875 C442.58830582 252.91578654 447.0720264 258.23108525 449.18359375 265.6796875 C450.3626393 275.19903067 449.94801767 283.62223307 444.18359375 291.6796875 C438.28339104 298.85560971 431.3366865 302.32761364 422.20703125 303.5234375 C414.14834121 303.93990727 407.42347997 301.79328721 401.18359375 296.6796875 C395.240739 291.10676949 391.64357435 285.78482432 390.90625 277.6015625 C390.75303681 272.33102872 390.98796316 267.96246016 392.70849609 262.96459961 C392.98333832 262.16034042 393.25818054 261.35608124 393.54135132 260.52745056 C393.75329132 259.91768875 393.96523132 259.30792694 394.18359375 258.6796875 C375.68883672 233.10847401 375.68883672 233.10847401 348.88769531 218.78173828 C332.80660595 216.57307609 316.24938754 217.80925528 300.18359375 219.6796875 C299.94495605 220.56881836 299.70631836 221.45794922 299.46044922 222.37402344 C298.05036102 226.02461506 296.51995102 227.83261177 293.75390625 230.5703125 C292.87605469 231.44429687 291.99820312 232.31828125 291.09375 233.21875 C290.17464844 234.11335937 289.25554687 235.00796875 288.30859375 235.9296875 C287.39722656 236.83976563 286.48585938 237.74984375 285.546875 238.6875 C276.16279525 247.94792424 276.16279525 247.94792424 269.30859375 248.0546875 C264.46319171 247.9553674 262.01201755 246.74242654 258.18359375 243.6796875 C252.49705293 239.74285155 248.10215164 238.52838782 241.18359375 239.6796875 C237.62963453 240.61554429 235.32038409 241.62629583 233.18359375 244.6796875 C232.50770012 249.41630717 232.72074606 253.92907025 233.18359375 258.6796875 C234.11171875 258.2053125 235.03984375 257.7309375 235.99609375 257.2421875 C243.61490161 254.00996598 252.44810013 253.71064262 260.18359375 256.6796875 C264.71687457 259.05552372 268.92974749 261.84378999 273.18359375 264.6796875 C274.07046875 263.7721875 274.95734375 262.8646875 275.87109375 261.9296875 C282.42708472 256.36502581 290.87572815 254.24496787 299.37109375 254.6171875 C306.80225473 255.57191944 313.48142842 258.83284697 319.18359375 263.6796875 C319.18359375 264.3396875 319.18359375 264.9996875 319.18359375 265.6796875 C320.03630859 264.97392578 320.03630859 264.97392578 320.90625 264.25390625 C329.18802323 257.57594887 336.39422588 254.30361578 347.18359375 254.6796875 C356.89405651 256.20267281 363.81118273 260.21661382 370.18359375 267.6796875 C374.62135476 274.3953418 375.34281421 280.64776611 375.5 288.5078125 C375.53144356 289.83526993 375.53144356 289.83526993 375.56352234 291.18954468 C375.63022835 294.10283223 375.68907453 297.016195 375.74609375 299.9296875 C375.76627563 300.9269989 375.78645752 301.9243103 375.80725098 302.95184326 C375.95153978 310.19418679 376.07228704 317.43676951 376.18359375 324.6796875 C376.19904236 325.63983765 376.21449097 326.59998779 376.23040771 327.5892334 C376.31551987 332.99087822 376.38007259 338.39209925 376.4147644 343.79431152 C376.4270735 345.43539075 376.44438035 347.07644211 376.46731567 348.71740723 C376.82849009 376.11826872 370.73794517 403.60811553 352.18359375 424.6796875 C351.54292969 425.46214844 350.90226562 426.24460937 350.2421875 427.05078125 C334.57252497 445.548486 312.24778139 457.65094504 288.18359375 460.6796875 C283.22186782 460.974861 278.27818732 461.0133726 273.30859375 460.9921875 C272.63028503 460.99036469 271.95197632 460.98854187 271.25311279 460.98666382 C231.73920251 460.80866278 202.93232063 447.62444746 173.21484375 422.25390625 C167.55214577 417.44499135 161.71979016 412.8644837 155.84375 408.3203125 C155.05766357 407.7116333 154.27157715 407.1029541 153.46166992 406.47583008 C151.90260911 405.26998532 150.34168136 404.06654904 148.77856445 402.8659668 C128.49186904 387.19018714 128.49186904 387.19018714 126.18359375 374.6796875 C125.00837461 362.41091631 126.51310843 352.24156692 134.37109375 342.2421875 C139.81156964 336.51537077 147.38556168 332.88566362 155.27734375 332.546875 C156.40140625 332.54945313 157.52546875 332.55203125 158.68359375 332.5546875 C159.80765625 332.55210937 160.93171875 332.54953125 162.08984375 332.546875 C165.18359375 332.6796875 165.18359375 332.6796875 169.18359375 333.6796875 C169.18359375 303.3196875 169.18359375 272.9596875 169.18359375 241.6796875 C163.15944041 239.67163639 157.36240054 238.08697921 151.1953125 240.4375 C148.38135422 242.02230134 145.88902411 243.91534321 143.37109375 245.9296875 C139.03477859 248.31040955 135.03127551 248.68469469 130.18359375 247.6796875 C124.22924754 244.46434055 119.68797845 239.55140384 114.93359375 234.8046875 C114.11890625 234.01449219 113.30421875 233.22429687 112.46484375 232.41015625 C111.29695313 231.24806641 111.29695313 231.24806641 110.10546875 230.0625 C109.4000293 229.36527832 108.69458984 228.66805664 107.96777344 227.94970703 C105.89723386 225.31535058 105.07238227 222.88932937 104.18359375 219.6796875 C69.88566259 215.12037139 69.88566259 215.12037139 38.83828735 226.74694824 C28.01573533 236.14031327 18.71023276 247.19213867 10.18359375 258.6796875 C10.39512589 259.28985718 10.60665802 259.90002686 10.82460022 260.52868652 C11.09912521 261.33326294 11.37365021 262.13783936 11.65649414 262.96679688 C12.06660484 264.16048889 12.06660484 264.16048889 12.48500061 265.3782959 C14.70518741 272.69230883 14.05436038 280.87152439 10.5 287.62109375 C5.31064661 295.73619535 -0.80268075 301.04458585 -10.36328125 303.2734375 C-19.45173586 304.51533813 -26.81859678 302.40739942 -34.515625 297.5234375 C-39.55294218 293.4867419 -42.84973798 287.78253253 -44.81640625 281.6796875 C-45.78047657 272.23179835 -45.78917845 263.54165771 -39.81640625 255.6796875 C-34.30241329 249.35876875 -27.45507423 245.38956272 -19.0859375 244.3359375 C-14.23476392 244.17172288 -10.26396594 244.78701964 -5.62695312 246.20678711 C-4.72618042 246.4813121 -3.82540771 246.7558371 -2.89733887 247.03868103 C-2.2106311 247.25021317 -1.52392334 247.4617453 -0.81640625 247.6796875 C-0.42870056 247.14098022 -0.04099487 246.60227295 0.35845947 246.04724121 C5.40143056 239.15325997 10.76822152 232.56829141 16.43359375 226.1796875 C17.11236258 225.41360483 17.11236258 225.41360483 17.8048439 224.63204575 C29.28275922 211.86134046 40.26218964 203.22140081 57.834095 201.94740677 C64.86420461 201.5781929 71.84151089 201.65651614 78.87109375 201.9921875 C79.64741653 202.02899628 80.42373932 202.06580505 81.22358704 202.10372925 C90.92076192 202.59751282 100.54951174 203.46353864 110.18359375 204.6796875 C112.30820269 198.49331055 113.80992282 192.66486576 111.23828125 186.36328125 C108.80026543 182.20025424 106.57313199 179.84651755 102.18359375 177.6796875 C98.65684111 176.87147335 95.12975047 176.29598438 91.55859375 175.71875 C86.95801512 174.30236815 84.64362273 171.69591799 81.87109375 167.8671875 C81.18359375 165.6796875 81.18359375 165.6796875 81.18359375 157.6796875 C69.30359375 157.6796875 57.42359375 157.6796875 45.18359375 157.6796875 C44.19359375 160.6496875 44.19359375 160.6496875 43.18359375 163.6796875 C38.67620479 171.39667232 32.79115928 176.2863644 24.18359375 178.6796875 C14.4651048 179.66996007 5.83275872 179.02444459 -2.06640625 172.94921875 C-9.20325447 166.3764964 -12.35082477 159.09457273 -12.91796875 149.453125 C-12.58289533 140.30304324 -8.65369466 133.17985567 -2.06640625 126.9921875 C5.00615109 121.13724992 11.40601761 119.98670823 20.57421875 120.203125 C28.06133465 121.19168359 34.65955797 124.56825122 39.74609375 130.1796875 C42.6433302 134.04266943 45.18359375 137.74264354 45.18359375 142.6796875 C57.06359375 142.6796875 68.94359375 142.6796875 81.18359375 142.6796875 C81.18359375 139.7096875 81.18359375 136.7396875 81.18359375 133.6796875 C82.8396784 129.95349703 85.0588829 127.28276086 88.18359375 124.6796875 C90.86674507 123.86712432 93.38708203 123.21801615 96.12109375 122.6796875 C102.68197428 121.3807414 107.00966636 119.82813407 110.99609375 114.0546875 C113.40161256 107.21794982 112.50701422 101.40425254 110.18359375 94.6796875 C109.42717087 94.7751738 108.67074799 94.8706601 107.8914032 94.96903992 C98.23472265 96.13051835 88.58568244 96.90657738 78.87109375 97.3671875 C77.71482735 97.42240067 77.71482735 97.42240067 76.53520203 97.47872925 C57.07084891 98.29987031 41.42621675 97.15182783 26.52602196 83.68897057 C22.97077507 80.35555889 19.66432703 76.82600813 16.43359375 73.1796875 C15.97761684 72.66550137 15.52163994 72.15131523 15.05184555 71.6215477 C9.43098201 65.22568415 4.15769039 58.59106933 -0.81640625 51.6796875 C-1.42657593 51.89121964 -2.03674561 52.10275177 -2.66540527 52.32069397 C-3.46998169 52.59521896 -4.27455811 52.86974396 -5.10351562 53.15258789 C-5.8993103 53.42599503 -6.69510498 53.69940216 -7.51501465 53.98109436 C-14.82902758 56.20128116 -23.00824314 55.55045413 -29.7578125 51.99609375 C-36.98197151 47.37647024 -42.42371897 42.11994676 -44.81640625 33.6796875 C-46.14736819 22.93380626 -45.04587823 14.38846421 -38.2421875 5.66015625 C-28.78659888 -4.80931833 -12.23719411 -7.30517153 0 0 Z M-28.69140625 17.8046875 C-30.39305616 22.15334839 -30.71082868 26.08593391 -29.81640625 30.6796875 C-27.40776025 34.93574159 -24.33964403 37.80527185 -19.81640625 39.6796875 C-14.57751632 40.1647699 -11.24861324 39.53599867 -6.81640625 36.6796875 C-3.41515742 33.00266173 -1.97808308 30.39346187 -1.50390625 25.3671875 C-1.96367605 19.94190383 -4.40494935 17.25719815 -7.94140625 13.3046875 C-15.62395464 8.96237754 -23.08634135 11.45228061 -28.69140625 17.8046875 Z M408.18359375 17.6796875 C405.9625846 21.46803087 405.80408746 24.27741456 406.18359375 28.6796875 C408.17203492 34.01708223 411.09027023 37.13302574 416.18359375 39.6796875 C422.2941361 40.18889936 425.32156706 39.76820994 430.18359375 35.6796875 C432.7600852 33.37440568 434.0022237 31.78456425 434.56640625 28.34765625 C434.8226299 22.65095046 434.12666242 19.04903386 430.18359375 14.6796875 C426.40661482 11.34705903 422.56596943 11.05317237 417.69140625 11.19140625 C413.48400954 12.01060343 410.82997418 14.40178447 408.18359375 17.6796875 Z M191.18359375 43.6796875 C190.62671875 46.3403125 190.62671875 46.3403125 190.05859375 49.0546875 C187.48235586 59.13406985 183.43629486 65.51122009 174.74609375 71.3046875 C169.38558927 74.18105576 164.47096383 75.06841536 158.43359375 75.0546875 C157.73202148 75.05380127 157.03044922 75.05291504 156.30761719 75.05200195 C148.45096931 74.87409855 142.35575461 72.53122836 136.18359375 67.6796875 C131.85854539 69.33832255 129.0894055 72.5507285 125.93359375 75.8046875 C125.37929687 76.36800781 124.825 76.93132812 124.25390625 77.51171875 C122.8925489 78.89654778 121.53744516 80.28751954 120.18359375 81.6796875 C121.39941667 84.80920478 122.70753701 87.82117442 124.24609375 90.8046875 C128.20036772 98.47448682 128.56849696 108.06093733 126.5 116.453125 C125.55699486 118.6834691 124.48410157 120.63895354 123.18359375 122.6796875 C122.79429687 123.37449219 122.405 124.06929688 122.00390625 124.78515625 C117.97176459 131.14353348 112.11260441 134.09877487 105.18359375 136.6796875 C100.72859375 137.6696875 100.72859375 137.6696875 96.18359375 138.6796875 C96.18359375 145.9396875 96.18359375 153.1996875 96.18359375 160.6796875 C98.84421875 161.2365625 98.84421875 161.2365625 101.55859375 161.8046875 C111.6379761 164.38092539 118.01512634 168.42698639 123.80859375 177.1171875 C126.68479918 182.47738853 127.57304024 187.39249795 127.55859375 193.4296875 C127.55698242 194.13270996 127.55537109 194.83573242 127.55371094 195.56005859 C127.34418591 204.51006393 124.11430941 210.28361401 119.18359375 217.6796875 C124.13359375 222.6296875 129.08359375 227.5796875 134.18359375 232.6796875 C138.71939536 230.11906889 138.71939536 230.11906889 143.16796875 227.4140625 C151.02927027 223.03121298 160.48687836 224.36119131 169.18359375 224.6796875 C170.84925769 212.05122954 170.84925769 212.05122954 166.98046875 200.5625 C164.14421791 198.38494129 161.24577003 196.52197241 158.18359375 194.6796875 C147.95434861 185.84353022 141.13445765 169.90313237 140.01220703 156.65673828 C138.84553935 138.01911822 143.55477085 121.32908563 155.80859375 106.8671875 C167.39437941 94.78838968 183.16648485 88.00886782 199.77563477 87.34301758 C217.62407483 87.00649721 233.93959466 92.82066649 246.96875 105.30078125 C259.65045032 118.92186678 265.12573972 135.76416909 264.52734375 154.1484375 C263.58286438 170.06966118 256.58951826 183.70864631 245.89453125 195.30859375 C243.05881804 197.7888213 240.48115929 198.97446885 237.05859375 200.4921875 C234.12224722 201.9060263 234.12224722 201.9060263 232.18359375 204.6796875 C230.77690285 211.88159937 231.51963462 219.42071053 232.18359375 226.6796875 C233.01246094 226.35742188 233.84132813 226.03515625 234.6953125 225.703125 C238.52190476 224.5804294 242.04228573 224.29528151 245.99609375 224.3046875 C246.70241943 224.30629883 247.40874512 224.30791016 248.13647461 224.30957031 C254.01046291 224.4472261 258.21897027 225.6730744 263.18359375 228.6796875 C265.49359375 229.9996875 267.80359375 231.3196875 270.18359375 232.6796875 C275.13359375 227.7296875 280.08359375 222.7796875 285.18359375 217.6796875 C283.48203125 214.8334375 283.48203125 214.8334375 281.74609375 211.9296875 C276.68232605 203.45938517 276.24594346 195.390353 277.18359375 185.6796875 C278.04977078 182.29971409 279.33366443 179.62247936 281.18359375 176.6796875 C281.52261719 176.05835938 281.86164063 175.43703125 282.2109375 174.796875 C286.79641038 167.25777013 294.53052868 163.89619391 302.80859375 161.8046875 C304.58234375 161.4334375 306.35609375 161.0621875 308.18359375 160.6796875 C308.18359375 153.4196875 308.18359375 146.1596875 308.18359375 138.6796875 C305.52296875 138.1228125 305.52296875 138.1228125 302.80859375 137.5546875 C292.7292114 134.97844961 286.35206116 130.93238861 280.55859375 122.2421875 C277.68222549 116.88168302 276.79486589 111.96705758 276.80859375 105.9296875 C276.8099231 104.8773291 276.8099231 104.8773291 276.8112793 103.80371094 C276.96578896 96.98018781 278.53926845 91.03716019 282.8203125 85.6015625 C284.47287833 83.66458714 284.47287833 83.66458714 284.18359375 80.6796875 C283.52359375 80.6796875 282.86359375 80.6796875 282.18359375 80.6796875 C282.18359375 80.0196875 282.18359375 79.3596875 282.18359375 78.6796875 C281.52359375 78.6796875 280.86359375 78.6796875 280.18359375 78.6796875 C280.18359375 78.0196875 280.18359375 77.3596875 280.18359375 76.6796875 C278.537714 74.93692974 278.537714 74.93692974 276.43359375 73.1796875 C275.7375 72.57125 275.04140625 71.9628125 274.32421875 71.3359375 C271.47780689 69.07525212 271.47780689 69.07525212 268.18359375 67.6796875 C265.64342468 68.72205964 265.64342468 68.72205964 263.18359375 70.4921875 C255.46831017 75.63178952 247.22940148 75.51151196 238.18359375 74.6796875 C231.5515656 73.18213276 225.51707915 69.98794223 221.18359375 64.6796875 C216.88270201 57.71681196 214.98698664 51.7949555 213.18359375 43.6796875 C205.92359375 43.6796875 198.66359375 43.6796875 191.18359375 43.6796875 Z M165.73828125 117.75390625 C157.41488401 128.06404403 153.35890592 139.93905247 153.80078125 153.1953125 C154.94096131 163.57327792 158.69355203 175.03426758 166.875 181.95703125 C167.63683594 182.52550781 168.39867187 183.09398437 169.18359375 183.6796875 C169.20341309 182.97996826 169.22323242 182.28024902 169.24365234 181.55932617 C169.34006927 178.32829378 169.4492665 175.09780783 169.55859375 171.8671875 C169.58953125 170.76697266 169.62046875 169.66675781 169.65234375 168.53320312 C170.08619777 156.27682717 170.93822899 144.90979886 180.0390625 135.828125 C187.28891073 129.95299849 194.95351245 128.0541037 204.1953125 128.3359375 C212.85987217 129.33264502 219.27697263 133.4175753 225.18359375 139.6796875 C230.28755542 146.12679698 231.46594167 152.73248802 231.59765625 160.80078125 C231.6170224 161.54554214 231.63638855 162.29030304 231.65634155 163.05763245 C231.71559531 165.41070499 231.76230289 167.76382793 231.80859375 170.1171875 C231.8468236 171.72332733 231.88587817 173.32944775 231.92578125 174.93554688 C232.02125125 178.85010075 232.10547918 182.76475041 232.18359375 186.6796875 C241.78249582 178.81298022 248.20239435 169.16498183 250.18359375 156.6796875 C251.32212314 141.89746986 247.81827992 129.09465924 238.44140625 117.53125 C229.80764904 108.18099841 218.45950955 102.54659552 205.83984375 101.3671875 C190.44614499 100.82227781 176.29099838 106.36807987 165.73828125 117.75390625 Z M4.30859375 141.9921875 C2.62327837 146.01821867 1.51427764 149.445845 2.80859375 153.765625 C4.94486835 158.55444056 7.29069721 161.46403623 12.18359375 163.6796875 C16.9627303 164.50338069 20.23160535 164.17331112 24.55859375 161.9296875 C29.28867782 157.87532972 30.75701498 155.13096812 31.24609375 148.92578125 C31.15104035 145.50979962 30.12284169 143.45927621 28.18359375 140.6796875 C23.89070187 136.80561434 21.2176195 135.31305622 15.34765625 135.3984375 C10.66414858 136.00712442 7.28177518 138.32526374 4.30859375 141.9921875 Z M375.37109375 141.3671875 C373.49932236 145.01221599 373.07015749 148.603072 373.18359375 152.6796875 C375.0083382 158.05254617 378.13161446 161.15369785 383.18359375 163.6796875 C387.85830167 164.25000187 391.30675873 164.11810501 395.55859375 161.9921875 C399.07840139 158.89140458 400.67222066 156.32338672 402.05859375 151.8671875 C402.22589479 147.60101108 401.26100985 144.3984209 399.18359375 140.6796875 C395.40220837 136.99283675 392.64948461 135.79984249 387.37109375 135.3671875 C382.12786873 135.43465547 379.12348152 137.87358509 375.37109375 141.3671875 Z M188.43359375 148.4296875 C184.47608627 154.1460872 183.8875431 159.87378109 183.93203735 166.67645264 C183.92906721 167.45210831 183.92609708 168.22776398 183.92303693 169.02692437 C183.91543539 171.61014848 183.92187492 174.19314264 183.92822266 176.77636719 C183.92547109 178.63457899 183.92179018 180.49278962 183.91725159 182.35099792 C183.90915509 186.34405864 183.90696715 190.33706341 183.90919876 194.33013153 C183.91203453 200.64089018 183.89767185 206.95153715 183.88021851 213.26226807 C183.83321095 231.20428815 183.80923649 249.14629995 183.80273438 267.08837891 C183.79898939 277.00394169 183.78100996 286.91937749 183.74764001 296.83488584 C183.72737994 303.11217907 183.7250775 309.38914588 183.73592019 315.66645861 C183.73851951 319.56390133 183.72456253 323.46115216 183.70583916 327.3585453 C183.70049845 329.16979843 183.70204583 330.98108649 183.71087456 332.79232597 C183.72193155 335.25896583 183.70864087 337.72429784 183.68911743 340.19085693 C183.69824209 340.9127328 183.70736675 341.63460866 183.71676791 342.37835956 C183.66711376 345.58689821 183.57322512 347.25871465 181.35121727 349.65945816 C177.55026164 351.44844339 174.02106167 350.1373468 170.08203125 349.15625 C163.14536488 347.46497799 156.40603201 346.06846837 149.80859375 349.3671875 C144.97494645 353.62540059 141.80895685 357.76515504 140.77734375 364.22265625 C140.74640625 365.09535156 140.71546875 365.96804688 140.68359375 366.8671875 C140.63203125 367.72699219 140.58046875 368.58679688 140.52734375 369.47265625 C142.48978736 379.06293127 148.95946995 384.7334452 156.68359375 390.0546875 C158.4754621 391.34115289 160.26451102 392.63155405 162.05078125 393.92578125 C163.36127441 394.87106689 163.36127441 394.87106689 164.69824219 395.83544922 C168.20897378 398.4405638 171.52266453 401.23649973 174.80859375 404.1171875 C175.3718335 404.60928711 175.93507324 405.10138672 176.51538086 405.60839844 C177.58247019 406.5413276 178.64914347 407.47473294 179.71533203 408.40869141 C183.43443118 411.62811777 187.31245512 414.64699825 191.18359375 417.6796875 C192.17746094 418.48148437 193.17132813 419.28328125 194.1953125 420.109375 C219.38169405 440.24155597 251.37461855 449.56111123 283.68359375 446.1171875 C304.35885112 443.40258059 321.667794 434.56490132 336.18359375 419.6796875 C336.9209375 418.95136719 337.65828125 418.22304688 338.41796875 417.47265625 C357.24685194 397.80450113 361.39684863 371.79788571 361.30859375 345.7421875 C361.30637817 344.88328918 361.3041626 344.02439087 361.30187988 343.13946533 C361.28535696 337.61559852 361.2510574 332.09200576 361.2064209 326.56829834 C361.1910897 324.62824553 361.1771944 322.68818089 361.16467285 320.74810791 C361.1269481 314.94366291 361.06658805 309.14023536 360.97406006 303.33639526 C360.94721751 301.49120291 360.92684688 299.64590436 360.91314697 297.80056763 C360.89194793 295.21531215 360.84564482 292.63165569 360.79296875 290.046875 C360.79111069 288.90566948 360.79111069 288.90566948 360.78921509 287.7414093 C360.60362834 281.02970312 357.99924678 277.53660537 353.43359375 272.8671875 C349.573962 270.26935844 346.80927964 269.37489424 342.18359375 269.6796875 C335.67212096 271.66623852 331.91482777 275.08283647 328.18359375 280.6796875 C327.62263392 283.24348168 327.23616142 285.80785662 326.84375 288.40234375 C326.18359375 290.6796875 326.18359375 290.6796875 323.18359375 292.6796875 C319.10868623 293.01926313 317.65358104 292.99301236 314.18359375 290.6796875 C313.375 288.03515625 313.375 288.03515625 312.74609375 284.8671875 C311.3741579 278.92450165 309.79045008 275.70724242 304.93359375 271.9296875 C299.8091705 269.6004042 295.88893745 269.20924786 290.55859375 270.6796875 C284.23118405 274.42926362 281.30329533 278.35927597 279.43359375 285.4921875 C279.2325 286.42675781 279.03140625 287.36132812 278.82421875 288.32421875 C278.18359375 290.6796875 278.18359375 290.6796875 276.18359375 292.6796875 C269.95755397 293.24569112 269.95755397 293.24569112 267.51171875 291.45703125 C265.85546249 289.24057067 265.6895383 287.66406468 265.37109375 284.9296875 C264.39402605 279.48829423 262.50594312 276.1490677 258.18359375 272.6796875 C253.95644668 270.02770892 250.40554669 269.34511138 245.49609375 270.2421875 C240.86096211 271.5721995 237.70319834 273.31528579 235.03125 277.47265625 C233.1562477 280.92239358 232.20021265 283.55296841 231.68359375 287.4921875 C231.18359375 290.6796875 231.18359375 290.6796875 229.55859375 292.6796875 C226.10696071 294.13300667 223.75549891 293.60573699 220.18359375 292.6796875 C217.93413603 289.30550091 217.93338382 288.18892202 217.93203735 284.24090576 C217.92665451 283.11098709 217.92127167 281.98106842 217.91572571 280.81690979 C217.9198497 279.57634323 217.92397369 278.33577667 217.92822266 277.05761719 C217.92266507 275.05295149 217.91710315 273.04828581 217.91137862 271.04362059 C217.9070362 268.887401 217.90750912 266.73122742 217.90919876 264.57500458 C217.91203132 260.07811556 217.89768107 255.58138374 217.88021851 251.08453369 C217.83318922 238.29677706 217.80925823 225.50903066 217.80273438 212.72119141 C217.79897958 205.65929139 217.78091472 198.59756886 217.74764001 191.53574491 C217.72745479 187.06925401 217.72504171 182.60322177 217.73592019 178.13670397 C217.73914803 174.69747949 217.71641775 171.25850947 217.69775391 167.81933594 C217.70592636 166.5868663 217.71409882 165.35439667 217.72251892 164.08457947 C217.6579027 157.39463048 217.23080115 153.09749667 213.18359375 147.6796875 C209.72891117 144.37741739 205.86666183 142.39153724 201.05859375 142.1796875 C195.41313061 142.90813436 192.45456604 144.40871521 188.43359375 148.4296875 Z M-28.19140625 265.8046875 C-30.60077524 270.06741726 -30.57552116 273.89496324 -29.81640625 278.6796875 C-27.62793317 283.13768823 -25.34357927 285.63168066 -20.81640625 287.6796875 C-16.90589277 288.86984378 -15.11805563 288.77850368 -11.19140625 287.4921875 C-6.77187531 285.1187357 -3.47681339 282.52254165 -1.81640625 277.6796875 C-1.33132385 272.44079757 -1.96009508 269.11189449 -4.81640625 264.6796875 C-8.49343202 261.27843867 -11.10263188 259.84136433 -16.12890625 259.3671875 C-21.55418992 259.8269573 -24.2388956 262.2682306 -28.19140625 265.8046875 Z M408.87109375 265.1796875 C406.04246902 269.37024266 405.76862388 272.70004905 406.18359375 277.6796875 C407.56978115 281.35609756 409.44496211 284.09655726 412.55859375 286.5546875 C417.17444748 288.53291053 420.50925747 289.12181771 425.30859375 287.5546875 C429.74006987 285.7160062 432.04918007 282.94851485 434.18359375 278.6796875 C434.7990667 274.41812166 435.13352979 270.37843306 432.984375 266.53515625 C429.4518915 262.30863317 426.41264479 259.88608111 420.80859375 259.3671875 C415.53496988 259.82181025 412.46563274 261.2936994 408.87109375 265.1796875 Z " fill="#000000" transform="translate(53.81640625,27.3203125)"/>
</svg>
