<?xml version="1.0" encoding="UTF-8"?>
<svg version="1.1" xmlns="http://www.w3.org/2000/svg" width="512" height="512">
<path d="M0 0 C0.80516556 -0.00525696 1.61033112 -0.01051392 2.43989563 -0.01593018 C5.10400739 -0.02914465 7.76752268 -0.02038713 10.43164062 -0.01025391 C12.28104772 -0.01227423 14.13045404 -0.01518532 15.9798584 -0.01895142 C19.85692933 -0.02337673 23.73379299 -0.01693707 27.61083984 -0.00292969 C32.58451586 0.01416233 37.55770625 0.00432225 42.53136444 -0.01364708 C46.35060292 -0.02447934 50.16972597 -0.02104115 53.9889679 -0.0132637 C55.82302406 -0.01126015 57.65709065 -0.0137264 59.49113464 -0.02070236 C62.05296658 -0.02830771 64.61400828 -0.01672592 67.17578125 0 C67.93639359 -0.00607269 68.69700592 -0.01214539 69.48066711 -0.0184021 C74.63418433 0.0440418 74.63418433 0.0440418 76.78363788 1.6744287 C79.07828684 4.689539 78.47330768 8.45169155 78.42605591 12.09185791 C78.42635264 12.9919473 78.42664938 13.89203668 78.4269551 14.8194015 C78.42452496 17.8480707 78.40079691 20.87621039 78.37744141 23.90478516 C78.37172622 26.071179 78.36745254 28.23757705 78.36451721 30.40397644 C78.35589848 35.07595272 78.33861899 39.74779081 78.31518936 44.41971588 C78.2798062 51.80659139 78.27338771 59.19331123 78.2729187 66.58026123 C78.26795225 87.58817399 78.23875221 108.59580673 78.14648438 129.60351562 C78.09579085 141.20087605 78.07708933 152.79782789 78.09407222 164.39529204 C78.10160577 170.53442211 78.09210971 176.67251191 78.04281998 182.81147003 C77.996455 188.58696103 77.99153551 194.36099051 78.01840019 200.13659096 C78.02075328 202.25582003 78.00768668 204.37513097 77.9780407 206.49415398 C77.37288812 217.36890557 77.37288812 217.36890557 81.06742477 227.15746307 C83.34840495 228.95792526 85.45635441 230.18269688 88.08789062 231.38818359 C105.58542155 245.53726616 116.6487546 264.69717126 122.08789062 286.38818359 C122.2719043 287.11537598 122.45591797 287.84256836 122.64550781 288.59179688 C128.15656845 312.67444423 124.0624307 337.62934467 113.08789062 359.38818359 C112.56453125 360.43490234 112.04117188 361.48162109 111.50195312 362.56005859 C98.37051436 386.77315056 75.19885963 403.48986178 49.22460938 411.64599609 C23.08165502 419.01646427 -6.29967609 415.44434444 -30.01904297 402.47070312 C-53.77400676 388.88680972 -71.14847235 367.89170085 -79.35351562 341.70849609 C-79.91210938 339.38818359 -79.91210938 339.38818359 -79.91210938 336.38818359 C-80.49426712 336.39484543 -81.07642487 336.40150726 -81.67622375 336.40837097 C-87.72672003 336.4746605 -93.77711342 336.51995752 -99.82788086 336.55297852 C-102.08703805 336.56807962 -104.34616587 336.58856201 -106.60522461 336.61450195 C-109.8495203 336.65082667 -113.09342893 336.66789668 -116.33789062 336.68115234 C-117.3504744 336.6966362 -118.36305817 336.71212006 -119.40632629 336.72807312 C-120.81744942 336.72841301 -120.81744942 336.72841301 -122.25708008 336.72875977 C-123.08536819 336.7354216 -123.91365631 336.74208344 -124.76704407 336.74894714 C-127.47880037 336.29287579 -128.20927503 335.51347873 -129.91210938 333.38818359 C-130.28815687 331.48015308 -130.28815687 331.48015308 -130.2896328 329.2792511 C-130.29745604 328.43911311 -130.30527928 327.59897512 -130.31333959 326.73337841 C-130.30664743 325.8103357 -130.29995526 324.887293 -130.2930603 323.9362793 C-130.29774027 322.95578015 -130.30242025 321.97528101 -130.30724204 320.96506977 C-130.31925168 317.66456572 -130.3097114 314.36447231 -130.30029297 311.06396484 C-130.30435601 308.70388546 -130.30969638 306.34380798 -130.31622314 303.98373413 C-130.32993429 297.56238035 -130.32458239 291.14117069 -130.31508589 284.7198143 C-130.30976122 280.71210207 -130.31075508 276.70439978 -130.31355667 272.69668579 C-130.31401637 272.03187173 -130.31447607 271.36705767 -130.3149497 270.68209773 C-130.31590885 269.33163952 -130.31688149 267.98118131 -130.31786747 266.63072312 C-130.3264269 253.96050039 -130.31657858 241.29034272 -130.30046637 228.62013066 C-130.28706267 217.74297769 -130.28939061 206.86592076 -130.30322266 195.98876953 C-130.31926873 183.3646127 -130.32560288 170.74051292 -130.31638587 158.11634731 C-130.31543019 156.77079202 -130.31448708 155.42523671 -130.31355667 154.0796814 C-130.31309384 153.41760203 -130.31263102 152.75552267 -130.31215417 152.07338029 C-130.30956135 147.40246564 -130.31408755 142.73160699 -130.32099533 138.06069946 C-130.32963892 131.77672338 -130.32369079 125.49292928 -130.30631256 119.20897293 C-130.30233376 116.89782641 -130.30350541 114.58666467 -130.31010056 112.27552414 C-130.31825108 109.13016944 -130.30807306 105.98540461 -130.2930603 102.84008789 C-130.29975247 101.91704518 -130.30644463 100.99400248 -130.31333959 100.04298878 C-130.30551635 99.20285079 -130.29769311 98.3627128 -130.2896328 97.49711609 C-130.28914574 96.77081843 -130.28865868 96.04452078 -130.28815687 95.2962141 C-129.79425287 92.79019051 -128.93974828 91.9071695 -126.91210938 90.38818359 C-124.23393595 90.08696244 -121.7871088 89.96804168 -119.10766602 89.98413086 C-118.31386032 89.97726761 -117.52005463 89.97040436 -116.70219421 89.96333313 C-114.07536994 89.94501581 -111.44914013 89.94890963 -108.82226562 89.95458984 C-106.99767359 89.95003026 -105.17308328 89.94472536 -103.34849548 89.93870544 C-99.52270536 89.92976456 -95.69712387 89.93220838 -91.87133789 89.94213867 C-86.96715884 89.9536272 -82.06369993 89.9334238 -77.15961552 89.90422153 C-73.39093954 89.8858797 -69.62243675 89.88614799 -65.85372734 89.89185905 C-64.04560778 89.89201253 -62.23747668 89.88594656 -60.42939949 89.87356758 C-57.90112204 89.85869784 -55.37418269 89.86930425 -52.84594727 89.88647461 C-52.09828094 89.87680664 -51.35061462 89.86713867 -50.58029175 89.85717773 C-47.3153694 89.90363496 -45.34337347 90.0554378 -42.72117901 92.07861614 C-40.50909351 94.90269797 -40.40674694 96.28777912 -40.39312744 99.84246826 C-40.37921463 100.9502211 -40.36530182 102.05797394 -40.35096741 103.19929504 C-40.35599777 104.40986069 -40.36102814 105.62042633 -40.36621094 106.86767578 C-40.35587326 108.14597763 -40.34553558 109.42427948 -40.33488464 110.74131775 C-40.30701462 114.24312141 -40.30362015 117.74457199 -40.30460453 121.24647045 C-40.30147624 124.9074158 -40.27585986 128.56820194 -40.25262451 132.22906494 C-40.21205435 139.15983441 -40.19172148 146.09050978 -40.17865062 153.02137971 C-40.16278396 160.91257968 -40.12436981 168.80361941 -40.08405733 176.69472647 C-40.00164455 192.92583278 -39.94756114 209.15690535 -39.91210938 225.38818359 C-38.89632812 224.79650391 -37.88054687 224.20482422 -36.83398438 223.59521484 C-35.4435721 222.79666725 -34.05293469 221.99851157 -32.66210938 221.20068359 C-31.99953125 220.81332031 -31.33695312 220.42595703 -30.65429688 220.02685547 C-24.630225 216.58858803 -18.34879199 213.9562111 -11.91210938 211.38818359 C-11.90972102 210.31897265 -11.90733267 209.24976171 -11.90487194 208.14815044 C-11.84613869 182.16007605 -11.77029433 156.17209482 -11.67639446 130.18412304 C-11.63138386 117.61665369 -11.59198141 105.04921302 -11.56567383 92.48168945 C-11.54273632 81.53084024 -11.50938609 70.58008137 -11.46340781 59.62930375 C-11.43941818 53.82823065 -11.42072709 48.02724734 -11.41449547 42.22612572 C-11.40847051 36.77031449 -11.38856498 31.31473318 -11.35783386 25.85900688 C-11.34901193 23.85264936 -11.34533958 21.84626185 -11.34710121 19.83988571 C-11.34874299 17.10813193 -11.33214909 14.37708826 -11.31083679 11.64543152 C-11.31568437 10.8448528 -11.32053194 10.04427408 -11.32552642 9.21943539 C-11.25684505 3.91378832 -11.25684505 3.91378832 -9.60541248 1.39591503 C-6.64626859 -0.36515321 -3.34476609 -0.02670445 0 0 Z M2.08789062 13.38818359 C2.08789062 77.73818359 2.08789062 142.08818359 2.08789062 208.38818359 C12.97789062 208.38818359 23.86789062 208.38818359 35.08789062 208.38818359 C45.70527067 210.43424121 54.885596 212.98741872 65.08789062 216.38818359 C65.08789062 149.39818359 65.08789062 82.40818359 65.08789062 13.38818359 C44.29789062 13.38818359 23.50789062 13.38818359 2.08789062 13.38818359 Z M-116.91210938 103.38818359 C-116.91210938 175.98818359 -116.91210938 248.58818359 -116.91210938 323.38818359 C-105.69210937 323.38818359 -94.47210938 323.38818359 -82.91210938 323.38818359 C-82.85023438 319.36630859 -82.78835938 315.34443359 -82.72460938 311.20068359 C-81.96624638 286.404012 -75.16919694 265.04937891 -59.91210938 245.38818359 C-59.41362173 244.94145011 -58.91513409 244.49471663 -58.40154076 244.03444576 C-54.60706235 240.44004964 -53.48146355 237.64173308 -53.19058228 232.42127991 C-53.1732533 230.01452061 -53.1889978 227.60738364 -53.23095703 225.20092773 C-53.23008087 223.88317352 -53.22920471 222.56541931 -53.228302 221.20773315 C-53.22658677 217.61065795 -53.26175718 214.0147934 -53.30374575 210.41799855 C-53.34136028 206.65311341 -53.34478649 202.88819774 -53.35189819 199.12315369 C-53.3705158 192.0009693 -53.41971022 184.87934027 -53.47999513 177.75739998 C-53.55972533 168.12834714 -53.59201185 158.49914146 -53.62700844 148.86984158 C-53.68335563 133.70887328 -53.80290726 118.54907667 -53.91210938 103.38818359 C-74.70210938 103.38818359 -95.49210937 103.38818359 -116.91210938 103.38818359 Z M-49.73632812 252.64208984 C-66.49159385 273.78922056 -71.47364785 296.9417022 -69.91210938 323.38818359 C-67.05835827 347.13421133 -53.5446802 368.70718327 -34.91210938 383.38818359 C-14.40032884 398.34883906 9.25341836 404.67823411 34.56445312 401.17333984 C58.55651777 397.32497578 79.77097351 384.21820663 94.28662109 364.78320312 C105.72588234 348.88889491 111.70256251 330.91364507 111.58789062 311.26318359 C111.58144531 310.09102295 111.575 308.9188623 111.56835938 307.71118164 C111.06350946 283.43354685 101.04580389 262.9824135 84.43164062 245.61083984 C67.02743691 229.00006306 45.12266797 219.74719722 20.96289062 219.88818359 C19.79072998 219.89462891 18.61856934 219.90107422 17.41088867 219.90771484 C-9.21416289 220.46137896 -32.39956403 232.63813127 -49.73632812 252.64208984 Z " fill="#000000" transform="translate(377.912109375,87.61181640625)"/>
<path d="M0 0 C6.29623488 4.94120103 10.29843817 11.64782536 11.85546875 19.52734375 C12.79535207 28.81772885 10.58339488 37.42822557 4.66015625 44.70703125 C-1.76420308 51.18701274 -9.23131808 54.7894963 -18.39453125 54.90234375 C-24.7184187 54.81561615 -29.54080335 53.35500755 -35.14453125 50.52734375 C-36.47771192 49.86037185 -37.81102362 49.19366172 -39.14453125 48.52734375 C-39.57983154 48.86765625 -40.01513184 49.20796875 -40.46362305 49.55859375 C-63.09083085 67.2349062 -85.95192218 84.59940495 -109.14453125 101.52734375 C-109.00378174 102.1313501 -108.86303223 102.73535645 -108.71801758 103.35766602 C-108.5352124 104.15744873 -108.35240723 104.95723145 -108.1640625 105.78125 C-107.98206299 106.57088135 -107.80006348 107.3605127 -107.61254883 108.17407227 C-106.03881391 116.08707741 -107.41030256 123.72327838 -111.3984375 130.73046875 C-116.21362275 137.60555613 -122.92553934 143.37733268 -131.3203125 144.9296875 C-139.94605806 146.12360874 -147.92144939 145.1640241 -155.1953125 140.1328125 C-162.70238926 133.94962904 -167.27579776 127.6199181 -168.46704102 117.89428711 C-168.54752686 117.01909424 -168.6280127 116.14390137 -168.7109375 115.2421875 C-168.7941626 114.35523193 -168.8773877 113.46827637 -168.96313477 112.55444336 C-169.02299561 111.88550049 -169.08285645 111.21655762 -169.14453125 110.52734375 C-170.32257324 110.07931396 -171.50061523 109.63128418 -172.71435547 109.16967773 C-177.17652502 107.4724321 -181.63835656 105.77429934 -186.10009766 104.07592773 C-188.01407118 103.34750379 -189.92813065 102.61930564 -191.84228516 101.89135742 C-194.62816865 100.83184425 -197.41372062 99.77146333 -200.19921875 98.7109375 C-201.57373199 98.18842911 -201.57373199 98.18842911 -202.97601318 97.65536499 C-207.47398615 95.94192971 -211.96350317 94.21070273 -216.43847656 92.43798828 C-217.26662872 92.11097427 -218.09478088 91.78396027 -218.94802856 91.44703674 C-220.50260263 90.83150475 -222.0555058 90.21172996 -223.60641479 89.58702087 C-226.60254459 88.4016913 -228.8910084 87.52734375 -232.14453125 87.52734375 C-232.78390625 88.39359375 -233.42328125 89.25984375 -234.08203125 90.15234375 C-238.77573194 96.00205974 -245.5894762 99.04055198 -252.91015625 100.04296875 C-262.79194012 100.32301931 -270.29849773 98.50883141 -278.14453125 92.52734375 C-279.09537598 93.1915332 -279.09537598 93.1915332 -280.06542969 93.86914062 C-301.2827792 108.68197962 -301.2827792 108.68197962 -310.0703125 114.48046875 C-314.26506637 117.27341796 -318.42344746 120.11840888 -322.58203125 122.96484375 C-323.39631592 123.52155762 -324.21060059 124.07827148 -325.04956055 124.65185547 C-328.77493194 127.20278267 -332.4921069 129.76351232 -336.18359375 132.36328125 C-336.78502197 132.78552979 -337.3864502 133.20777832 -338.00610352 133.64282227 C-339.5980138 134.76312313 -341.18587875 135.88916612 -342.7734375 137.015625 C-345.14453125 138.52734375 -345.14453125 138.52734375 -347.14453125 138.52734375 C-346.96535156 139.39875 -346.78617188 140.27015625 -346.6015625 141.16796875 C-344.7848788 151.34139747 -344.77403482 160.13899549 -350.83203125 168.90234375 C-357.2024365 176.4310045 -364.41520741 180.47334505 -374.20703125 181.80859375 C-382.85682486 182.22713215 -390.52530395 179.1058665 -397.09765625 173.62890625 C-404.57163692 165.95523907 -406.5343842 158.30996233 -406.41796875 147.9140625 C-405.71570849 139.21606759 -401.65373401 132.24832273 -395.14453125 126.52734375 C-386.94474977 120.95924889 -379.98249906 119.83522541 -370.14453125 120.52734375 C-364.55873666 121.66457139 -360.353769 123.58966972 -356.14453125 127.52734375 C-352.62650854 126.23885779 -349.74880364 124.72583695 -346.703125 122.55078125 C-345.87893066 121.9669165 -345.05473633 121.38305176 -344.20556641 120.78149414 C-343.3397998 120.16137451 -342.4740332 119.54125488 -341.58203125 118.90234375 C-339.76630929 117.61622088 -337.94990723 116.33105762 -336.1328125 115.046875 C-335.26350098 114.43150879 -334.39418945 113.81614258 -333.49853516 113.18212891 C-329.89009051 110.64551432 -326.21609629 108.21457668 -322.53515625 105.78515625 C-317.66533508 102.5582036 -312.84642237 99.25546933 -308.01953125 95.96484375 C-307.10059082 95.33908447 -306.18165039 94.7133252 -305.23486328 94.06860352 C-304.33622559 93.45557373 -303.43758789 92.84254395 -302.51171875 92.2109375 C-301.62709961 91.60749512 -300.74248047 91.00405273 -299.83105469 90.38232422 C-296.23603631 87.90004962 -292.68684316 85.35463129 -289.14501953 82.79711914 C-287.14453125 81.52734375 -287.14453125 81.52734375 -285.14453125 81.52734375 C-285.47453125 80.78484375 -285.80453125 80.04234375 -286.14453125 79.27734375 C-288.30038667 71.19288593 -288.27050588 61.98282322 -284.14453125 54.52734375 C-278.56694218 46.87516363 -273.10756977 42.51502326 -264.14453125 39.52734375 C-253.55757649 38.6875463 -244.88507045 39.62569982 -236.33203125 46.21484375 C-230.47067715 51.70295124 -227.5252214 58.74527199 -226.14453125 66.52734375 C-226.11774109 68.86052328 -226.11375855 71.19421335 -226.14453125 73.52734375 C-219.12973364 76.21588051 -212.11412683 78.90229616 -205.09751225 81.58608723 C-201.83862338 82.83265687 -198.58000593 84.07992573 -195.32202148 85.32885742 C-191.56706443 86.76826442 -187.8109059 88.20451272 -184.0546875 89.640625 C-182.31977806 90.30642326 -182.31977806 90.30642326 -180.54981995 90.985672 C-174.45543237 93.31280251 -168.35169835 95.51956503 -162.14453125 97.52734375 C-161.84885254 96.90029541 -161.55317383 96.27324707 -161.24853516 95.62719727 C-158.49913762 90.3977483 -151.96509221 86.80331856 -146.46875 85 C-137.30788572 83.13703432 -129.40783086 84.35764929 -121.14453125 88.52734375 C-120.01724609 89.08808594 -120.01724609 89.08808594 -118.8671875 89.66015625 C-118.29871094 89.94632812 -117.73023438 90.2325 -117.14453125 90.52734375 C-116.28214844 89.82351562 -115.41976563 89.1196875 -114.53125 88.39453125 C-106.64649709 82.00196316 -98.6114555 75.87168518 -90.41357422 69.88671875 C-84.09534427 65.26121146 -77.90119891 60.49429335 -71.73901367 55.66357422 C-65.92025074 51.10852442 -60.03041482 46.65649537 -54.09301758 42.25732422 C-51.64871532 40.44047198 -49.30148121 38.68429371 -47.14453125 36.52734375 C-47.47453125 35.57859375 -47.80453125 34.62984375 -48.14453125 33.65234375 C-50.77369068 24.27059499 -49.00501022 15.82452702 -44.45703125 7.40234375 C-33.06769708 -6.757369 -15.55019226 -10.67836517 0 0 Z M-28.14453125 9.52734375 C-32.76862916 13.69335345 -35.83598907 17.38021348 -36.45703125 23.71484375 C-35.95799395 29.80309878 -33.72947966 34.44323627 -29.08203125 38.46484375 C-24.25483522 41.8541516 -19.88165235 42.21465277 -14.14453125 41.52734375 C-8.31777052 39.43743347 -4.88051723 35.50331972 -1.83203125 30.27734375 C-0.47410633 24.84564406 -1.29957186 20.12673116 -3.89453125 15.21484375 C-7.68248115 10.69034804 -11.15160417 7.85816588 -16.96875 6.6640625 C-21.1546559 6.4010343 -24.53126105 7.4459967 -28.14453125 9.52734375 Z M-270.95703125 59.58984375 C-274.27315508 64.04292433 -274.81355279 68.09760374 -274.14453125 73.52734375 C-272.50779042 79.1985986 -269.58801217 82.83280951 -264.42578125 85.68359375 C-259.11387301 87.64827214 -254.11440107 87.19635614 -248.83203125 85.40234375 C-243.7303787 81.84305128 -240.37387273 77.67405114 -239.14453125 71.52734375 C-239.05278808 65.81633168 -240.47919244 62.0072023 -244.14453125 57.52734375 C-249.17144181 52.99086349 -253.03852607 52.16358423 -259.64453125 52.25 C-264.73940559 52.81521262 -267.72644097 55.90954062 -270.95703125 59.58984375 Z M-152.9453125 105.80859375 C-155.64044469 109.67132392 -155.72614069 113.99563683 -155.14453125 118.52734375 C-153.42016622 123.7098104 -150.98093349 127.79372509 -146.14453125 130.52734375 C-140.47722598 132.49475024 -135.53177886 133.24648487 -129.96484375 130.7109375 C-125.37379146 127.7257683 -121.3022896 122.93021603 -120.14453125 117.52734375 C-120.06628445 111.52469656 -121.07102667 107.12309251 -125.14453125 102.52734375 C-129.78649791 98.55751705 -133.9025062 96.76865768 -140.046875 97.1796875 C-146.0233345 98.17019941 -149.22015 101.35013155 -152.9453125 105.80859375 Z M-390.9453125 141.80859375 C-393.82347544 145.93364813 -393.83095034 150.70680968 -393.14453125 155.52734375 C-390.90114068 161.0391223 -387.54791959 164.92956089 -382.14453125 167.52734375 C-377.3638368 168.88690927 -373.47067185 169.02842413 -368.89453125 166.96484375 C-363.88211825 164.03927202 -360.47658569 160.26618944 -358.64453125 154.71484375 C-357.66799521 149.86006458 -358.92083384 145.86687265 -361.14453125 141.52734375 C-364.58037191 137.25575807 -368.52616663 134.05668366 -374.09375 133.2421875 C-381.76978133 132.90590422 -386.16712532 136.08981854 -390.9453125 141.80859375 Z " fill="#000000" transform="translate(430.14453125,15.47265625)"/>
<path d="M0 0 C0.80516556 -0.00686325 1.61033112 -0.0137265 2.43989563 -0.02079773 C5.10398949 -0.03911408 7.76749725 -0.03522182 10.43164062 -0.02954102 C12.28104851 -0.03410019 14.13045469 -0.03940496 15.9798584 -0.04542542 C19.85692221 -0.05436577 23.73378013 -0.05192253 27.61083984 -0.04199219 C32.58461551 -0.03049554 37.55768197 -0.05071981 42.53136444 -0.07990932 C46.35061167 -0.09823487 50.16968775 -0.09798628 53.9889679 -0.0922718 C55.82303361 -0.09211817 57.65711062 -0.09819693 59.49113464 -0.11056328 C62.0531394 -0.12540474 64.61381863 -0.11484805 67.17578125 -0.09765625 C67.93639359 -0.10732422 68.69700592 -0.11699219 69.48066711 -0.12695312 C74.63764902 -0.05431329 74.63764902 -0.05431329 76.7823444 2.1290822 C78.29569953 4.7661687 78.46457259 6.28148974 78.46820736 9.30478668 C78.4766473 10.29608503 78.48508724 11.28738338 78.49378294 12.30872107 C78.48777289 13.39547959 78.48176285 14.48223811 78.47557068 15.60192871 C78.48095622 16.75816947 78.48634175 17.91441022 78.49189049 19.10568857 C78.50373541 22.31568362 78.50209221 25.52534691 78.49472368 28.73534513 C78.49000095 32.19689437 78.50249384 35.65838747 78.51274109 39.11991882 C78.52995155 45.90128882 78.53076454 52.68256625 78.52552819 59.46395242 C78.52148975 64.97441637 78.52292615 70.48485292 78.52827644 75.99531555 C78.52902487 76.77904593 78.52977329 77.56277631 78.53054439 78.3702561 C78.53207583 79.96229804 78.53361418 81.55433998 78.53515936 83.14638191 C78.5488923 98.08139685 78.54344093 113.01635942 78.53197414 127.95137316 C78.5220389 141.62193884 78.53498603 155.29236924 78.55890834 168.96291405 C78.58327578 182.99330807 78.59291314 197.02363902 78.58625561 211.05405378 C78.5827584 218.93372501 78.58502854 226.81329213 78.60250664 234.69294739 C78.61719916 241.40007557 78.61790282 248.10702634 78.60043573 254.81415093 C78.59189917 258.23748589 78.58984023 261.66050351 78.60508728 265.08382225 C78.6181908 268.79157726 78.60684322 272.49846015 78.58909607 276.20617676 C78.60350358 277.83631454 78.60350358 277.83631454 78.61820215 279.4993844 C78.54664626 286.72693069 78.54664626 286.72693069 76.27993202 290.07259464 C73.01085435 292.05825053 69.86458676 291.95374212 66.15405273 291.90576172 C65.35849472 291.9111647 64.56293671 291.91656769 63.74327087 291.9221344 C61.11687885 291.93462928 58.49158131 291.91812774 55.86523438 291.90014648 C54.03967735 291.90030144 52.21412 291.90178985 50.38856506 291.90455627 C46.56447795 291.90594055 42.74076577 291.89337628 38.91674805 291.87060547 C34.0114578 291.84220058 29.10678964 291.84496319 24.20145321 291.85769558 C20.43281221 291.86464482 16.66431542 291.85687248 12.89569283 291.84443855 C11.08676265 291.83991811 9.27781702 291.83959242 7.46888542 291.84350395 C4.94304441 291.84640931 2.41806607 291.82994297 -0.10766602 291.80810547 C-0.85735657 291.81260712 -1.60704712 291.81710876 -2.37945557 291.82174683 C-7.43512661 291.74899617 -7.43512661 291.74899617 -9.60394442 290.18055487 C-11.31570668 287.85596323 -11.28801064 286.46656912 -11.2896328 283.59233856 C-11.29745604 282.59544777 -11.30527928 281.59855699 -11.31333959 280.57145739 C-11.30664743 279.47332201 -11.29995526 278.37518662 -11.2930603 277.24377441 C-11.29774027 276.07951541 -11.30242025 274.91525641 -11.30724204 273.71571684 C-11.31715982 270.47872359 -11.31356049 267.24206599 -11.30428338 264.00508094 C-11.29751244 260.51627265 -11.30796437 257.02751071 -11.31622314 253.53871155 C-11.32958365 246.70205428 -11.32667247 239.86549565 -11.31798522 233.02883446 C-11.31121817 227.47400293 -11.31028771 221.9191991 -11.31355667 216.36436462 C-11.31401637 215.57465931 -11.31447607 214.78495399 -11.3149497 213.97131822 C-11.31590885 212.367195 -11.31688149 210.7630718 -11.31786747 209.1589486 C-11.32642815 194.10664931 -11.31657662 179.05440478 -11.30046637 164.00211447 C-11.28706257 151.07828652 -11.28939047 138.15453939 -11.30322266 125.23071289 C-11.31926652 110.23336152 -11.32560412 95.23605818 -11.31638587 80.23869944 C-11.31543019 78.64037991 -11.31448708 77.04206038 -11.31355667 75.44374084 C-11.31286243 74.26404435 -11.31286243 74.26404435 -11.31215417 73.06051561 C-11.30956069 67.51046042 -11.31394296 61.96043562 -11.32099533 56.41038513 C-11.32939729 49.64942683 -11.32715778 42.88857306 -11.3111531 36.12762678 C-11.30325269 32.67612158 -11.30020864 29.22479084 -11.31010056 25.77328682 C-11.31824531 22.03679176 -11.30807976 18.30079405 -11.2930603 14.56433105 C-11.29975247 13.46619567 -11.30644463 12.36806029 -11.31333959 11.23664808 C-11.30551635 10.23975729 -11.29769311 9.24286651 -11.2896328 8.21576691 C-11.28914574 7.35276993 -11.28865868 6.48977296 -11.28815687 5.60062456 C-10.23384466 -0.55783291 -5.17525302 -0.03062949 0 0 Z M2.08789062 13.40405273 C2.08789062 100.85405273 2.08789062 188.30405273 2.08789062 278.40405273 C22.87789063 278.40405273 43.66789063 278.40405273 65.08789062 278.40405273 C65.08789062 190.95405273 65.08789062 103.50405273 65.08789062 13.40405273 C44.29789062 13.40405273 23.50789062 13.40405273 2.08789062 13.40405273 Z " fill="#000000" transform="translate(139.912109375,132.595947265625)"/>
<path d="M0 0 C0.78419815 -0.00686325 1.5683963 -0.0137265 2.37635803 -0.02079773 C4.96528287 -0.03908049 7.55360266 -0.03522665 10.14257812 -0.02954102 C11.94332069 -0.03410176 13.74406152 -0.03940701 15.5447998 -0.04542542 C19.31753616 -0.05435914 23.09006086 -0.05193003 26.86279297 -0.04199219 C31.69856561 -0.03049564 36.53360879 -0.05072294 41.36928558 -0.07990932 C45.08734785 -0.09824988 48.80523455 -0.09798328 52.52333069 -0.0922718 C54.30633061 -0.09211836 56.08934226 -0.0981817 57.87229919 -0.11056328 C60.36455154 -0.12543327 62.85544655 -0.11482713 65.34765625 -0.09765625 C66.45277306 -0.1121582 66.45277306 -0.1121582 67.58021545 -0.12695312 C70.71362027 -0.08172204 72.76206201 0.11742096 75.36265564 1.9277029 C77.87216974 5.35886966 77.7290726 8.43581092 77.6817627 12.52685547 C77.68800266 13.35232848 77.69424262 14.17780149 77.70067167 15.02828884 C77.7166452 17.79836402 77.70398057 20.56756455 77.69140625 23.33764648 C77.69682543 25.32187413 77.70394694 27.30609775 77.71264648 29.29031372 C77.73090693 34.68283548 77.72380101 40.07505168 77.71113014 45.46757889 C77.7010166 51.10583583 77.71039124 56.74406627 77.7166748 62.38232422 C77.723956 71.851529 77.71435107 81.32060907 77.6953125 90.78979492 C77.67354292 101.74393044 77.68059395 112.69776818 77.70261812 123.65189648 C77.72075862 133.04986467 77.72333704 142.44774311 77.71286345 151.84572315 C77.70662111 157.46180415 77.70581326 163.07774509 77.7190094 168.69381714 C77.73054759 173.97325483 77.72257921 179.25230789 77.69943237 184.53170395 C77.69413443 186.47153967 77.69567753 188.41140765 77.70448303 190.35123062 C77.71537934 192.99501032 77.7017471 195.6375498 77.6817627 198.28125 C77.69068558 199.05284171 77.69960847 199.82443342 77.70880175 200.6194067 C77.65794734 204.07670668 77.42964667 206.05374112 75.36544895 208.88040257 C72.1388518 211.12358498 69.0292239 210.95475977 65.23999023 210.90576172 C64.44443222 210.9111647 63.64887421 210.91656769 62.82920837 210.9221344 C60.20281635 210.93462928 57.57751881 210.91812774 54.95117188 210.90014648 C53.12561485 210.90030144 51.3000575 210.90178985 49.47450256 210.90455627 C45.65041545 210.90594055 41.82670327 210.89337628 38.00268555 210.87060547 C33.0973953 210.84220058 28.19272714 210.84496319 23.28739071 210.85769558 C19.51874971 210.86464482 15.75025292 210.85687248 11.98163033 210.84443855 C10.17270015 210.83991811 8.36375452 210.83959242 6.55482292 210.84350395 C4.02898191 210.84640931 1.50400357 210.82994297 -1.02172852 210.80810547 C-1.77141907 210.81260712 -2.52110962 210.81710876 -3.29351807 210.82174683 C-8.2512889 210.75040495 -8.2512889 210.75040495 -10.51737213 209.38514805 C-12.58583544 206.25417022 -12.24171332 202.94853642 -12.21385193 199.31884766 C-12.21923747 198.4853564 -12.224623 197.65186514 -12.23017174 196.79311657 C-12.24452075 193.99010293 -12.23733061 191.18755693 -12.23022461 188.38452148 C-12.23592451 186.37911599 -12.24288729 184.37371374 -12.25102234 182.36831665 C-12.2690098 176.91387483 -12.267775 171.45959338 -12.26207995 166.00513077 C-12.25899649 161.45710044 -12.26507107 156.9091013 -12.2711187 152.3610754 C-12.28518037 141.6354661 -12.28358869 130.90993642 -12.2722168 120.18432617 C-12.26073056 109.10580186 -12.2748161 98.02751949 -12.30161327 86.94902706 C-12.32373662 77.448344 -12.33041535 67.94773707 -12.32453686 58.44703007 C-12.32115842 52.7677996 -12.32364117 47.08872428 -12.34078789 41.40951538 C-12.35620164 36.07101552 -12.3523636 30.73287546 -12.33348274 25.39439011 C-12.32978153 23.43155361 -12.33294959 21.46869078 -12.34336853 19.50587845 C-12.35647566 16.83325072 -12.34512326 14.16183232 -12.32737732 11.48925781 C-12.33698233 10.70628924 -12.34658733 9.92332067 -12.3564834 9.11662579 C-12.28493406 3.90597219 -12.28493406 3.90597219 -10.01541996 1.42295742 C-6.73861604 -0.10210997 -3.54304183 -0.02164865 0 0 Z M0.17382812 13.40405273 C0.17382812 74.12405273 0.17382812 134.84405273 0.17382812 197.40405273 C21.29382813 197.40405273 42.41382813 197.40405273 64.17382812 197.40405273 C64.17382812 136.68405273 64.17382812 75.96405273 64.17382812 13.40405273 C43.05382812 13.40405273 21.93382812 13.40405273 0.17382812 13.40405273 Z " fill="#000000" transform="translate(21.826171875,213.595947265625)"/>
<path d="M0 0 C15.95295863 12.58633426 27.3210903 30.35781567 29.83203125 50.796875 C31.30457267 73.89170743 26.69861121 94.66009014 11.09765625 112.41015625 C-2.25854645 126.48022496 -20.07846796 136.23213041 -39.78515625 137.03515625 C-62.58620917 137.52153239 -82.28420756 131.82401328 -99.16796875 115.796875 C-112.97812104 102.55903533 -121.05434775 83.67667649 -121.4609375 64.6159668 C-121.63008437 41.28426976 -114.36016835 22.60264714 -98.08984375 5.62890625 C-71.41443127 -19.91033126 -29.55899367 -20.55643949 0 0 Z M-94.16796875 20.796875 C-105.71393983 35.60537735 -109.6668084 52.41213085 -108.16796875 70.796875 C-105.41509884 87.21518894 -96.55786668 101.79900159 -83.40234375 111.92578125 C-67.38917611 122.51734784 -51.69992341 125.61463563 -32.796875 123.40234375 C-16.869151 120.05255105 -2.18421895 109.79489413 6.76953125 96.296875 C16.06378831 80.3832934 19.6768722 63.82847358 15.83203125 45.546875 C11.01928316 29.59350634 1.0514753 15.70406454 -13.41015625 7.2578125 C-41.44659098 -7.59434981 -72.32555187 -2.90583583 -94.16796875 20.796875 Z " fill="#000000" transform="translate(444.16796875,337.203125)"/>
<path d="M0 0 C3.5625 0.3125 3.5625 0.3125 5.4375 1.4375 C6.5625 3.3125 6.5625 3.3125 6.875 6.3125 C7.2153125 7.7975 7.2153125 7.7975 7.5625 9.3125 C10.34537055 10.95435993 10.34537055 10.95435993 13.5625 12.3125 C16.3125 14.875 16.3125 14.875 18.5625 17.3125 C19.2225 17.9725 19.8825 18.6325 20.5625 19.3125 C21.0292512 22.89092586 20.96478636 24.68493328 19 27.75 C16.5625 29.3125 16.5625 29.3125 13.125 29.375 C8.97154318 28.13624972 7.54092398 26.36729382 4.5625 23.3125 C0.76305316 22.01907129 -0.90476177 22.11784565 -4.6875 23.5 C-8.08275031 25.70656702 -8.08275031 25.70656702 -9.4375 29.3125 C-9.19145603 33.90532083 -8.75335021 37.05034777 -5.4375 40.3125 C-2.83400492 41.09441732 -0.40361202 41.68275659 2.25 42.1875 C9.61056295 43.81686847 15.25892981 45.82003434 19.88671875 52.11328125 C23.47299613 57.98974277 24.18380901 63.56685932 23.5625 70.3125 C21.96512472 76.88992761 18.99803744 81.52312556 13.5 85.5625 C10.5625 87.3125 10.5625 87.3125 7.5625 88.3125 C6.8458793 90.63097874 6.18007973 92.96569703 5.5625 95.3125 C3.5625 97.3125 3.5625 97.3125 0.125 97.625 C-3.4375 97.3125 -3.4375 97.3125 -5.3125 96.1875 C-6.4375 94.3125 -6.4375 94.3125 -6.75 91.3125 C-6.976875 90.3225 -7.20375 89.3325 -7.4375 88.3125 C-10.22037055 86.67064007 -10.22037055 86.67064007 -13.4375 85.3125 C-16.1875 82.75 -16.1875 82.75 -18.4375 80.3125 C-19.0975 79.6525 -19.7575 78.9925 -20.4375 78.3125 C-20.9042512 74.73407414 -20.83978636 72.94006672 -18.875 69.875 C-16.4375 68.3125 -16.4375 68.3125 -13 68.25 C-8.84654318 69.48875028 -7.41592398 71.25770618 -4.4375 74.3125 C-0.63805316 75.60592871 1.02976177 75.50715435 4.8125 74.125 C8.20775031 71.91843298 8.20775031 71.91843298 9.5625 68.3125 C9.42841115 64.55801219 9.23591235 62.17358465 6.89453125 59.1796875 C4.03801761 56.89256268 1.96728133 56.52977577 -1.625 55.9375 C-9.78950442 54.22396203 -15.78353542 51.28744028 -20.4375 44.1875 C-23.53916508 38.82420413 -24.14098803 33.41916692 -23.4375 27.3125 C-21.71544303 21.53799376 -19.15502577 17.15234656 -14.4375 13.3125 C-13.21490546 12.67473964 -11.98540513 12.0500764 -10.75 11.4375 C-7.11997235 9.58229123 -7.11997235 9.58229123 -6.125 5.6875 C-5.898125 4.57375 -5.67125 3.46 -5.4375 2.3125 C-3.4375 0.3125 -3.4375 0.3125 0 0 Z " fill="#000000" transform="translate(398.4375,349.6875)"/>
</svg>
