<?xml version="1.0" encoding="UTF-8"?>
<svg version="1.1" xmlns="http://www.w3.org/2000/svg" width="512" height="512">
<path d="M0 0 C1.07548096 0.49330811 2.15096191 0.98661621 3.2590332 1.49487305 C4.42136475 2.04570557 5.58369629 2.59653809 6.78125 3.1640625 C8.04505322 3.74880542 9.30964662 4.33184298 10.57495117 4.91333008 C13.33450288 6.18285734 16.09069414 7.45934235 18.84521484 8.73974609 C25.89177931 12.00577218 32.98540534 15.167947 40.07226562 18.34527588 C44.3482491 20.26373428 48.62125128 22.18881041 52.89453125 24.11328125 C54.63100882 24.89504912 56.3674997 25.6767874 58.10400391 26.45849609 C58.96157288 26.84455017 59.81914185 27.23060425 60.70269775 27.62835693 C67.39894492 30.6425954 74.09567372 33.65576377 80.79232788 36.6690979 C84.95532716 38.54236335 89.11828652 40.41571751 93.28125 42.2890625 C94.94791648 43.03906292 96.61458314 43.78906292 98.28125 44.5390625 C101.61458333 46.0390625 104.94791667 47.5390625 108.28125 49.0390625 C109.10613922 49.41026215 109.93102844 49.78146179 110.78091431 50.16390991 C112.44870147 50.91441516 114.11648712 51.66492379 115.78427124 52.41543579 C119.9337818 54.28273326 124.08331826 56.14997313 128.23291016 58.01708984 C135.93696449 61.48361553 143.64077652 64.95067632 151.34368896 68.41973877 C154.92157234 70.03102276 158.49959964 71.64198705 162.07763672 73.25292969 C163.75804655 74.00960732 165.43838847 74.76643581 167.11865234 75.5234375 C168.70116296 76.23639066 170.28378244 76.94910222 171.86651611 77.66156006 C173.39352029 78.34913298 174.92017976 79.03747204 176.44647217 79.72662354 C180.39803022 81.50742824 184.3590772 83.26201206 188.33691406 84.98339844 C189.16140045 85.34251312 189.98588684 85.70162781 190.83535767 86.07162476 C192.40958057 86.75615659 193.98627052 87.43505243 195.56576538 88.10733032 C199.02922605 89.61779374 201.85145026 90.86562701 204.28125 93.7890625 C205.30862671 97.75180126 205.68697469 99.90033223 203.96875 103.6640625 C202.28125 105.7890625 202.28125 105.7890625 200.28125 106.7890625 C198.75976674 106.87278909 197.23469222 106.89636277 195.7109375 106.88671875 C194.81503906 106.88349609 193.91914063 106.88027344 192.99609375 106.87695312 C191.59037109 106.86438477 191.59037109 106.86438477 190.15625 106.8515625 C189.21136719 106.84705078 188.26648438 106.84253906 187.29296875 106.83789062 C184.95566613 106.82608607 182.61848939 106.80962009 180.28125 106.7890625 C180.30219727 107.34368164 180.32314453 107.89830078 180.34472656 108.46972656 C180.42808548 110.99265273 180.47996868 113.51528899 180.53125 116.0390625 C180.56476563 116.91175781 180.59828125 117.78445312 180.6328125 118.68359375 C180.73171177 125.1614961 180.73171177 125.1614961 178.453125 128.3359375 C170.66777113 133.54484333 163.92590043 130.7890625 153.28125 130.7890625 C153.28125 193.4890625 153.28125 256.1890625 153.28125 320.7890625 C160.54125 320.7890625 167.80125 320.7890625 175.28125 320.7890625 C180.28125 324.7890625 180.28125 324.7890625 180.84887695 326.98730469 C180.82269287 327.76235352 180.79650879 328.53740234 180.76953125 329.3359375 C180.75341797 330.18027344 180.73730469 331.02460938 180.72070312 331.89453125 C180.67880859 332.76722656 180.63691406 333.63992188 180.59375 334.5390625 C180.57119141 335.42722656 180.54863281 336.31539063 180.52539062 337.23046875 C180.46657552 339.41839062 180.38446268 341.60285921 180.28125 343.7890625 C181.59480469 343.74265625 182.90835937 343.69625 184.26171875 343.6484375 C185.99737304 343.61090984 187.73305199 343.57451075 189.46875 343.5390625 C190.33306641 343.50554687 191.19738281 343.47203125 192.08789062 343.4375 C196.3424294 343.37229634 198.63852716 343.39075539 202.33203125 345.6796875 C206.75984212 350.47130647 205.50482225 356.74006565 205.52148438 362.90991211 C205.5311669 365.08291233 205.56217826 367.25495713 205.59375 369.42773438 C205.60028269 370.81509856 205.60553212 372.2024695 205.609375 373.58984375 C205.6187207 374.84966064 205.62806641 376.10947754 205.63769531 377.4074707 C205.25529807 381.03526815 204.47120107 382.90567136 202.28125 385.7890625 C199.96919289 386.94509106 198.66465376 386.912416 196.09249878 386.90931702 C194.77576675 386.91137901 194.77576675 386.91137901 193.43243408 386.91348267 C191.9845047 386.90808975 191.9845047 386.90808975 190.50732422 386.90258789 C188.98532913 386.90280693 188.98532913 386.90280693 187.43258667 386.9030304 C184.06701546 386.90233178 180.70149908 386.89454172 177.3359375 386.88671875 C175.00709056 386.88485439 172.67824323 386.88343057 170.34939575 386.88243103 C164.21074344 386.87860726 158.07211467 386.86877816 151.93347168 386.85772705 C145.67309894 386.84750992 139.41272241 386.84293276 133.15234375 386.83789062 C120.8619688 386.82715579 108.57161136 386.81008103 96.28125 386.7890625 C96.15905861 391.06039315 96.10856496 395.32511031 96.12141418 399.59767151 C96.11604414 401.04719006 96.09185429 402.49677573 96.04774475 403.94563293 C95.67399768 412.79434242 95.67399768 412.79434242 99.51622009 420.46499634 C104.03802868 423.91231404 108.93357513 426.55479776 114.30859375 428.4296875 C118.79009244 430.12315058 122.44852671 432.04989418 126.34741211 434.80322266 C128.93092187 436.60347608 131.26658566 437.86207269 134.28125 438.7890625 C138.67534067 437.64420017 141.66743459 435.44123551 145.28125 432.7890625 C152.84805301 430.06501342 161.79546626 431.18924323 168.9609375 434.4609375 C175.9374934 438.45425232 181.32380204 443.78355891 183.85546875 451.55078125 C185.5170454 460.28549153 185.25998896 469.02699677 180.70703125 476.7734375 C178.80321867 479.46485474 176.79343386 481.65370622 174.28125 483.7890625 C173.600625 484.4903125 172.92 485.1915625 172.21875 485.9140625 C165.61060868 490.13202504 157.45144911 491.5880171 149.72265625 490.421875 C141.91581866 488.3983427 135.08830123 484.32204967 130.28125 477.7890625 C127.80926328 473.51584156 126.11308344 469.67442286 126.55859375 464.6796875 C126.90326206 460.73252708 126.83267806 458.46878763 125.28125 454.7890625 C120.14674223 450.1923445 113.53697039 447.37767811 107.40673828 444.35546875 C102.04289279 441.66726123 96.82525987 438.72407453 91.59375 435.7890625 C90.59649902 435.24894531 89.59924805 434.70882813 88.57177734 434.15234375 C87.64703613 433.64058594 86.72229492 433.12882812 85.76953125 432.6015625 C84.95009033 432.15425781 84.13064941 431.70695312 83.28637695 431.24609375 C80.86346342 429.48547668 80.16328805 428.66032151 79.28125 425.7890625 C79.0231981 422.81151425 79.04890068 419.85390872 79.0859375 416.8671875 C79.09018234 415.57720856 79.09018234 415.57720856 79.09451294 414.26116943 C79.1056885 411.52032429 79.13078821 408.77980852 79.15625 406.0390625 C79.1662832 404.17839014 79.17540845 402.31771265 79.18359375 400.45703125 C79.20561924 395.90091518 79.24013103 391.34504464 79.28125 386.7890625 C74.97326858 388.14094722 72.12811635 389.43753745 68.71875 392.4140625 C53.8279533 404.7890625 53.8279533 404.7890625 48.28125 404.7890625 C47.62097951 418.91577988 50.00032937 427.11911879 58.95654297 438.05126953 C60.79066101 440.45732412 62.0631178 443.11648715 63.46875 445.7890625 C64.96484038 448.23201713 64.96484038 448.23201713 67.28125 449.7890625 C71.39606547 450.31115737 75.20875969 450.1626093 79.33203125 449.90625 C86.94089549 449.68046768 92.13705449 452.41224574 97.65625 457.4765625 C103.37154777 463.66524857 105.88038461 470.67802876 106.53125 478.9765625 C105.93692336 488.04004377 102.98660487 495.51399778 96.28125 501.7890625 C87.80095842 507.97393681 79.55242893 508.92899883 69.28125 507.7890625 C62.17935464 506.58242979 57.02163081 502.0240106 52.28125 496.7890625 C47.34813529 489.29452285 46.44420818 481.63779035 47.28125 472.7890625 C48.13834104 470.04187985 49.16209172 467.53730892 50.40625 464.9453125 C51.53192787 462.55915788 51.53192787 462.55915788 51.28125 458.7890625 C49.8735539 456.21689785 49.8735539 456.21689785 47.921875 453.578125 C47.21804688 452.58039063 46.51421875 451.58265625 45.7890625 450.5546875 C45.04398437 449.51828125 44.29890625 448.481875 43.53125 447.4140625 C41.3877893 444.39201013 39.24511247 441.36951397 37.11035156 438.34130859 C36.06568882 436.88363317 35.00128105 435.43866172 33.88183594 434.03759766 C30.62203459 429.83051597 30.80740311 425.99366497 31.03125 420.9140625 C31.04929687 420.1303125 31.06734375 419.3465625 31.0859375 418.5390625 C31.13269852 416.62186061 31.20442997 414.70529535 31.28125 412.7890625 C30.42128418 413.00840454 30.42128418 413.00840454 29.54394531 413.23217773 C26.87542504 413.90680064 24.20345476 414.56669153 21.53125 415.2265625 C20.17966797 415.57170898 20.17966797 415.57170898 18.80078125 415.92382812 C11.77917364 417.64188105 5.67297517 418.1730854 -1.71875 418.7890625 C-1.71875 429.3490625 -1.71875 439.9090625 -1.71875 450.7890625 C0.59125 451.4490625 2.90125 452.1090625 5.28125 452.7890625 C12.65421702 457.67379648 16.51647886 463.49474907 19.28125 471.7890625 C20.05897304 481.59347266 19.69243268 490.05352927 13.55078125 498.0390625 C7.41996798 504.69607332 1.53909523 507.82560232 -7.55102539 508.30834961 C-17.33064857 508.50909103 -24.26675023 506.11102335 -31.59375 499.6015625 C-38.08200692 492.45374282 -39.41500524 484.56990403 -39.09765625 475.12109375 C-38.15104949 466.7968096 -33.9257137 460.32162773 -27.71875 454.7890625 C-24.6346778 452.80923315 -21.4786402 450.7890625 -17.71875 450.7890625 C-17.71875 440.2290625 -17.71875 429.6690625 -17.71875 418.7890625 C-21.7096875 418.4178125 -21.7096875 418.4178125 -25.78125 418.0390625 C-34.40160259 417.15699464 -42.43239241 415.30674637 -50.71875 412.7890625 C-50.52732422 414.35140625 -50.52732422 414.35140625 -50.33203125 415.9453125 C-49.22818222 429.08482635 -53.68681994 435.82635588 -61.71875 445.7890625 C-63.22190343 447.72503612 -64.70551686 449.67190436 -66.16650391 451.63989258 C-67.05620315 452.83724631 -67.96538692 454.02043743 -68.89599609 455.1862793 C-70.29415971 456.95535445 -70.29415971 456.95535445 -71.71875 459.7890625 C-71.20911866 462.50330284 -71.20911866 462.50330284 -69.71875 464.7890625 C-65.93414881 473.0860728 -65.1690516 481.31954111 -68.28125 490.0390625 C-71.82246337 497.79481854 -77.04474743 503.16924997 -84.71875 506.7890625 C-92.84534298 509.40822933 -102.53034861 508.86570556 -110.21875 505.3515625 C-117.56250576 501.13112682 -121.99641402 495.69237476 -124.65625 487.6640625 C-126.90033456 478.60409377 -125.36201297 470.78189256 -121.03125 462.6015625 C-116.2285536 456.76044526 -110.52001755 450.85839512 -102.71875 449.7890625 C-101.54054688 449.964375 -100.36234375 450.1396875 -99.1484375 450.3203125 C-94.79866273 450.95505504 -90.87089276 451.52511283 -86.71875 449.7890625 C-81.34771189 444.89163587 -77.68790588 438.37698923 -74.10253906 432.12060547 C-72.71875 429.7890625 -72.71875 429.7890625 -70.34375 426.7578125 C-67.99782075 422.47198022 -68.28097037 418.70966542 -68.46875 413.9140625 C-68.48679688 413.03492188 -68.50484375 412.15578125 -68.5234375 411.25 C-68.57026621 409.0958793 -68.64200006 406.94232476 -68.71875 404.7890625 C-69.37359375 404.46035156 -70.0284375 404.13164062 -70.703125 403.79296875 C-78.96013166 399.48952884 -87.09578594 394.41202656 -93.71875 387.7890625 C-96.28936311 387.14138457 -96.28936311 387.14138457 -98.71875 386.7890625 C-98.70827637 387.94954102 -98.69780273 389.11001953 -98.68701172 390.30566406 C-98.65079017 394.61438915 -98.62784164 398.92310079 -98.60888672 403.23193359 C-98.59883407 405.09621444 -98.58518995 406.96047953 -98.56787109 408.82470703 C-98.54359047 411.50557341 -98.53225953 414.18623116 -98.5234375 416.8671875 C-98.51311493 417.69961975 -98.50279236 418.532052 -98.49215698 419.38970947 C-98.49067849 427.02878619 -98.49067849 427.02878619 -100.71875 429.7890625 C-103.15454102 431.46142578 -103.15454102 431.46142578 -106.22265625 433.109375 C-107.34881348 433.72184082 -108.4749707 434.33430664 -109.63525391 434.96533203 C-110.23122375 435.28326721 -110.8271936 435.60120239 -111.44122314 435.92877197 C-113.29133985 436.91946537 -115.12987749 437.92901276 -116.96630859 438.94482422 C-122.34567475 441.91393756 -127.73902024 444.82645178 -133.25390625 447.5390625 C-141.1064564 451.16314587 -141.1064564 451.16314587 -145.82421875 457.9375 C-146.09435213 461.28387171 -146.09435213 461.28387171 -145.859375 464.61328125 C-145.59526717 470.5777164 -147.86545797 475.36971973 -151.4453125 480.04296875 C-157.68444977 486.79167699 -164.85057848 490.31096863 -174.04296875 490.8828125 C-181.74218556 490.61305892 -188.98542214 488.64016268 -194.96484375 483.671875 C-202.40930211 475.68027382 -204.28702922 467.44002163 -204.05078125 456.87890625 C-203.61114236 448.98892593 -200.0381812 443.74542494 -194.46875 438.3515625 C-187.44518812 432.62394614 -180.69647015 431.20066403 -171.71875 431.4296875 C-164.94777413 432.24079398 -159.46780251 435.3115491 -153.71875 438.7890625 C-150.05536765 436.76498785 -146.39332911 434.73850735 -142.73242188 432.70996094 C-141.49156152 432.02280404 -140.25036071 431.3362615 -139.00878906 430.65039062 C-137.20543967 429.6540328 -135.4034019 428.65533542 -133.6015625 427.65625 C-132.52277832 427.05925293 -131.44399414 426.46225586 -130.33251953 425.84716797 C-129.77937073 425.51666443 -129.22622192 425.18616089 -128.65631104 424.84564209 C-126.71875 423.7890625 -126.71875 423.7890625 -124.10296631 422.77008057 C-121.03756967 421.39546232 -119.02596282 420.24784479 -116.71875 417.7890625 C-115.32394741 412.49438596 -115.45274578 407.33543163 -115.59375 401.9140625 C-115.59569363 400.44791564 -115.59313404 398.98175548 -115.5859375 397.515625 C-115.57814098 393.93846744 -115.63177208 390.36531513 -115.71875 386.7890625 C-117.01278748 386.79794495 -118.30682495 386.80682739 -119.64007568 386.815979 C-131.82374922 386.89699836 -144.00736824 386.95699606 -156.19124985 386.99631119 C-162.45541341 387.01720287 -168.71935985 387.0455499 -174.98339844 387.09082031 C-181.0263915 387.13422086 -187.06917546 387.15818769 -193.11231232 387.16857147 C-195.42005964 387.17597319 -197.72779528 387.19042668 -200.0354538 387.21198273 C-203.26314701 387.24093899 -206.48997164 387.24502166 -209.71777344 387.24316406 C-210.67586914 387.25754517 -211.63396484 387.27192627 -212.62109375 387.28674316 C-219.1032075 387.24626609 -219.1032075 387.24626609 -222.28131104 384.88568115 C-225.85491821 379.67329187 -224.9802262 373.77844565 -225.01391602 367.66821289 C-225.03110449 365.49496011 -225.07498807 363.32323904 -225.11914062 361.15039062 C-225.12927026 359.763032 -225.13778552 358.37566046 -225.14453125 356.98828125 C-225.15911377 355.72846436 -225.17369629 354.46864746 -225.1887207 353.1706543 C-224.63829573 349.2101679 -223.50673822 347.59586437 -220.71875 344.7890625 C-218.37022472 343.61479986 -216.98100935 343.67398077 -214.3671875 343.69140625 C-213.51640625 343.69462891 -212.665625 343.69785156 -211.7890625 343.70117188 C-210.89960938 343.70955078 -210.01015625 343.71792969 -209.09375 343.7265625 C-208.1965625 343.73107422 -207.299375 343.73558594 -206.375 343.74023438 C-204.15618352 343.75203659 -201.93749982 343.76850095 -199.71875 343.7890625 C-199.74493408 343.23444336 -199.77111816 342.67982422 -199.7980957 342.10839844 C-199.90229003 339.58557681 -199.96713891 337.06320761 -200.03125 334.5390625 C-200.07314453 333.66636719 -200.11503906 332.79367187 -200.15820312 331.89453125 C-200.17431641 331.05019531 -200.19042969 330.20585937 -200.20703125 329.3359375 C-200.23321533 328.56088867 -200.25939941 327.78583984 -200.28637695 326.98730469 C-199.71875 324.7890625 -199.71875 324.7890625 -194.71875 320.7890625 C-187.45875 320.7890625 -180.19875 320.7890625 -172.71875 320.7890625 C-172.71875 258.0890625 -172.71875 195.3890625 -172.71875 130.7890625 C-179.31875 130.7890625 -185.91875 130.7890625 -192.71875 130.7890625 C-198.71875 127.7890625 -198.71875 127.7890625 -199.71875 125.7890625 C-199.80217159 124.34057668 -199.82607861 122.88835381 -199.81640625 121.4375 C-199.81318359 120.58671875 -199.80996094 119.7359375 -199.80664062 118.859375 C-199.79826172 117.96992187 -199.78988281 117.08046875 -199.78125 116.1640625 C-199.77673828 115.266875 -199.77222656 114.3696875 -199.76757812 113.4453125 C-199.75577591 111.22649602 -199.73931155 109.00781232 -199.71875 106.7890625 C-200.30366211 106.80477295 -200.88857422 106.8204834 -201.49121094 106.83666992 C-204.15029164 106.89916517 -206.80921764 106.93809819 -209.46875 106.9765625 C-210.38914062 107.00169922 -211.30953125 107.02683594 -212.2578125 107.05273438 C-213.14726562 107.06240234 -214.03671875 107.07207031 -214.953125 107.08203125 C-215.77006836 107.0977417 -216.58701172 107.11345215 -217.42871094 107.12963867 C-220.30520749 106.70184414 -221.6339471 105.79321371 -223.71875 103.7890625 C-224.74900636 100.08013961 -225.18126918 97.83735795 -223.60839844 94.27246094 C-221.24206134 91.1625926 -219.0760183 90.09099941 -215.546875 88.4296875 C-214.930401 88.13580139 -214.313927 87.84191528 -213.67877197 87.53912354 C-211.70012849 86.60387649 -209.71170793 85.69336686 -207.71875 84.7890625 C-207.08300049 84.49862061 -206.44725098 84.20817871 -205.79223633 83.90893555 C-201.76945526 82.07778817 -197.72944009 80.28749941 -193.68225098 78.51104736 C-189.7428725 76.78120116 -185.80910247 75.03867913 -181.875 73.296875 C-180.63559662 72.74844437 -180.63559662 72.74844437 -179.37115479 72.18893433 C-169.87976002 67.9835688 -160.42374855 63.7004759 -150.96875 59.4140625 C-147.41413294 57.80322994 -143.85942583 56.19259618 -140.3046875 54.58203125 C-138.98426956 53.98371239 -138.98426956 53.98371239 -137.63717651 53.37330627 C-124.16549207 47.27092884 -110.67439431 41.21160973 -97.18548584 35.14743042 C-90.47080149 32.12834119 -83.75850735 29.10396632 -77.04696655 26.07789612 C-72.86861546 24.19442107 -68.68921936 22.31333861 -64.50732422 20.43774414 C-62.86424722 19.70070721 -61.22118078 18.96364672 -59.578125 18.2265625 C-58.76872467 17.86352524 -57.95932434 17.50048798 -57.12539673 17.12644958 C-52.08392067 14.8617923 -47.05392193 12.57339761 -42.03082275 10.26828003 C-38.7196973 8.75120665 -35.40335022 7.24578499 -32.08605957 5.74224854 C-30.52719615 5.03226756 -28.97071835 4.31702135 -27.41687012 3.59613037 C-25.27350045 2.60233933 -23.12242784 1.62745502 -20.96875 0.65625 C-20.34969788 0.36347168 -19.73064575 0.07069336 -19.09283447 -0.23095703 C-12.43198462 -3.18640497 -6.62975877 -3.10435547 0 0 Z M-16.9765625 17.96484375 C-18.05550781 18.45339844 -19.13445312 18.94195313 -20.24609375 19.4453125 C-22.02693359 20.26515625 -22.02693359 20.26515625 -23.84375 21.1015625 C-25.11294288 21.67912956 -26.38248479 22.25593013 -27.65234375 22.83203125 C-30.46166243 24.10779214 -33.26901515 25.38776098 -36.07519531 26.67041016 C-41.03166245 28.93426412 -45.9957416 31.18114851 -50.9609375 33.42578125 C-51.83780212 33.82219818 -52.71466675 34.21861511 -53.61810303 34.62704468 C-55.41180536 35.43788831 -57.20552702 36.24868918 -58.99926758 37.05944824 C-61.73620883 38.29695651 -64.47267226 39.53551534 -67.20898438 40.77441406 C-78.36747981 45.82618111 -89.53517733 50.85639358 -100.71508789 55.8605957 C-111.20067037 60.55438222 -121.67961583 65.26283968 -132.15625 69.9765625 C-133.01663879 70.36367401 -133.87702759 70.75078552 -134.76348877 71.14962769 C-147.76237536 76.99923449 -160.75114556 82.87036231 -173.71875 88.7890625 C-173.71875 89.1190625 -173.71875 89.4490625 -173.71875 89.7890625 C-65.14875 89.7890625 43.42125 89.7890625 155.28125 89.7890625 C152.04299186 87.63022374 148.68618967 86.04984001 145.16015625 84.4375 C144.44180603 84.10683533 143.72345581 83.77617065 142.9833374 83.43548584 C140.60482666 82.34203943 138.22440726 81.25282685 135.84375 80.1640625 C134.60702042 79.59700592 134.60702042 79.59700592 133.3453064 79.01849365 C119.99078877 72.89612747 106.58578403 66.89334994 93.15161133 60.94824219 C81.58533851 55.8274633 70.05254189 50.63519937 58.53125 45.4140625 C56.78011476 44.62067783 55.02897545 43.82730217 53.27783203 43.03393555 C52.40876221 42.64019241 51.53969238 42.24644928 50.64428711 41.84077454 C49.77296143 41.44601425 48.90163574 41.05125397 48.00390625 40.64453125 C47.13096924 40.24900558 46.25803223 39.85347992 45.35864258 39.44596863 C36.12140041 35.26165333 26.87827019 31.09043994 17.63195801 26.9262085 C15.87111485 26.13303409 14.11045089 25.33946172 12.34997559 24.54547119 C9.91477058 23.44724951 7.47895855 22.35038586 5.04296875 21.25390625 C4.32725204 20.93086014 3.61153534 20.60781403 2.87413025 20.27497864 C1.01335494 19.43846964 -0.85247664 18.61323228 -2.71875 17.7890625 C-4.07262817 17.1868689 -4.07262817 17.1868689 -5.45385742 16.57250977 C-9.9346752 15.0225535 -12.87768613 16.0907357 -16.9765625 17.96484375 Z M-182.71875 106.7890625 C-182.71875 109.0990625 -182.71875 111.4090625 -182.71875 113.7890625 C-68.53875 113.7890625 45.64125 113.7890625 163.28125 113.7890625 C163.28125 111.4790625 163.28125 109.1690625 163.28125 106.7890625 C49.10125 106.7890625 -65.07875 106.7890625 -182.71875 106.7890625 Z M-155.71875 130.7890625 C-155.71875 193.4890625 -155.71875 256.1890625 -155.71875 320.7890625 C-148.78875 320.7890625 -141.85875 320.7890625 -134.71875 320.7890625 C-135.04101562 318.80132812 -135.36328125 316.81359375 -135.6953125 314.765625 C-136.81318226 306.89305194 -137.11629149 299.11560187 -137.09375 291.1640625 C-137.09353851 290.46895569 -137.09332703 289.77384888 -137.09310913 289.05767822 C-137.0558706 276.73154687 -136.7694114 263.55990935 -131.5090332 252.16967773 C-126.30750735 240.25875949 -127.08622796 228.14346365 -127.23046875 215.359375 C-127.23981027 212.91316454 -127.24692004 210.46694464 -127.25190735 208.02072144 C-127.2708715 201.62552432 -127.3198806 195.23090752 -127.37542725 188.8359375 C-127.42684904 182.29304857 -127.44947015 175.75006461 -127.47460938 169.20703125 C-127.52801014 156.40074748 -127.61585892 143.59504435 -127.71875 130.7890625 C-136.95875 130.7890625 -146.19875 130.7890625 -155.71875 130.7890625 Z M-110.71875 130.7890625 C-110.71875 156.8590625 -110.71875 182.9290625 -110.71875 209.7890625 C-106.31048325 206.26892567 -106.31048325 206.26892567 -102.78125 202.2890625 C-100.52275553 199.47634842 -98.38907435 197.5028738 -95.2902832 195.71777344 C-90.00931621 192.45553952 -85.58275541 189.13992734 -83.97354126 182.89892578 C-82.94674711 174.46263175 -83.44505769 166.0040203 -83.84375 157.5390625 C-83.91405713 154.94417851 -83.9779211 152.34911147 -84.03515625 149.75390625 C-84.17671822 143.42406398 -84.45035313 137.11982041 -84.71875 130.7890625 C-93.29875 130.7890625 -101.87875 130.7890625 -110.71875 130.7890625 Z M-67.71875 130.7890625 C-67.71875 145.6390625 -67.71875 160.4890625 -67.71875 175.7890625 C-60.78875 173.1490625 -53.85875 170.5090625 -46.71875 167.7890625 C-44.40875 167.1290625 -42.09875 166.4690625 -39.71875 165.7890625 C-39.71875 154.2390625 -39.71875 142.6890625 -39.71875 130.7890625 C-48.95875 130.7890625 -58.19875 130.7890625 -67.71875 130.7890625 Z M-22.71875 130.7890625 C-22.71875 141.3490625 -22.71875 151.9090625 -22.71875 162.7890625 C-14.13875 162.7890625 -5.55875 162.7890625 3.28125 162.7890625 C3.28125 152.2290625 3.28125 141.6690625 3.28125 130.7890625 C-5.29875 130.7890625 -13.87875 130.7890625 -22.71875 130.7890625 Z M20.28125 130.7890625 C20.28125 142.3390625 20.28125 153.8890625 20.28125 165.7890625 C26.8759433 167.96108909 26.8759433 167.96108909 33.47290039 170.1262207 C34.30813232 170.40296631 35.14336426 170.67971191 36.00390625 170.96484375 C37.26859741 171.38117065 37.26859741 171.38117065 38.55883789 171.8059082 C41.85285457 172.99548808 45.06218861 174.40946476 48.28125 175.7890625 C48.28125 160.9390625 48.28125 146.0890625 48.28125 130.7890625 C39.04125 130.7890625 29.80125 130.7890625 20.28125 130.7890625 Z M65.28125 130.7890625 C65.07433327 138.63912559 64.89530587 146.47970192 64.78686523 154.33032227 C64.74673795 157.000205 64.68033245 159.6657327 64.60229492 162.33520508 C64.49284833 166.17585045 64.44202107 170.01354623 64.40234375 173.85546875 C64.35589218 175.04427139 64.30944061 176.23307404 64.26158142 177.457901 C64.18421007 183.77561164 64.18421007 183.77561164 67.24436951 189.06137085 C69.51449457 190.83511731 71.80464157 192.3237492 74.28125 193.7890625 C80.15002935 198.73457287 85.3842055 203.88749605 90.28125 209.7890625 C90.61125 209.7890625 90.94125 209.7890625 91.28125 209.7890625 C91.28125 183.7190625 91.28125 157.6490625 91.28125 130.7890625 C82.70125 130.7890625 74.12125 130.7890625 65.28125 130.7890625 Z M108.28125 130.7890625 C108.14509135 144.82038605 108.0352711 158.8512628 107.97037697 172.88310051 C107.93921348 179.40034629 107.8970162 185.91711228 107.82861328 192.43408203 C107.76288454 198.73651902 107.72743164 205.03849778 107.71198654 211.34125137 C107.70099563 213.73236416 107.67953608 216.12345506 107.64686966 218.51436996 C107.4650692 232.3865195 108.29597041 244.04101904 113.57604599 256.94479752 C117.7458109 267.84965811 117.55853758 279.4298785 117.59375 290.9140625 C117.59751648 291.59293518 117.60128296 292.27180786 117.60516357 292.97125244 C117.63186298 302.47939748 116.81098136 311.41564881 115.28125 320.7890625 C122.21125 320.7890625 129.14125 320.7890625 136.28125 320.7890625 C136.28125 258.0890625 136.28125 195.3890625 136.28125 130.7890625 C127.04125 130.7890625 117.80125 130.7890625 108.28125 130.7890625 Z M-95.71875 218.7890625 C-116.58685589 243.27099997 -122.49445653 273.41232803 -120.71875 304.7890625 C-120.0522944 310.987954 -118.61566269 316.86139203 -116.71875 322.7890625 C-116.50976074 323.46678711 -116.30077148 324.14451172 -116.08544922 324.84277344 C-107.39176794 352.36299598 -87.25432327 375.61056167 -61.82177734 389.00195312 C-33.95526434 403.1652634 -4.35963903 405.87307186 25.5234375 396.50390625 C39.89576312 391.65196976 53.11317498 384.05596721 64.28125 373.7890625 C64.7978418 373.32016602 65.31443359 372.85126953 65.84667969 372.36816406 C85.56178508 354.29110897 99.68452621 328.49185062 101.50439453 301.4765625 C102.59919738 267.76990504 94.60529926 238.52990415 71.1015625 213.328125 C65.02203515 206.98849648 58.82022524 201.36363163 51.28125 196.7890625 C50.72131348 196.4389209 50.16137695 196.0887793 49.58447266 195.72802734 C1.5929744 165.93801242 -58.7750325 176.94383358 -95.71875 218.7890625 Z M-182.71875 337.7890625 C-182.71875 339.7690625 -182.71875 341.7490625 -182.71875 343.7890625 C-164.23875 343.7890625 -145.75875 343.7890625 -126.71875 343.7890625 C-127.37875 341.8090625 -128.03875 339.8290625 -128.71875 337.7890625 C-146.53875 337.7890625 -164.35875 337.7890625 -182.71875 337.7890625 Z M109.28125 337.7890625 C108.62125 339.7690625 107.96125 341.7490625 107.28125 343.7890625 C125.76125 343.7890625 144.24125 343.7890625 163.28125 343.7890625 C163.28125 341.8090625 163.28125 339.8290625 163.28125 337.7890625 C145.46125 337.7890625 127.64125 337.7890625 109.28125 337.7890625 Z M-207.71875 360.7890625 C-207.71875 363.7590625 -207.71875 366.7290625 -207.71875 369.7890625 C-175.70875 369.7890625 -143.69875 369.7890625 -110.71875 369.7890625 C-115.37247229 360.64304751 -115.37247229 360.64304751 -120.89498901 359.70677185 C-122.51438425 359.68088454 -124.13504713 359.70419214 -125.75341797 359.76733398 C-126.64186905 359.76601974 -127.53032013 359.76470551 -128.44569397 359.76335144 C-131.36948647 359.76960031 -134.28805275 359.83947711 -137.2109375 359.91015625 C-139.24257588 359.92695053 -141.27425081 359.93975784 -143.30593872 359.94874573 C-148.6432834 359.98304572 -153.97840985 360.07139505 -159.31488037 360.17108154 C-164.76430248 360.26328989 -170.21408448 360.30428359 -175.6640625 360.34960938 C-186.3499309 360.44601915 -197.03415572 360.59954348 -207.71875 360.7890625 Z M91.28125 369.7890625 C123.29125 369.7890625 155.30125 369.7890625 188.28125 369.7890625 C188.28125 366.8190625 188.28125 363.8490625 188.28125 360.7890625 C176.52029211 360.58045138 164.75977482 360.42057747 152.99734306 360.32275295 C147.53532402 360.27579883 142.07457136 360.21212558 136.61328125 360.11010742 C131.34175323 360.01225135 126.0714423 359.9584915 120.79907608 359.93516731 C118.78867553 359.91854859 116.77834102 359.88609353 114.76845932 359.83749199 C111.94948723 359.77204231 109.13552868 359.76316308 106.31591797 359.76733398 C105.48657242 359.7349765 104.65722687 359.70261902 103.80274963 359.66928101 C95.75327006 359.7979583 96.44583938 362.04217844 91.28125 369.7890625 Z M-183.71875 451.7890625 C-186.84443548 455.45365927 -187.31203221 458.89450727 -187.125 463.5703125 C-186.41257275 467.46126134 -184.67193904 469.26654686 -181.71875 471.7890625 C-177.45951773 473.874126 -174.55788962 474.01283307 -169.96875 472.7890625 C-166.17829621 470.45647555 -164.61678118 468.8128886 -162.71875 464.7890625 C-162.05699626 460.62001392 -161.75390707 458.36184721 -163.96484375 454.7578125 C-166.43528228 451.75139354 -167.96821748 450.03924001 -171.71875 448.7890625 C-176.70633297 448.41961191 -179.76834346 448.60679057 -183.71875 451.7890625 Z M144.96875 453.9765625 C142.77779711 457.62815065 142.50093383 460.68636921 143.28125 464.7890625 C145.17928118 468.8128886 146.74079621 470.45647555 150.53125 472.7890625 C155.12038962 474.01283307 158.02201773 473.874126 162.28125 471.7890625 C165.23443904 469.26654686 166.97507275 467.46126134 167.6875 463.5703125 C167.87453221 458.89450727 167.40693548 455.45365927 164.28125 451.7890625 C157.38856252 446.23661981 150.87912767 448.3856647 144.96875 453.9765625 Z M-105.71875 470.7890625 C-108.07185932 474.20486635 -108.71875 476.13363589 -108.71875 480.2890625 C-107.4683084 484.6656081 -105.8797017 486.55101442 -102.71875 489.7890625 C-99.26409728 491.51638886 -95.50298122 491.14321932 -91.71875 490.7890625 C-88.12747325 489.38378029 -86.99681764 488.22054676 -84.90625 484.9765625 C-83.61247042 481.50378573 -83.18433095 479.45365029 -83.71875 475.7890625 C-85.78557146 472.02449484 -87.82302955 468.73692273 -91.71875 466.7890625 C-97.7587079 466.10713177 -101.00245767 466.62117626 -105.71875 470.7890625 Z M-20.53125 471.9765625 C-22.0797434 475.64404688 -22.41820988 478.90401903 -21.71875 482.7890625 C-19.70372111 486.54118526 -18.26408858 488.42550345 -14.71875 490.7890625 C-9.92185209 491.48827135 -5.94415718 491.50388335 -1.71875 489.0390625 C1.87784749 484.99289032 2.6965751 482.30905657 2.53125 476.75 C2.0148732 472.69966946 0.15536808 470.51333176 -2.90625 467.9765625 C-9.69666881 465.10949678 -15.74866003 466.20447116 -20.53125 471.9765625 Z M66.28125 471.7890625 C63.95066513 475.56944263 64.08359115 478.30075245 64.6640625 482.59765625 C65.6167905 485.98044366 67.56803974 487.67143498 70.28125 489.7890625 C73.77285447 491.53486474 77.47170358 491.35889381 81.28125 490.7890625 C84.61898907 489.0955991 86.70871521 486.64786469 88.78125 483.5390625 C89.54342248 479.34711388 88.86522841 475.73059016 87.28125 471.7890625 C83.81952752 468.32734002 81.38947633 466.89988513 76.53125 466.4140625 C71.5969758 466.46789095 69.63536116 468.27523176 66.28125 471.7890625 Z " fill="#000000" transform="translate(265.71875,3.2109375)"/>
<path d="M0 0 C20.92394175 16.51194898 35.0509581 38.47650118 38.8125 65.1328125 C41.06471572 91.62762793 35.23423392 118.53348275 17.78125 139.25390625 C-0.25922162 159.82675548 -22.74792823 171.67466475 -50.09375 174.25390625 C-78.31872263 175.63002006 -103.17489036 165.94662807 -124.20703125 147.4140625 C-142.05984425 130.46255657 -152.44180262 105.89774007 -153.24072266 81.49194336 C-153.67125035 54.39722785 -144.22681288 29.83388538 -125.69604492 10.06713867 C-92.82604208 -23.37926002 -37.66460957 -27.54923794 0 0 Z M-108.90625 18.44140625 C-109.71320313 19.15683594 -110.52015625 19.87226563 -111.3515625 20.609375 C-126.08140957 34.41579129 -135.02547181 53.20305917 -136.12109375 73.40234375 C-136.77643342 94.67549178 -130.15679323 115.04473177 -115.8203125 130.96875 C-100.39983532 147.31251206 -80.51224904 156.66450075 -57.98828125 157.4375 C-38.14442264 157.69668125 -18.45476475 150.34358495 -4.08251953 136.6237793 C-2.67737549 135.24281331 -1.29136279 133.84246278 0.09375 132.44140625 C0.83496094 131.71050781 1.57617188 130.97960937 2.33984375 130.2265625 C16.89963606 114.98561031 22.6263525 94.5834383 22.3046875 73.88671875 C21.54934964 52.14977369 10.87408682 32.8091871 -4.734375 18.16796875 C-12.89095344 10.91599225 -22.67836308 6.05608115 -32.90625 2.44140625 C-33.75574219 2.12171875 -34.60523438 1.80203125 -35.48046875 1.47265625 C-60.24017168 -6.33478292 -89.91375512 1.13315148 -108.90625 18.44140625 Z " fill="#000000" transform="translate(312.90625,215.55859375)"/>
<path d="M0 0 C1.9375 1.5625 1.9375 1.5625 3 4 C3.22886309 6.72034996 3.13702696 9.25946073 3 12 C4.2375 12.0928125 4.2375 12.0928125 5.5 12.1875 C12.51071681 13.81498783 18.18653499 17.92229014 22 24 C22.85646056 27.91849653 22.60379869 30.99366884 20.5 34.5 C17.65434245 36.20739453 15.37051525 36.67258014 12.05078125 36.5390625 C9.535238 35.87783399 8.63811057 34.88362699 6.875 33 C3.4474659 29.65974107 0.59490973 29.45508061 -4.125 29.3125 C-8.47469381 29.52073002 -10.59279387 29.75869266 -14.375 32 C-16.63651355 36.17510194 -16.67423269 38.28037115 -16 43 C-14.12984906 45.43119623 -12.71861655 46.64069173 -10 48 C-8.18160977 48.21013434 -6.36259795 48.41633998 -4.54077148 48.59423828 C4.71922971 49.52744097 11.24809871 50.80052589 17.8125 57.8125 C24.25114029 65.85345032 25.0533303 72.77922359 24 83 C21.7225335 91.16384144 17.1898546 96.69275492 9.97265625 100.99609375 C7.67684092 102.16445917 5.56526865 102.75950606 3 103 C3.05800781 103.60328125 3.11601562 104.2065625 3.17578125 104.828125 C3.54363757 111.34443704 3.54363757 111.34443704 0.875 114.5625 C-2.50839538 116.25419769 -4.26824414 116.62195931 -8 116 C-10.875 114.5625 -10.875 114.5625 -13 112 C-13.41409388 108.95457539 -13.29354833 106.05290263 -13 103 C-14.299375 102.835 -15.59875 102.67 -16.9375 102.5 C-22.99990133 101.19336516 -26.85623851 97.43974445 -31 93 C-32.60420518 89.79158965 -32.47462745 86.4806013 -32 83 C-30.5 80.5 -30.5 80.5 -28 79 C-23.89382455 78.32685648 -21.52784203 77.97840722 -18.03125 80.31640625 C-16.83374188 81.36930004 -15.66781558 82.45965323 -14.54296875 83.58984375 C-11.50345822 86.36772552 -8.02315012 86.273664 -4.06640625 86.22265625 C-0.9054306 85.88205963 1.35124663 84.70277003 4 83 C6.4915904 79.2626144 6.45793285 77.42668417 6 73 C4.20437595 70.24670979 2.94745078 68.47372539 0 67 C-2.01931208 66.86962834 -4.04067704 66.77026468 -6.0625 66.6875 C-15.95801183 65.95732457 -23.37357942 62.50894612 -30 55 C-34.88448076 48.09293143 -34.93572265 40.17575852 -34 32 C-32.4103812 26.07505721 -29.68534129 21.99968159 -25 18 C-24.195625 17.278125 -23.39125 16.55625 -22.5625 15.8125 C-19.78529645 13.84813652 -17.26207215 12.91034572 -14 12 C-13.91363281 11.31292969 -13.82726562 10.62585938 -13.73828125 9.91796875 C-12.59661017 2.59661017 -12.59661017 2.59661017 -9.8125 -0.1875 C-6.10749383 -1.25783511 -3.70747718 -1.02985477 0 0 Z " fill="#000000" transform="translate(261,236)"/>
</svg>
