<?xml version="1.0" encoding="UTF-8"?>
<svg version="1.1" xmlns="http://www.w3.org/2000/svg" width="512" height="512">
<path d="M0 0 C0.96596659 -0.00679667 0.96596659 -0.00679667 1.95144767 -0.01373065 C4.09536619 -0.02632535 6.23902907 -0.02475752 8.38298035 -0.02310181 C9.92589645 -0.02909017 11.46880955 -0.03589643 13.01171875 -0.04345703 C17.19366865 -0.0610934 21.37553665 -0.06581143 25.55752015 -0.0670886 C28.173128 -0.06851215 30.78871516 -0.07278563 33.40431786 -0.07808304 C42.53751823 -0.09657583 51.67066031 -0.10475463 60.80387878 -0.10317993 C69.30404015 -0.10197889 77.80394745 -0.1230758 86.30404454 -0.15466726 C93.61296268 -0.1808591 100.92179798 -0.191546 108.23076266 -0.19026911 C112.5911358 -0.18976031 116.95128307 -0.1953979 121.31160927 -0.21662521 C125.41491662 -0.23605664 129.5177838 -0.23609887 133.6211071 -0.22159195 C135.12185436 -0.21950877 136.62262954 -0.22417536 138.12332916 -0.23631287 C150.13500257 -0.32712297 159.44111922 1.76575144 168.34074402 10.26742554 C174.91513939 18.21364357 177.65442376 24.87446647 177.58125305 35.11322021 C177.5829619 35.99222697 177.58467075 36.87123372 177.58643138 37.77687705 C177.58971979 40.71570459 177.57873324 43.65430269 177.5677948 46.59310913 C177.56723055 48.70234166 177.56754752 50.81157458 177.56867981 52.92080688 C177.56925377 58.64344399 177.55749239 64.36599731 177.54353189 70.08861494 C177.53103179 76.07038416 177.5298546 82.05215528 177.52748108 88.03393555 C177.5212642 99.3597806 177.50485054 110.68558706 177.4847821 122.01141512 C177.45825026 137.3170726 177.44745214 152.62274063 177.43577766 167.9284153 C177.41697013 192.04144762 177.37712579 216.1543985 177.34074402 240.26742554 C108.04074402 240.26742554 38.74074402 240.26742554 -32.65925598 240.26742554 C-32.82046812 186.96442373 -32.82046812 186.96442373 -32.85456848 164.63656616 C-32.87830764 149.21667157 -32.90622285 133.79686438 -32.96101379 118.37704468 C-33.00089783 107.14712058 -33.02669271 95.91726735 -33.03560996 84.6872744 C-33.040822 78.74173486 -33.05306135 72.79639806 -33.08217621 66.85092354 C-33.10936982 61.25230819 -33.11769288 55.65397869 -33.11168671 50.05530357 C-33.11278517 48.00305756 -33.12071534 45.95080178 -33.13607788 43.89861298 C-33.15606741 41.0900553 -33.15116246 38.28256775 -33.14027405 35.47398376 C-33.15192541 34.6675364 -33.16357678 33.86108904 -33.17558122 33.03020388 C-33.08060785 23.92702939 -28.90515906 15.80569004 -22.65925598 9.26742554 C-15.57115532 3.40300349 -9.35349252 0.02731011 0 0 Z M63.17277527 40.20101929 C61.48999479 44.38031916 61.98725736 48.8527699 62.34074402 53.26742554 C61.55699402 53.30867554 60.77324402 53.34992554 59.96574402 53.39242554 C51.78050653 55.36817252 45.64185416 60.03791171 40.80949402 66.85336304 C35.58097067 75.44705301 33.19004856 84.79801813 34.90324402 94.82992554 C37.6975483 105.03918106 43.42957594 110.95174458 52.34074402 116.26742554 C53.03168152 116.7018396 53.72261902 117.13625366 54.43449402 117.58383179 C57.26948463 119.30765023 58.96887583 120.26742554 62.34074402 120.26742554 C62.34074402 136.10742554 62.34074402 151.94742554 62.34074402 168.26742554 C51.30497253 164.95669409 51.30497253 164.95669409 47.65324402 162.51742554 C44.45622357 160.6477899 43.39789848 160.2683625 39.52824402 160.20492554 C35.95359906 161.39647386 34.46632668 162.16080473 32.34074402 165.26742554 C31.32213091 169.00234028 30.85073569 171.20240743 32.48918152 174.76351929 C37.69451539 181.80279991 47.92837683 185.65654671 56.34074402 187.26742554 C59.75918112 187.52304894 59.75918112 187.52304894 62.34074402 187.26742554 C62.28273621 187.99187866 62.22472839 188.71633179 62.16496277 189.46273804 C61.76008367 196.07007632 61.76008367 196.07007632 64.34074402 201.95492554 C67.67676832 204.52644427 69.29787844 205.10553377 73.40715027 204.80258179 C76.66959844 203.89964159 78.30487823 201.85852745 80.34074402 199.26742554 C81.66303591 196.62284175 81.43751596 194.58981253 81.40324402 191.64242554 C81.39422058 190.63953491 81.38519714 189.63664429 81.37590027 188.60336304 C81.36429871 187.83250366 81.35269714 187.06164429 81.34074402 186.26742554 C82.46416199 186.06633179 82.46416199 186.06633179 83.61027527 185.86117554 C92.93796027 183.83283774 100.54488349 177.27286846 106.20402527 169.81039429 C112.29391944 160.21465534 114.55641121 150.60454652 113.34074402 139.26742554 C110.61890486 127.4881668 104.16793313 119.94487455 94.34074402 113.26742554 C90.38074402 111.61742554 86.42074402 109.96742554 82.34074402 108.26742554 C82.01074402 96.05742554 81.68074402 83.84742554 81.34074402 71.26742554 C89.34074402 76.26742554 89.34074402 76.26742554 92.34074402 78.26742554 C96.5154053 78.91681729 98.05212427 78.45257783 101.65324402 76.14242554 C104.63668657 72.95083583 105.43102545 71.60093444 105.34074402 67.26742554 C103.08660763 61.63208456 98.12461579 57.65936142 92.80168152 54.99789429 C88.69107638 53.28211072 85.85414414 52.26742554 81.34074402 52.26742554 C81.38715027 51.68734741 81.43355652 51.10726929 81.48136902 50.50961304 C81.74237493 44.86069943 81.1466856 41.74500387 77.34074402 37.26742554 C72.01907227 34.60658966 66.6967335 35.3099067 63.17277527 40.20101929 Z " fill="#000000" transform="translate(334.6592559814453,181.73257446289063)"/>
<path d="M0 0 C75.9 0 151.8 0 230 0 C230 111 230 111 226 117 C222.26747129 119.92615818 219.52006546 120.36968985 214.83276367 120.34057617 C213.61187546 120.34034958 212.39098724 120.34012299 211.13310242 120.33988953 C209.82460831 120.32440567 208.5161142 120.30892181 207.16796875 120.29296875 C205.80748463 120.28736884 204.44699443 120.2831006 203.08650208 120.28010559 C199.51729433 120.26868776 195.94845671 120.23924765 192.37939453 120.20599365 C188.73279832 120.17522626 185.08614191 120.16158606 181.43945312 120.14648438 C174.29281795 120.11437449 167.14643323 120.06321571 160 120 C159.99191315 119.07593857 159.98382629 118.15187714 159.97549438 117.19981384 C159.89743065 108.47520259 159.8101045 99.75074317 159.71247292 91.02632809 C159.66260818 86.54142769 159.61627751 82.05654974 159.578125 77.5715332 C159.54114781 73.2401667 159.49475463 68.90899249 159.44193649 64.57779121 C159.42345844 62.92849679 159.40832637 61.27916125 159.39665604 59.62980461 C159.37968019 57.31281884 159.35061922 54.99626717 159.31884766 52.67944336 C159.29886215 50.70420937 159.29886215 50.70420937 159.2784729 48.68907166 C158.88329825 43.45399279 158.06028037 39.36321762 154.8125 35.1875 C147.93097377 29.83520182 139.77228553 30.70747392 131.4375 30.734375 C129.47961548 30.73150482 129.47961548 30.73150482 127.48217773 30.72857666 C124.72862984 30.72563995 121.97521234 30.72987594 119.22167969 30.73925781 C115.70812091 30.7506516 112.19486778 30.74408429 108.68132019 30.73211288 C105.30835622 30.72311124 101.93547263 30.72943036 98.5625 30.734375 C97.30816162 30.73032654 96.05382324 30.72627808 94.76147461 30.72210693 C84.30702084 30.65120184 84.30702084 30.65120184 75.1875 35.1875 C71.08457907 40.46268406 70.74704013 46.1675336 70.68115234 52.67944336 C70.67110672 53.41198334 70.6610611 54.14452332 70.65071106 54.89926147 C70.62007056 57.29611498 70.60289782 59.69285781 70.5859375 62.08984375 C70.5672104 63.76136719 70.54763585 65.43288132 70.5272522 67.10438538 C70.47608773 71.48546853 70.43637844 75.86658228 70.39910889 80.24780273 C70.35897049 84.7258247 70.30792318 89.20372111 70.2578125 93.68164062 C70.1612391 102.45434107 70.07677533 111.22710405 70 120 C62.15030608 120.09285592 54.30074185 120.16384356 46.45063591 120.20724869 C42.8051088 120.22808571 39.15995864 120.25633084 35.51464844 120.30175781 C31.99385013 120.34535643 28.47341339 120.36916631 24.95236588 120.37950897 C22.96152053 120.39045006 20.97081978 120.42165399 18.98019409 120.45318604 C7.51212857 120.45602413 7.51212857 120.45602413 3 116 C-16.90048773 82.83252046 0 38.67959554 0 0 Z " fill="#000000" transform="translate(20,392)"/>
<path d="M0 0 C9.9 0 19.8 0 30 0 C30 33 30 66 30 100 C43.2 100 56.4 100 70 100 C70 67 70 34 70 0 C79.9 0 89.8 0 100 0 C100 33 100 66 100 100 C113.2 100 126.4 100 140 100 C140 67 140 34 140 0 C149.9 0 159.8 0 170 0 C170 33 170 66 170 100 C176.93 100 183.86 100 191 100 C198.13422347 104.75614898 198.13422347 104.75614898 200 109 C200.82885269 114.54808604 200.7240695 119.47140883 198.3125 124.5625 C194.74431455 128.32356034 192.3423774 129.86940871 187.09063816 130.38031673 C185.52411155 130.39806989 183.957346 130.39935824 182.39076233 130.38768005 C181.09213458 130.39575836 181.09213458 130.39575836 179.76727194 130.40399987 C176.86692007 130.41830486 173.96702297 130.41116943 171.06665039 130.40405273 C168.98700086 130.40975496 166.90735446 130.41671865 164.82771301 130.42485046 C159.17898102 130.44281309 153.53040411 130.44160764 147.88165212 130.43590808 C143.16728768 130.43282075 138.45295322 130.43890359 133.73859304 130.44494683 C122.61777696 130.45900061 111.49703769 130.45742361 100.3762207 130.44604492 C88.90009142 130.43456223 77.42419578 130.4486401 65.94809729 130.4754414 C56.09743669 130.49758605 46.24684951 130.50423857 36.39616579 130.49836498 C30.51175018 130.49499134 24.62748437 130.49743764 18.74308968 130.51461601 C13.21003472 130.53006333 7.67732636 130.52615399 2.1442852 130.50731087 C0.11336713 130.50361889 -1.9175765 130.5067511 -3.94847107 130.51719666 C-6.72064162 130.53036649 -9.49165798 130.5188946 -12.26377869 130.50120544 C-13.06777208 130.51081045 -13.87176547 130.52041546 -14.7001223 130.53031152 C-19.91313959 130.46185288 -22.84886237 129.42072708 -27 126 C-31.05630398 120.77740143 -30.77397544 115.34659858 -30 109 C-27.60223857 103.93805921 -25.96308918 102.97785351 -21 100 C-14.07 100 -7.14 100 0 100 C0 67 0 34 0 0 Z " fill="#000000" transform="translate(50,120)"/>
<path d="M0 0 C9.9 0 19.8 0 30 0 C30 7.26 30 14.52 30 22 C32.72523926 21.97905273 35.45047852 21.95810547 38.25830078 21.93652344 C47.26677273 21.87021719 56.27525552 21.82605006 65.28390694 21.79275131 C70.74539228 21.77188485 76.20662741 21.74358401 81.66796875 21.69824219 C86.93939546 21.65475144 92.21058163 21.63085581 97.48217392 21.62049103 C99.49241802 21.6131055 101.5026491 21.59868325 103.51279068 21.57707977 C106.3305929 21.5480031 109.1474037 21.54404581 111.96533203 21.54589844 C112.79467758 21.53151733 113.62402313 21.51713623 114.47850037 21.50231934 C119.79250476 21.54007425 122.7914297 22.47025359 127 26 C128.59469604 27.72900391 128.59469604 27.72900391 129.79248047 29.4765625 C130.25250458 30.13825439 130.71252869 30.79994629 131.18649292 31.48168945 C131.65862213 32.18898193 132.13075134 32.89627441 132.6171875 33.625 C133.37021652 34.73911255 133.37021652 34.73911255 134.13845825 35.87573242 C135.19169344 37.44501609 136.2385361 39.01860699 137.27929688 40.59619141 C138.86430048 42.98388196 140.48908342 45.34078244 142.1171875 47.69921875 C151.37401508 61.44703353 151.37401508 61.44703353 150.5559082 70.65991211 C149.48615852 75.16300859 147.52918391 77.76230147 143.98845577 80.62811375 C139.62377428 82.63177283 135.62165382 82.41735623 130.87220764 82.38768005 C129.32856676 82.39575836 129.32856676 82.39575836 127.7537412 82.40399987 C124.30063145 82.41832321 120.84790267 82.41116476 117.39477539 82.40405273 C114.92104279 82.40975399 112.44731283 82.41671729 109.97358704 82.42485046 C103.94899151 82.44095643 97.92454602 82.44287705 91.89994366 82.43763756 C87.00307807 82.43359594 82.10624331 82.43503932 77.2093792 82.44038582 C76.51239795 82.44113424 75.81541671 82.44188266 75.09731482 82.44265376 C73.68139287 82.44418524 72.26547092 82.44572359 70.84954899 82.44726873 C57.57166999 82.46099631 44.29384991 82.45555428 31.01597225 82.44408352 C18.8696817 82.43415077 6.72354347 82.44709202 -5.42272358 82.47101771 C-17.89600359 82.49540236 -30.36921264 82.50501816 -42.84251601 82.49836498 C-49.84474687 82.49487135 -56.84686057 82.49711426 -63.84907341 82.51461601 C-70.43267973 82.53086742 -77.01604215 82.52616623 -83.59965706 82.50731087 C-86.01758899 82.50361583 -88.43554236 82.50675991 -90.85345459 82.51719666 C-94.15104968 82.53034508 -97.44767121 82.51891262 -100.745224 82.50120544 C-102.18467098 82.51561295 -102.18467098 82.51561295 -103.65319771 82.53031152 C-109.26849084 82.46815809 -112.57037987 81.79858159 -117 78 C-120.25439251 73.65279604 -120.97552283 70.01907529 -120.83349609 64.66064453 C-119.13125273 57.18453527 -114.36450741 51.0812516 -110.02075195 44.87866211 C-108.30720542 42.42993382 -106.63648508 39.9560146 -104.97070312 37.47460938 C-103.89560053 35.89681905 -102.8182046 34.32058842 -101.73828125 32.74609375 C-101.23911697 32.0117662 -100.7399527 31.27743866 -100.22566223 30.52085876 C-99.74554184 29.83907059 -99.26542145 29.15728241 -98.77075195 28.45483398 C-98.35549759 27.85815414 -97.94024323 27.2614743 -97.5124054 26.64671326 C-94.39029307 23.24734443 -91.515642 21.84645661 -86.9440155 21.63923645 C-85.32230529 21.63057963 -83.70045479 21.63842561 -82.07885742 21.65942383 C-81.19055237 21.65898575 -80.30224731 21.65854767 -79.38702393 21.65809631 C-76.45961297 21.66018135 -73.53277929 21.68349909 -70.60546875 21.70703125 C-68.57237562 21.71262821 -66.53927844 21.71689784 -64.50617981 21.71989441 C-59.16151714 21.73133525 -53.8171 21.76079604 -48.47253418 21.79400635 C-43.01622845 21.82472354 -37.55988295 21.83840328 -32.10351562 21.85351562 C-21.40221865 21.88566639 -10.70116818 21.93842826 0 22 C0 14.74 0 7.48 0 0 Z " fill="#000000" transform="translate(120,280)"/>
<path d="M0 0 C0.98858505 0.48940063 1.9771701 0.97880127 2.99571228 1.48303223 C6.2300578 3.0917043 9.4459455 4.73397 12.66235352 6.37817383 C14.91918126 7.51143926 17.17693349 8.64286532 19.43556213 9.77253723 C24.15239952 12.13788372 28.86128119 14.51830381 33.56347656 16.91259766 C38.98736744 19.67423 44.42273239 22.4120449 49.86546177 25.13634223 C55.12338574 27.76825818 60.37528552 30.41194707 65.62407112 33.06203651 C67.84890873 34.18491035 70.0748477 35.30560476 72.30190849 36.42406273 C75.41096033 37.98873135 78.51297708 39.56652141 81.61328125 41.1484375 C82.53022766 41.60734879 83.44717407 42.06626007 84.39190674 42.53907776 C90.35895794 45.60782264 94.57246708 48.72576604 98.35375977 54.39770508 C98.81407197 57.98620615 98.72408635 61.59531461 98.72875977 65.21020508 C98.75325195 66.19569336 98.77774414 67.18118164 98.80297852 68.1965332 C98.82668676 74.08012843 98.51522882 77.87406039 94.35375977 82.39770508 C90.0257549 85.75174654 86.01946833 85.82470753 80.74452209 85.78538513 C79.44589435 85.79346344 79.44589435 85.79346344 78.1210317 85.80170494 C75.22067984 85.81600993 72.32078274 85.80887451 69.42041016 85.80175781 C67.34076063 85.80746004 65.26111423 85.81442373 63.18147278 85.82255554 C57.53274079 85.84051817 51.88416387 85.83931272 46.23541188 85.83361316 C41.52104744 85.83052583 36.80671299 85.83660867 32.09235281 85.8426519 C20.97153673 85.85670569 9.85079745 85.85512869 -1.27001953 85.84375 C-12.74614882 85.8322673 -24.22204445 85.84634518 -35.69814295 85.87314647 C-45.54880354 85.89529113 -55.39939072 85.90194364 -65.25007445 85.89607006 C-71.13449005 85.89269642 -77.01875586 85.89514272 -82.90315056 85.91232109 C-88.43620552 85.9277684 -93.96891388 85.92385907 -99.50195503 85.90501595 C-101.53287311 85.90132397 -103.56381674 85.90445617 -105.5947113 85.91490173 C-108.36688185 85.92807157 -111.13789821 85.91659968 -113.91001892 85.89891052 C-114.71401231 85.90851553 -115.5180057 85.91812054 -116.34636253 85.9280166 C-121.56494066 85.85948493 -124.47789906 84.80092388 -128.64624023 81.39770508 C-132.7464273 76.8120836 -132.12586019 71.28424655 -132.08374023 65.46020508 C-132.1037207 64.48374023 -132.12370117 63.50727539 -132.14428711 62.5012207 C-132.14364258 61.55053711 -132.14299805 60.59985352 -132.14233398 59.62036133 C-132.14418701 58.76192627 -132.14604004 57.90349121 -132.14794922 57.01904297 C-131.32168721 52.70197477 -129.49132242 49.67749738 -125.83357239 47.14039612 C-123.42789881 45.78634532 -120.98322408 44.56052392 -118.50170898 43.35083008 C-116.41364936 42.29810808 -114.32559655 41.24537257 -112.23754883 40.19262695 C-111.03728654 39.59433077 -109.83690253 38.99627874 -108.63641357 38.3984375 C-104.16259105 36.16350756 -99.71644844 33.87550642 -95.26977539 31.5871582 C-87.29705039 27.48706448 -79.30811939 23.42011388 -71.30677986 19.37615204 C-66.63838078 17.01585817 -61.97514905 14.64637115 -57.32226562 12.25561523 C-52.74815689 9.90568996 -48.16257596 7.57975222 -43.5681057 5.26990509 C-41.8404738 4.3963453 -40.11698555 3.5145348 -38.39806557 2.62395477 C-35.99986222 1.38332865 -33.58802171 0.17420013 -31.17089844 -1.02905273 C-30.48341522 -1.39358047 -29.79593201 -1.75810822 -29.08761597 -2.13368225 C-18.92971 -7.07728209 -9.62568038 -5.00096634 0 0 Z " fill="#000000" transform="translate(151.646240234375,4.602294921875)"/>
<path d="M0 0 C69.3 0 138.6 0 210 0 C210 40.50959488 210 40.50959488 200 51 C192.66988524 57.15487322 186.00892865 60.24308685 176.29641724 60.26069641 C174.98719299 60.26778122 173.67796875 60.27486603 172.32907104 60.28216553 C170.89532436 60.27987214 169.461578 60.2773625 168.02783203 60.2746582 C166.50447338 60.27900966 164.98111691 60.28419426 163.45776367 60.29014587 C159.33371367 60.30350096 155.20975551 60.30411841 151.08568811 60.30158257 C147.63654214 60.30051042 144.18741457 60.30540252 140.73827255 60.310188 C132.5974736 60.32127127 124.4567208 60.32172733 116.31591797 60.31567383 C107.93222397 60.30963532 99.54869786 60.32194461 91.16503251 60.3432439 C83.9537592 60.36088748 76.7425392 60.36685688 69.53124511 60.36360615 C65.23017616 60.36179743 60.92922695 60.36438825 56.62817764 60.37832069 C52.5815438 60.39093926 48.53517071 60.38891709 44.48854065 60.37590981 C43.00876144 60.37355316 41.52896366 60.37624583 40.04920578 60.38453293 C27.40735834 60.45019149 18.25714498 59.03794119 9 50 C-4.09274611 34.23882754 0 23.76904639 0 0 Z " fill="#000000" transform="translate(302,452)"/>
<path d="M0 0 C1.53709373 -0.01485695 1.53709373 -0.01485695 3.10523987 -0.03001404 C4.21862732 -0.02551239 5.33201477 -0.02101074 6.47914124 -0.01637268 C7.66016922 -0.02323593 8.8411972 -0.03009918 10.05801392 -0.03717041 C13.28953652 -0.05231862 16.52069688 -0.05393703 19.75223994 -0.04822803 C22.45349689 -0.04513335 25.15470183 -0.05123173 27.85595137 -0.05726677 C34.23039216 -0.07130444 40.60469891 -0.06975721 46.97914124 -0.05836487 C53.54749475 -0.04688512 60.1154399 -0.06095822 66.6837396 -0.08776134 C72.33062577 -0.10993866 77.97738394 -0.11655116 83.62431055 -0.11068493 C86.99365779 -0.10731885 90.36274329 -0.10970672 93.73205376 -0.12693596 C97.49050696 -0.14180471 101.24806004 -0.13119756 105.00648499 -0.11402893 C106.11784821 -0.1236969 107.22921143 -0.13336487 108.37425232 -0.14332581 C114.31607926 -0.08645967 118.25405305 0.14794133 122.80751038 4.38768005 C125.71722242 8.10752698 126.18803665 10.88266874 126.21156311 15.55149841 C126.23058937 17.38381264 126.23058937 17.38381264 126.25 19.25314331 C126.24706436 20.56468887 126.24412872 21.87623444 126.24110413 23.2275238 C126.24566911 24.59606179 126.25097563 25.96459749 126.25698853 27.33312988 C126.26590752 30.19702993 126.26351079 33.06065095 126.2535553 35.92454529 C126.24206949 39.58424897 126.26227571 43.24298717 126.29147243 46.90256405 C126.30987024 49.7277126 126.30953493 52.55263132 126.30383492 55.37782478 C126.30360813 57.37967166 126.32047389 59.38149703 126.33764648 61.38327026 C126.25109382 72.68282989 126.25109382 72.68282989 121.80751038 77.38768005 C116.5849118 81.44398404 111.15410895 81.16165549 104.80751038 80.38768005 C100.22508146 78.21705583 97.92409221 75.95336838 95.80751038 71.38768005 C95.40512521 68.23027403 95.45803906 65.10910673 95.51454163 61.9306488 C95.51878647 61.0276857 95.52303131 60.1247226 95.52740479 59.19439697 C95.54414727 56.32101656 95.58179122 53.44834715 95.62001038 50.57518005 C95.63506294 48.62271625 95.64875035 46.67024141 95.661026 44.71775818 C95.6940363 39.94079308 95.74578803 35.16435697 95.80751038 30.38768005 C93.92949234 30.40100372 93.92949234 30.40100372 92.01353455 30.41459656 C80.21310572 30.49569188 68.41273345 30.55565019 56.61208916 30.59492874 C50.54527546 30.61580114 44.47868677 30.64411306 38.41200256 30.68943787 C32.55703139 30.73290707 26.70227662 30.75681977 20.84715652 30.76718903 C18.61362934 30.77457839 16.38011396 30.78900804 14.14667892 30.81060028 C11.01757486 30.83964781 7.88936435 30.84363539 4.76014709 30.84178162 C3.83729416 30.85616272 2.91444122 30.87054382 1.96362305 30.88536072 C-3.59154085 30.8497626 -6.7995386 30.12323419 -11.19248962 26.38768005 C-15.24879361 21.16508148 -14.96646506 15.73427863 -14.19248962 9.38768005 C-11.22310062 3.11896993 -6.96501362 0.01907457 0 0 Z " fill="#000000" transform="translate(296.19248962402344,69.61231994628906)"/>
<path d="M0 0 C9.9 0 19.8 0 30 0 C30 19.8 30 39.6 30 60 C20.1 60 10.2 60 0 60 C0 40.2 0 20.4 0 0 Z " fill="#000000" transform="translate(120,452)"/>
<path d="M0 0 C9.10144928 4.55072464 9.10144928 4.55072464 12 10 C14.11905903 16.35717708 13.70815946 22.24663295 10.875 28.3125 C8.4990277 32.61091143 6.07812498 35.28125001 2 38 C1.34 38 0.68 38 0 38 C0 25.46 0 12.92 0 0 Z " fill="#000000" transform="translate(416,310)"/>
<path d="M0 0 C0 8.58 0 17.16 0 26 C-6.13333333 23.54666667 -6.13333333 23.54666667 -8 20 C-9.43018075 13.87065392 -9.02492127 9.55798542 -6 4 C-2.7 0 -2.7 0 0 0 Z " fill="#000000" transform="translate(397,255)"/>
</svg>
