<?xml version="1.0" encoding="UTF-8"?>
<svg version="1.1" xmlns="http://www.w3.org/2000/svg" width="512" height="512">
<path d="M0 0 C0.66157104 -0.00287018 1.32314209 -0.00574036 2.00476074 -0.00869751 C3.39299382 -0.01072422 4.78125637 -0.00529263 6.16943359 0.00732422 C8.27637488 0.0234003 10.38139856 0.00743027 12.48828125 -0.01171875 C13.84635834 -0.00973607 15.20443425 -0.00589187 16.5625 0 C17.78001953 0.00338379 18.99753906 0.00676758 20.25195312 0.01025391 C24.44390282 0.47132198 27.04734486 1.45144012 30.78125 3.3984375 C35.00035659 8.79481093 35.31163414 13.14446227 35.03125 19.8359375 C35.01320313 20.66287109 34.99515625 21.48980469 34.9765625 22.34179688 C34.9298714 24.36118683 34.85814393 26.37997195 34.78125 28.3984375 C38.08844348 29.2673959 38.08844348 29.2673959 41.78125 29.3984375 C44.05753123 27.72318092 44.05753123 27.72318092 45.71875 25.2109375 C49.70922129 20.28243635 53.31995483 16.96481286 59.78125 16.14453125 C63.9763911 16.28382304 66.431402 17.67451324 69.5078125 20.4609375 C70.55050293 21.4051355 70.55050293 21.4051355 71.61425781 22.3684082 C75.18796032 25.7162379 78.69210057 29.12503774 82.15625 32.5859375 C82.86652344 33.28396484 83.57679688 33.98199219 84.30859375 34.70117188 C85.32759766 35.71727539 85.32759766 35.71727539 86.3671875 36.75390625 C86.9761084 37.35871826 87.5850293 37.96353027 88.21240234 38.58666992 C91.76725553 42.69195556 92.39079138 46.48667927 92.296875 51.80078125 C91.1372821 57.6426697 86.11687568 61.25759056 81.78125 64.9609375 C81.12125 65.7653125 80.46125 66.5696875 79.78125 67.3984375 C80.10191677 71.01386585 80.10191677 71.01386585 80.78125 74.3984375 C81.93882812 74.36363281 83.09640625 74.32882813 84.2890625 74.29296875 C85.8281104 74.26481543 87.36717411 74.23751694 88.90625 74.2109375 C89.66679687 74.18580078 90.42734375 74.16066406 91.2109375 74.13476562 C96.97663265 74.06020922 101.03078716 75.1221924 105.59375 78.8984375 C108.47796446 82.54165577 107.97632301 86.95008411 108.01953125 91.35546875 C108.027603 92.13605148 108.03567474 92.91663422 108.04399109 93.72087097 C108.0578132 95.37256664 108.06854373 97.02429065 108.07641602 98.67602539 C108.08793586 100.36068114 108.10838795 102.04530039 108.13793945 103.72973633 C108.18071131 106.16773203 108.19679771 108.60464396 108.20703125 111.04296875 C108.22453934 111.79004593 108.24204742 112.53712311 108.26008606 113.30683899 C108.2387332 118.49337811 107.10270273 121.43640823 103.78125 125.3984375 C98.55630333 128.41940666 94.19093745 128.79457456 88.34375 128.5859375 C87.61220703 128.57240234 86.88066406 128.55886719 86.12695312 128.54492188 C84.34472578 128.50997624 82.56288427 128.45618555 80.78125 128.3984375 C79.80231105 131.61733663 79.80231105 131.61733663 79.78125 135.3984375 C81.55002018 137.74768037 82.98392627 139.33267222 85.15625 141.2109375 C91.64366121 147.14434948 91.64366121 147.14434948 92.01953125 150.5703125 C92.04402344 151.42109375 92.06851562 152.271875 92.09375 153.1484375 C92.13113281 153.98890625 92.16851562 154.829375 92.20703125 155.6953125 C90.98531805 163.45151007 83.32653389 169.32748216 78.09375 174.6484375 C77.23330078 175.55851563 76.37285156 176.46859375 75.48632812 177.40625 C70.09554639 182.88234177 66.5006783 185.61632724 58.78125 186.3984375 C58.61689453 188.26048828 58.61689453 188.26048828 58.44921875 190.16015625 C58.28971113 191.80214647 58.1295188 193.44407028 57.96875 195.0859375 C57.86336914 196.31086914 57.86336914 196.31086914 57.75585938 197.56054688 C57.28762239 202.18672825 56.73694841 205.62377983 53.78125 209.3984375 C50.89263291 210.84274605 48.98477299 210.77532256 45.78125 210.3984375 C43.09887695 208.35668945 43.09887695 208.35668945 40.78125 205.3984375 C40.40979832 202.59053728 40.32202616 200.46050932 40.51171875 197.69140625 C40.54098953 196.96601151 40.57026031 196.24061676 40.60041809 195.49324036 C40.69895831 193.1889332 40.83328628 190.8883395 40.96875 188.5859375 C41.04208686 187.01898948 41.11307617 185.45192972 41.18164062 183.88476562 C41.35435159 180.05416209 41.55916444 176.22648292 41.78125 172.3984375 C38.31625 173.3884375 38.31625 173.3884375 34.78125 174.3984375 C34.82765625 175.61660156 34.8740625 176.83476562 34.921875 178.08984375 C34.95941658 179.71351698 34.99581417 181.33721695 35.03125 182.9609375 C35.06476563 183.76080078 35.09828125 184.56066406 35.1328125 185.38476562 C35.2285788 191.25045156 34.49895464 194.76299759 30.78125 199.3984375 C24.18801503 203.21270567 17.21829593 202.86032011 9.74487305 202.78955078 C7.71920728 202.77344114 5.69552775 202.7894727 3.66992188 202.80859375 C-9.08953568 202.77048686 -9.08953568 202.77048686 -14.21875 199.3984375 C-18.21264291 195.1597576 -18.65602974 191.68880799 -18.5703125 186.1171875 C-18.52003906 184.83328125 -18.52003906 184.83328125 -18.46875 183.5234375 C-18.45070313 182.64429688 -18.43265625 181.76515625 -18.4140625 180.859375 C-18.36723379 178.7052543 -18.29549994 176.55169976 -18.21875 174.3984375 C-21.45695777 173.42751338 -21.45695777 173.42751338 -25.21875 173.3984375 C-27.39251319 175.15275624 -28.85864111 176.60012627 -30.59375 178.7109375 C-34.35729039 182.85239033 -37.34104779 185.60216977 -42.953125 186.640625 C-49.13992024 185.97927792 -53.37324908 182.74910574 -57.64453125 178.46875 C-58.11819626 177.99654022 -58.59186127 177.52433044 -59.07987976 177.03781128 C-60.07022935 176.04581419 -61.05569445 175.04891826 -62.03637695 174.04736328 C-63.5327336 172.52192507 -65.04701971 171.0161617 -66.56445312 169.51171875 C-74.84895357 161.17370674 -74.84895357 161.17370674 -76.21875 156.3984375 C-76.02937841 150.4332324 -75.05778515 147.12340384 -71.21875 142.3984375 C-69.08141081 140.40573029 -66.94427129 138.43120271 -64.73046875 136.5234375 C-62.86775674 134.38870355 -62.86775674 134.38870355 -63.48828125 131.1484375 C-63.84986328 129.7871875 -63.84986328 129.7871875 -64.21875 128.3984375 C-65.29253906 128.43324219 -66.36632812 128.46804687 -67.47265625 128.50390625 C-68.90883839 128.53206668 -70.34503762 128.55936441 -71.78125 128.5859375 C-72.48572266 128.61107422 -73.19019531 128.63621094 -73.91601562 128.66210938 C-79.10965935 128.7339109 -82.60644906 127.8229261 -87.21875 125.3984375 C-93.42603311 119.02780483 -92.43492158 112.12690223 -92.45898438 103.66381836 C-92.4686701 101.60293908 -92.49971078 99.54306663 -92.53125 97.48242188 C-92.58055004 84.929399 -92.58055004 84.929399 -89.21875 79.3984375 C-85.43048197 75.79958287 -82.41647121 74.26161253 -77.20703125 74.30078125 C-76.07104492 74.30561523 -76.07104492 74.30561523 -74.91210938 74.31054688 C-73.73358398 74.32311523 -73.73358398 74.32311523 -72.53125 74.3359375 C-71.73396484 74.34044922 -70.93667969 74.34496094 -70.11523438 74.34960938 C-68.14970743 74.361379 -66.18421915 74.37931402 -64.21875 74.3984375 C-63.34410204 71.615614 -63.34410204 71.615614 -63.21875 68.3984375 C-64.91372474 66.00573368 -64.91372474 66.00573368 -67.40625 64.0234375 C-72.04159342 59.70627678 -75.64965307 55.87241493 -76.47265625 49.40234375 C-76.2668959 43.19322253 -72.45589959 39.56708813 -68.21875 35.3984375 C-67.22875 34.4084375 -67.22875 34.4084375 -66.21875 33.3984375 C-102.04655341 20.51873445 -142.51345584 24.64533682 -176.77075195 40.22973633 C-198.36904188 50.44712129 -217.72966657 65.34243847 -232.21875 84.3984375 C-233.23388672 85.70748047 -233.23388672 85.70748047 -234.26953125 87.04296875 C-258.82116329 119.60367688 -269.68122913 161.06785784 -264.34741211 201.52905273 C-259.22797536 235.25264088 -244.86989043 264.89284835 -221.21875 289.3984375 C-220.42984375 290.25050781 -219.6409375 291.10257812 -218.828125 291.98046875 C-204.7966566 306.7320953 -187.06299854 316.24454555 -168.9140625 324.98828125 C-166.21875 326.3984375 -166.21875 326.3984375 -164.21875 328.3984375 C-164.04357253 331.12329478 -163.98725867 333.74503112 -164.0234375 336.46875 C-164.0262674 337.26497772 -164.02909729 338.06120544 -164.03201294 338.88156128 C-164.0432236 341.42900513 -164.06832938 343.97609961 -164.09375 346.5234375 C-164.10377867 348.24869285 -164.11290472 349.97395369 -164.12109375 351.69921875 C-164.14316578 355.93242664 -164.17770133 360.1653728 -164.21875 364.3984375 C-160.91875 364.3984375 -157.61875 364.3984375 -154.21875 364.3984375 C-154.21875 346.9084375 -154.21875 329.4184375 -154.21875 311.3984375 C-156.85875 311.0684375 -159.49875 310.7384375 -162.21875 310.3984375 C-165.49324596 307.76460379 -167.64994358 305.27819322 -169.21875 301.3984375 C-169.67204653 297.13935477 -169.58905364 292.86667247 -169.59375 288.5859375 C-169.61824219 287.42255859 -169.64273438 286.25917969 -169.66796875 285.06054688 C-169.6908549 278.35871875 -169.62758839 273.6276908 -165.21875 268.3984375 C-159.36620959 264.70289007 -153.4912581 264.94539323 -146.71875 265.0234375 C-145.71199219 265.01183594 -144.70523438 265.00023437 -143.66796875 264.98828125 C-136.38936054 265.01689963 -131.26093207 265.48445111 -125.80859375 270.70703125 C-122.78720913 275.93194571 -123.68924014 282.64650804 -123.78125 288.4609375 C-123.77416016 289.72744141 -123.76707031 290.99394531 -123.75976562 292.29882812 C-123.84025931 304.01994681 -123.84025931 304.01994681 -128.96875 309.1484375 C-131.21875 310.3984375 -131.21875 310.3984375 -138.21875 311.3984375 C-138.21875 328.8884375 -138.21875 346.3784375 -138.21875 364.3984375 C-131.28875 364.3984375 -124.35875 364.3984375 -117.21875 364.3984375 C-117.24231567 361.53744385 -117.24231567 361.53744385 -117.26635742 358.61865234 C-117.31480736 352.30433822 -117.34923808 345.99006821 -117.37418652 339.67561913 C-117.38981708 335.8485815 -117.41100718 332.02174571 -117.44506836 328.19482422 C-117.47775562 324.4989792 -117.49562263 320.80332785 -117.50338173 317.1073494 C-117.50890851 315.69998757 -117.51970101 314.29263589 -117.53594017 312.8853569 C-117.55783635 310.90854044 -117.55897644 308.93152754 -117.55932617 306.95458984 C-117.56931892 305.26914566 -117.56931892 305.26914566 -117.57951355 303.5496521 C-117.16397368 299.91997468 -116.10139747 297.51256831 -114.21875 294.3984375 C-111.36550563 292.97181531 -109.38420451 293.08809882 -106.21875 293.3984375 C-103.55500793 295.00518799 -103.55500793 295.00518799 -101.21875 297.3984375 C-100.61747742 300.42303467 -100.61747742 300.42303467 -100.65112305 304.00292969 C-100.65002785 304.98403969 -100.65002785 304.98403969 -100.64891052 305.98497009 C-100.65238426 308.13927184 -100.69122755 310.29139032 -100.73046875 312.4453125 C-100.73979783 313.9417401 -100.7469135 315.438183 -100.75190735 316.93463135 C-100.77097026 320.86743562 -100.82006327 324.79931205 -100.87542725 328.73175049 C-100.92663599 332.74682056 -100.94942475 336.76204102 -100.97460938 340.77734375 C-101.02818451 348.65151428 -101.11611293 356.52475347 -101.21875 364.3984375 C-96.26875 364.3984375 -91.31875 364.3984375 -86.21875 364.3984375 C-86.1458126 356.86075807 -86.11158119 349.32474407 -86.14359188 341.78681278 C-86.15695279 338.28556326 -86.15402041 334.78597556 -86.11254883 331.28491211 C-86.06549527 327.25011595 -86.09165515 323.21856249 -86.12109375 319.18359375 C-86.08422707 317.31744164 -86.08422707 317.31744164 -86.0466156 315.41358948 C-86.15241686 308.9556362 -86.67299385 305.18692022 -91.34985352 300.53686523 C-92.96604786 299.1494624 -94.58876224 297.76960879 -96.21875 296.3984375 C-97.40492021 295.10171014 -98.56447539 293.77996482 -99.69165039 292.43164062 C-103.78051556 287.67751805 -108.20665024 283.2855266 -112.65234375 278.8671875 C-113.53028091 277.99066528 -114.40821808 277.11414307 -115.3127594 276.21105957 C-118.09156496 273.43780954 -120.87384397 270.66807468 -123.65625 267.8984375 C-125.55194865 266.00832945 -127.44684783 264.11742232 -129.34179688 262.2265625 C-133.96480189 257.61452746 -138.59065657 253.00536609 -143.21875 248.3984375 C-144.16419678 248.88521973 -145.10964355 249.37200195 -146.08374023 249.87353516 C-150.34448804 251.94600855 -152.52652543 251.84531603 -157.21875 251.3984375 C-162.56861597 248.95305218 -166.40534798 244.46876816 -170.46875 240.3359375 C-171.2009375 239.60310547 -171.933125 238.87027344 -172.6875 238.11523438 C-179.37923481 231.36773511 -179.37923481 231.36773511 -179.71875 225.2734375 C-179.63357651 219.80104082 -178.41000221 217.3703659 -174.5625 213.5859375 C-173.7890625 212.8640625 -173.015625 212.1421875 -172.21875 211.3984375 C-171.20350505 210.36147608 -170.19344651 209.31942168 -169.1875 208.2734375 C-159.55616564 198.34203877 -159.55616564 198.34203877 -153.03125 197.9609375 C-145.08115966 198.13987844 -140.66355751 203.82017323 -135.48168945 209.22583008 C-134.94116943 209.79841553 -134.40064941 210.37100098 -133.84375 210.9609375 C-133.05713989 211.79177856 -133.05713989 211.79177856 -132.25463867 212.6394043 C-128.24976743 217.02183476 -126.14854674 220.18703486 -126.34375 226.3359375 C-126.76284524 230.41792513 -128.94317228 233.06794304 -131.21875 236.3984375 C-130.2018383 237.40535645 -130.2018383 237.40535645 -129.16438293 238.43261719 C-122.75647955 244.77953677 -116.35664089 251.13449123 -109.96448231 257.49726868 C-106.67845831 260.76767945 -103.3897207 264.0352583 -100.09448242 267.29638672 C-96.91070926 270.44741138 -93.73445763 273.60584423 -90.56314659 276.76940918 C-89.35581586 277.97122414 -88.14586064 279.17040884 -86.93317604 280.36682129 C-70.51207643 296.57641125 -70.51207643 296.57641125 -70.09849548 306.19525146 C-70.10071609 307.27002747 -70.10293671 308.34480347 -70.10522461 309.45214844 C-70.10530014 310.67311218 -70.10537567 311.89407593 -70.10545349 313.15203857 C-70.11319542 315.12252167 -70.11319542 315.12252167 -70.12109375 317.1328125 C-70.12295979 318.4947301 -70.12438282 319.85664838 -70.12538147 321.21856689 C-70.12919197 324.79585639 -70.13900968 328.37310502 -70.15008545 331.95037842 C-70.16033116 335.60363207 -70.16488585 339.25689236 -70.16992188 342.91015625 C-70.18063331 350.07293526 -70.19769206 357.23568064 -70.21875 364.3984375 C-66.91875 364.3984375 -63.61875 364.3984375 -60.21875 364.3984375 C-60.21875 337.0084375 -60.21875 309.6184375 -60.21875 281.3984375 C-63.18875 280.7384375 -66.15875 280.0784375 -69.21875 279.3984375 C-72.41860305 276.7985569 -73.91758332 275.30193755 -75.21875 271.3984375 C-75.50680296 266.96560048 -75.49649933 262.52707339 -75.53125 258.0859375 C-75.56025391 256.86197266 -75.58925781 255.63800781 -75.61914062 254.37695312 C-75.6998767 242.95590367 -75.6998767 242.95590367 -71.21875 238.3984375 C-65.40609867 234.22947619 -59.69030762 234.92074732 -52.78125 234.9609375 C-50.95883789 234.9309668 -50.95883789 234.9309668 -49.09960938 234.90039062 C-37.81811286 234.90657227 -37.81811286 234.90657227 -33.21875 239.3984375 C-29.06045283 245.19886076 -29.74099552 250.87894234 -29.78125 257.7734375 C-29.76126953 258.98 -29.74128906 260.1865625 -29.72070312 261.4296875 C-29.72444114 268.23287555 -29.87527983 273.00523199 -34.21875 278.3984375 C-36.2890625 279.73828125 -36.2890625 279.73828125 -38.34375 280.3359375 C-39.02695312 280.55121094 -39.71015625 280.76648438 -40.4140625 280.98828125 C-42.21875 281.3984375 -42.21875 281.3984375 -44.21875 281.3984375 C-44.21875 293.9384375 -44.21875 306.4784375 -44.21875 319.3984375 C-14.00451204 303.12923245 7.17065489 282.28267781 23.78125 252.3984375 C28.1950431 244.7892421 28.1950431 244.7892421 31.78125 242.3984375 C35.02483463 242.05337531 37.11669441 242.09310115 40.09375 243.4609375 C42.60852686 246.3482739 42.59643117 248.60580108 42.78125 252.3984375 C41.80537898 255.14142631 40.84073058 257.37564175 39.46875 259.8984375 C39.10773193 260.58768311 38.74671387 261.27692871 38.37475586 261.98706055 C32.10798935 273.6771185 24.49329556 284.40649209 15.78125 294.3984375 C15.35730957 294.88940918 14.93336914 295.38038086 14.49658203 295.88623047 C8.1539865 303.1928449 1.48262956 309.4958417 -6.21875 315.3984375 C-7.13011719 316.12546875 -8.04148437 316.8525 -8.98046875 317.6015625 C-14.72541413 322.08465766 -20.65642375 326.03601125 -26.90625 329.7734375 C-27.59477051 330.19036865 -28.28329102 330.6072998 -28.99267578 331.03686523 C-34.09099077 334.01462602 -38.40752296 335.46136182 -44.21875 337.3984375 C-44.21875 346.6384375 -44.21875 355.8784375 -44.21875 365.3984375 C-42.56875 366.0584375 -40.91875 366.7184375 -39.21875 367.3984375 C-35.58657329 370.69124417 -33.35162079 374.15231716 -33.05761719 379.12231445 C-33.01221305 382.65195782 -32.98348098 386.18102649 -32.96875 389.7109375 C-32.948125 390.93490234 -32.9275 392.15886719 -32.90625 393.41992188 C-32.89851563 395.19786133 -32.89851563 395.19786133 -32.890625 397.01171875 C-32.8812793 398.09235596 -32.87193359 399.17299316 -32.86230469 400.28637695 C-33.45020878 405.4192629 -35.37398931 408.57244927 -39.03125 412.1484375 C-44.28249823 415.85520096 -48.72845714 416.65334144 -55.09375 416.5234375 C-56.24617187 416.50539063 -57.39859375 416.48734375 -58.5859375 416.46875 C-59.88917969 416.43394531 -59.88917969 416.43394531 -61.21875 416.3984375 C-61.19518433 417.66119507 -61.19518433 417.66119507 -61.17114258 418.94946289 C-61.11972749 422.10096932 -61.0822612 425.25226049 -61.05395508 428.40405273 C-61.03895591 429.76284867 -61.01854962 431.12159691 -60.99243164 432.48022461 C-60.69428966 448.39866825 -60.69428966 448.39866825 -65.75390625 454.140625 C-70.77223538 457.8626594 -73.55702488 458.55287767 -79.69433594 458.57543945 C-80.46527588 458.58201065 -81.23621582 458.58858185 -82.03051758 458.59535217 C-84.58805433 458.61510125 -87.14553229 458.6267522 -89.703125 458.63671875 C-90.57640694 458.64079428 -91.44968887 458.6448698 -92.3494339 458.64906883 C-96.97286239 458.66993788 -101.59626114 458.68423515 -106.21972656 458.69360352 C-110.992519 458.70466104 -115.76484433 458.73905079 -120.53747177 458.77877522 C-124.20925759 458.80493997 -127.88093219 458.81329529 -131.55280304 458.81688499 C-133.31184285 458.82175247 -135.07087764 458.83337108 -136.82982635 458.85192299 C-139.29545394 458.87630875 -141.75987431 458.87535068 -144.22558594 458.8684082 C-145.31060394 458.88762329 -145.31060394 458.88762329 -146.4175415 458.90722656 C-151.48125812 458.85540336 -154.32145974 457.57839162 -158.21875 454.3984375 C-162.58684158 448.7317241 -163.34837011 444.91486276 -163.31640625 437.8828125 C-163.31157227 436.00722656 -163.31157227 436.00722656 -163.30664062 434.09375 C-163.29407227 432.14082031 -163.29407227 432.14082031 -163.28125 430.1484375 C-163.27673828 428.83101563 -163.27222656 427.51359375 -163.26757812 426.15625 C-163.25579316 422.90360009 -163.23934011 419.65104166 -163.21875 416.3984375 C-164.5480957 416.41801514 -164.5480957 416.41801514 -165.90429688 416.43798828 C-167.07025391 416.44813965 -168.23621094 416.45829102 -169.4375 416.46875 C-170.59185547 416.48180176 -171.74621094 416.49485352 -172.93554688 416.50830078 C-177.9157687 416.34165148 -181.93339989 415.49041183 -185.7421875 412.00390625 C-191.74769769 405.14790473 -191.58408335 399.42575405 -191.59375 390.6484375 C-191.61824219 389.4934375 -191.64273438 388.3384375 -191.66796875 387.1484375 C-191.6922135 380.06897154 -191.07263111 375.39023805 -187.21875 369.3984375 C-183.01875 365.3984375 -183.01875 365.3984375 -180.21875 365.3984375 C-180.21875 356.1584375 -180.21875 346.9184375 -180.21875 337.3984375 C-182.52875 336.7384375 -184.83875 336.0784375 -187.21875 335.3984375 C-189.56713867 334.30444336 -189.56713867 334.30444336 -191.63671875 333.11328125 C-192.41007568 332.66984375 -193.18343262 332.22640625 -193.98022461 331.76953125 C-194.78081299 331.29644531 -195.58140137 330.82335937 -196.40625 330.3359375 C-197.66417358 329.59730469 -197.66417358 329.59730469 -198.94750977 328.84375 C-209.88613837 322.32541795 -219.52354227 314.62516937 -228.71875 305.83105469 C-229.71356208 304.88093143 -230.7135383 303.9361841 -231.71875 302.99707031 C-244.91048806 290.65558099 -254.99609932 276.44319756 -263.21875 260.3984375 C-263.56921387 259.72200195 -263.91967773 259.04556641 -264.28076172 258.34863281 C-284.98833913 217.92637243 -288.0916479 169.54550129 -274.21875 126.3984375 C-267.10011351 105.38829038 -255.93406683 85.01018178 -241.21875 68.3984375 C-240.77837402 67.89248047 -240.33799805 67.38652344 -239.88427734 66.86523438 C-211.14782188 33.96074345 -170.02066045 12.63528396 -126.21875 9.3984375 C-102.43478664 8.40735821 -80.95171894 10.67979441 -58.26733398 17.78173828 C-57.59130127 17.98524902 -56.91526855 18.18875977 -56.21875 18.3984375 C-55.52789307 18.62128418 -54.83703613 18.84413086 -54.12524414 19.07373047 C-51.98704688 19.64044013 -51.98704688 19.64044013 -49.46875 17.8984375 C-46.12689061 16.35604086 -43.93979887 15.99878282 -40.30078125 16.625 C-35.03007075 18.58297501 -31.22167255 23.22428427 -27.65625 27.3984375 C-26.4496875 28.3884375 -26.4496875 28.3884375 -25.21875 29.3984375 C-21.60332165 29.07777073 -21.60332165 29.07777073 -18.21875 28.3984375 C-18.26515625 27.09648438 -18.3115625 25.79453125 -18.359375 24.453125 C-18.39690847 22.72658554 -18.43330693 21.00002114 -18.46875 19.2734375 C-18.50226563 18.4175 -18.53578125 17.5615625 -18.5703125 16.6796875 C-18.65602974 11.10806701 -18.21264291 7.6371174 -14.21875 3.3984375 C-9.27445433 0.87121893 -5.62879144 0.01564381 0 0 Z M-2.21875 16.3984375 C-2.30125 18.7084375 -2.38375 21.0184375 -2.46875 23.3984375 C-3.21373331 35.29644704 -3.21373331 35.29644704 -7.21875 39.3984375 C-14.03417697 44.17232961 -20.89363119 46.85084132 -29.21875 45.3984375 C-35.19633539 43.48561018 -39.02740634 38.87700522 -43.21875 34.3984375 C-48.50887124 38.80687187 -53.40683428 43.47403544 -58.21875 48.3984375 C-55.49217872 52.06113159 -52.76842831 55.71505366 -49.90625 59.2734375 C-47.17882019 62.70797874 -46.82107627 65.27491057 -46.87109375 69.68359375 C-47.67634544 75.97179518 -50.01529663 82.41769152 -54.76953125 86.69140625 C-59.05994249 89.68169287 -62.74750973 89.70825089 -67.84375 89.9609375 C-71.989375 90.1775 -71.989375 90.1775 -76.21875 90.3984375 C-76.21875 97.6584375 -76.21875 104.9184375 -76.21875 112.3984375 C-70.89480797 112.56831241 -70.89480797 112.56831241 -65.56982422 112.69628906 C-60.4061648 112.93038481 -57.2448578 113.90519691 -53.21875 117.3984375 C-48.96273863 123.37086498 -46.23865145 129.82573099 -46.76953125 137.22265625 C-48.10249467 143.67883561 -53.62242277 148.03450883 -58.21875 152.3984375 C-56.56011495 156.72348586 -53.347709 159.49262575 -50.09375 162.6484375 C-49.24876953 163.47988281 -49.24876953 163.47988281 -48.38671875 164.328125 C-47.00188972 165.68948235 -45.61091796 167.04458609 -44.21875 168.3984375 C-43.54779297 167.81835938 -43.54779297 167.81835938 -42.86328125 167.2265625 C-30.86993789 156.89540958 -30.86993789 156.89540958 -22.37890625 156.99609375 C-16.08144916 157.79787135 -10.07707263 160.46380043 -5.609375 165.05078125 C-1.88062748 171.22483058 -2.46703626 179.44642217 -2.21875 186.3984375 C4.71125 186.3984375 11.64125 186.3984375 18.78125 186.3984375 C18.95112491 181.07449547 18.95112491 181.07449547 19.07910156 175.74951172 C19.31319731 170.5858523 20.28800941 167.4245453 23.78125 163.3984375 C29.72806931 159.16067476 36.17173772 156.41961873 43.5390625 156.94921875 C50.59590977 158.36304704 55.04982885 163.27872343 59.78125 168.3984375 C65.07137124 163.99000313 69.96933428 159.32283956 74.78125 154.3984375 C74.21857422 153.76228516 74.21857422 153.76228516 73.64453125 153.11328125 C72.5674477 151.8788404 71.5031807 150.63314601 70.44921875 149.37890625 C69.41507817 148.15101568 68.35876169 146.94101475 67.26953125 145.76171875 C63.64242733 141.46947256 63.08381088 137.81095798 63.359375 132.24609375 C64.42752219 125.03610022 66.97723334 119.01188664 72.78125 114.3984375 C76.49550243 113.16035336 80.09415753 113.04262879 83.96875 112.8359375 C87.8359375 112.619375 87.8359375 112.619375 91.78125 112.3984375 C91.78125 105.1384375 91.78125 97.8784375 91.78125 90.3984375 C86.74139755 90.18914781 86.74139755 90.18914781 81.70043945 90.01049805 C76.06980273 89.71789573 72.66565862 88.33826991 68.65625 84.2109375 C64.09594171 77.37047506 62.67061021 70.60202685 63.78125 62.3984375 C66.29536557 57.16907712 70.60723705 53.36140485 74.78125 49.3984375 C70.37281563 44.10831626 65.70565206 39.21035322 60.78125 34.3984375 C60.33394531 34.78515625 59.88664063 35.171875 59.42578125 35.5703125 C47.45633189 45.88088296 47.45633189 45.88088296 38.6875 45.81640625 C32.64273086 44.94706445 26.08221481 41.99646341 21.99609375 37.3828125 C19.44832449 33.22118297 19.47111659 28.94174964 19.21875 24.2109375 C19.0021875 20.34375 19.0021875 20.34375 18.78125 16.3984375 C11.85125 16.3984375 4.92125 16.3984375 -2.21875 16.3984375 Z M-154.21875 216.3984375 C-156.85875 219.0384375 -159.49875 221.6784375 -162.21875 224.3984375 C-161.31125 225.5121875 -160.40375 226.6259375 -159.46875 227.7734375 C-158.70304687 228.71316406 -158.70304687 228.71316406 -157.921875 229.671875 C-156.05684687 231.74830845 -156.05684687 231.74830845 -152.21875 233.3984375 C-149.57875 230.7584375 -146.93875 228.1184375 -144.21875 225.3984375 C-145.58 223.7278125 -145.58 223.7278125 -146.96875 222.0234375 C-147.47921875 221.39695312 -147.9896875 220.77046875 -148.515625 220.125 C-150.38065313 218.04856655 -150.38065313 218.04856655 -154.21875 216.3984375 Z M-59.21875 251.3984375 C-59.21875 256.0184375 -59.21875 260.6384375 -59.21875 265.3984375 C-54.92875 265.3984375 -50.63875 265.3984375 -46.21875 265.3984375 C-46.21875 260.7784375 -46.21875 256.1584375 -46.21875 251.3984375 C-50.50875 251.3984375 -54.79875 251.3984375 -59.21875 251.3984375 Z M-153.21875 281.3984375 C-153.21875 286.0184375 -153.21875 290.6384375 -153.21875 295.3984375 C-148.92875 295.3984375 -144.63875 295.3984375 -140.21875 295.3984375 C-140.21875 290.7784375 -140.21875 286.1584375 -140.21875 281.3984375 C-144.50875 281.3984375 -148.79875 281.3984375 -153.21875 281.3984375 Z M-175.21875 380.3984375 C-175.24763514 383.54425173 -175.26550923 386.69003219 -175.28125 389.8359375 C-175.28962891 390.73376953 -175.29800781 391.63160156 -175.30664062 392.55664062 C-175.30986328 393.41064453 -175.31308594 394.26464844 -175.31640625 395.14453125 C-175.32164307 395.93529053 -175.32687988 396.7260498 -175.33227539 397.54077148 C-175.42370909 399.41436439 -175.42370909 399.41436439 -174.21875 400.3984375 C-172.61417809 400.49660958 -171.00527726 400.52475671 -169.39770508 400.52542114 C-167.83277817 400.52965088 -167.83277817 400.52965088 -166.23623657 400.53396606 C-164.50474869 400.53092972 -164.50474869 400.53092972 -162.73828125 400.52783203 C-161.53029877 400.52958435 -160.32231628 400.53133667 -159.07772827 400.53314209 C-155.75549046 400.53680028 -152.43331457 400.53592718 -149.11108017 400.532763 C-145.64151676 400.53023902 -142.17195608 400.53257705 -138.70239258 400.53414917 C-132.87483238 400.53597075 -127.04728484 400.53356485 -121.21972656 400.52880859 C-114.47313708 400.52336599 -107.72657781 400.52512866 -100.97998905 400.530635 C-95.19740826 400.53516645 -89.41483659 400.53581652 -83.6322546 400.53319633 C-80.17423444 400.53163373 -76.71622849 400.53143932 -73.25820923 400.53473282 C-69.40520036 400.53814589 -65.55222561 400.53342127 -61.69921875 400.52783203 C-60.54489349 400.52985626 -59.39056824 400.53188049 -58.20126343 400.53396606 C-57.15797882 400.53114624 -56.11469421 400.52832642 -55.03979492 400.52542114 C-54.12759689 400.52504412 -53.21539886 400.52466709 -52.27555847 400.52427864 C-50.22633813 400.62689397 -50.22633813 400.62689397 -49.21875 399.3984375 C-49.13223389 397.98273627 -49.11170096 396.5628425 -49.12109375 395.14453125 C-49.12431641 394.29052734 -49.12753906 393.43652344 -49.13085938 392.55664062 C-49.13923828 391.65880859 -49.14761719 390.76097656 -49.15625 389.8359375 C-49.16076172 388.93423828 -49.16527344 388.03253906 -49.16992188 387.10351562 C-49.18174775 384.86842436 -49.1982278 382.63346313 -49.21875 380.3984375 C-51.6895245 379.16305025 -53.31342537 379.2726179 -56.07739258 379.27145386 C-57.10377838 379.26863403 -58.13016418 379.26581421 -59.18765259 379.26290894 C-60.88333878 379.26594528 -60.88333878 379.26594528 -62.61328125 379.26904297 C-63.80029633 379.26729065 -64.9873114 379.26553833 -66.21029663 379.26373291 C-69.47055276 379.26007865 -72.73076848 379.26094535 -75.99102402 379.264112 C-79.39872067 379.2666391 -82.80641457 379.26429708 -86.21411133 379.26272583 C-91.93734219 379.26090516 -97.66056016 379.26330776 -103.38378906 379.26806641 C-110.00597956 379.27350883 -116.62813927 379.2717461 -123.25032902 379.26624 C-128.93018641 379.26170595 -134.61003453 379.26105976 -140.28989315 379.26367867 C-143.68477318 379.26523983 -147.07963872 379.26543959 -150.47451782 379.26214218 C-154.25777291 379.25961447 -158.04096814 379.26345798 -161.82421875 379.26904297 C-162.95467621 379.26701874 -164.08513367 379.26499451 -165.24984741 379.26290894 C-166.27623322 379.26572876 -167.30261902 379.26854858 -168.36010742 379.27145386 C-169.70295052 379.2720194 -169.70295052 379.2720194 -171.07292175 379.27259636 C-173.27035801 379.26004016 -173.27035801 379.26004016 -175.21875 380.3984375 Z M-147.21875 416.3984375 C-147.21875 417.7184375 -147.21875 419.0384375 -147.21875 420.3984375 C-124.11875 420.3984375 -101.01875 420.3984375 -77.21875 420.3984375 C-77.21875 419.0784375 -77.21875 417.7584375 -77.21875 416.3984375 C-100.31875 416.3984375 -123.41875 416.3984375 -147.21875 416.3984375 Z M-147.21875 436.3984375 C-147.21875 438.3784375 -147.21875 440.3584375 -147.21875 442.3984375 C-145.37077799 444.24640951 -142.35078923 443.52619697 -139.87890625 443.52783203 C-138.88623245 443.53046051 -138.88623245 443.53046051 -137.87350464 443.53314209 C-135.6760601 443.53755967 -133.47869542 443.53462297 -131.28125 443.53125 C-129.76049789 443.53192307 -128.23974588 443.53289311 -126.71899414 443.53414917 C-123.52782164 443.53562601 -120.33667708 443.53347202 -117.14550781 443.52880859 C-113.0461047 443.5231113 -108.94676704 443.52639038 -104.84736633 443.53238106 C-101.70592756 443.53598704 -98.56450442 443.53484792 -95.42306519 443.53225327 C-93.91112256 443.5315841 -92.39917854 443.53241207 -90.88723755 443.53473282 C-88.77765113 443.53725995 -86.66817213 443.53341794 -84.55859375 443.52783203 C-83.35581787 443.52703644 -82.15304199 443.52624084 -80.91381836 443.52542114 C-78.30127815 443.70531343 -78.30127815 443.70531343 -77.21875 442.3984375 C-77.21875 440.4184375 -77.21875 438.4384375 -77.21875 436.3984375 C-100.31875 436.3984375 -123.41875 436.3984375 -147.21875 436.3984375 Z " fill="#000000" transform="translate(374.21875,53.6015625)"/>
<path d="M0 0 C1.30200609 3.03801421 1.47237984 4.91136096 0.9375 8.1875 C-1 11.125 -1 11.125 -4.0625 13.1875 C-7.14204608 13.38232843 -10.04152991 12.75135329 -13.0625 12.1875 C-23.75408743 10.46787405 -33.44909978 11.5867907 -42.5 18 C-49.92742692 24.2546753 -56.08811128 32.20001567 -57.0625 42.1875 C-57.86649726 53.36306196 -55.20182697 62.47784487 -48.0625 71.1875 C-41.13824913 78.72227622 -32.78140702 82.56645739 -22.5703125 83.22265625 C-12.10534192 83.07595105 -3.50000879 79.20589049 4.1171875 72.15625 C10.51806775 65.23340956 13.95416113 55.58537252 13.9296875 46.1875 C13.60441747 42.32623001 13.02330928 38.60874555 12.25 34.8125 C11.87072872 31.62662121 12.38822912 29.97618759 13.9375 27.1875 C17.45003146 24.84581236 18.80219356 24.69126323 22.9375 25.1875 C26.32406861 27.11168671 27.66026042 28.53598698 29.1875 32.125 C32.59909008 47.50995911 30.89611277 63.22030979 22.37109375 76.65625 C13.4988779 88.67799955 1.26197105 97.30408677 -13.6953125 99.58984375 C-27.40122527 101.1823062 -40.96644006 98.49196685 -52.3125 90.375 C-53.57836197 89.3314485 -54.82850245 88.26854407 -56.0625 87.1875 C-56.71734375 86.66027344 -57.3721875 86.13304687 -58.046875 85.58984375 C-67.64575461 77.12571541 -73.46119135 63.57018399 -74.26953125 50.95703125 C-74.70892911 36.03377794 -70.60960158 22.96165475 -61.1328125 11.3515625 C-47.80738757 -2.57727789 -17.00553627 -14.94425915 0 0 Z " fill="#000000" transform="translate(404.0625,107.8125)"/>
<path d="M0 0 C2.09184223 0.00315256 4.18225913 -0.02027836 6.27392578 -0.0456543 C7.61116359 -0.04792827 8.94840518 -0.04863033 10.28564453 -0.04760742 C12.10298096 -0.05207886 12.10298096 -0.05207886 13.95703125 -0.05664062 C17.52578237 0.34920169 19.37393212 1.18283427 22.23095703 3.31567383 C26.45107898 8.91793178 25.67275609 15.62092323 25.60595703 22.31567383 C25.61755859 23.4784082 25.62916016 24.64114258 25.64111328 25.83911133 C25.6043597 36.5466554 25.6043597 36.5466554 22.23095703 41.31567383 C18.05120959 44.84523834 15.59472469 45.51017586 10.23095703 45.31567383 C10.24206009 45.93319519 10.25316315 46.55071655 10.26460266 47.18695068 C10.3751676 53.61057073 10.4506124 60.03392082 10.50561523 66.45825195 C10.53076915 68.85615008 10.56489622 71.25397147 10.6081543 73.65161133 C10.66876438 77.09711632 10.69715859 80.54160829 10.71923828 83.98754883 C10.74504471 85.06059265 10.77085114 86.13363647 10.79743958 87.23919678 C10.80024161 94.66421405 10.80024161 94.66421405 7.8918457 97.99243164 C4.64704654 99.60604862 2.80767885 99.92447754 -0.76904297 99.31567383 C-3.61684916 97.08360952 -4.61901963 95.76574384 -5.76904297 92.31567383 C-5.85592096 90.76596935 -5.88672957 89.21277675 -5.88256836 87.66064453 C-5.88249283 86.71989578 -5.8824173 85.77914703 -5.88233948 84.80989075 C-5.87717819 83.79730698 -5.87201691 82.78472321 -5.86669922 81.74145508 C-5.86528427 80.70248581 -5.86386932 79.66351654 -5.8624115 78.59306335 C-5.85680952 75.27140435 -5.84425669 71.9498125 -5.83154297 68.62817383 C-5.82652822 66.37752376 -5.82196527 64.12687263 -5.81787109 61.8762207 C-5.80683946 56.35601546 -5.7900994 50.83584944 -5.76904297 45.31567383 C-6.86603516 45.18805664 -7.96302734 45.06043945 -9.09326172 44.92895508 C-13.22642739 44.23936208 -14.83839545 43.24632135 -17.76904297 40.31567383 C-21.15008573 35.03473658 -20.13793889 28.47760655 -20.14404297 22.44067383 C-20.16853516 21.17352539 -20.19302734 19.90637695 -20.21826172 18.60083008 C-20.25497238 6.96355015 -20.25497238 6.96355015 -15.76904297 2.31567383 C-11.00445873 -0.86071566 -5.56987914 -0.01760557 0 0 Z M-3.76904297 15.31567383 C-3.76904297 19.93567383 -3.76904297 24.55567383 -3.76904297 29.31567383 C0.52095703 29.31567383 4.81095703 29.31567383 9.23095703 29.31567383 C9.23095703 24.69567383 9.23095703 20.07567383 9.23095703 15.31567383 C4.94095703 15.31567383 0.65095703 15.31567383 -3.76904297 15.31567383 Z " fill="#000000" transform="translate(262.76904296875,201.684326171875)"/>
<path d="M0 0 C5.70856872 4.63028352 8.50365183 9.643768 10.796875 16.5234375 C11.68900717 26.26376575 10.01231552 32.74621158 4.609375 40.7734375 C-1.37382793 46.62368036 -7.66975647 49.22121293 -15.953125 49.7734375 C-24.30472047 49.58540908 -30.27512606 46.50814977 -36.25 40.7421875 C-42.01647456 34.1914724 -42.93182732 27.56128427 -42.64453125 18.9609375 C-41.6037736 10.85592218 -37.7110541 4.97310812 -31.37109375 -0.0703125 C-21.75594495 -6.30716577 -9.56135143 -6.40813979 0 0 Z M-25.015625 16.2109375 C-26.7620984 19.61196465 -26.87150155 22.82900447 -26.203125 26.5234375 C-24.13422848 29.92233892 -22.09032963 32.41280761 -18.203125 33.5234375 C-13.7374604 33.4422436 -11.76674891 33.00129255 -8.328125 30.0859375 C-6.04057849 27.32742553 -5.29070978 26.29418355 -4.890625 22.7734375 C-5.28559349 18.66576521 -6.6088882 16.69417136 -9.203125 13.5234375 C-15.02655335 9.3906819 -20.21024831 11.7369661 -25.015625 16.2109375 Z " fill="#000000" transform="translate(398.203125,132.4765625)"/>
<path d="M0 0 C1.17626953 -0.02900391 2.35253906 -0.05800781 3.56445312 -0.08789062 C14.5688255 -0.16875939 14.5688255 -0.16875939 19.1875 4.3125 C23.45212563 10.21538947 22.66431584 16.22676128 22.625 23.25 C22.6549707 25.14395508 22.6549707 25.14395508 22.68554688 27.07617188 C22.67944361 38.64185339 22.67944361 38.64185339 18.1875 43.3125 C12.55911147 47.06475902 6.36634257 46.52608976 -0.1875 46.5625 C-1.10789063 46.583125 -2.02828125 46.60375 -2.9765625 46.625 C-8.71951834 46.65781689 -12.75588829 46.09893132 -17.8125 43.3125 C-23.67213667 36.99026044 -23.0267053 31.86687153 -23.0625 23.5625 C-23.083125 22.38171875 -23.10375 21.2009375 -23.125 19.984375 C-23.17409342 9.08563628 -23.17409342 9.08563628 -19.8125 4.3125 C-14.07340121 -0.88855828 -7.31063793 0.05950058 0 0 Z M-6.8125 16.3125 C-6.8125 20.9325 -6.8125 25.5525 -6.8125 30.3125 C-2.5225 30.3125 1.7675 30.3125 6.1875 30.3125 C6.1875 25.6925 6.1875 21.0725 6.1875 16.3125 C1.8975 16.3125 -2.3925 16.3125 -6.8125 16.3125 Z " fill="#000000" transform="translate(230.8125,126.6875)"/>
<path d="M0 0 C1.26972656 -0.00386719 2.53945312 -0.00773438 3.84765625 -0.01171875 C5.16636719 -0.00011719 6.48507813 0.01148438 7.84375 0.0234375 C9.16246094 0.01183594 10.48117188 0.00023437 11.83984375 -0.01171875 C13.74443359 -0.00591797 13.74443359 -0.00591797 15.6875 0 C17.42290039 0.00507568 17.42290039 0.00507568 19.19335938 0.01025391 C22.77804715 0.45195056 24.54702625 1.12053847 27.34375 3.3984375 C31.33772775 9.65073578 30.82333994 15.71253747 30.78125 22.8984375 C30.8112207 24.71408203 30.8112207 24.71408203 30.84179688 26.56640625 C30.83562252 37.79138876 30.83562252 37.79138876 26.34375 42.3984375 C20.53297489 46.56884123 14.81401683 45.87612017 7.90625 45.8359375 C6.69130859 45.85591797 5.47636719 45.87589844 4.22460938 45.89648438 C-7.05688714 45.89030273 -7.05688714 45.89030273 -11.65625 41.3984375 C-14.40948442 37.56687711 -15.03980388 34.90708115 -15.0546875 30.21484375 C-15.05855469 29.03986328 -15.06242188 27.86488281 -15.06640625 26.65429688 C-15.05480469 25.43548828 -15.04320312 24.21667969 -15.03125 22.9609375 C-15.04285156 21.74599609 -15.05445313 20.53105469 -15.06640625 19.27929688 C-15.06253906 18.10302734 -15.05867187 16.92675781 -15.0546875 15.71484375 C-15.05130371 14.64693604 -15.04791992 13.57902832 -15.04443359 12.47875977 C-14.45162259 7.77467395 -13.09512562 4.57038499 -9.38476562 1.54833984 C-6.08622778 0.15820802 -3.57690135 0.01046169 0 0 Z M1.34375 16.3984375 C1.34375 20.6884375 1.34375 24.9784375 1.34375 29.3984375 C5.63375 29.3984375 9.92375 29.3984375 14.34375 29.3984375 C14.34375 25.1084375 14.34375 20.8184375 14.34375 16.3984375 C10.05375 16.3984375 5.76375 16.3984375 1.34375 16.3984375 Z " fill="#000000" transform="translate(188.65625,184.6015625)"/>
<path d="M0 0 C3.16542216 2.75959881 3.93124576 4.2437034 4.3125 8.4375 C2.32989769 13.81884911 -1.06164233 15.38326068 -6 18 C-6.59312988 18.31565918 -7.18625977 18.63131836 -7.79736328 18.95654297 C-9.74795984 19.97809557 -11.7125736 20.96388315 -13.6875 21.9375 C-14.31672363 22.25654297 -14.94594727 22.57558594 -15.59423828 22.90429688 C-19.8067814 24.88693102 -22.52096683 25.28442863 -27 24 C-29.83336378 22.24136041 -30.02887833 20.896038 -30.9375 17.625 C-31 14 -31 14 -29.65234375 11.609375 C-25.82263141 7.84170513 -21.45789754 5.88255899 -16.625 3.625 C-15.69171875 3.16222656 -14.7584375 2.69945312 -13.796875 2.22265625 C-5.11723799 -1.89586839 -5.11723799 -1.89586839 0 0 Z " fill="#000000" transform="translate(85,329)"/>
<path d="M0 0 C4.78123348 3.3542762 5.7308496 8.46834591 7.25 13.8125 C7.518125 14.68970703 7.78625 15.56691406 8.0625 16.47070312 C9.51062825 21.40985484 10.505718 25.80308216 10 31 C8 34 8 34 5 36 C2.13109088 36.31814751 -0.33273422 36.12159084 -3 35 C-6.67028562 30.75094312 -7.74589412 25.99202874 -9.25 20.6875 C-9.53101563 19.76259766 -9.81203125 18.83769531 -10.1015625 17.88476562 C-11.65047871 12.49039656 -12.43347538 8.47326964 -11 3 C-7.92160879 -0.67038952 -4.56677188 -0.57084649 0 0 Z " fill="#000000" transform="translate(203,10)"/>
<path d="M0 0 C2.875 1.5 2.875 1.5 5 4 C5.59674939 7.27146543 5.82724177 8.87569115 5 12 C2.6020704 15.40334456 -0.32247857 18.12299672 -3.375 20.9375 C-4.1690625 21.70384766 -4.963125 22.47019531 -5.78125 23.25976562 C-13.29634936 30.45005985 -13.29634936 30.45005985 -20.01953125 30.33984375 C-22 30 -22 30 -24.5625 27.9375 C-26.01790463 24.96341228 -26.35479913 23.26328936 -25.80004883 20.01293945 C-24.01227841 15.51487198 -20.01800808 12.38120582 -16.5625 9.125 C-15.77294922 8.35414063 -14.98339844 7.58328125 -14.16992188 6.7890625 C-6.5015675 -0.63740858 -6.5015675 -0.63740858 0 0 Z " fill="#000000" transform="translate(119,378)"/>
<path d="M0 0 C2.45703125 1.50390625 2.45703125 1.50390625 4.8125 3.5625 C5.66457031 4.29082031 6.51664063 5.01914063 7.39453125 5.76953125 C8.25433594 6.50558594 9.11414063 7.24164063 10 8 C12.38309539 9.80449863 14.77975203 11.58796042 17.1875 13.359375 C19.16648673 15.1506992 20.08639278 16.50087336 21 19 C20.82357605 22.35205511 20.56269287 24.97391301 18.9375 27.9375 C15.50347918 29.82067271 12.68291691 30.04793524 9 29 C4.99754599 26.36466328 1.53325838 23.22601852 -2 20 C-3.5403857 18.68599686 -5.08189548 17.37330922 -6.625 16.0625 C-9.60411649 13.49073209 -10.84008181 12.19938643 -11.375 8.1875 C-11 5 -11 5 -8.875 2.125 C-5.4433564 -0.41143223 -4.17216198 -0.4751774 0 0 Z " fill="#000000" transform="translate(92,84)"/>
<path d="M0 0 C4.49096988 3.82922101 7.60738561 8.479605 10.8125 13.375 C11.31458984 14.10460938 11.81667969 14.83421875 12.33398438 15.5859375 C15.35624537 20.19128759 16.76302535 23.31653083 16 29 C14.5 31.4375 14.5 31.4375 12 33 C6.51404494 33.87078652 6.51404494 33.87078652 4 33 C2.15357732 31.03445328 0.58761186 29.15820164 -1 27 C-1.44029541 26.41589355 -1.88059082 25.83178711 -2.33422852 25.22998047 C-3.69710095 23.38520428 -5.00790671 21.51134526 -6.3125 19.625 C-6.76689453 19.00367187 -7.22128906 18.38234375 -7.68945312 17.7421875 C-10.97600755 12.95815039 -11.61491416 9.79249142 -11 4 C-8.16650967 -0.53358453 -5.10426635 -0.80593679 0 0 Z " fill="#000000" transform="translate(142,39)"/>
<path d="M0 0 C2.80252181 1.10408516 5.55436899 2.28826968 8.30615234 3.51318359 C9.25941406 3.91730469 10.21267578 4.32142578 11.19482422 4.73779297 C18.22901074 7.80372118 18.22901074 7.80372118 20.49365234 11.20068359 C21.27176785 18.20372311 21.27176785 18.20372311 18.49365234 21.76318359 C13.94557525 23.94247054 9.83046631 23.00747049 5.20605469 21.41088867 C2.83431636 20.43963618 0.50740625 19.40111829 -1.81884766 18.32568359 C-3.01477539 17.7978125 -3.01477539 17.7978125 -4.23486328 17.25927734 C-10.97407841 14.20991003 -10.97407841 14.20991003 -13.50634766 11.20068359 C-14.61913025 7.54439794 -14.82583129 5.88529138 -13.19384766 2.38818359 C-9.74391914 -2.08394596 -4.98663291 -1.59032107 0 0 Z " fill="#000000" transform="translate(60.50634765625,142.79931640625)"/>
<path d="M0 0 C1.57017574 3.41744133 0.97465899 5.72901825 0.0625 9.3125 C-2.14593489 12.1796283 -4.0750939 12.83131287 -7.578125 13.48046875 C-8.48433594 13.65126953 -9.39054687 13.82207031 -10.32421875 13.99804688 C-11.26910156 14.16369141 -12.21398437 14.32933594 -13.1875 14.5 C-14.11691406 14.67724609 -15.04632813 14.85449219 -16.00390625 15.03710938 C-29.25430169 17.464162 -29.25430169 17.464162 -33.3125 14.6875 C-35.29592363 11.78865008 -35.79161447 9.8137527 -35.9375 6.3125 C-35.16796875 4.22265625 -35.16796875 4.22265625 -33.9375 2.3125 C-28.25786125 -0.17856963 -22.3154745 -1.32601617 -16.25 -2.5 C-15.16319946 -2.72248413 -15.16319946 -2.72248413 -14.05444336 -2.94946289 C-8.66354911 -3.91832759 -4.34885611 -3.78771339 0 0 Z " fill="#000000" transform="translate(67.9375,273.6875)"/>
<path d="M0 0 C1.01175293 0.07395996 1.01175293 0.07395996 2.04394531 0.14941406 C4.30320695 0.3238167 6.55710888 0.53138607 8.8125 0.75 C9.54170654 0.8113916 10.27091309 0.8727832 11.0222168 0.93603516 C15.78918325 1.46575902 18.70625913 2.46463335 22 6 C22.86703851 8.75729017 22.59332642 11.18890006 22 14 C20.625 16.5 20.625 16.5 18 18 C14.62680628 18.54249301 11.39449485 18.27388345 8 18 C7.32549805 17.95069336 6.65099609 17.90138672 5.95605469 17.85058594 C3.69679305 17.6761833 1.44289112 17.46861393 -0.8125 17.25 C-1.90630981 17.1579126 -1.90630981 17.1579126 -3.0222168 17.06396484 C-7.78918325 16.53424098 -10.70625913 15.53536665 -14 12 C-14.86703851 9.24270983 -14.59332642 6.81109994 -14 4 C-10.92612732 -1.58885942 -5.58896467 -0.45094336 0 0 Z " fill="#000000" transform="translate(44,207)"/>
<path d="M0 0 C3.08604411 0.62407942 4.15280071 1.99027348 6.10546875 4.42578125 C6.62304688 7.38671875 6.62304688 7.38671875 6.63671875 10.80078125 C6.641875 12.033125 6.64703125 13.26546875 6.65234375 14.53515625 C6.636875 15.8190625 6.62140625 17.10296875 6.60546875 18.42578125 C6.6209375 19.7096875 6.63640625 20.99359375 6.65234375 22.31640625 C6.6471875 23.54875 6.64203125 24.78109375 6.63671875 26.05078125 C6.63220703 27.17742188 6.62769531 28.3040625 6.62304688 29.46484375 C5.99300662 33.06914952 5.0119735 34.2595391 2.10546875 36.42578125 C-1.64802587 36.89496808 -3.93301578 36.95714506 -7.26953125 35.11328125 C-11.36154053 30.86388699 -10.11868891 24.04873832 -10.14453125 18.55078125 C-10.16515625 17.46152344 -10.18578125 16.37226563 -10.20703125 15.25 C-10.2121875 14.19683594 -10.21734375 13.14367187 -10.22265625 12.05859375 C-10.23200195 11.09840332 -10.24134766 10.13821289 -10.25097656 9.14892578 C-9.3352368 2.15292485 -6.50532154 0.35394808 0 0 Z " fill="#000000" transform="translate(266.89453125,-0.42578125)"/>
</svg>
