<?xml version="1.0" encoding="UTF-8"?>
<svg version="1.1" xmlns="http://www.w3.org/2000/svg" width="512" height="512">
<path d="M0 0 C1.89508602 -0.00542829 3.79016781 -0.01255489 5.6852417 -0.02124023 C10.80510666 -0.03939244 15.92464727 -0.03243963 21.04451752 -0.01972389 C26.41787043 -0.0095541 31.7911967 -0.01900058 37.16455078 -0.02526855 C46.1859228 -0.0325334 55.20716356 -0.0229878 64.22851562 -0.00390625 C74.63905163 0.01786019 85.04927421 0.010808 95.45980263 -0.01121187 C104.4189604 -0.02939903 113.37802416 -0.03190799 122.33719444 -0.0214572 C127.67897042 -0.01524049 133.02059936 -0.01433631 138.36236572 -0.02760315 C143.38584215 -0.03920935 148.40891685 -0.03104909 153.43235016 -0.00802612 C155.26927272 -0.00276444 157.10622943 -0.00420895 158.94313812 -0.01307678 C173.12103165 -0.07517983 184.39123202 1.27824445 195.1171875 11.51757812 C205.23825432 22.11964614 206.71336515 33.417206 206.57128906 47.5456543 C206.57015857 49.13346325 206.57079838 50.72127429 206.57305908 52.30908203 C206.5741993 56.58740661 206.55080326 60.86527587 206.52276325 65.14349532 C206.49763318 69.62642675 206.4953985 74.10937045 206.49066162 78.59236145 C206.47826577 87.06713596 206.44549041 95.54170225 206.40526366 104.01638538 C206.36043998 113.67059901 206.33853235 123.32482298 206.31848192 132.97911489 C206.2767545 152.82538518 206.20646888 172.6714685 206.1171875 192.51757812 C207.37015625 192.45957031 208.623125 192.4015625 209.9140625 192.34179688 C211.5650669 192.29489334 213.21611161 192.24939381 214.8671875 192.20507812 C216.1046875 192.14223633 216.1046875 192.14223633 217.3671875 192.078125 C223.51987583 191.95407886 223.51987583 191.95407886 226.64398193 194.90133667 C227.99225572 197.29571384 228.82968488 199.16403526 229.3828125 201.83789062 C229.55039062 202.62035156 229.71796875 203.4028125 229.890625 204.20898438 C230.04789062 205.01207031 230.20515625 205.81515625 230.3671875 206.64257812 C230.53992188 207.45339844 230.71265625 208.26421875 230.890625 209.09960938 C231.56201341 212.32333942 232.1171875 215.21340091 232.1171875 218.51757812 C232.9215625 218.60007813 233.7259375 218.68257812 234.5546875 218.76757812 C238.39932888 219.57697631 241.40100688 220.98158458 244.87109375 222.77539062 C247.82478173 223.75139187 249.16552889 223.52323172 252.1171875 222.51757812 C255.05679329 220.65969107 257.88103678 218.72549153 260.68164062 216.66796875 C265.35226938 213.45271823 268.44943555 212.85526585 274.1171875 213.51757812 C276.15625 214.55664063 276.15625 214.55664063 277.7421875 216.14257812 C278.38671875 216.77421875 279.03125 217.40585938 279.6953125 218.05664062 C280.49453125 218.86875 281.29375 219.68085938 282.1171875 220.51757812 C283.29686735 221.63232774 284.47940133 222.74406118 285.6640625 223.85351562 C286.94150092 225.07340883 288.21753198 226.29477739 289.4921875 227.51757812 C290.11174316 228.09846191 290.73129883 228.6793457 291.36962891 229.27783203 C295.21643399 233.05675855 297.28691267 235.99984621 298.1171875 241.51757812 C297.68359375 243.56445312 297.68359375 243.56445312 296.6796875 245.26757812 C296.30585938 245.92886719 295.93203125 246.59015625 295.546875 247.27148438 C294.47137943 248.96112906 293.367472 250.63274071 292.25 252.29492188 C291.60804688 253.25527344 290.96609375 254.215625 290.3046875 255.20507812 C289.36689453 256.54119141 289.36689453 256.54119141 288.41015625 257.90429688 C286.83846822 261.08091106 287.01402438 262.20288516 288.1171875 265.51757812 C289.10073373 268.11666816 290.1860505 270.65747797 291.27734375 273.21289062 C292.1171875 275.51757812 292.1171875 275.51757812 292.1171875 278.51757812 C292.69686279 278.62303955 293.27653809 278.72850098 293.8737793 278.8371582 C296.51943021 279.32450799 299.1619582 279.82713656 301.8046875 280.33007812 C302.71669922 280.49572266 303.62871094 280.66136719 304.56835938 280.83203125 C314.30891047 282.7093011 314.30891047 282.7093011 318.1171875 286.51757812 C318.24297103 289.14874082 318.30583694 291.75223733 318.3203125 294.38476562 C318.32601257 295.17529327 318.33171265 295.96582092 318.33758545 296.78030396 C318.34704958 298.45654964 318.35357502 300.13281405 318.35742188 301.80908203 C318.36712107 304.37500495 318.39812744 306.94012489 318.4296875 309.50585938 C318.43621793 311.13215669 318.44146824 312.75845975 318.4453125 314.38476562 C318.4576593 315.15360077 318.4700061 315.92243591 318.48272705 316.71456909 C318.46071254 321.97625969 318.46071254 321.97625969 316.89770508 324.43920898 C314.7173669 325.75972917 312.78849544 326.33810471 310.30078125 326.90429688 C309.37201172 327.12021484 308.44324219 327.33613281 307.48632812 327.55859375 C306.51888672 327.77193359 305.55144531 327.98527344 304.5546875 328.20507812 C303.58337891 328.43001953 302.61207031 328.65496094 301.61132812 328.88671875 C294.47817724 330.51757812 294.47817724 330.51757812 292.1171875 330.51757812 C292.0346875 331.32195312 291.9521875 332.12632812 291.8671875 332.95507812 C291.05778932 336.7997195 289.65318104 339.80139751 287.859375 343.27148438 C286.88316335 346.2258091 287.11901608 347.56212276 288.1171875 350.51757812 C289.56320286 352.92018826 291.02823621 355.21532053 292.6171875 357.51757812 C298.06453038 365.4103226 298.06453038 365.4103226 298.1171875 369.51757812 C296.25391667 373.86719161 294.09258474 376.91114762 290.73828125 380.22460938 C289.89974609 381.05798828 289.06121094 381.89136719 288.19726562 382.75 C287.32521484 383.60142578 286.45316406 384.45285156 285.5546875 385.33007812 C284.67876953 386.20083984 283.80285156 387.07160156 282.90039062 387.96875 C275.39286478 395.3838044 275.39286478 395.3838044 270.50390625 395.89648438 C265.30766706 395.83195668 262.04403315 393.39614626 257.9296875 390.45507812 C253.13103563 386.75557315 253.13103563 386.75557315 247.44921875 385.58007812 C246.29486328 386.04414062 246.29486328 386.04414062 245.1171875 386.51757812 C243.84488281 386.99904297 243.84488281 386.99904297 242.546875 387.49023438 C240.83840367 388.21907765 239.13007114 388.94824636 237.421875 389.67773438 C235.1171875 390.51757812 235.1171875 390.51757812 232.1171875 390.51757812 C231.95283203 391.62552734 231.95283203 391.62552734 231.78515625 392.75585938 C228.91950229 411.09138514 228.91950229 411.09138514 225.796875 415.29492188 C223.05042466 417.29408224 220.5780097 417.05122863 217.28125 416.92773438 C215.1171875 416.51757812 215.1171875 416.51757812 212.5546875 414.45507812 C209.23334132 407.66797941 211.8386988 399.93614009 213.3671875 392.89257812 C213.67462891 391.35730469 213.67462891 391.35730469 213.98828125 389.79101562 C216.09976235 379.96303088 216.09976235 379.96303088 220.1171875 376.51757812 C222.69439019 375.33422678 225.06818745 374.38726808 227.7421875 373.51757812 C233.41959119 371.55316304 238.67633275 369.40240089 243.90625 366.40039062 C246.97389078 365.17550226 248.81676823 365.06535722 252.1171875 365.51757812 C255.07991031 366.93421453 257.76608962 368.69360667 260.4921875 370.51757812 C261.22824219 370.99453125 261.96429688 371.47148437 262.72265625 371.96289062 C264.52875239 373.13568033 266.32408544 374.32501619 268.1171875 375.51757812 C269.24613626 374.58483703 270.37019626 373.6461769 271.4921875 372.70507812 C272.11867188 372.18300781 272.74515625 371.6609375 273.390625 371.12304688 C275.3392923 369.43532073 275.3392923 369.43532073 277.1171875 366.51757812 C276.3953125 365.4321875 275.6734375 364.34679687 274.9296875 363.22851562 C273.9914737 361.78366638 273.05401308 360.33832787 272.1171875 358.89257812 C271.64023437 358.17972656 271.16328125 357.466875 270.671875 356.73242188 C267.98550912 352.54936643 266.21977072 349.63490891 267.1171875 344.51757812 C268.09598569 342.05506857 269.1028374 339.79970121 270.3046875 337.45507812 C272.79682699 332.46083558 274.78961814 327.60229547 276.4921875 322.26757812 C278.49801957 316.97476964 278.49801957 316.97476964 280.96875 315.15039062 C283.3593317 314.30716726 285.61024037 313.89962377 288.1171875 313.51757812 C290.47338499 312.96364643 292.82751159 312.40084551 295.1796875 311.83007812 C297.15788417 311.38821289 299.13672581 310.94917797 301.1171875 310.51757812 C301.1171875 306.55757813 301.1171875 302.59757812 301.1171875 298.51757812 C299.86421875 298.25203125 298.61125 297.98648437 297.3203125 297.71289062 C295.66920976 297.35640253 294.01817143 296.99961606 292.3671875 296.64257812 C291.1296875 296.38154297 291.1296875 296.38154297 289.8671875 296.11523438 C288.66835938 295.85419922 288.66835938 295.85419922 287.4453125 295.58789062 C286.7121582 295.43078613 285.97900391 295.27368164 285.22363281 295.11181641 C279.72295035 293.56004762 279.72295035 293.56004762 277.9921875 290.58154297 C277.5590625 289.41679443 277.5590625 289.41679443 277.1171875 288.22851562 C276.7871875 287.36871094 276.4571875 286.50890625 276.1171875 285.62304688 C275.7871875 284.72199219 275.4571875 283.8209375 275.1171875 282.89257812 C274.45395055 281.12826419 273.78731696 279.36522315 273.1171875 277.60351562 C272.62992187 276.3133252 272.62992187 276.3133252 272.1328125 274.99707031 C271.17174482 272.65077142 270.07212614 270.47264069 268.8671875 268.24414062 C267.11719704 264.77379101 266.38456158 262.45544246 267.1171875 258.51757812 C268.5511855 255.56289576 270.29280647 252.86928815 272.1171875 250.14257812 C272.59414063 249.40652344 273.07109375 248.67046875 273.5625 247.91210938 C274.7352897 246.10601323 275.92462556 244.31068018 277.1171875 242.51757812 C276.18444641 241.38862936 275.24578628 240.26456937 274.3046875 239.14257812 C273.78261719 238.51609375 273.26054687 237.88960937 272.72265625 237.24414062 C271.03493011 235.29547333 271.03493011 235.29547333 268.1171875 233.51757812 C267.03179687 234.23945313 265.94640625 234.96132812 264.828125 235.70507812 C263.38327575 236.64329192 261.93793724 237.58075255 260.4921875 238.51757812 C259.77933594 238.99453125 259.06648438 239.47148437 258.33203125 239.96289062 C254.14857206 242.64951579 251.22668059 244.45687216 246.1171875 243.51757812 C243.24493953 242.43369712 240.53747209 241.09926917 237.8046875 239.70507812 C233.19745604 237.42543008 228.76857261 235.23651224 223.8046875 233.83007812 C219.55107202 232.31607939 218.56052593 231.23084298 216.1171875 227.51757812 C215.0703125 224.14257812 215.0703125 224.14257812 214.3671875 220.51757812 C214.12484375 219.32132813 213.8825 218.12507812 213.6328125 216.89257812 C213.19410516 214.0210392 213.00755867 211.41177932 213.1171875 208.51757812 C210.8071875 208.51757812 208.4971875 208.51757812 206.1171875 208.51757812 C206.1171875 224.35757813 206.1171875 240.19757813 206.1171875 256.51757812 C209.4171875 256.51757812 212.7171875 256.51757812 216.1171875 256.51757812 C228.51085948 258.91587282 239.4650085 266.62585651 246.7734375 276.83007812 C254.83809899 289.48052751 256.12442969 303.47774609 253.4609375 318.12695312 C250.15338599 329.13311589 242.6898937 339.22519857 233.0546875 345.51757812 C229.50891729 346.72464883 227.67033697 346.67621382 224.1171875 345.51757812 C221.7421875 343.89257812 221.7421875 343.89257812 220.1171875 341.51757812 C219.36418172 336.99954344 219.66087434 335.16945407 222.3046875 331.39257812 C224.01229752 329.56471388 225.80194093 327.86706237 227.6171875 326.14257812 C234.80346003 318.59699197 236.58985211 311.67833462 236.3984375 301.39257812 C235.82474833 293.48841621 232.87061499 287.02085659 227.1171875 281.51757812 C222.05514072 277.70270229 217.68540781 275.52065022 211.42431641 274.43652344 C210.43122467 274.26260071 209.43813293 274.08867798 208.41494751 273.90948486 C207.65668671 273.78015564 206.8984259 273.65082642 206.1171875 273.51757812 C206.12087467 274.41449529 206.12456184 275.31141245 206.12836075 276.23550892 C206.21680346 298.08706764 206.28294172 319.93859539 206.32443619 341.7902956 C206.34503738 352.35773978 206.37311123 362.92506429 206.41894531 373.49243164 C206.45888791 382.70589013 206.48463807 391.91926191 206.49354148 401.13280457 C206.49874366 406.0086673 206.51091962 410.88428204 206.54010773 415.76006508 C206.56739421 420.35571499 206.5756059 424.95101635 206.56961823 429.54673958 C206.57071257 431.22726083 206.57858731 432.90779455 206.5940094 434.58824539 C206.71358171 448.29757789 204.92323827 459.24549722 195.1171875 469.51757812 C183.57808438 480.53316806 171.3381823 481.10807115 156.234375 481.03515625 C154.33928898 481.04058454 152.44420719 481.04771114 150.5491333 481.05639648 C145.42926834 481.07454869 140.30972773 481.06759588 135.18985748 481.05488014 C129.81650457 481.04471035 124.4431783 481.05415683 119.06982422 481.0604248 C110.0484522 481.06768965 101.02721144 481.05814405 92.00585938 481.0390625 C81.59532337 481.01729606 71.18510079 481.02434825 60.77457237 481.04636812 C51.8154146 481.06455528 42.85635084 481.06706424 33.89718056 481.05661345 C28.55540458 481.05039674 23.21377564 481.04949256 17.87200928 481.0627594 C12.84853285 481.0743656 7.82545815 481.06620534 2.80202484 481.04318237 C0.96510228 481.03792069 -0.87185443 481.0393652 -2.70876312 481.04823303 C-16.88665665 481.11033608 -28.15685702 479.7569118 -38.8828125 469.51757812 C-49.00387932 458.91551011 -50.47899015 447.61795025 -50.33691406 433.48950195 C-50.33578357 431.901693 -50.33642338 430.31388196 -50.33868408 428.72607422 C-50.3398243 424.44774964 -50.31642826 420.16988038 -50.28838825 415.89166093 C-50.26325818 411.4087295 -50.2610235 406.9257858 -50.25628662 402.4427948 C-50.24389077 393.96802029 -50.21111541 385.493454 -50.17088866 377.01877087 C-50.12606498 367.36455724 -50.10415735 357.71033327 -50.08410692 348.05604136 C-50.0423795 328.20977107 -49.97209388 308.36368775 -49.8828125 288.51757812 C-51.13578125 288.57558594 -52.38875 288.63359375 -53.6796875 288.69335938 C-55.3306919 288.74026291 -56.98173661 288.78576244 -58.6328125 288.83007812 C-59.4578125 288.87197266 -60.2828125 288.91386719 -61.1328125 288.95703125 C-67.28550083 289.08107739 -67.28550083 289.08107739 -70.40960693 286.13381958 C-71.75788072 283.73944241 -72.59530988 281.87112099 -73.1484375 279.19726562 C-73.31601563 278.41480469 -73.48359375 277.63234375 -73.65625 276.82617188 C-73.81351562 276.02308594 -73.97078125 275.22 -74.1328125 274.39257812 C-74.39191406 273.17634766 -74.39191406 273.17634766 -74.65625 271.93554688 C-75.32763841 268.71181683 -75.8828125 265.82175534 -75.8828125 262.51757812 C-76.6871875 262.43507813 -77.4915625 262.35257812 -78.3203125 262.26757812 C-82.16495388 261.45817994 -85.16663188 260.05357167 -88.63671875 258.25976562 C-91.59040673 257.28376438 -92.93115389 257.51192453 -95.8828125 258.51757812 C-98.82241829 260.37546518 -101.64666178 262.30966472 -104.44726562 264.3671875 C-109.11789438 267.58243802 -112.21506055 268.1798904 -117.8828125 267.51757812 C-119.921875 266.47851562 -119.921875 266.47851562 -121.5078125 264.89257812 C-122.15234375 264.2609375 -122.796875 263.62929688 -123.4609375 262.97851562 C-124.26015625 262.16640625 -125.059375 261.35429687 -125.8828125 260.51757812 C-127.06249235 259.40282851 -128.24502633 258.29109507 -129.4296875 257.18164062 C-130.70712592 255.96174742 -131.98315698 254.74037886 -133.2578125 253.51757812 C-133.87736816 252.93669434 -134.49692383 252.35581055 -135.13525391 251.75732422 C-138.98205899 247.9783977 -141.05253767 245.03531004 -141.8828125 239.51757812 C-141.44921875 237.47070312 -141.44921875 237.47070312 -140.4453125 235.76757812 C-140.07148438 235.10628906 -139.69765625 234.445 -139.3125 233.76367188 C-138.23700443 232.07402719 -137.133097 230.40241554 -136.015625 228.74023438 C-135.05269531 227.29970703 -135.05269531 227.29970703 -134.0703125 225.83007812 C-133.13251953 224.49396484 -133.13251953 224.49396484 -132.17578125 223.13085938 C-130.60409322 219.95424519 -130.77964938 218.83227109 -131.8828125 215.51757812 C-132.86635873 212.91848809 -133.9516755 210.37767828 -135.04296875 207.82226562 C-135.8828125 205.51757812 -135.8828125 205.51757812 -135.8828125 202.51757812 C-136.46248779 202.4121167 -137.04216309 202.30665527 -137.6394043 202.19799805 C-140.28505521 201.71064826 -142.9275832 201.20801969 -145.5703125 200.70507812 C-146.48232422 200.53943359 -147.39433594 200.37378906 -148.33398438 200.203125 C-158.07453547 198.32585515 -158.07453547 198.32585515 -161.8828125 194.51757812 C-162.00859603 191.88641543 -162.07146194 189.28291892 -162.0859375 186.65039062 C-162.09163757 185.85986298 -162.09733765 185.06933533 -162.10321045 184.25485229 C-162.11267458 182.57860661 -162.11920002 180.9023422 -162.12304688 179.22607422 C-162.13274607 176.6601513 -162.16375244 174.09503136 -162.1953125 171.52929688 C-162.20184293 169.90299956 -162.20709324 168.2766965 -162.2109375 166.65039062 C-162.2232843 165.88155548 -162.2356311 165.11272034 -162.24835205 164.32058716 C-162.22633754 159.05889656 -162.22633754 159.05889656 -160.66333008 156.59594727 C-158.4829919 155.27542708 -156.55412044 154.69705154 -154.06640625 154.13085938 C-153.13763672 153.91494141 -152.20886719 153.69902344 -151.25195312 153.4765625 C-150.28451172 153.26322266 -149.31707031 153.04988281 -148.3203125 152.83007812 C-147.34900391 152.60513672 -146.37769531 152.38019531 -145.37695312 152.1484375 C-138.24380224 150.51757812 -138.24380224 150.51757812 -135.8828125 150.51757812 C-135.7590625 149.31101563 -135.7590625 149.31101563 -135.6328125 148.08007812 C-134.82341432 144.23543675 -133.41880604 141.23375874 -131.625 137.76367188 C-130.64878835 134.80934715 -130.88464108 133.47303349 -131.8828125 130.51757812 C-133.32882786 128.11496799 -134.79386121 125.81983572 -136.3828125 123.51757812 C-141.83015538 115.62483365 -141.83015538 115.62483365 -141.8828125 111.51757812 C-139.05789282 104.97671666 -134.61096333 100.73062076 -129.6328125 95.76757812 C-128.79878906 94.90519531 -127.96476562 94.0428125 -127.10546875 93.15429688 C-119.06871221 85.09230719 -119.06871221 85.09230719 -112.8828125 84.51757812 C-110.328125 85.20507812 -110.328125 85.20507812 -108.0078125 86.51757812 C-106.73744141 87.21753906 -106.73744141 87.21753906 -105.44140625 87.93164062 C-102.17252358 89.95784882 -99.04745761 92.14826121 -95.98828125 94.47851562 C-93.16504875 95.8717992 -91.85554577 95.43889851 -88.8828125 94.51757812 C-86.28372247 93.5340319 -83.74291265 92.44871512 -81.1875 91.35742188 C-78.8828125 90.51757812 -78.8828125 90.51757812 -75.8828125 90.51757812 C-75.77324219 89.77894531 -75.66367188 89.0403125 -75.55078125 88.27929688 C-72.68512729 69.94377111 -72.68512729 69.94377111 -69.5625 65.74023438 C-66.81604966 63.74107401 -64.3436347 63.98392762 -61.046875 64.10742188 C-58.8828125 64.51757812 -58.8828125 64.51757812 -56.3203125 66.58007812 C-52.96788252 73.4306959 -55.66465162 81.12088242 -57.2578125 88.20507812 C-57.47953125 89.23697266 -57.70125 90.26886719 -57.9296875 91.33203125 C-59.98202911 100.6339678 -59.98202911 100.6339678 -61.8828125 103.51757812 C-63.81884766 104.64257812 -63.81884766 104.64257812 -66.171875 105.51757812 C-67.46158203 106.01257813 -67.46158203 106.01257813 -68.77734375 106.51757812 C-69.67839844 106.84757812 -70.57945313 107.17757812 -71.5078125 107.51757812 C-73.27212643 108.18081508 -75.03516747 108.84744866 -76.796875 109.51757812 C-77.65700195 109.84242187 -78.51712891 110.16726562 -79.40332031 110.50195312 C-81.7496192 111.46302081 -83.92774993 112.56263949 -86.15625 113.76757812 C-89.62659961 115.51756859 -91.94494816 116.25020405 -95.8828125 115.51757812 C-98.83749486 114.08358012 -101.53110247 112.34195916 -104.2578125 110.51757812 C-104.99386719 110.040625 -105.72992188 109.56367187 -106.48828125 109.07226562 C-108.29437739 107.89947592 -110.08971044 106.71014006 -111.8828125 105.51757812 C-113.01176126 106.45031922 -114.13582126 107.38897935 -115.2578125 108.33007812 C-115.88429687 108.85214844 -116.51078125 109.37421875 -117.15625 109.91210938 C-119.1049173 111.59983552 -119.1049173 111.59983552 -120.8828125 114.51757812 C-120.1609375 115.60296875 -119.4390625 116.68835938 -118.6953125 117.80664062 C-117.7570987 119.25148987 -116.81963808 120.69682838 -115.8828125 122.14257812 C-115.40585938 122.85542969 -114.92890625 123.56828125 -114.4375 124.30273438 C-111.75113412 128.48578982 -109.98539572 131.40024734 -110.8828125 136.51757812 C-111.86160033 138.98006162 -112.86872049 141.23535825 -114.0703125 143.58007812 C-116.55555622 148.57172717 -118.58209075 153.45171503 -120.3203125 158.76757812 C-122.3338466 164.04665149 -122.3338466 164.04665149 -124.4765625 165.88476562 C-126.62537194 166.76796273 -128.58537416 167.14588163 -130.8828125 167.51757812 C-133.38282691 168.08001409 -135.88282601 168.6425181 -138.3828125 169.20507812 C-140.54824864 169.64862859 -142.71452482 170.08818408 -144.8828125 170.51757812 C-144.8828125 174.47757813 -144.8828125 178.43757812 -144.8828125 182.51757812 C-143.62984375 182.783125 -142.376875 183.04867187 -141.0859375 183.32226562 C-139.43483476 183.67875372 -137.78379643 184.03554019 -136.1328125 184.39257812 C-135.3078125 184.56660156 -134.4828125 184.740625 -133.6328125 184.91992188 C-132.83359375 185.09394531 -132.034375 185.26796875 -131.2109375 185.44726562 C-130.4777832 185.60437012 -129.74462891 185.76147461 -128.98925781 185.92333984 C-123.48857535 187.47510863 -123.48857535 187.47510863 -121.7578125 190.45361328 C-121.4690625 191.2301123 -121.1803125 192.00661133 -120.8828125 192.80664062 C-120.3878125 194.09634766 -120.3878125 194.09634766 -119.8828125 195.41210938 C-119.5528125 196.31316406 -119.2228125 197.21421875 -118.8828125 198.14257812 C-118.21957555 199.90689206 -117.55294196 201.6699331 -116.8828125 203.43164062 C-116.55796875 204.29176758 -116.233125 205.15189453 -115.8984375 206.03808594 C-114.93736982 208.38438483 -113.83775114 210.56251556 -112.6328125 212.79101562 C-110.88282204 216.26136524 -110.15018658 218.57971379 -110.8828125 222.51757812 C-112.3168105 225.47226049 -114.05843147 228.1658681 -115.8828125 230.89257812 C-116.59824219 231.99666016 -116.59824219 231.99666016 -117.328125 233.12304688 C-118.5009147 234.92914302 -119.69025056 236.72447607 -120.8828125 238.51757812 C-119.95007141 239.64652689 -119.01141128 240.77058688 -118.0703125 241.89257812 C-117.54824219 242.5190625 -117.02617188 243.14554688 -116.48828125 243.79101562 C-114.80055511 245.73968292 -114.80055511 245.73968292 -111.8828125 247.51757812 C-110.79742187 246.79570312 -109.71203125 246.07382812 -108.59375 245.33007812 C-107.14890075 244.39186433 -105.70356224 243.4544037 -104.2578125 242.51757812 C-103.18853516 241.80214844 -103.18853516 241.80214844 -102.09765625 241.07226562 C-97.91468939 238.38595663 -94.9992472 236.61588336 -89.8828125 237.51757812 C-87.38004554 238.51756133 -85.08097146 239.54646203 -82.6953125 240.76757812 C-77.27904711 243.44325204 -71.95925436 245.66991342 -66.15234375 247.40039062 C-63.05128757 248.92690021 -61.74495682 250.61375912 -59.8828125 253.51757812 C-58.8359375 256.89257812 -58.8359375 256.89257812 -58.1328125 260.51757812 C-57.89046875 261.71382813 -57.648125 262.91007812 -57.3984375 264.14257812 C-56.95973016 267.01411705 -56.77318367 269.62337693 -56.8828125 272.51757812 C-54.5728125 272.51757812 -52.2628125 272.51757812 -49.8828125 272.51757812 C-49.8828125 256.67757813 -49.8828125 240.83757812 -49.8828125 224.51757812 C-53.1828125 224.51757812 -56.4828125 224.51757812 -59.8828125 224.51757812 C-72.27648448 222.11928343 -83.2306335 214.40929974 -90.5390625 204.20507812 C-98.60372399 191.55462874 -99.89005469 177.55741016 -97.2265625 162.90820312 C-93.84972767 151.67149412 -86.3858784 142.85342707 -77.4453125 135.51757812 C-73.48736817 133.97301448 -71.01997028 134.51665286 -66.8828125 135.51757812 C-63.94225879 137.81488571 -63.86929501 139.58516556 -63.1328125 143.26757812 C-63.23119987 146.23013111 -63.64716164 147.26356486 -65.6875 149.46289062 C-67.27229778 150.78088744 -68.87209352 152.08100386 -70.484375 153.36523438 C-75.6605301 158.01028561 -79.60440989 164.75229698 -80.12109375 171.74023438 C-80.30922117 181.47335284 -79.15313904 188.51590224 -73.7578125 196.76757812 C-68.17236751 202.11017768 -62.82748206 205.2761697 -55.18994141 206.59863281 C-54.19684967 206.77255554 -53.20375793 206.94647827 -52.18057251 207.12567139 C-51.42231171 207.25500061 -50.6640509 207.38432983 -49.8828125 207.51757812 C-49.88649967 206.62066096 -49.89018684 205.7237438 -49.89398575 204.79964733 C-49.98242846 182.94808861 -50.04856672 161.09656086 -50.09006119 139.24486065 C-50.11066238 128.67741647 -50.13873623 118.11009196 -50.18457031 107.54272461 C-50.22451291 98.32926612 -50.25026307 89.11589434 -50.25916648 79.90235168 C-50.26436866 75.02648895 -50.27654462 70.15087421 -50.30573273 65.27509117 C-50.33301921 60.67944126 -50.3412309 56.0841399 -50.33524323 51.48841667 C-50.33633757 49.80789542 -50.34421231 48.1273617 -50.3596344 46.44691086 C-50.47920671 32.73757836 -48.68886327 21.78965903 -38.8828125 11.51757812 C-27.34370938 0.50198819 -15.1038073 -0.0729149 0 0 Z M-26.51171875 24.15820312 C-32.88319583 31.22056327 -34.00596959 38.08508887 -34.01144695 47.47767353 C-34.01319999 48.1572497 -34.01495303 48.83682587 -34.01675919 49.53699526 C-34.02140875 51.81271401 -34.01895638 54.08836858 -34.01652527 56.36408997 C-34.01839377 58.01277474 -34.02069462 59.66145907 -34.02339059 61.3101427 C-34.02951019 65.83984566 -34.02937481 70.36953017 -34.02819622 74.89923632 C-34.02799225 79.78483212 -34.03351056 84.67042198 -34.03825378 89.55601501 C-34.04656173 99.12745278 -34.04930869 108.69888439 -34.04986616 118.27032546 C-34.05034125 126.0499504 -34.05239561 133.82957332 -34.05556679 141.60919762 C-34.06437369 163.66317015 -34.0689861 185.71713782 -34.06823631 207.77111212 C-34.06819636 208.96015342 -34.0681564 210.14919472 -34.06811523 211.37426758 C-34.06807435 212.56475968 -34.06803347 213.75525179 -34.06799135 214.98181941 C-34.06758485 234.27794773 -34.07715532 253.57405654 -34.0912536 272.87017921 C-34.10561355 292.68066141 -34.112524 312.49113408 -34.11165982 332.30162162 C-34.11132773 343.42476614 -34.11408041 354.54789021 -34.12483788 365.67103004 C-34.13393784 375.14104958 -34.13612226 384.61103939 -34.12932845 394.0810614 C-34.12606073 398.91249961 -34.12601568 403.74388077 -34.1346817 408.57531357 C-34.14253641 412.99994126 -34.14112577 417.42446656 -34.13239757 421.84909173 C-34.13086032 423.44798567 -34.13268721 425.04688722 -34.13825765 426.6457722 C-34.47072082 442.04138062 -34.47072082 442.04138062 -27.8828125 455.51757812 C-20.27172304 463.07430266 -13.1775379 464.63737116 -2.54020691 464.65129089 C-1.82272524 464.65355645 -1.10524356 464.65582201 -0.36602002 464.65815622 C2.02659244 464.66446196 4.41914775 464.66366906 6.81176758 464.6628418 C8.53201877 464.66583543 10.25226928 464.66923844 11.97251892 464.67301941 C16.63791198 464.68184297 21.3032867 464.68419684 25.9686873 464.6848352 C28.88580595 464.68554665 31.80291996 464.68768279 34.72003746 464.69033241 C44.90361196 464.69958052 55.08717339 464.70366798 65.27075195 464.70288086 C74.75239932 464.70228027 84.23398976 464.71282986 93.71562272 464.72862452 C101.86528885 464.74171496 110.0149364 464.74706412 118.16461295 464.74642545 C123.02793771 464.7461709 127.89121188 464.74899849 132.75452614 464.7596035 C137.33049068 464.76930973 141.9063565 464.76934637 146.4823246 464.76208687 C148.15722295 464.76104415 149.83212753 464.76338525 151.50701523 464.76944733 C167.27246087 465.17645822 167.27246087 465.17645822 181.1171875 458.51757812 C188.5486956 451.03260594 190.23971194 444.03493072 190.24582195 433.55748272 C190.24845151 432.53811846 190.24845151 432.53811846 190.25113419 431.49816099 C190.25578375 429.22244224 190.25333138 426.94678767 190.25090027 424.67106628 C190.25276877 423.02238151 190.25506962 421.37369718 190.25776559 419.72501355 C190.26388519 415.19531059 190.26374981 410.66562608 190.26257122 406.13591993 C190.26236725 401.25032413 190.26788556 396.36473427 190.27262878 391.47914124 C190.28093673 381.90770347 190.28368369 372.33627186 190.28424116 362.76483079 C190.28471625 354.98520585 190.28677061 347.20558293 190.28994179 339.42595863 C190.29874869 317.3719861 190.3033611 295.31801843 190.30261131 273.26404413 C190.30257136 272.07500283 190.3025314 270.88596153 190.30249023 269.66088867 C190.30242891 267.87515051 190.30242891 267.87515051 190.30236635 266.05333684 C190.30195985 246.75720852 190.31153032 227.46109971 190.3256286 208.16497704 C190.33998855 188.35449484 190.346899 168.54402217 190.34603482 148.73353463 C190.34570273 137.61039011 190.34845541 126.48726604 190.35921288 115.36412621 C190.36831284 105.89410667 190.37049726 96.42411686 190.36370345 86.95409485 C190.36043573 82.12265664 190.36039068 77.29127548 190.3690567 72.45984268 C190.37691141 68.03521499 190.37550077 63.61068969 190.36677257 59.18606452 C190.36523532 57.58717058 190.36706221 55.98826903 190.37263265 54.38938405 C190.70509582 38.99377563 190.70509582 38.99377563 184.1171875 25.51757812 C176.50609804 17.96085359 169.4119129 16.39778509 158.77458191 16.38386536 C157.6983594 16.38046702 157.6983594 16.38046702 156.60039502 16.37700003 C154.20778256 16.37069429 151.81522725 16.37148719 149.42260742 16.37231445 C147.70235623 16.36932082 145.98210572 16.36591781 144.26185608 16.36213684 C139.59646302 16.35331328 134.9310883 16.35095941 130.2656877 16.35032105 C127.34856905 16.3496096 124.43145504 16.34747346 121.51433754 16.34482384 C111.33076304 16.33557573 101.14720161 16.33148827 90.96362305 16.33227539 C81.48197568 16.33287598 72.00038524 16.32232639 62.51875228 16.30653173 C54.36908615 16.29344129 46.2194386 16.28809213 38.06976205 16.2887308 C33.20643729 16.28898535 28.34316312 16.28615776 23.47984886 16.27555275 C18.90388432 16.26584652 14.3280185 16.26580988 9.7520504 16.27306938 C8.07715205 16.2741121 6.40224747 16.271771 4.72735977 16.26570892 C-12.26415199 15.85775119 -12.26415199 15.85775119 -26.51171875 24.15820312 Z " fill="#000000" transform="translate(177.8828125,15.482421875)"/>
<path d="M0 0 C8.24404715 2.1727606 16.25008216 13.55055944 22.18701172 19.50805664 C24.05688073 21.38334485 25.93211219 23.25315387 27.80786133 25.12255859 C28.99893781 26.31429487 30.18970461 27.50634077 31.38012695 28.69873047 C31.94046127 29.25704056 32.50079559 29.81535065 33.07810974 30.39057922 C36.46242495 33.79562237 37.93916125 35.36794005 38.6027832 40.17919922 C38.38204288 49.52387298 25.44245029 58.36663097 19.14892578 64.63842773 C17.27363757 66.50829675 15.40382855 68.38352821 13.53442383 70.25927734 C12.34268755 71.45035383 11.15064165 72.64112062 9.95825195 73.83154297 C9.39994186 74.39187729 8.84163177 74.95221161 8.2664032 75.52952576 C3.3088111 80.4569389 3.3088111 80.4569389 -1.7722168 80.86669922 C-4.72690332 80.80760549 -5.78780073 80.61984886 -8.3972168 79.05419922 C-10.09149394 76.23040398 -10.6496369 73.97544371 -10.46655273 70.67236328 C-9.77495886 68.09934935 -8.77086443 66.8747084 -6.9753418 64.91357422 C-6.02534302 63.87475098 -6.02534302 63.87475098 -5.05615234 62.81494141 C-1.08949189 58.66122934 2.95904552 54.59509007 7.0402832 50.55419922 C7.91491211 49.68408203 8.78954102 48.81396484 9.69067383 47.91748047 C11.8257577 45.79406372 13.96315526 43.67303544 16.1027832 41.55419922 C14.52482405 37.66376289 11.86723939 35.07724554 8.91137695 32.20263672 C8.40606949 31.70253082 7.90076202 31.20242493 7.38014221 30.68716431 C5.77155236 29.09632979 4.15641501 27.51236838 2.5402832 25.92919922 C0.92148083 24.33802146 -0.69583501 22.74540221 -2.31028748 21.14981079 C-3.31362107 20.15872824 -4.31961588 19.17033114 -5.32850647 18.18490601 C-8.72933161 14.83300844 -9.81688916 13.55026188 -10.2097168 8.67919922 C-10.15062307 5.72451269 -9.96286644 4.66361529 -8.3972168 2.05419922 C-5.56539602 0.35510675 -3.31201269 -0.20561216 0 0 Z " fill="#000000" transform="translate(297.897216796875,215.44580078125)"/>
<path d="M0 0 C2.5 1.5 2.5 1.5 4 4 C4.73267975 7.99643501 5.09228064 10.41410074 2.75097656 13.81347656 C1.92291504 14.71791504 1.92291504 14.71791504 1.078125 15.640625 C0.44479248 16.33317383 -0.18854004 17.02572266 -0.84106445 17.73925781 C-4.80772491 21.89296988 -8.85626231 25.95910915 -12.9375 30 C-13.81212891 30.87011719 -14.68675781 31.74023438 -15.58789062 32.63671875 C-17.72297449 34.76013549 -19.86037205 36.88116378 -22 39 C-20.42204085 42.89043633 -17.76445619 45.47695368 -14.80859375 48.3515625 C-14.30328629 48.8516684 -13.79797882 49.35177429 -13.27735901 49.86703491 C-11.66876916 51.45786943 -10.05363181 53.04183084 -8.4375 54.625 C-6.81869762 56.21617776 -5.20138179 57.80879701 -3.58692932 59.40438843 C-2.58359573 60.39547098 -1.57760092 61.38386808 -0.56871033 62.36929321 C2.83211482 65.72119078 3.91967237 67.00393734 4.3125 71.875 C4.25340627 74.82968653 4.06564964 75.89058393 2.5 78.5 C-0.33182078 80.19909247 -2.58520411 80.75981138 -5.8972168 80.55419922 C-14.14126394 78.38143862 -22.14729896 67.00363978 -28.08422852 61.04614258 C-29.95409753 59.17085437 -31.82932899 57.30104535 -33.70507812 55.43164062 C-34.89615461 54.23990435 -36.0869214 53.04785845 -37.27734375 51.85546875 C-37.83767807 51.29715866 -38.39801239 50.73884857 -38.97532654 50.16362 C-42.35964175 46.75857685 -43.83637805 45.18625917 -44.5 40.375 C-44.27925967 31.03032624 -31.33966708 22.18756825 -25.04614258 15.91577148 C-23.17085437 14.04590247 -21.30104535 12.17067101 -19.43164062 10.29492188 C-18.23990435 9.10384539 -17.04785845 7.9130786 -15.85546875 6.72265625 C-15.29715866 6.16232193 -14.73884857 5.60198761 -14.16362 5.02467346 C-9.57570617 0.4646882 -6.54547604 -0.89256491 0 0 Z " fill="#000000" transform="translate(220,216)"/>
<path d="M0 0 C1.90625 0.37109375 1.90625 0.37109375 4.40625 1.80859375 C8.84148212 9.38544862 4.56369912 20.02219614 2.546875 27.890625 C2.19720501 29.28052204 1.84807295 30.67055451 1.49945068 32.06071472 C0.77013029 34.95795292 0.03284517 37.85301738 -0.70996094 40.74682617 C-1.65938318 44.44916458 -2.58614834 48.15675557 -3.50680161 51.86633778 C-4.22098804 54.73165003 -4.94823546 57.59352473 -5.67932892 60.45456505 C-6.02648675 61.82057968 -6.36933061 63.18769844 -6.70769501 64.55591774 C-7.18194575 66.46621369 -7.67601503 68.37155627 -8.17089844 70.27661133 C-8.44625427 71.35977127 -8.72161011 72.44293121 -9.00531006 73.55891418 C-10.21564551 76.68603265 -11.52202457 78.25157531 -14.09375 80.37109375 C-17.93810972 81.3922518 -21.17648462 80.89852134 -24.59375 78.93359375 C-29.02898212 71.35673888 -24.75119912 60.71999136 -22.734375 52.8515625 C-22.38470501 51.46166546 -22.03557295 50.07163299 -21.68695068 48.68147278 C-20.95763029 45.78423458 -20.22034517 42.88917012 -19.47753906 39.99536133 C-18.52811682 36.29302292 -17.60135166 32.58543193 -16.68069839 28.87584972 C-15.96651196 26.01053747 -15.23926454 23.14866277 -14.50817108 20.28762245 C-14.16101325 18.92160782 -13.81816939 17.55448906 -13.47980499 16.18626976 C-13.00555425 14.27597381 -12.51148497 12.37063123 -12.01660156 10.46557617 C-11.74124573 9.38241623 -11.46588989 8.29925629 -11.18218994 7.18327332 C-8.94885889 1.41306247 -5.90632798 -0.36363586 0 0 Z " fill="#000000" transform="translate(266.09375,215.62890625)"/>
<path d="M0 0 C1.10794922 -0.01260864 2.21589844 -0.02521729 3.35742188 -0.03820801 C4.54916016 -0.03011108 5.74089844 -0.02201416 6.96875 -0.01367188 C8.19658203 -0.01749878 9.42441406 -0.02132568 10.68945312 -0.02526855 C13.28516459 -0.02799029 15.88090336 -0.02061099 18.4765625 -0.00390625 C22.45374599 0.01749738 26.42912282 -0.0037015 30.40625 -0.02929688 C32.92708733 -0.02665365 35.44792353 -0.02152878 37.96875 -0.01367188 C39.16048828 -0.0217688 40.35222656 -0.02986572 41.58007812 -0.03820801 C43.24200195 -0.01929504 43.24200195 -0.01929504 44.9375 0 C45.91138672 0.00318237 46.88527344 0.00636475 47.88867188 0.00964355 C51.19021681 0.65961178 52.38452655 1.93295409 54.46875 4.51757812 C55 6.51757812 55 6.51757812 54.96875 8.51757812 C54.98421875 9.50757813 54.98421875 9.50757813 55 10.51757812 C54.2245785 13.43681202 52.78007479 14.6111988 50.46875 16.51757812 C47.88867188 17.0255127 47.88867188 17.0255127 44.9375 17.03515625 C43.82955078 17.04776489 42.72160156 17.06037354 41.58007812 17.07336426 C40.38833984 17.06526733 39.19660156 17.05717041 37.96875 17.04882812 C36.12700195 17.05456848 36.12700195 17.05456848 34.24804688 17.0604248 C31.65233541 17.06314654 29.05659664 17.05576724 26.4609375 17.0390625 C22.48375401 17.01765887 18.50837718 17.03885775 14.53125 17.06445312 C12.01041267 17.0618099 9.48957647 17.05668503 6.96875 17.04882812 C5.77701172 17.05692505 4.58527344 17.06502197 3.35742188 17.07336426 C1.69549805 17.05445129 1.69549805 17.05445129 0 17.03515625 C-0.97388672 17.03197388 -1.94777344 17.0287915 -2.95117188 17.0255127 C-6.25271681 16.37554447 -7.44702655 15.10220216 -9.53125 12.51757812 C-10.0625 10.51757812 -10.0625 10.51757812 -10.03125 8.51757812 C-10.04671875 7.52757812 -10.04671875 7.52757812 -10.0625 6.51757812 C-8.67664018 1.3002235 -4.95665502 0.01619688 0 0 Z " fill="#000000" transform="translate(233.53125,47.482421875)"/>
<path d="M0 0 C2.875 1.4375 2.875 1.4375 5 4 C5.91181761 8.32122258 5.80084338 11.76793326 3.375 15.5 C0.43125008 17.35921047 -1.51270927 17.9288308 -5 18 C-7.32731556 16.86220128 -9.16840714 15.83159286 -11 14 C-11.4311661 10.6184259 -11.47253855 7.3775767 -11 4 C-7.81276081 0.06282218 -4.96287606 -0.82714601 0 0 Z " fill="#000000" transform="translate(91,414)"/>
<path d="M0 0 C2.875 1.4375 2.875 1.4375 5 4 C5.91181761 8.32122258 5.80084338 11.76793326 3.375 15.5 C0.43125008 17.35921047 -1.51270927 17.9288308 -5 18 C-7.32731556 16.86220128 -9.16840714 15.83159286 -11 14 C-11.4311661 10.6184259 -11.47253855 7.3775767 -11 4 C-7.81276081 0.06282218 -4.96287606 -0.82714601 0 0 Z " fill="#000000" transform="translate(91,382)"/>
<path d="M0 0 C2.875 1.4375 2.875 1.4375 5 4 C5.91181761 8.32122258 5.80084338 11.76793326 3.375 15.5 C0.43125008 17.35921047 -1.51270927 17.9288308 -5 18 C-7.32731556 16.86220128 -9.16840714 15.83159286 -11 14 C-11.4311661 10.6184259 -11.47253855 7.3775767 -11 4 C-7.81276081 0.06282218 -4.96287606 -0.82714601 0 0 Z " fill="#000000" transform="translate(91,350)"/>
<path d="M0 0 C2.5 1.5 2.5 1.5 4 4 C4.58651804 8.61882953 4.57342659 10.85314682 2.5 15 C-0.54178658 17.43342926 -2.21678629 17.52786271 -6 17.46875 C-8.66677058 16.84372564 -10.06095306 15.93479464 -12 14 C-13.00769037 9.56171668 -12.75975802 5.32957653 -10.5 1.375 C-6.94404627 -0.58077455 -3.96588387 -0.78017388 0 0 Z " fill="#000000" transform="translate(428,144)"/>
<path d="M0 0 C2.5 1.5 2.5 1.5 4 4 C4.58651804 8.61882953 4.57342659 10.85314682 2.5 15 C-0.54178658 17.43342926 -2.21678629 17.52786271 -6 17.46875 C-8.66677058 16.84372564 -10.06095306 15.93479464 -12 14 C-13.00769037 9.56171668 -12.75975802 5.32957653 -10.5 1.375 C-6.94404627 -0.58077455 -3.96588387 -0.78017388 0 0 Z " fill="#000000" transform="translate(428,112)"/>
<path d="M0 0 C2.5 1.5 2.5 1.5 4 4 C4.58651804 8.61882953 4.57342659 10.85314682 2.5 15 C-0.54178658 17.43342926 -2.21678629 17.52786271 -6 17.46875 C-8.66677058 16.84372564 -10.06095306 15.93479464 -12 14 C-13.00769037 9.56171668 -12.75975802 5.32957653 -10.5 1.375 C-6.94404627 -0.58077455 -3.96588387 -0.78017388 0 0 Z " fill="#000000" transform="translate(428,80)"/>
</svg>
