<?xml version="1.0" encoding="UTF-8"?>
<svg version="1.1" xmlns="http://www.w3.org/2000/svg" width="512" height="512">
<path d="M0 0 C4.73157456 3.02316482 9.49400405 5.99681813 14.25634766 8.97119141 C15.25593506 9.59606445 16.25552246 10.2209375 17.28540039 10.86474609 C25.94218766 16.26863423 34.63576561 21.61184383 43.33276367 26.95068359 C50.40469028 31.29725356 57.43717226 35.7004084 64.44433594 40.15039062 C71.05341061 44.33805522 77.71344525 48.44048969 84.38134766 52.53369141 C95.8593599 59.58025552 107.29130283 66.69752736 118.70410156 73.84912109 C122.78291379 76.40312503 126.86551897 78.95103341 130.94824219 81.4987793 C133.94988727 83.37342958 136.94893656 85.25217826 139.94775391 87.13134766 C143.71540697 89.49081735 147.4942859 91.83042862 151.28369141 94.15478516 C153.00375284 95.21857211 154.72380541 96.28237341 156.44384766 97.34619141 C157.2241333 97.81887451 158.00441895 98.29155762 158.80834961 98.77856445 C163.55644375 101.7302547 167.13189394 104.59728397 169.69384766 109.72119141 C170.26416202 114.39589933 170.13226517 117.84435638 168.00634766 122.09619141 C165.1791192 125.30547776 162.94448393 127.45070024 158.54794312 127.97909546 C155.88688434 128.06849595 153.24277051 128.0581698 150.58056641 128.01416016 C149.61101517 128.00991531 148.64146393 128.00567047 147.64253235 128.001297 C144.55518466 127.98454541 141.46849704 127.9468993 138.38134766 127.90869141 C136.2843519 127.89364004 134.18734587 127.87995242 132.09033203 127.86767578 C126.95791743 127.83465333 121.82599434 127.78289488 116.69384766 127.72119141 C116.70384041 129.06423088 116.70384041 129.06423088 116.71403503 130.43440247 C116.77410665 138.8657899 116.81980194 147.29710562 116.84928417 155.72865772 C116.86495077 160.06358266 116.88620699 164.398331 116.92016602 168.7331543 C116.9527243 172.91527229 116.97069318 177.09722025 116.97847939 181.27945518 C116.98402927 182.87629562 116.99486672 184.47312659 117.01103783 186.06989479 C117.03276574 188.30388234 117.03581661 190.53716429 117.03442383 192.77124023 C117.04441658 194.67985588 117.04441658 194.67985588 117.05461121 196.62702942 C116.69384766 199.72119141 116.69384766 199.72119141 115.32099915 201.60087585 C113.04487535 203.16801751 111.46044856 203.58944851 108.69384766 203.72119141 C106.41066386 202.57959951 104.50372083 201.53106458 102.69384766 199.72119141 C102.59948236 197.48189255 102.57642438 195.23957391 102.58032227 192.99829102 C102.58017624 192.29588791 102.58003021 191.5934848 102.57987976 190.86979675 C102.58057893 188.53767862 102.58837149 186.20563941 102.59619141 183.87353516 C102.59805557 182.26070703 102.59947948 180.64787833 102.60047913 179.03504944 C102.60430443 174.78203783 102.61413481 170.52906017 102.62518311 166.27606201 C102.63539697 161.93941711 102.63997669 157.60276674 102.64501953 153.26611328 C102.65575707 144.75112198 102.67335396 136.23616482 102.69384766 127.72119141 C96.09384766 127.72119141 89.49384766 127.72119141 82.69384766 127.72119141 C82.70955811 129.88657471 82.72526855 132.05195801 82.74145508 134.28295898 C82.791129 141.43148045 82.82428781 148.58000948 82.84928417 155.72865772 C82.86495077 160.06358266 82.88620699 164.398331 82.92016602 168.7331543 C82.9527243 172.91527229 82.97069318 177.09722025 82.97847939 181.27945518 C82.98402927 182.87629562 82.99486672 184.47312659 83.01103783 186.06989479 C83.03276574 188.30388234 83.03581661 190.53716429 83.03442383 192.77124023 C83.04441658 194.67985588 83.04441658 194.67985588 83.05461121 196.62702942 C82.69384766 199.72119141 82.69384766 199.72119141 81.32099915 201.60087585 C79.04487535 203.16801751 77.46044856 203.58944851 74.69384766 203.72119141 C72.41066386 202.57959951 70.50372083 201.53106458 68.69384766 199.72119141 C68.59948236 197.48189255 68.57642438 195.23957391 68.58032227 192.99829102 C68.58017624 192.29588791 68.58003021 191.5934848 68.57987976 190.86979675 C68.58057893 188.53767862 68.58837149 186.20563941 68.59619141 183.87353516 C68.59805557 182.26070703 68.59947948 180.64787833 68.60047913 179.03504944 C68.60430443 174.78203783 68.61413481 170.52906017 68.62518311 166.27606201 C68.63719153 161.17747448 68.64179941 156.07887563 68.64763641 150.98027802 C68.65734656 143.22722551 68.67650301 135.47424754 68.69384766 127.72119141 C57.14384766 127.72119141 45.59384766 127.72119141 33.69384766 127.72119141 C33.72865234 132.71630859 33.76345703 137.71142578 33.79931641 142.85791016 C33.81464773 146.02523958 33.82908975 149.19252315 33.84033203 152.35986328 C33.85825517 157.38559488 33.87944265 162.41116227 33.92016602 167.43676758 C33.95279768 171.48921825 33.97070868 175.54149278 33.97847939 179.59406471 C33.98401608 181.13901351 33.994828 182.68395284 34.01103783 184.22882652 C34.03286332 186.39535618 34.03581254 188.56116104 34.03442383 190.7277832 C34.04441658 192.57644234 34.04441658 192.57644234 34.05461121 194.46244812 C33.6609493 198.0183592 32.85222933 199.8950933 30.69384766 202.72119141 C27.28337894 204.19598869 25.93308168 203.81320449 22.44384766 202.47119141 C19.69384766 200.72119141 19.69384766 200.72119141 18.69384766 197.72119141 C18.60404301 195.46720982 18.57627242 193.21060025 18.58032227 190.95483398 C18.58017624 190.27164597 18.58003021 189.58845795 18.57987976 188.88456726 C18.58057597 186.62825334 18.5883547 184.37202215 18.59619141 182.11572266 C18.59805662 180.55059352 18.59948004 178.98546379 18.60047913 177.42033386 C18.60429614 173.30215847 18.61411948 169.18401838 18.62518311 165.06585693 C18.63541475 160.86308266 18.63998051 156.66030267 18.64501953 152.45751953 C18.65574247 144.21205882 18.67333268 135.96663357 18.69384766 127.72119141 C12.42384766 127.72119141 6.15384766 127.72119141 -0.30615234 127.72119141 C-0.28258667 130.862677 -0.28258667 130.862677 -0.25854492 134.06762695 C-0.20880252 140.99261502 -0.1756848 147.91761104 -0.15071583 154.84273052 C-0.13506981 159.04083913 -0.11385114 163.23876445 -0.07983398 167.43676758 C-0.04720232 171.48921825 -0.02929132 175.54149278 -0.02152061 179.59406471 C-0.01598392 181.13901351 -0.005172 182.68395284 0.01103783 184.22882652 C0.03286332 186.39535618 0.03581254 188.56116104 0.03442383 190.7277832 C0.04441658 192.57644234 0.04441658 192.57644234 0.05461121 194.46244812 C-0.3390507 198.0183592 -1.14777067 199.8950933 -3.30615234 202.72119141 C-6.71662106 204.19598869 -8.06691832 203.81320449 -11.55615234 202.47119141 C-14.30615234 200.72119141 -14.30615234 200.72119141 -15.30615234 197.72119141 C-15.39595699 195.46720982 -15.42372758 193.21060025 -15.41967773 190.95483398 C-15.41982376 190.27164597 -15.41996979 189.58845795 -15.42012024 188.88456726 C-15.41942403 186.62825334 -15.4116453 184.37202215 -15.40380859 182.11572266 C-15.40194338 180.55059352 -15.40051996 178.98546379 -15.39952087 177.42033386 C-15.39570386 173.30215847 -15.38588052 169.18401838 -15.37481689 165.06585693 C-15.36278614 160.12407409 -15.35819665 155.18227944 -15.35236359 150.24048615 C-15.34266835 142.73403002 -15.32350609 135.22765134 -15.30615234 127.72119141 C-26.85615234 127.72119141 -38.40615234 127.72119141 -50.30615234 127.72119141 C-50.27134766 132.88388672 -50.23654297 138.04658203 -50.20068359 143.36572266 C-50.18535783 146.63331207 -50.17091622 149.90085727 -50.15966797 153.16845703 C-50.14172339 158.35678288 -50.1204784 163.54495015 -50.07983398 168.7331543 C-50.0472757 172.91527229 -50.02930682 177.09722025 -50.02152061 181.27945518 C-50.01597073 182.87629562 -50.00513328 184.47312659 -49.98896217 186.06989479 C-49.96723426 188.30388234 -49.96418339 190.53716429 -49.96557617 192.77124023 C-49.95558342 194.67985588 -49.95558342 194.67985588 -49.94538879 196.62702942 C-50.30615234 199.72119141 -50.30615234 199.72119141 -51.67900085 201.60087585 C-53.95512465 203.16801751 -55.53955144 203.58944851 -58.30615234 203.72119141 C-60.58933614 202.57959951 -62.49627917 201.53106458 -64.30615234 199.72119141 C-64.40051764 197.48189255 -64.42357562 195.23957391 -64.41967773 192.99829102 C-64.41982376 192.29588791 -64.41996979 191.5934848 -64.42012024 190.86979675 C-64.41942107 188.53767862 -64.41162851 186.20563941 -64.40380859 183.87353516 C-64.40194443 182.26070703 -64.40052052 180.64787833 -64.39952087 179.03504944 C-64.39569557 174.78203783 -64.38586519 170.52906017 -64.37481689 166.27606201 C-64.36460303 161.93941711 -64.36002331 157.60276674 -64.35498047 153.26611328 C-64.34424293 144.75112198 -64.32664604 136.23616482 -64.30615234 127.72119141 C-70.90615234 127.72119141 -77.50615234 127.72119141 -84.30615234 127.72119141 C-84.30615234 172.93119141 -84.30615234 218.14119141 -84.30615234 264.72119141 C-82.32615234 265.05119141 -80.34615234 265.38119141 -78.30615234 265.72119141 C-75.72624434 268.30109941 -75.99016397 270.22363602 -75.84521484 273.74853516 C-76.30615234 275.72119141 -76.30615234 275.72119141 -78.03245258 277.31998253 C-80.66239055 278.94072969 -82.0818584 279.10115774 -85.14628601 279.1131897 C-86.11796722 279.12428268 -87.08964844 279.13537567 -88.09077454 279.14680481 C-89.67984871 279.14229561 -89.67984871 279.14229561 -91.30102539 279.13769531 C-92.42166382 279.14628067 -93.54230225 279.15486603 -94.69689941 279.16371155 C-98.40395343 279.18882269 -102.11073973 279.19315455 -105.81787109 279.19775391 C-108.38809533 279.21205719 -110.95831187 279.22781297 -113.52851868 279.2449646 C-119.60457053 279.28258318 -125.68054825 279.30770288 -131.75668508 279.32608926 C-143.29325114 279.36149288 -154.82967199 279.42513752 -166.3660984 279.49094772 C-170.16469413 279.51011175 -173.96325838 279.52178865 -177.7618866 279.53237915 C-180.07441274 279.54258528 -182.38693822 279.55294269 -184.69946289 279.56347656 C-185.76491837 279.56451889 -186.83037384 279.56556122 -187.92811584 279.56663513 C-188.89133759 279.57208847 -189.85455933 279.57754181 -190.8469696 279.5831604 C-191.68890208 279.5857165 -192.53083456 279.58827259 -193.39828014 279.59090614 C-195.3159384 279.51188116 -195.3159384 279.51188116 -196.30615234 280.72119141 C-196.4058702 282.63577422 -196.43695823 284.55401458 -196.43896484 286.47119141 C-196.44025391 287.63650391 -196.44154297 288.80181641 -196.44287109 290.00244141 C-196.43707031 291.84322266 -196.43707031 291.84322266 -196.43115234 293.72119141 C-196.43501953 294.94837891 -196.43888672 296.17556641 -196.44287109 297.43994141 C-196.4409375 299.18791016 -196.4409375 299.18791016 -196.43896484 300.97119141 C-196.43727295 302.58767578 -196.43727295 302.58767578 -196.43554688 304.23681641 C-196.58707605 306.66339137 -196.58707605 306.66339137 -195.30615234 307.72119141 C-193.80757931 307.82254826 -192.30426662 307.85470889 -190.80227661 307.85922241 C-189.82919556 307.86467575 -188.8561145 307.87012909 -187.85354614 307.87574768 C-186.77716888 307.87679001 -185.70079163 307.87783234 -184.59179688 307.87890625 C-183.46505554 307.88398697 -182.33831421 307.88906769 -181.1774292 307.89430237 C-178.72142448 307.90503306 -176.26540982 307.91364257 -173.80939102 307.9204216 C-169.92706354 307.93216491 -166.04484961 307.95160532 -162.16256714 307.97354126 C-151.12111182 308.03531486 -140.07966739 308.08949108 -129.03808594 308.12255859 C-122.29359564 308.14284613 -115.54933812 308.17871538 -108.80495834 308.22331619 C-106.22849818 308.23751988 -103.65200168 308.24620841 -101.0755043 308.24937057 C-97.47654865 308.25425519 -93.87814184 308.27735064 -90.27929688 308.3046875 C-88.67080368 308.3001783 -88.67080368 308.3001783 -87.02981567 308.295578 C-86.05109497 308.30667099 -85.07237427 308.31776398 -84.06399536 308.32919312 C-82.78695582 308.33415833 -82.78695582 308.33415833 -81.48411751 308.33922386 C-78.78916251 308.81186014 -77.9043451 309.52481547 -76.30615234 311.72119141 C-75.84007654 315.3832156 -75.69306029 317.70752656 -77.63031006 320.9105072 C-81.96534276 323.84392943 -86.44171932 323.28538365 -91.55712891 323.25463867 C-92.70553757 323.26325424 -93.85394623 323.27186981 -95.03715515 323.28074646 C-98.8405907 323.3034825 -102.64329375 323.29665128 -106.44677734 323.28759766 C-109.08990702 323.29283106 -111.73303482 323.29910649 -114.37615967 323.30638123 C-119.9210943 323.31823336 -125.46582008 323.31253248 -131.01074219 323.29760742 C-137.40701855 323.2807125 -143.80261114 323.29648282 -150.19881272 323.3288303 C-156.36370182 323.35881973 -162.52827969 323.36069474 -168.69322968 323.35133171 C-171.31024819 323.35051225 -173.92728092 323.35737458 -176.54425812 323.37210274 C-180.20920752 323.38956076 -183.87270605 323.37499096 -187.53759766 323.35229492 C-188.61528915 323.36398712 -189.69298065 323.37567932 -190.80332947 323.38772583 C-197.48949118 323.30366587 -202.21161084 322.22994313 -207.30615234 317.72119141 C-211.08053608 313.26052097 -211.90478993 308.55234415 -211.83740234 302.84619141 C-211.84122925 302.11803223 -211.84505615 301.38987305 -211.84899902 300.63964844 C-211.85170388 299.11017462 -211.84444313 297.5806534 -211.82763672 296.05126953 C-211.80620259 293.72664043 -211.82748301 291.40510082 -211.85302734 289.08056641 C-211.85038381 287.585768 -211.84525829 286.0909715 -211.83740234 284.59619141 C-211.84549927 283.91057129 -211.85359619 283.22495117 -211.86193848 282.51855469 C-211.75823642 277.11014477 -210.2552134 274.09739221 -207.30615234 269.72119141 C-199.30952037 262.30967885 -195.0772779 264.72119141 -182.30615234 264.72119141 C-182.30615234 219.51119141 -182.30615234 174.30119141 -182.30615234 127.72119141 C-196.49615234 127.72119141 -210.68615234 127.72119141 -225.30615234 127.72119141 C-230.7220269 124.47166667 -233.5145018 122.51835667 -235.24365234 116.40869141 C-235.3227384 111.74261404 -234.83953506 108.66365268 -232.30615234 104.72119141 C-225.94347617 99.39919023 -218.46938872 95.28549087 -211.36865234 91.03369141 C-204.19876724 86.70589703 -197.05950929 82.34194671 -189.99365234 77.84619141 C-182.57685313 73.13174758 -175.10871531 68.50580496 -167.61865234 63.90869141 C-155.13849988 56.24703912 -142.71474313 48.49806068 -130.30615234 40.72119141 C-116.91762525 32.33016403 -103.50394573 23.98391699 -90.03955078 15.71508789 C-82.56750701 11.1226376 -75.11680659 6.49731482 -67.68115234 1.84619141 C-66.69276367 1.22856934 -65.704375 0.61094727 -64.68603516 -0.02539062 C-60.24496875 -2.8031111 -55.810253 -5.58978409 -51.39208984 -8.40380859 C-50.65168457 -8.87318848 -49.9112793 -9.34256836 -49.1484375 -9.82617188 C-47.80400335 -10.67926789 -46.46228312 -11.53666439 -45.12402344 -12.39941406 C-28.83267545 -22.71681862 -13.73012715 -8.81310091 0 0 Z M-38.34521484 0.69384766 C-39.90949219 1.66064453 -39.90949219 1.66064453 -41.50537109 2.64697266 C-42.64736308 3.35910816 -43.78928838 4.07135063 -44.93115234 4.78369141 C-46.11192316 5.51581519 -47.29291576 6.24758139 -48.47412109 6.97900391 C-57.08632923 12.31734826 -65.67535406 17.6932214 -74.26171875 23.07299805 C-81.58730346 27.65943543 -88.94093512 32.19871838 -96.30615234 36.72119141 C-108.68128201 44.32158508 -121.000554 52.00887086 -133.30615234 59.72119141 C-146.69106239 68.10995186 -160.10129819 76.45364319 -173.56176758 84.72070312 C-181.14075681 89.37917542 -188.69995367 94.06828854 -196.24365234 98.78369141 C-197.195625 99.37859375 -198.14759766 99.97349609 -199.12841797 100.58642578 C-200.9426016 101.72205096 -202.75563338 102.85951881 -204.56738281 103.99902344 C-206.5220979 105.22816947 -208.47978891 106.45258811 -210.43945312 107.67382812 C-211.44862793 108.30691895 -212.45780273 108.94000977 -213.49755859 109.59228516 C-214.41867432 110.167771 -215.33979004 110.74325684 -216.28881836 111.33618164 C-216.95453857 111.79323486 -217.62025879 112.25028809 -218.30615234 112.72119141 C-218.30615234 113.05119141 -218.30615234 113.38119141 -218.30615234 113.72119141 C-95.54615234 113.72119141 27.21384766 113.72119141 153.69384766 113.72119141 C150.38811835 111.07660796 147.41343728 108.8136718 143.86962891 106.61181641 C142.93699219 106.03044922 142.00435547 105.44908203 141.04345703 104.85009766 C139.54008789 103.92003906 139.54008789 103.92003906 138.00634766 102.97119141 C136.95125 102.31505859 135.89615234 101.65892578 134.80908203 100.98291016 C126.03055011 95.53059864 117.22680324 90.11913437 108.42089844 84.71118164 C100.04877475 79.56626973 91.70939939 74.3706613 83.38134766 69.15478516 C76.99742578 65.15745494 70.60151753 61.18033301 64.19384766 57.22119141 C56.78235487 52.64181232 49.38984126 48.03306788 42.00634766 43.40869141 C33.48991609 38.07546878 24.94520484 32.79039601 16.38134766 27.53369141 C8.7492174 22.84796823 1.1352743 18.13737537 -6.43115234 13.34619141 C-7.18364258 12.86996338 -7.93613281 12.39373535 -8.71142578 11.90307617 C-11.68612929 10.01890132 -14.65960318 8.13284174 -17.62988281 6.24169922 C-19.87365311 4.81423034 -22.12083854 3.39228156 -24.36865234 1.97119141 C-25.04234863 1.54016113 -25.71604492 1.10913086 -26.41015625 0.66503906 C-31.86091207 -2.77177144 -32.95780438 -2.65043403 -38.34521484 0.69384766 Z M-167.30615234 127.72119141 C-167.30615234 172.93119141 -167.30615234 218.14119141 -167.30615234 264.72119141 C-161.03615234 264.72119141 -154.76615234 264.72119141 -148.30615234 264.72119141 C-148.30615234 219.51119141 -148.30615234 174.30119141 -148.30615234 127.72119141 C-154.57615234 127.72119141 -160.84615234 127.72119141 -167.30615234 127.72119141 Z M-133.30615234 127.72119141 C-133.30615234 172.93119141 -133.30615234 218.14119141 -133.30615234 264.72119141 C-121.75615234 264.72119141 -110.20615234 264.72119141 -98.30615234 264.72119141 C-98.30615234 219.51119141 -98.30615234 174.30119141 -98.30615234 127.72119141 C-109.85615234 127.72119141 -121.40615234 127.72119141 -133.30615234 127.72119141 Z " fill="#000000" transform="translate(314.30615234375,72.27880859375)"/>
<path d="M0 0 C1.15735671 -0.00573832 1.15735671 -0.00573832 2.33809435 -0.01159257 C4.90186901 -0.0218422 7.46541633 -0.01794584 10.02920532 -0.01396179 C11.87620753 -0.01831273 13.72320794 -0.02349715 15.57020569 -0.02944946 C20.57233042 -0.0428098 25.57437945 -0.04342142 30.57651854 -0.04088616 C34.75879096 -0.03981442 38.9410482 -0.04470505 43.12331736 -0.04949158 C52.99348825 -0.06057657 62.86362107 -0.06102988 72.73379517 -0.05497742 C82.90168357 -0.04893807 93.06943358 -0.06124999 103.23729837 -0.08254749 C111.98065234 -0.10018495 120.72396234 -0.10616145 129.46733344 -0.10290974 C134.6833527 -0.10110013 139.89927324 -0.10370091 145.11527634 -0.11762428 C150.02208421 -0.13023287 154.92867693 -0.12822987 159.83548164 -0.11521339 C161.63090272 -0.11285464 163.42633909 -0.11555702 165.22174263 -0.12383652 C180.29305287 -0.18829822 193.377011 1.67037928 204.93008423 12.26069641 C208.01833876 15.41913854 209.72511833 17.57345782 210.99258423 21.82319641 C210.93008423 25.26069641 210.93008423 25.26069641 209.36758423 28.19819641 C206.93008423 30.26069641 206.93008423 30.26069641 203.99258423 30.82319641 C199.17379247 29.93811221 196.83109742 27.18481251 193.49258423 23.76069641 C185.04413055 15.51830257 176.16426333 14.97314359 164.93008423 14.63569641 C163.33873657 14.5776886 163.33873657 14.5776886 161.71524048 14.51850891 C159.12035355 14.42499947 156.52545973 14.33924739 153.93008423 14.26069641 C153.74470093 14.89918518 153.55931763 15.53767395 153.36831665 16.19551086 C146.48103495 39.58607297 146.48103495 39.58607297 135.06289673 46.37007141 C129.95244349 48.50410683 124.48767743 48.40942319 119.03213501 48.40596008 C118.26382355 48.4093187 117.49551208 48.41267731 116.70391846 48.4161377 C114.17772786 48.42559436 111.6516039 48.42758809 109.12539673 48.42866516 C107.35951714 48.43188125 105.59363782 48.43524559 103.82775879 48.43875122 C100.13090396 48.44472915 96.43407246 48.44659248 92.73721313 48.44599915 C88.01420557 48.44589756 83.29134847 48.45955184 78.56837654 48.47677135 C74.92225464 48.48792207 71.27616878 48.48991741 67.63003159 48.48938942 C65.88941809 48.49056482 64.14880353 48.49496177 62.40820694 48.50272179 C59.96763997 48.51258456 57.52739533 48.50961913 55.08682251 48.50361633 C54.3769519 48.50923584 53.6670813 48.51485535 52.93569946 48.52064514 C44.61365094 48.46896657 37.60063089 46.76846262 31.47305298 40.85444641 C26.18406452 34.71419596 19.93008423 22.5480551 19.93008423 14.26069641 C15.99156047 14.31330076 12.05510962 14.40853839 8.11758423 14.51069641 C7.01736938 14.5248761 5.91715454 14.53905579 4.78359985 14.55366516 C-5.64393794 14.86126215 -14.68861072 16.9780621 -22.41366577 24.32319641 C-27.41139119 30.16959219 -29.19325624 36.46192503 -29.20413685 44.03905678 C-29.20648908 44.7354319 -29.20884131 45.43180702 -29.21126482 46.14928442 C-29.21796137 48.5002088 -29.2174964 50.85107799 -29.21708679 53.20201111 C-29.22038501 54.89760465 -29.22411049 56.5931974 -29.22822827 58.28878915 C-29.23826122 62.96208517 -29.24196715 67.63536835 -29.24461758 72.30867362 C-29.24851682 77.34361045 -29.25809544 82.37853708 -29.26683044 87.41346741 C-29.28660595 99.57995813 -29.29666258 111.7464497 -29.30555823 123.91295248 C-29.30993948 129.63992496 -29.31530672 135.36689651 -29.3205471 141.09386826 C-29.3375607 160.12763337 -29.35205528 179.1613979 -29.35929585 198.19516945 C-29.3612058 203.13611985 -29.36312612 208.07707025 -29.36508179 213.01802063 C-29.36556553 214.24609662 -29.36604927 215.4741726 -29.36654767 216.73946302 C-29.37484943 236.63718941 -29.40018825 256.53485572 -29.43266246 276.43255587 C-29.46571881 296.85314961 -29.48374333 317.27371279 -29.48694009 337.69433343 C-29.48910653 349.16296067 -29.4978749 360.63150028 -29.52340126 372.10010147 C-29.54508881 381.86665603 -29.55316826 391.63310169 -29.54343448 401.39967759 C-29.53888411 406.38305427 -29.54081885 411.36620618 -29.56019592 416.34955215 C-29.57778773 420.9131748 -29.57686223 425.47640803 -29.56129863 430.04003458 C-29.5589165 431.68949319 -29.56327745 433.33897848 -29.57512728 434.98839624 C-29.65465488 446.79079273 -28.35078712 455.57508775 -20.06991577 464.53413391 C-13.66404065 470.06420579 -5.93822885 471.41142968 2.25323486 471.40113831 C2.99280343 471.40410943 3.732372 471.40708055 4.49435174 471.41014171 C6.9737545 471.41881655 9.4531089 471.42033594 11.93252563 471.42182922 C13.70997216 471.42645835 15.48741769 471.43148314 17.26486206 471.43687439 C22.09572071 471.44999351 26.92656546 471.4564427 31.75743914 471.46088505 C34.77740573 471.46381729 37.79736854 471.46792245 40.81733322 471.47238922 C50.27121037 471.48606448 59.72507886 471.49573031 69.17896521 471.49959111 C80.08203748 471.50406843 90.98498416 471.52160105 101.88801825 471.55059171 C110.32130902 471.57223464 118.75456454 471.58229683 127.18788278 471.58363223 C132.22176655 471.58467863 137.25553228 471.5905509 142.28938675 471.60845184 C147.0286931 471.62497709 151.76779326 471.62706644 156.50711823 471.61831284 C158.24126362 471.61754477 159.9754203 471.62185458 161.70953751 471.63177109 C174.12005742 471.69854572 185.58512128 471.5013629 194.93008423 462.26069641 C197.94636181 458.46678476 199.92792652 454.49589361 201.55508423 449.94819641 C202.8037369 446.59953697 203.29183204 445.40226053 205.93008423 443.26069641 C209.52359098 442.72549328 211.24889971 442.8125487 214.30508423 444.82319641 C216.61551677 448.28884522 216.46338782 450.12759354 215.93008423 454.26069641 C212.53556442 465.95081238 204.7829649 475.90875706 194.08242798 481.83882141 C186.99162986 485.15994893 181.06780908 486.40989417 173.24111938 486.40786743 C172.47422822 486.41154412 171.70733706 486.41522081 170.91720676 486.41900891 C168.35117991 486.43000897 165.7851936 486.43388337 163.21914673 486.43769836 C161.37745537 486.44396593 159.53576527 486.45061299 157.69407654 486.45761108 C151.64775468 486.47862385 145.60143265 486.48901277 139.55508423 486.49897766 C137.46988919 486.50302664 135.38469428 486.50714361 133.29949951 486.51132774 C123.49909745 486.53037547 113.69870288 486.54460584 103.89828587 486.55293971 C92.60525621 486.56270258 81.31242305 486.5889991 70.01946259 486.62944061 C61.27867726 486.65966223 52.53794805 486.67441443 43.79711151 486.67772073 C38.58257826 486.68006482 33.36825503 486.68894142 28.15377808 486.7141819 C23.24204697 486.73757276 18.33066251 486.74165179 13.41889 486.73142052 C11.62472056 486.73092767 9.83053342 486.73717322 8.03641701 486.75097656 C-7.93256566 486.86687549 -20.90872207 484.64637827 -33.06600952 473.41694641 C-40.56118173 465.55104526 -44.18893358 456.00104265 -44.20413685 445.27117062 C-44.20648908 444.5641106 -44.20884131 443.85705058 -44.21126482 443.12856451 C-44.21794859 440.74729507 -44.21749678 438.36608028 -44.21708679 435.98480225 C-44.22038581 434.26502225 -44.22411145 432.54524302 -44.22822827 430.82546479 C-44.23825217 426.08987991 -44.2419657 421.35430772 -44.24461758 416.61871374 C-44.24851949 411.51490768 -44.25809793 406.41111166 -44.26683044 401.30731201 C-44.28659832 388.97659943 -44.29666159 376.64588602 -44.30555823 364.31516156 C-44.30994071 358.50925127 -44.31530763 352.70334189 -44.3205471 346.89743233 C-44.3375599 327.5985594 -44.35205416 308.29968704 -44.35929585 289.00080776 C-44.36120576 283.99197832 -44.36312609 278.98314888 -44.36508179 273.97431946 C-44.3658074 272.10692513 -44.3658074 272.10692513 -44.36654767 270.20180566 C-44.3748483 250.03390023 -44.40018558 229.86605412 -44.43266246 209.69817459 C-44.46572964 188.99503645 -44.48374431 168.29192846 -44.48694009 147.58876377 C-44.48910552 135.96359236 -44.49785914 124.33850743 -44.52340126 112.71336174 C-44.54510357 102.81294104 -44.55316096 92.91262783 -44.54343448 83.01218604 C-44.53888842 77.96172192 -44.54079394 72.91147958 -44.56019592 67.86104584 C-44.57781834 63.23382917 -44.57683726 58.60699625 -44.56129863 53.97977556 C-44.55892117 52.30945007 -44.56325329 50.63909808 -44.57512728 48.96881311 C-44.66953223 34.8072606 -42.2367115 22.99071944 -32.25741577 12.32319641 C-23.18635013 3.83736081 -12.33546234 -0.06610237 0 0 Z M35.93008423 14.26069641 C36.66394835 17.93001703 37.41177221 20.8927766 38.74258423 24.32319641 C39.05840454 25.15979797 39.37422485 25.99639954 39.69961548 26.85835266 C41.17841209 29.745527 42.34912159 31.26110527 44.93008423 33.26069641 C47.76070828 33.6553562 50.20238877 33.80822797 53.03164673 33.77827454 C54.25183502 33.78878845 54.25183502 33.78878845 55.49667358 33.79951477 C58.18315865 33.817107 60.86858862 33.80546805 63.55508423 33.79194641 C65.42308759 33.79464098 67.29108958 33.79852311 69.15908813 33.80354309 C73.07312378 33.80943979 76.98679417 33.80086969 80.90078735 33.78218079 C85.91818311 33.75939109 90.93472304 33.77251326 95.9520874 33.79647064 C99.80913747 33.810924 103.66598459 33.80632476 107.52304077 33.79595947 C109.37301739 33.79329091 111.22301242 33.79656652 113.07296753 33.80587769 C115.6586488 33.81603578 118.24294374 33.80055352 120.82852173 33.77827454 C121.59331848 33.78637146 122.35811523 33.79446838 123.14608765 33.80281067 C128.42303252 33.71856489 128.89583634 33.2949443 132.93008423 29.26069641 C134.91008423 24.31069641 136.89008423 19.36069641 138.93008423 14.26069641 C104.94008423 14.26069641 70.95008423 14.26069641 35.93008423 14.26069641 Z " fill="#000000" transform="translate(72.06991577148438,12.739303588867188)"/>
<path d="M0 0 C0.84295937 -0.0055344 1.68591873 -0.01106879 2.55442232 -0.0167709 C5.36580425 -0.03033323 8.17629161 -0.01543241 10.98765564 -0.00050354 C13.00848771 -0.00428829 15.02931719 -0.00978962 17.05014038 -0.01687622 C22.52940336 -0.03082673 28.0083522 -0.01966412 33.4875977 -0.00316501 C39.22365768 0.01069409 44.95969958 0.0042245 50.69577026 0.0007019 C60.32697101 -0.00199931 69.95804706 0.0114686 79.58921814 0.03465271 C90.72340508 0.06126937 101.85738365 0.06300678 112.99159151 0.05126435 C123.70503788 0.04048509 134.4184089 0.04667433 145.13184929 0.06081963 C149.69033528 0.06657736 154.24876609 0.06649841 158.80725288 0.06175423 C164.17450802 0.05698175 169.54153498 0.06709753 174.90874672 0.08870888 C176.87838217 0.09427292 178.84803956 0.09474556 180.81767654 0.08975601 C183.50638972 0.08379905 186.19440621 0.09631617 188.88305664 0.11352539 C189.6623401 0.10751535 190.44162356 0.1015053 191.24452168 0.09531313 C197.64530391 0.16980508 201.57005432 1.73431377 206.1280365 6.18870544 C211.22566396 12.87024453 210.66650871 21.39724572 210.63682556 29.38987732 C210.64208252 31.14262718 210.64208252 31.14262718 210.64744568 32.93078613 C210.65621806 36.77723708 210.65042959 40.62350276 210.6436615 44.46995544 C210.64500944 47.15220873 210.64694825 49.83445648 210.64945984 52.51670837 C210.65309015 58.13184094 210.648325 63.74692075 210.63877869 69.36204529 C210.62789592 75.83772049 210.63142216 82.31326971 210.6424315 88.78894186 C210.65153109 94.36626301 210.65277662 99.94354641 210.64755416 105.52087259 C210.64444911 108.84433296 210.64477929 112.16772174 210.65062714 115.49118042 C210.65571903 119.19838416 210.64794439 122.90534767 210.63682556 126.61253357 C210.64087402 127.70264236 210.64492249 128.79275116 210.64909363 129.91589355 C210.6085203 137.23644506 210.33218348 143.54206859 206.1905365 149.81370544 C200.62112747 155.13558518 195.22519671 155.94664325 187.84545898 155.8888855 C187.01207786 155.89427104 186.17869673 155.89965657 185.32006162 155.90520531 C182.54113853 155.9194571 179.76269365 155.91238808 176.98374939 155.90525818 C174.98586648 155.91096319 172.98798683 155.91792795 170.9901123 155.92605591 C165.57276 155.94398765 160.15556967 155.9428189 154.73819661 155.93711352 C150.21280485 155.93402179 145.6874442 155.94011394 141.16205686 155.94615227 C130.48508166 155.96019586 119.80818646 155.95863748 109.13121033 155.94725037 C98.12200196 155.93576828 87.11303718 155.94984683 76.10386091 155.97664684 C66.64548149 155.99880831 57.18717851 156.00544023 47.72877496 155.99957043 C42.0824201 155.99620087 36.43622138 155.99861609 30.78988838 156.01582146 C25.48004686 156.03129559 20.17056605 156.02732962 14.86073875 156.00851631 C12.91451206 156.0048318 10.96825861 156.00793485 9.02205658 156.0184021 C6.36015597 156.03162318 3.69944757 156.02005493 1.03759766 156.00241089 C-0.11091617 156.0168184 -0.11091617 156.0168184 -1.28263229 156.03151697 C-6.74846418 155.95724189 -11.08563627 154.61717447 -15.6219635 151.50120544 C-19.36466467 146.79883731 -20.74087759 143.19541238 -20.77586365 137.25897217 C-20.78446411 136.17256943 -20.79306458 135.08616669 -20.80192566 133.96684265 C-20.80618561 132.77460083 -20.81044556 131.58235901 -20.81483459 130.35398865 C-20.82301208 129.09843674 -20.83118958 127.84288483 -20.83961487 126.54928589 C-20.86580779 122.38354125 -20.88114166 118.21778672 -20.895401 114.05198669 C-20.90076216 112.6161314 -20.90613968 111.18027617 -20.91153336 109.74442101 C-20.93315978 103.76949719 -20.95189458 97.79457604 -20.96315575 91.81962299 C-20.97938272 83.26708798 -21.01253213 74.71500813 -21.06955659 66.16264468 C-21.10831444 60.14382533 -21.12779542 54.12512741 -21.13307631 48.10618657 C-21.13672239 44.51419064 -21.14866279 40.92268048 -21.18117905 37.33082008 C-21.21697876 33.31873855 -21.21287412 29.30762942 -21.20545959 25.2953949 C-21.22186493 24.11327423 -21.23827026 22.93115356 -21.25517273 21.71321106 C-21.20961115 15.68559656 -20.69577268 11.29283034 -17.37879372 6.19203472 C-11.99193025 1.00754599 -7.19108167 -0.08888764 0 0 Z M-6.6219635 16.50120544 C-6.6219635 20.13120544 -6.6219635 23.76120544 -6.6219635 27.50120544 C60.0380365 27.50120544 126.6980365 27.50120544 195.3780365 27.50120544 C195.3780365 23.87120544 195.3780365 20.24120544 195.3780365 16.50120544 C192.87242751 13.99559646 191.3655585 14.25946721 187.94692135 14.23371863 C187.18370351 14.23818008 186.42048567 14.24264152 185.63414001 14.24723816 C184.82529893 14.24411818 184.01645784 14.2409982 183.18310642 14.23778367 C180.45764562 14.22977073 177.73240543 14.23614007 175.00694275 14.24241638 C173.05917734 14.23970798 171.11141295 14.2361479 169.16365051 14.23179626 C163.86212545 14.22265204 158.56067793 14.22622488 153.25915146 14.23255444 C147.72138504 14.23760393 142.18362543 14.23292592 136.64585876 14.2297821 C127.34465844 14.22613938 118.04348983 14.23094957 108.74229431 14.24046326 C97.97568883 14.25134838 87.20915908 14.24782302 76.44255543 14.23681045 C67.21282965 14.22774627 57.98312673 14.22644803 48.75339794 14.23168778 C43.23463893 14.23481228 37.71591556 14.23520372 32.19715881 14.22861481 C27.00978663 14.22285459 21.82251246 14.22681386 16.63515091 14.23840332 C14.72672311 14.24105702 12.81828711 14.2402728 10.90986252 14.23587799 C8.31377308 14.23044898 5.71800189 14.23722422 3.12193298 14.24723816 C1.97710622 14.24054599 1.97710622 14.24054599 0.80915165 14.23371863 C-3.36292001 14.12753183 -3.36292001 14.12753183 -6.6219635 16.50120544 Z M-6.6219635 41.50120544 C-6.6219635 48.10120544 -6.6219635 54.70120544 -6.6219635 61.50120544 C60.0380365 61.50120544 126.6980365 61.50120544 195.3780365 61.50120544 C195.3780365 54.90120544 195.3780365 48.30120544 195.3780365 41.50120544 C128.7180365 41.50120544 62.0580365 41.50120544 -6.6219635 41.50120544 Z M-6.6219635 75.50120544 C-6.6219635 96.62120544 -6.6219635 117.74120544 -6.6219635 139.50120544 C-2.91225495 141.97434448 -0.08726852 141.78048459 4.20422363 141.75517273 C5.00983559 141.75829271 5.81544755 141.76141269 6.64547199 141.76462722 C9.35400794 141.77262596 12.06232101 141.76627632 14.77085876 141.75999451 C16.70891959 141.76270351 18.64697939 141.76626394 20.58503723 141.77061462 C25.85551251 141.77975101 31.1259097 141.77618938 36.39638638 141.76985645 C41.90345045 141.76480365 47.4105077 141.76948583 52.91757202 141.77262878 C62.16571762 141.77627023 71.41383129 141.77146434 80.66197205 141.76194763 C91.36668248 141.75105954 102.07131676 141.75459053 112.77602535 141.76560044 C121.95481634 141.77466442 131.13358434 141.77596306 140.31237835 141.7707231 C145.7998234 141.76759891 151.2872326 141.76720641 156.77467537 141.77379608 C161.93169232 141.77955611 167.08861066 141.77559738 172.24561691 141.76400757 C174.14275765 141.7613539 176.03990664 141.76213803 177.93704414 141.7665329 C180.51775402 141.77196197 183.09814377 141.76518664 185.67883301 141.75517273 C186.43747778 141.75963417 187.19612255 141.76409562 187.97775656 141.76869226 C192.13345195 141.87195691 192.13345195 141.87195691 195.3780365 139.50120544 C195.3780365 118.38120544 195.3780365 97.26120544 195.3780365 75.50120544 C128.7180365 75.50120544 62.0580365 75.50120544 -6.6219635 75.50120544 Z " fill="#000000" transform="translate(270.62196350097656,285.49879455566406)"/>
<path d="M0 0 C7.20879048 5.92722773 12.1553501 11.91350282 13.125 21.35546875 C13.45453749 30.13970259 11.88925668 37.51061989 6.5625 44.625 C0.07213275 50.96785891 -6.8289111 54.32733896 -15.9375 54.6875 C-24.87170736 54.49952782 -31.94927296 51.51713909 -38.4296875 45.3515625 C-44.22405518 38.63009599 -46.43810946 31.11021111 -46.1875 22.3125 C-45.12866648 14.1383052 -41.32384488 6.79685824 -35.1875 1.3125 C-23.56546804 -5.93264492 -12.16592876 -6.44078582 0 0 Z M-29.5625 17 C-31.66171689 21.2791729 -32.01968592 24.63040346 -31.1875 29.3125 C-28.97091426 33.6635757 -26.3567059 36.75412365 -22.1875 39.3125 C-16.46313606 40.81397251 -13.07848795 40.50791541 -7.94921875 37.53515625 C-4.6538557 35.24813045 -2.73295027 33.17344797 -1.58984375 29.2734375 C-0.68758293 24.17522587 -1.27145382 20.51102249 -3.90234375 16.04296875 C-6.55641482 12.46924996 -9.15089624 10.63092665 -13.5859375 9.9375 C-20.85377614 9.58829454 -24.70901898 11.50790306 -29.5625 17 Z " fill="#000000" transform="translate(298.1875,98.6875)"/>
<path d="M0 0 C1.25251556 -0.0071553 2.50503113 -0.01431061 3.79550171 -0.02168274 C7.22359573 -0.03568229 10.65017855 -0.02727529 14.07814908 -0.00759244 C17.66774457 0.00881092 21.25729136 -0.000021 24.84690857 -0.00511169 C30.87348866 -0.00963022 36.89975813 0.00622334 42.92626953 0.03417969 C49.89230815 0.06624537 56.85778704 0.06620966 63.82386547 0.04896492 C70.5285675 0.03309918 77.23306444 0.03983263 83.93775749 0.05690193 C86.78978883 0.06377182 89.64165575 0.06274079 92.49368477 0.05535698 C96.4751735 0.04627068 100.45608727 0.07023128 104.4375 0.09765625 C105.62150894 0.09113037 106.80551788 0.08460449 108.02540588 0.07788086 C109.10910461 0.09060532 110.19280334 0.10332977 111.30934143 0.11643982 C112.25045053 0.11924674 113.19155962 0.12205366 114.16118717 0.12494564 C117.43475292 0.7896189 118.63236847 2.01580761 120.65405273 4.63110352 C121.3864482 10.59489514 121.3864482 10.59489514 119.45882416 13.32213783 C116.99841784 15.10662278 115.36717972 15.00848574 112.34020996 15.01205444 C111.23816727 15.02051392 110.13612457 15.02897339 109.00068665 15.03768921 C107.18651497 15.02858017 107.18651497 15.02858017 105.33569336 15.01928711 C104.06235641 15.02454407 102.78901947 15.02980103 101.47709656 15.03521729 C97.98329563 15.04890592 94.48976015 15.04358603 90.99595451 15.03408003 C87.34181878 15.02649137 83.68770595 15.03352683 80.03356934 15.03823853 C73.89676833 15.04369841 67.76007559 15.03649842 61.62329102 15.0222168 C54.52557464 15.00588976 47.42811678 15.01117811 40.33040667 15.02769601 C34.23945669 15.04130431 28.1485846 15.04323378 22.05762434 15.03538001 C18.41844412 15.03069984 14.77938545 15.03008795 11.14021301 15.03998947 C7.0841233 15.05025422 3.02848016 15.03603254 -1.02758789 15.01928711 C-2.84175957 15.02839615 -2.84175957 15.02839615 -4.69258118 15.03768921 C-5.79462387 15.02922974 -6.89666656 15.02077026 -8.03210449 15.01205444 C-9.47117031 15.01035783 -9.47117031 15.01035783 -10.93930817 15.00862694 C-13.78990583 14.56146085 -14.64424717 13.92128769 -16.34594727 11.63110352 C-17.34594727 8.75610352 -17.34594727 8.75610352 -17.34594727 5.63110352 C-13.05903994 -0.95626354 -7.28712729 -0.07208431 0 0 Z " fill="#000000" transform="translate(106.345947265625,457.368896484375)"/>
<path d="M0 0 C6.29307757 3.67871201 10.76495676 8.65025562 13.02734375 15.640625 C15.15310666 25.97077863 13.00557695 33.57602937 7.375 42.1875 C1.41936757 47.88419189 -4.29849018 50.24119192 -12.5625 50.5 C-20.73882344 50.16301487 -26.35928806 48.17796486 -32.375 42.625 C-38.10577191 36.35033539 -39.66062593 29.26710164 -39.5 20.9375 C-38.44967317 13.36173838 -35.18974282 7.98598082 -29.5 2.9375 C-20.90232333 -3.14077551 -9.67950801 -4.49353112 0 0 Z M-22.5 15.9375 C-24.84781141 18.92562362 -24.91825081 22.15661188 -24.8203125 25.90625 C-24.17496059 29.99872552 -21.92442851 32.85689906 -18.6875 35.3125 C-14.00341799 36.65080915 -10.61569394 36.49534697 -6.25 34.3125 C-3.14473677 31.63068176 -1.79660174 29.82730521 -0.5 25.9375 C-0.59296244 20.63864083 -1.75507094 17.68242906 -5.5 13.9375 C-11.32200981 9.72156186 -17.39013842 11.65947635 -22.5 15.9375 Z " fill="#000000" transform="translate(311.5,371.0625)"/>
<path d="M0 0 C0.84679321 0.00090637 1.69358643 0.00181274 2.56604004 0.00274658 C3.9028331 -0.00732925 3.9028331 -0.00732925 5.26663208 -0.01760864 C8.22342448 -0.036663 11.17999078 -0.04051666 14.13684082 -0.04266357 C16.18706355 -0.04908664 18.23728534 -0.05581462 20.2875061 -0.06283569 C24.59000779 -0.0748273 28.89242907 -0.07851461 33.19494629 -0.07733154 C38.71228342 -0.07712832 44.22910565 -0.10442584 49.74632072 -0.13887596 C53.98249689 -0.16109819 58.21854827 -0.16517051 62.45477676 -0.16411209 C64.48898213 -0.16647529 66.52319056 -0.17533903 68.55733871 -0.19077682 C71.40175299 -0.21034099 74.24504576 -0.20463637 77.08947754 -0.19256592 C77.93222229 -0.20380493 78.77496704 -0.21504395 79.64324951 -0.22662354 C83.27432492 -0.18740557 85.50726473 -0.02512639 88.51138306 2.10098267 C89.95715332 4.29327393 89.95715332 4.29327393 89.95715332 7.85577393 C88.95715332 11.29327393 88.95715332 11.29327393 87.42869568 12.98187256 C83.8427187 14.88459338 80.37573027 14.72753533 76.41247559 14.7131958 C75.12154495 14.72590012 75.12154495 14.72590012 73.80453491 14.73886108 C70.96072599 14.76225285 68.11745741 14.76325274 65.27355957 14.76202393 C63.29585045 14.76912409 61.3181434 14.77682287 59.34043884 14.78509521 C55.19528477 14.79854496 51.05032116 14.80010651 46.90515137 14.79425049 C41.59408361 14.78835337 36.28392965 14.8189443 30.97303867 14.85936737 C26.88863707 14.88522077 22.8044562 14.88812393 18.71998405 14.88447571 C16.76195923 14.88616911 14.80392445 14.89583273 12.84597969 14.91362 C10.1071067 14.93576373 7.37009239 14.92613177 4.63122559 14.9085083 C3.41929283 14.92840317 3.41929283 14.92840317 2.18287659 14.94869995 C-2.01941514 14.88589243 -3.62238418 14.61185865 -7.08888245 11.98529053 C-9.04284668 9.29327393 -9.04284668 9.29327393 -8.98034668 5.60577393 C-7.39921231 0.01909916 -5.46436075 0.06044947 0 0 Z " fill="#000000" transform="translate(364.0428466796875,372.70672607421875)"/>
<path d="M0 0 C1.30534195 -0.01270432 1.30534195 -0.01270432 2.63705444 -0.02566528 C5.51876371 -0.04909717 8.39994088 -0.05005588 11.28173828 -0.04882812 C13.28329686 -0.05592664 15.2848534 -0.06362518 17.28640747 -0.07189941 C21.48461561 -0.08535894 25.68263567 -0.08690668 29.88085938 -0.08105469 C35.26033288 -0.07516127 40.63890304 -0.10572867 46.01820183 -0.14617157 C50.15321717 -0.17202646 54.28801449 -0.17492791 58.42309952 -0.17127991 C60.40624383 -0.17297364 62.38939793 -0.18264043 64.37246323 -0.20042419 C67.14735993 -0.22256726 69.92042191 -0.21293563 72.6953125 -0.1953125 C73.51418945 -0.20857574 74.33306641 -0.22183899 75.17675781 -0.23550415 C79.4289633 -0.17277529 81.03531586 0.08043529 84.52590942 2.76306152 C86.47705078 5.41992188 86.47705078 5.41992188 86.47705078 8.54492188 C85.45934285 11.47083218 84.83842099 12.52361226 82.47705078 14.41992188 C79.5305319 14.72143668 76.79456554 14.83989053 73.84643555 14.82397461 C72.5240538 14.83426949 72.5240538 14.83426949 71.17495728 14.84477234 C68.25596078 14.8630984 65.3374988 14.85919451 62.41845703 14.85351562 C60.39208297 14.85807474 58.36571046 14.8633795 56.33934021 14.86940002 C52.08985111 14.87834262 47.84054983 14.87589504 43.59106445 14.8659668 C38.14210515 14.85447754 32.69379391 14.87468229 27.24491978 14.90388393 C23.05934014 14.92222006 18.87391652 14.9219586 14.68830681 14.91624641 C12.67923003 14.91609287 10.67014289 14.92216423 8.6611042 14.93453789 C5.85267484 14.94939665 3.04545185 14.93880849 0.23706055 14.92163086 C-0.59476242 14.93129883 -1.42658539 14.9409668 -2.28361511 14.95092773 C-5.89156397 14.90465922 -8.0920769 14.72536866 -11.07435608 12.61122131 C-12.52294922 10.41992188 -12.52294922 10.41992188 -12.46044922 6.85742188 C-10.52778477 -0.22901442 -6.67069546 -0.02375569 0 0 Z " fill="#000000" transform="translate(367.52294921875,397.580078125)"/>
</svg>
