<svg id="Layer_1" data-name="Layer 1" xmlns="http://www.w3.org/2000/svg" viewBox="0 0 575.98 511.99"><title>wiseAi</title><path d="M160,0a32,32,0,0,1,32,32V64H320a32,32,0,0,1,0,64h-9.6L302,151.1a384.11,384.11,0,0,1-72.2,122,375.85,375.85,0,0,0,44.4,23.5L324.6,319l62.2-140a31.94,31.94,0,0,1,58.4,0l128,288a32,32,0,1,1-58.4,26l-20-45H337.3l-20,45a32,32,0,1,1-58.4-26l39.8-89.5-50.4-22.4a430.17,430.17,0,0,1-65.8-36.4A386.86,386.86,0,0,1,113,363.4L78.3,380.6a32,32,0,0,1-28.6-57.2l34.5-17.3a336.12,336.12,0,0,0,46.4-28.3,430,430,0,0,1-38.9-40.9L81.6,224.7a32,32,0,0,1,49.2-41L141,195.9a360.19,360.19,0,0,0,37.4,38.7,320.42,320.42,0,0,0,63.5-105.4l.5-1.2H32.1A32,32,0,1,1,32,64h96V32A32,32,0,0,1,160,0ZM416,270.8,365.7,384H466.3Z"/></svg>